G75*
%MOIN*%
%OFA0B0*%
%FSLAX25Y25*%
%IPPOS*%
%LPD*%
%AMOC8*
5,1,8,0,0,1.08239X$1,22.5*
%
%ADD10OC8,0.05194*%
%ADD11R,0.06694X0.04994*%
%ADD12OC8,0.05794*%
%ADD13OC8,0.06394*%
%ADD14R,0.00600X0.07200*%
%ADD15R,0.04994X0.06694*%
%ADD16C,0.03956*%
D10*
X0036345Y0054083D03*
X0046345Y0054083D03*
X0056345Y0054083D03*
X0066345Y0054083D03*
X0076345Y0054083D03*
X0086345Y0054083D03*
X0096345Y0054083D03*
X0106345Y0054083D03*
X0116345Y0054083D03*
X0126345Y0054083D03*
X0136345Y0054083D03*
X0146345Y0054083D03*
X0156345Y0054083D03*
X0166345Y0054083D03*
X0126345Y0069083D03*
X0116345Y0069083D03*
X0106345Y0069083D03*
X0096345Y0069083D03*
X0086345Y0069083D03*
X0076345Y0069083D03*
X0066345Y0069083D03*
X0056345Y0069083D03*
X0022595Y0094083D03*
X0022595Y0104083D03*
X0036345Y0114083D03*
X0046345Y0114083D03*
X0056345Y0114083D03*
X0066345Y0114083D03*
X0076345Y0114083D03*
X0086345Y0114083D03*
X0096345Y0114083D03*
X0106345Y0114083D03*
X0116345Y0114083D03*
X0126345Y0114083D03*
X0136345Y0114083D03*
X0146345Y0114083D03*
X0156345Y0114083D03*
X0166345Y0114083D03*
X0181345Y0134083D03*
X0156345Y0144083D03*
X0146345Y0134083D03*
X0136345Y0134083D03*
X0126345Y0144083D03*
X0116345Y0144083D03*
X0106345Y0134083D03*
X0096345Y0134083D03*
X0086345Y0144083D03*
X0076345Y0144083D03*
X0066345Y0134083D03*
X0056345Y0134083D03*
X0046345Y0144083D03*
X0046345Y0154083D03*
X0036345Y0154083D03*
X0026345Y0154083D03*
X0026345Y0164083D03*
X0036345Y0164083D03*
X0046345Y0164083D03*
X0046345Y0174083D03*
X0031345Y0176583D03*
X0026345Y0184083D03*
X0036345Y0184083D03*
X0046345Y0184083D03*
X0046345Y0194083D03*
X0046345Y0204083D03*
X0036345Y0204083D03*
X0026345Y0204083D03*
X0031345Y0211583D03*
X0026345Y0219083D03*
X0036345Y0219083D03*
X0046345Y0221583D03*
X0036345Y0229083D03*
X0026345Y0229083D03*
X0046345Y0231583D03*
X0061345Y0234083D03*
X0061345Y0224083D03*
X0075095Y0232833D03*
X0105095Y0232833D03*
X0116345Y0214083D03*
X0116345Y0204083D03*
X0126345Y0204083D03*
X0126345Y0194083D03*
X0116345Y0194083D03*
X0116345Y0184083D03*
X0126345Y0184083D03*
X0126345Y0174083D03*
X0116345Y0174083D03*
X0116345Y0164083D03*
X0126345Y0164083D03*
X0126345Y0154083D03*
X0116345Y0154083D03*
X0086345Y0154083D03*
X0076345Y0154083D03*
X0076345Y0164083D03*
X0086345Y0164083D03*
X0086345Y0174083D03*
X0076345Y0174083D03*
X0076345Y0184083D03*
X0086345Y0184083D03*
X0086345Y0194083D03*
X0076345Y0194083D03*
X0076345Y0204083D03*
X0086345Y0204083D03*
X0086345Y0214083D03*
X0076345Y0214083D03*
X0046345Y0214083D03*
X0156345Y0204083D03*
X0156345Y0194083D03*
X0166345Y0194083D03*
X0156345Y0184083D03*
X0156345Y0174083D03*
X0156345Y0164083D03*
X0166345Y0164083D03*
X0181345Y0164083D03*
X0156345Y0154083D03*
X0216345Y0164083D03*
X0226345Y0164083D03*
X0236345Y0164083D03*
X0246345Y0164083D03*
X0256345Y0164083D03*
X0266345Y0164083D03*
X0276345Y0164083D03*
X0286345Y0164083D03*
X0296345Y0164083D03*
X0306345Y0164083D03*
X0316345Y0164083D03*
X0326345Y0164083D03*
X0336345Y0164083D03*
X0346345Y0164083D03*
X0356345Y0164083D03*
X0366345Y0164083D03*
X0376345Y0164083D03*
X0386345Y0164083D03*
X0396345Y0164083D03*
X0406345Y0164083D03*
X0416345Y0164083D03*
X0416345Y0174083D03*
X0406345Y0174083D03*
X0396345Y0174083D03*
X0386345Y0174083D03*
X0376345Y0174083D03*
X0366345Y0174083D03*
X0356345Y0174083D03*
X0346345Y0174083D03*
X0336345Y0174083D03*
X0326345Y0174083D03*
X0316345Y0174083D03*
X0306345Y0174083D03*
X0296345Y0174083D03*
X0286345Y0174083D03*
X0276345Y0174083D03*
X0266345Y0174083D03*
X0256345Y0174083D03*
X0246345Y0174083D03*
X0236345Y0174083D03*
X0226345Y0174083D03*
X0216345Y0174083D03*
X0246345Y0184083D03*
X0256345Y0184083D03*
X0266345Y0184083D03*
X0276345Y0184083D03*
X0286345Y0184083D03*
X0296345Y0184083D03*
X0306345Y0184083D03*
X0326345Y0184083D03*
X0336345Y0184083D03*
X0346345Y0184083D03*
X0356345Y0184083D03*
X0366345Y0184083D03*
X0376345Y0184083D03*
X0386345Y0184083D03*
X0396345Y0184083D03*
X0396345Y0214083D03*
X0386345Y0214083D03*
X0376345Y0214083D03*
X0366345Y0214083D03*
X0356345Y0214083D03*
X0346345Y0214083D03*
X0336345Y0214083D03*
X0326345Y0214083D03*
X0326345Y0224083D03*
X0316345Y0224083D03*
X0306345Y0224083D03*
X0296345Y0224083D03*
X0286345Y0224083D03*
X0276345Y0224083D03*
X0266345Y0224083D03*
X0256345Y0224083D03*
X0246345Y0224083D03*
X0236345Y0224083D03*
X0226345Y0224083D03*
X0216345Y0224083D03*
X0226345Y0234083D03*
X0236345Y0234083D03*
X0246345Y0234083D03*
X0256345Y0234083D03*
X0266345Y0234083D03*
X0276345Y0234083D03*
X0286345Y0234083D03*
X0296345Y0234083D03*
X0306345Y0234083D03*
X0316345Y0234083D03*
X0326345Y0234083D03*
X0336345Y0234083D03*
X0346345Y0234083D03*
X0356345Y0234083D03*
X0366345Y0234083D03*
X0376345Y0234083D03*
X0386345Y0234083D03*
X0396345Y0234083D03*
X0406345Y0234083D03*
X0416345Y0234083D03*
X0416345Y0224083D03*
X0406345Y0224083D03*
X0396345Y0224083D03*
X0386345Y0224083D03*
X0376345Y0224083D03*
X0366345Y0224083D03*
X0356345Y0224083D03*
X0346345Y0224083D03*
X0336345Y0224083D03*
X0336345Y0244083D03*
X0326345Y0244083D03*
X0316345Y0244083D03*
X0306345Y0244083D03*
X0346345Y0244083D03*
X0356345Y0244083D03*
X0366345Y0244083D03*
X0376345Y0244083D03*
X0386345Y0244083D03*
X0396345Y0244083D03*
X0406345Y0244083D03*
X0416345Y0244083D03*
X0306345Y0214083D03*
X0296345Y0214083D03*
X0286345Y0214083D03*
X0276345Y0214083D03*
X0266345Y0214083D03*
X0256345Y0214083D03*
X0246345Y0214083D03*
X0216345Y0214083D03*
X0226345Y0154083D03*
X0236345Y0154083D03*
X0246345Y0154083D03*
X0256345Y0154083D03*
X0266345Y0154083D03*
X0276345Y0154083D03*
X0286345Y0154083D03*
X0296345Y0154083D03*
X0306345Y0154083D03*
X0316345Y0154083D03*
X0326345Y0154083D03*
X0336345Y0154083D03*
X0371345Y0152833D03*
X0371345Y0142833D03*
X0391345Y0142833D03*
X0391345Y0152833D03*
X0422595Y0154083D03*
X0422595Y0144083D03*
X0356345Y0104083D03*
X0346345Y0104083D03*
X0336345Y0104083D03*
X0326345Y0104083D03*
X0316345Y0104083D03*
X0306345Y0104083D03*
X0296345Y0104083D03*
X0286345Y0104083D03*
X0276345Y0104083D03*
X0266345Y0104083D03*
X0256345Y0104083D03*
X0246345Y0104083D03*
X0236345Y0104083D03*
X0226345Y0104083D03*
X0226345Y0114083D03*
X0236345Y0114083D03*
X0236345Y0124083D03*
X0226345Y0124083D03*
X0246345Y0124083D03*
X0256345Y0124083D03*
X0266345Y0124083D03*
X0276345Y0124083D03*
X0286345Y0124083D03*
X0296345Y0124083D03*
X0306345Y0124083D03*
X0316345Y0124083D03*
X0326345Y0124083D03*
X0336345Y0124083D03*
X0336345Y0114083D03*
X0326345Y0114083D03*
X0316345Y0114083D03*
X0306345Y0114083D03*
X0296345Y0114083D03*
X0286345Y0114083D03*
X0286345Y0044083D03*
X0276345Y0044083D03*
X0266345Y0044083D03*
X0256345Y0044083D03*
X0246345Y0044083D03*
X0236345Y0044083D03*
X0226345Y0044083D03*
X0296345Y0044083D03*
X0306345Y0044083D03*
X0316345Y0044083D03*
X0326345Y0044083D03*
X0336345Y0044083D03*
X0346345Y0044083D03*
X0356345Y0044083D03*
X0126345Y0099083D03*
X0116345Y0099083D03*
X0106345Y0099083D03*
X0096345Y0099083D03*
X0086345Y0099083D03*
X0076345Y0099083D03*
X0066345Y0099083D03*
X0056345Y0099083D03*
D11*
X0135095Y0186833D03*
X0135095Y0192833D03*
X0135095Y0198833D03*
X0147595Y0198833D03*
X0147595Y0192833D03*
X0147595Y0186833D03*
D12*
X0022595Y0074083D03*
X0022595Y0064083D03*
D13*
X0036345Y0124083D03*
X0036345Y0134083D03*
X0036345Y0144083D03*
X0191345Y0144083D03*
X0191345Y0134083D03*
X0201345Y0134083D03*
X0201345Y0144083D03*
X0201345Y0154083D03*
X0191345Y0154083D03*
X0191345Y0164083D03*
X0201345Y0164083D03*
X0201345Y0174083D03*
X0191345Y0174083D03*
X0191345Y0184083D03*
X0201345Y0184083D03*
X0201345Y0124083D03*
X0191345Y0124083D03*
X0351345Y0124083D03*
X0361345Y0124083D03*
X0361345Y0114083D03*
X0351345Y0114083D03*
X0351345Y0134083D03*
X0361345Y0134083D03*
X0361345Y0144083D03*
X0351345Y0144083D03*
X0351345Y0154083D03*
X0361345Y0154083D03*
X0402595Y0154083D03*
X0412595Y0154083D03*
X0412595Y0144083D03*
X0402595Y0144083D03*
D14*
X0357595Y0199083D03*
X0348495Y0072233D03*
D15*
X0345495Y0072233D03*
X0351495Y0072233D03*
X0354595Y0199083D03*
X0360595Y0199083D03*
D16*
X0027595Y0050333D03*
X0021345Y0055333D03*
X0046345Y0077833D03*
X0066345Y0077833D03*
X0066345Y0090333D03*
X0076345Y0090333D03*
X0085095Y0090333D03*
X0095095Y0090333D03*
X0105095Y0090333D03*
X0115095Y0090333D03*
X0121345Y0094083D03*
X0125095Y0089083D03*
X0132595Y0087833D03*
X0135095Y0084083D03*
X0132595Y0080333D03*
X0135095Y0076583D03*
X0132595Y0072833D03*
X0158845Y0089083D03*
X0166345Y0087833D03*
X0151345Y0090333D03*
X0141345Y0091583D03*
X0135095Y0094083D03*
X0173845Y0114083D03*
X0190095Y0102833D03*
X0215245Y0105383D03*
X0241345Y0109083D03*
X0252595Y0115333D03*
X0258845Y0116583D03*
X0271345Y0116583D03*
X0271345Y0131583D03*
X0258845Y0139083D03*
X0246345Y0146583D03*
X0213845Y0125333D03*
X0206345Y0139083D03*
X0183845Y0129083D03*
X0167595Y0129083D03*
X0161345Y0134083D03*
X0155095Y0134083D03*
X0163845Y0142833D03*
X0173845Y0150333D03*
X0167595Y0156583D03*
X0172595Y0161583D03*
X0186345Y0169083D03*
X0180095Y0171583D03*
X0175095Y0171583D03*
X0175095Y0176583D03*
X0163845Y0174083D03*
X0166345Y0185333D03*
X0173845Y0185333D03*
X0186345Y0197833D03*
X0193845Y0202833D03*
X0187595Y0206583D03*
X0182595Y0207833D03*
X0177595Y0209083D03*
X0172595Y0207833D03*
X0166345Y0204083D03*
X0171345Y0200333D03*
X0147595Y0204083D03*
X0141345Y0205333D03*
X0135095Y0204083D03*
X0145095Y0219083D03*
X0144862Y0239545D03*
X0163612Y0239545D03*
X0181112Y0239545D03*
X0178845Y0229083D03*
X0183845Y0229083D03*
X0195095Y0224083D03*
X0196345Y0219083D03*
X0202595Y0224083D03*
X0198612Y0239545D03*
X0214846Y0239315D03*
X0235845Y0251333D03*
X0246295Y0251183D03*
X0265095Y0242833D03*
X0281345Y0242833D03*
X0291345Y0239083D03*
X0296345Y0242833D03*
X0301345Y0239083D03*
X0310095Y0206583D03*
X0316345Y0206583D03*
X0302595Y0201583D03*
X0296345Y0201583D03*
X0291345Y0191583D03*
X0281345Y0180333D03*
X0316345Y0184083D03*
X0318845Y0191583D03*
X0328845Y0196583D03*
X0335095Y0192833D03*
X0340095Y0206583D03*
X0348845Y0206583D03*
X0358845Y0206583D03*
X0376345Y0205333D03*
X0388845Y0204083D03*
X0401345Y0199083D03*
X0406345Y0202833D03*
X0411345Y0207833D03*
X0406345Y0214083D03*
X0422595Y0216583D03*
X0422595Y0202833D03*
X0405095Y0192833D03*
X0396345Y0191583D03*
X0411345Y0184083D03*
X0422595Y0187833D03*
X0377595Y0195333D03*
X0375095Y0219083D03*
X0367595Y0219083D03*
X0421345Y0240333D03*
X0376345Y0251583D03*
X0361345Y0251583D03*
X0253845Y0204083D03*
X0236345Y0195333D03*
X0208845Y0190333D03*
X0208845Y0157833D03*
X0146345Y0144083D03*
X0136345Y0144083D03*
X0126345Y0135333D03*
X0132595Y0126583D03*
X0126345Y0121583D03*
X0120095Y0124083D03*
X0107595Y0126583D03*
X0086345Y0130333D03*
X0067595Y0126583D03*
X0065095Y0142833D03*
X0061345Y0149083D03*
X0068845Y0154083D03*
X0066345Y0164083D03*
X0071345Y0169083D03*
X0056345Y0174083D03*
X0040095Y0170333D03*
X0066345Y0185333D03*
X0056345Y0192833D03*
X0052595Y0187833D03*
X0040095Y0190333D03*
X0023845Y0194083D03*
X0023845Y0210333D03*
X0040095Y0210333D03*
X0053845Y0214083D03*
X0061345Y0214083D03*
X0066345Y0204083D03*
X0061345Y0199083D03*
X0055095Y0204083D03*
X0077595Y0224083D03*
X0085095Y0231583D03*
X0095095Y0224083D03*
X0105095Y0224083D03*
X0103845Y0217833D03*
X0110095Y0207833D03*
X0107595Y0199083D03*
X0100095Y0195333D03*
X0096345Y0191583D03*
X0091345Y0199083D03*
X0093845Y0184083D03*
X0105095Y0185333D03*
X0108845Y0179083D03*
X0092595Y0169083D03*
X0102595Y0152833D03*
X0110095Y0150333D03*
X0135095Y0165333D03*
X0140095Y0170333D03*
X0136345Y0181583D03*
X0147595Y0181583D03*
X0126112Y0239545D03*
X0107362Y0239545D03*
X0088612Y0239545D03*
X0069862Y0239545D03*
X0053612Y0239545D03*
X0034862Y0239545D03*
X0023845Y0136583D03*
X0023845Y0120333D03*
X0046345Y0105333D03*
X0037595Y0094083D03*
X0051345Y0090333D03*
X0066345Y0106583D03*
X0091345Y0049083D03*
X0111345Y0049083D03*
X0131345Y0049083D03*
X0151345Y0049083D03*
X0172595Y0049083D03*
X0197595Y0066583D03*
X0201345Y0069083D03*
X0205095Y0071583D03*
X0210395Y0074083D03*
X0215695Y0076683D03*
X0236345Y0075083D03*
X0242095Y0074033D03*
X0256345Y0071583D03*
X0266345Y0069083D03*
X0276345Y0066583D03*
X0286345Y0064083D03*
X0296345Y0061583D03*
X0306345Y0059083D03*
X0316345Y0057833D03*
X0318845Y0065333D03*
X0326345Y0057833D03*
X0331345Y0065333D03*
X0336345Y0057833D03*
X0342595Y0065333D03*
X0354745Y0060733D03*
X0363845Y0055333D03*
X0363845Y0040333D03*
X0341345Y0040333D03*
X0321345Y0040333D03*
X0301345Y0040333D03*
X0281345Y0040333D03*
X0261345Y0040333D03*
X0212795Y0042233D03*
X0191345Y0075333D03*
X0256345Y0094083D03*
X0266345Y0096583D03*
X0291345Y0091583D03*
X0301345Y0089083D03*
X0313845Y0090333D03*
X0317595Y0085333D03*
X0321345Y0080333D03*
X0331345Y0085333D03*
X0326345Y0089083D03*
X0342595Y0089083D03*
X0348845Y0085333D03*
X0346545Y0095233D03*
X0363845Y0090333D03*
X0363845Y0072833D03*
X0301345Y0135333D03*
X0305095Y0141583D03*
X0296345Y0141583D03*
X0286345Y0141583D03*
X0316345Y0137833D03*
X0326345Y0139083D03*
X0336345Y0144083D03*
X0346345Y0149083D03*
X0241345Y0119083D03*
M02*
