G75*
%MOIN*%
%OFA0B0*%
%FSLAX25Y25*%
%IPPOS*%
%LPD*%
%AMOC8*
5,1,8,0,0,1.08239X$1,22.5*
%
%ADD10C,0.00700*%
%ADD11C,0.00400*%
%ADD12C,0.00500*%
%ADD13C,0.00300*%
%ADD14C,0.00600*%
D10*
X0145075Y0079433D02*
X0145075Y0080484D01*
X0145075Y0082586D02*
X0145075Y0086790D01*
X0148321Y0085739D02*
X0148321Y0079433D01*
X0149372Y0079433D02*
X0147270Y0079433D01*
X0151567Y0079433D02*
X0153669Y0079433D01*
X0152618Y0079433D02*
X0152618Y0085739D01*
X0153669Y0085739D01*
X0155911Y0082586D02*
X0155911Y0081535D01*
X0160115Y0081535D01*
X0160115Y0080484D02*
X0160115Y0082586D01*
X0159064Y0083637D01*
X0156962Y0083637D01*
X0155911Y0082586D01*
X0156962Y0079433D02*
X0159064Y0079433D01*
X0160115Y0080484D01*
X0162356Y0080484D02*
X0163407Y0081535D01*
X0165509Y0081535D01*
X0166560Y0082586D01*
X0165509Y0083637D01*
X0162356Y0083637D01*
X0162356Y0080484D02*
X0163407Y0079433D01*
X0166560Y0079433D01*
X0168802Y0080484D02*
X0169853Y0081535D01*
X0171955Y0081535D01*
X0173006Y0082586D01*
X0171955Y0083637D01*
X0168802Y0083637D01*
X0168802Y0080484D02*
X0169853Y0079433D01*
X0173006Y0079433D01*
X0175247Y0079433D02*
X0175247Y0083637D01*
X0175247Y0079433D02*
X0178400Y0079433D01*
X0179451Y0080484D01*
X0179451Y0083637D01*
X0181670Y0083637D02*
X0182721Y0083637D01*
X0184822Y0081535D01*
X0184822Y0079433D02*
X0184822Y0083637D01*
X0187064Y0082586D02*
X0187064Y0079433D01*
X0190217Y0079433D01*
X0191268Y0080484D01*
X0190217Y0081535D01*
X0187064Y0081535D01*
X0187064Y0082586D02*
X0188115Y0083637D01*
X0190217Y0083637D01*
X0193486Y0083637D02*
X0196639Y0081535D01*
X0193486Y0079433D01*
X0196639Y0079433D02*
X0196639Y0085739D01*
X0198881Y0082586D02*
X0198881Y0079433D01*
X0198881Y0082586D02*
X0199932Y0083637D01*
X0203085Y0083637D01*
X0203085Y0079433D01*
X0205326Y0081535D02*
X0209530Y0081535D01*
X0209530Y0080484D02*
X0209530Y0082586D01*
X0208479Y0083637D01*
X0206377Y0083637D01*
X0205326Y0082586D01*
X0205326Y0081535D01*
X0206377Y0079433D02*
X0208479Y0079433D01*
X0209530Y0080484D01*
X0211749Y0079433D02*
X0214901Y0081535D01*
X0211749Y0083637D01*
X0214901Y0085739D02*
X0214901Y0079433D01*
X0217143Y0079433D02*
X0220296Y0079433D01*
X0221347Y0080484D01*
X0221347Y0082586D01*
X0220296Y0083637D01*
X0217143Y0083637D01*
X0223589Y0082586D02*
X0223589Y0081535D01*
X0227792Y0081535D01*
X0227792Y0080484D02*
X0227792Y0082586D01*
X0226741Y0083637D01*
X0224640Y0083637D01*
X0223589Y0082586D01*
X0224640Y0079433D02*
X0226741Y0079433D01*
X0227792Y0080484D01*
X0230034Y0079433D02*
X0230034Y0082586D01*
X0231085Y0083637D01*
X0234238Y0083637D01*
X0234238Y0079433D01*
X0236480Y0079433D02*
X0236480Y0082586D01*
X0237531Y0083637D01*
X0239632Y0083637D01*
X0240683Y0082586D01*
X0242925Y0083637D02*
X0246078Y0083637D01*
X0247129Y0082586D01*
X0247129Y0080484D01*
X0246078Y0079433D01*
X0242925Y0079433D01*
X0240683Y0079433D02*
X0240683Y0085739D01*
X0249371Y0084688D02*
X0250422Y0085739D01*
X0252523Y0085739D01*
X0253574Y0084688D01*
X0253574Y0083637D01*
X0252523Y0082586D01*
X0250422Y0082586D01*
X0249371Y0081535D01*
X0249371Y0080484D01*
X0250422Y0079433D01*
X0252523Y0079433D01*
X0253574Y0080484D01*
X0262262Y0081535D02*
X0266465Y0081535D01*
X0266465Y0080484D02*
X0266465Y0082586D01*
X0265414Y0083637D01*
X0263313Y0083637D01*
X0262262Y0082586D01*
X0262262Y0081535D01*
X0263313Y0079433D02*
X0265414Y0079433D01*
X0266465Y0080484D01*
X0268684Y0083637D02*
X0269735Y0083637D01*
X0271837Y0081535D01*
X0271837Y0079433D02*
X0271837Y0083637D01*
X0274078Y0082586D02*
X0274078Y0080484D01*
X0275129Y0079433D01*
X0277231Y0079433D01*
X0278282Y0080484D01*
X0278282Y0082586D01*
X0277231Y0083637D01*
X0275129Y0083637D01*
X0274078Y0082586D01*
X0280524Y0082586D02*
X0280524Y0079433D01*
X0282626Y0079433D02*
X0282626Y0082586D01*
X0281575Y0083637D01*
X0280524Y0082586D01*
X0282626Y0082586D02*
X0283677Y0083637D01*
X0284728Y0083637D01*
X0284728Y0079433D01*
X0293415Y0080484D02*
X0293415Y0082586D01*
X0294466Y0083637D01*
X0296568Y0083637D01*
X0297619Y0082586D01*
X0297619Y0080484D01*
X0296568Y0079433D01*
X0294466Y0079433D01*
X0293415Y0080484D01*
X0299860Y0079433D02*
X0299860Y0085739D01*
X0304064Y0085739D02*
X0299860Y0079433D01*
X0304064Y0079433D02*
X0304064Y0085739D01*
X0149372Y0085739D02*
X0148321Y0085739D01*
D11*
X0147426Y0159283D02*
X0149828Y0159283D01*
X0149828Y0162886D01*
X0146145Y0161685D02*
X0144944Y0162886D01*
X0144944Y0159283D01*
X0146145Y0159283D02*
X0143743Y0159283D01*
X0138578Y0159283D02*
X0138578Y0162886D01*
X0138578Y0159283D02*
X0136176Y0159283D01*
X0134895Y0159283D02*
X0132493Y0161685D01*
X0132493Y0162286D01*
X0133094Y0162886D01*
X0134295Y0162886D01*
X0134895Y0162286D01*
X0134895Y0159283D02*
X0132493Y0159283D01*
X0356310Y0068536D02*
X0356310Y0064933D01*
X0355710Y0066735D02*
X0358112Y0066735D01*
X0356310Y0068536D01*
X0359393Y0068536D02*
X0360594Y0068536D01*
X0359994Y0068536D02*
X0359994Y0065534D01*
X0360594Y0064933D01*
X0361195Y0064933D01*
X0361795Y0065534D01*
D12*
X0151345Y0146583D02*
X0147595Y0150333D01*
X0151345Y0154083D01*
X0151345Y0150333D01*
X0147595Y0146583D01*
X0151345Y0146583D01*
X0151345Y0150333D01*
X0147595Y0154083D01*
X0147595Y0150333D01*
X0147595Y0146583D01*
X0146345Y0146583D02*
X0142595Y0150333D01*
X0146345Y0154083D01*
X0146345Y0150333D01*
X0142595Y0146583D01*
X0142595Y0150333D01*
X0146345Y0150333D01*
X0142595Y0154083D01*
X0142595Y0150333D01*
X0140095Y0150333D02*
X0136345Y0154083D01*
X0140095Y0157833D01*
X0140095Y0154083D01*
X0136345Y0157833D01*
X0140095Y0157833D01*
X0142595Y0157833D02*
X0142595Y0154083D01*
X0146345Y0154083D01*
X0146345Y0157833D01*
X0142595Y0157833D01*
X0140095Y0154083D02*
X0136345Y0154083D01*
X0136345Y0157833D01*
X0135095Y0157833D02*
X0131345Y0154083D01*
X0135095Y0150333D01*
X0135095Y0154083D01*
X0131345Y0157833D01*
X0131345Y0154083D01*
X0131345Y0150333D01*
X0135095Y0154083D01*
X0135095Y0157833D01*
X0131345Y0157833D01*
X0131345Y0154083D02*
X0135095Y0154083D01*
X0136345Y0154083D02*
X0136345Y0150333D01*
X0140095Y0154083D01*
X0140095Y0150333D01*
X0140095Y0146583D01*
X0136345Y0146583D01*
X0136345Y0150333D01*
X0140095Y0150333D01*
X0135095Y0150333D02*
X0135095Y0146583D01*
X0131345Y0146583D01*
X0131345Y0150333D01*
X0135095Y0150333D01*
X0142595Y0146583D02*
X0146345Y0146583D01*
X0146345Y0150333D01*
X0147595Y0150333D02*
X0151345Y0150333D01*
X0151345Y0154083D02*
X0147595Y0154083D01*
X0147595Y0157833D01*
X0151345Y0157833D01*
X0151345Y0154083D01*
X0151198Y0173083D02*
X0150448Y0173083D01*
X0149697Y0173834D01*
X0149697Y0177587D01*
X0148947Y0177587D02*
X0150448Y0177587D01*
X0147345Y0176837D02*
X0146595Y0177587D01*
X0145093Y0177587D01*
X0144343Y0176837D01*
X0144343Y0176086D01*
X0147345Y0173083D01*
X0144343Y0173083D01*
X0139449Y0173834D02*
X0138698Y0173083D01*
X0137948Y0173083D01*
X0137197Y0173834D01*
X0137197Y0177587D01*
X0136447Y0177587D02*
X0137948Y0177587D01*
X0134845Y0176837D02*
X0134095Y0177587D01*
X0132593Y0177587D01*
X0131843Y0176837D01*
X0131843Y0176086D01*
X0132593Y0175335D01*
X0131843Y0174585D01*
X0131843Y0173834D01*
X0132593Y0173083D01*
X0134095Y0173083D01*
X0134845Y0173834D01*
X0133344Y0175335D02*
X0132593Y0175335D01*
X0151198Y0173083D02*
X0151949Y0173834D01*
X0367697Y0196833D02*
X0370699Y0196833D01*
X0369198Y0196833D02*
X0369198Y0201337D01*
X0370699Y0199836D01*
X0372300Y0201337D02*
X0373802Y0201337D01*
X0373051Y0201337D02*
X0373051Y0197584D01*
X0373802Y0196833D01*
X0374552Y0196833D01*
X0375303Y0197584D01*
X0421595Y0230583D02*
X0426099Y0233586D01*
X0424598Y0235187D02*
X0426099Y0236689D01*
X0421595Y0236689D01*
X0421595Y0238190D02*
X0421595Y0235187D01*
X0421595Y0233586D02*
X0426099Y0230583D01*
D13*
X0348963Y0202218D02*
X0348963Y0200283D01*
X0348963Y0201735D02*
X0347028Y0201735D01*
X0347028Y0202218D02*
X0347028Y0200283D01*
X0346017Y0200767D02*
X0346017Y0201735D01*
X0345533Y0202218D01*
X0344082Y0202218D01*
X0344082Y0203186D02*
X0344082Y0200283D01*
X0345533Y0200283D01*
X0346017Y0200767D01*
X0347028Y0202218D02*
X0347996Y0203186D01*
X0348963Y0202218D01*
X0343070Y0201735D02*
X0342587Y0202218D01*
X0341135Y0202218D01*
X0341135Y0203186D02*
X0341135Y0200283D01*
X0342587Y0200283D01*
X0343070Y0200767D01*
X0343070Y0201735D01*
X0340124Y0202218D02*
X0339640Y0202218D01*
X0339640Y0200283D01*
X0340124Y0200283D02*
X0339156Y0200283D01*
X0337676Y0200767D02*
X0337192Y0200283D01*
X0337676Y0200767D02*
X0337676Y0202702D01*
X0338159Y0202218D02*
X0337192Y0202218D01*
X0336195Y0202218D02*
X0335711Y0202218D01*
X0335711Y0200283D01*
X0335228Y0200283D02*
X0336195Y0200283D01*
X0335733Y0198386D02*
X0335733Y0195483D01*
X0337668Y0198386D01*
X0337668Y0195483D01*
X0338680Y0195967D02*
X0338680Y0196935D01*
X0339647Y0196935D01*
X0338680Y0197902D02*
X0339164Y0198386D01*
X0340131Y0198386D01*
X0340615Y0197902D01*
X0340615Y0195967D01*
X0340131Y0195483D01*
X0339164Y0195483D01*
X0338680Y0195967D01*
X0334722Y0195483D02*
X0334722Y0198386D01*
X0333271Y0198386D01*
X0332787Y0197902D01*
X0332787Y0195967D01*
X0333271Y0195483D01*
X0334722Y0195483D01*
X0333747Y0200283D02*
X0334231Y0200767D01*
X0334231Y0201735D01*
X0333747Y0202218D01*
X0332780Y0202218D01*
X0332296Y0201735D01*
X0332296Y0200767D01*
X0332780Y0200283D01*
X0333747Y0200283D01*
X0331284Y0200283D02*
X0331284Y0202218D01*
X0329833Y0202218D01*
X0329349Y0201735D01*
X0329349Y0200283D01*
X0328338Y0200767D02*
X0327854Y0201251D01*
X0326403Y0201251D01*
X0326403Y0201735D02*
X0326403Y0200283D01*
X0327854Y0200283D01*
X0328338Y0200767D01*
X0327854Y0202218D02*
X0326887Y0202218D01*
X0326403Y0201735D01*
X0325391Y0203186D02*
X0324908Y0203186D01*
X0324908Y0200283D01*
X0325391Y0200283D02*
X0324424Y0200283D01*
X0335711Y0203186D02*
X0335711Y0203670D01*
X0339640Y0203670D02*
X0339640Y0203186D01*
X0160839Y0211168D02*
X0159871Y0211168D01*
X0160355Y0211652D02*
X0160355Y0209717D01*
X0159871Y0209233D01*
X0158874Y0209717D02*
X0158391Y0209233D01*
X0157423Y0209233D01*
X0156939Y0209717D01*
X0156939Y0210685D01*
X0157423Y0211168D01*
X0158391Y0211168D01*
X0158874Y0210685D01*
X0158874Y0209717D01*
X0158636Y0214033D02*
X0157669Y0214033D01*
X0157185Y0214517D01*
X0157185Y0215001D01*
X0157669Y0215485D01*
X0158636Y0215485D01*
X0159120Y0215968D01*
X0159120Y0216452D01*
X0158636Y0216936D01*
X0157669Y0216936D01*
X0157185Y0216452D01*
X0156173Y0215485D02*
X0155690Y0215968D01*
X0154722Y0215968D01*
X0154238Y0215485D01*
X0154238Y0215001D01*
X0156173Y0215001D01*
X0156173Y0214517D02*
X0156173Y0215485D01*
X0156173Y0214517D02*
X0155690Y0214033D01*
X0154722Y0214033D01*
X0152743Y0214517D02*
X0152743Y0216452D01*
X0153227Y0215968D02*
X0152259Y0215968D01*
X0152743Y0214517D02*
X0152259Y0214033D01*
X0152981Y0212136D02*
X0151530Y0212136D01*
X0151046Y0211652D01*
X0151046Y0210685D01*
X0151530Y0210201D01*
X0152981Y0210201D01*
X0152014Y0210201D02*
X0151046Y0209233D01*
X0150035Y0209717D02*
X0149551Y0209233D01*
X0148583Y0209233D01*
X0148100Y0209717D01*
X0148100Y0211652D01*
X0148583Y0212136D01*
X0149551Y0212136D01*
X0150035Y0211652D01*
X0150035Y0209717D01*
X0152981Y0209233D02*
X0152981Y0212136D01*
X0148316Y0214517D02*
X0147832Y0215001D01*
X0146381Y0215001D01*
X0146381Y0215485D02*
X0146381Y0214033D01*
X0147832Y0214033D01*
X0148316Y0214517D01*
X0147832Y0215968D02*
X0146865Y0215968D01*
X0146381Y0215485D01*
X0145369Y0215485D02*
X0145369Y0214517D01*
X0144886Y0214033D01*
X0143434Y0214033D01*
X0142423Y0214517D02*
X0141939Y0214033D01*
X0140488Y0214033D01*
X0139476Y0214517D02*
X0138993Y0214033D01*
X0138025Y0214033D01*
X0137541Y0214517D01*
X0137541Y0215485D01*
X0138025Y0215968D01*
X0138993Y0215968D01*
X0139476Y0215485D01*
X0139476Y0214517D01*
X0140488Y0215968D02*
X0141939Y0215968D01*
X0142423Y0215485D01*
X0142423Y0214517D01*
X0143434Y0215968D02*
X0144886Y0215968D01*
X0145369Y0215485D01*
X0145153Y0212136D02*
X0145153Y0209233D01*
X0144142Y0209233D02*
X0142690Y0209233D01*
X0142207Y0209717D01*
X0142690Y0210201D01*
X0143658Y0210201D01*
X0144142Y0210685D01*
X0143658Y0211168D01*
X0142207Y0211168D01*
X0141195Y0210685D02*
X0140711Y0211168D01*
X0139744Y0211168D01*
X0139260Y0210685D01*
X0139260Y0210201D01*
X0141195Y0210201D01*
X0141195Y0209717D02*
X0141195Y0210685D01*
X0141195Y0209717D02*
X0140711Y0209233D01*
X0139744Y0209233D01*
X0137765Y0209717D02*
X0137765Y0211652D01*
X0138249Y0211168D02*
X0137281Y0211168D01*
X0137765Y0209717D02*
X0137281Y0209233D01*
X0133338Y0209717D02*
X0133338Y0211168D01*
X0133338Y0209717D02*
X0132854Y0209233D01*
X0131403Y0209233D01*
X0131403Y0211168D01*
X0130391Y0210685D02*
X0129908Y0211168D01*
X0128456Y0211168D01*
X0128940Y0210201D02*
X0129908Y0210201D01*
X0130391Y0210685D01*
X0130391Y0209233D02*
X0128940Y0209233D01*
X0128456Y0209717D01*
X0128940Y0210201D01*
X0127445Y0210201D02*
X0125510Y0210201D01*
X0125510Y0210685D01*
X0125993Y0211168D01*
X0126961Y0211168D01*
X0127445Y0210685D01*
X0127445Y0209717D01*
X0126961Y0209233D01*
X0125993Y0209233D01*
X0124498Y0209717D02*
X0124498Y0210685D01*
X0124014Y0211168D01*
X0122563Y0211168D01*
X0122563Y0212136D02*
X0122563Y0209233D01*
X0124014Y0209233D01*
X0124498Y0209717D01*
X0124766Y0213066D02*
X0124282Y0213550D01*
X0124282Y0215968D01*
X0125733Y0215968D01*
X0126217Y0215485D01*
X0126217Y0214517D01*
X0125733Y0214033D01*
X0124282Y0214033D01*
X0124766Y0213066D02*
X0125250Y0213066D01*
X0127229Y0214033D02*
X0127229Y0215485D01*
X0127712Y0215968D01*
X0129164Y0215968D01*
X0129164Y0214033D01*
X0130160Y0214033D02*
X0131128Y0214033D01*
X0130644Y0214033D02*
X0130644Y0215968D01*
X0131128Y0215968D01*
X0132139Y0215968D02*
X0133591Y0215968D01*
X0134074Y0215485D01*
X0134074Y0214517D01*
X0133591Y0214033D01*
X0132139Y0214033D01*
X0132139Y0216936D01*
X0130644Y0216936D02*
X0130644Y0217420D01*
X0135079Y0215968D02*
X0135562Y0215968D01*
X0136530Y0215001D01*
X0136530Y0215968D02*
X0136530Y0214033D01*
X0145153Y0212136D02*
X0146121Y0211168D01*
X0147088Y0212136D01*
X0147088Y0209233D01*
X0158636Y0214033D02*
X0159120Y0214517D01*
X0274152Y0077686D02*
X0275387Y0077686D01*
X0276004Y0077069D01*
X0276004Y0076452D01*
X0275387Y0075835D01*
X0274152Y0075835D01*
X0273535Y0075218D01*
X0273535Y0074601D01*
X0274152Y0073983D01*
X0275387Y0073983D01*
X0276004Y0074601D01*
X0277218Y0074601D02*
X0277218Y0077069D01*
X0277836Y0077686D01*
X0279070Y0077686D01*
X0279687Y0077069D01*
X0279687Y0074601D01*
X0279070Y0073983D01*
X0277836Y0073983D01*
X0277218Y0074601D01*
X0280902Y0074601D02*
X0280902Y0077069D01*
X0281519Y0077686D01*
X0283370Y0077686D01*
X0283370Y0073983D01*
X0281519Y0073983D01*
X0280902Y0074601D01*
X0274152Y0077686D02*
X0273535Y0077069D01*
X0288268Y0075835D02*
X0288268Y0073983D01*
X0288268Y0075835D02*
X0288885Y0076452D01*
X0290737Y0076452D01*
X0290737Y0073983D01*
X0291958Y0073983D02*
X0293192Y0073983D01*
X0292575Y0073983D02*
X0292575Y0076452D01*
X0293192Y0076452D01*
X0294406Y0075835D02*
X0295024Y0076452D01*
X0296258Y0076452D01*
X0296875Y0075835D01*
X0298090Y0075835D02*
X0298707Y0076452D01*
X0300558Y0076452D01*
X0300558Y0072749D01*
X0300558Y0073983D02*
X0298707Y0073983D01*
X0298090Y0074601D01*
X0298090Y0075835D01*
X0296875Y0077686D02*
X0296875Y0073983D01*
X0294406Y0073983D02*
X0294406Y0075835D01*
X0292575Y0077686D02*
X0292575Y0078304D01*
X0301779Y0073983D02*
X0303014Y0073983D01*
X0302397Y0073983D02*
X0302397Y0077686D01*
X0303014Y0077686D01*
X0304845Y0076452D02*
X0306080Y0076452D01*
X0306697Y0075835D01*
X0306697Y0074601D01*
X0306080Y0073983D01*
X0304845Y0073983D01*
X0304228Y0074601D01*
X0304228Y0075835D01*
X0304845Y0076452D01*
X0307911Y0077069D02*
X0307911Y0074601D01*
X0308528Y0073983D01*
X0310380Y0073983D01*
X0310380Y0077686D01*
X0308528Y0077686D01*
X0307911Y0077069D01*
X0315284Y0077686D02*
X0315901Y0077069D01*
X0315901Y0073983D01*
X0317740Y0073983D02*
X0318974Y0073983D01*
X0318357Y0073983D02*
X0318357Y0076452D01*
X0318974Y0076452D01*
X0318357Y0077686D02*
X0318357Y0078304D01*
X0316519Y0075835D02*
X0315284Y0075835D01*
X0314063Y0071686D02*
X0313446Y0071686D01*
X0313446Y0067983D01*
X0314063Y0067983D02*
X0312829Y0067983D01*
X0311608Y0067983D02*
X0310373Y0067983D01*
X0310991Y0067983D02*
X0310991Y0071686D01*
X0311608Y0071686D01*
X0309152Y0069835D02*
X0308535Y0070452D01*
X0307301Y0070452D01*
X0306684Y0069835D01*
X0306684Y0069218D01*
X0309152Y0069218D01*
X0309152Y0068601D02*
X0309152Y0069835D01*
X0309152Y0068601D02*
X0308535Y0067983D01*
X0307301Y0067983D01*
X0305469Y0068601D02*
X0305469Y0069835D01*
X0304852Y0070452D01*
X0303000Y0070452D01*
X0303000Y0071686D02*
X0303000Y0067983D01*
X0304852Y0067983D01*
X0305469Y0068601D01*
X0315278Y0069218D02*
X0317129Y0069218D01*
X0317746Y0068601D01*
X0317129Y0067983D01*
X0315278Y0067983D01*
X0315278Y0069835D01*
X0315895Y0070452D01*
X0317129Y0070452D01*
X0318967Y0070452D02*
X0320202Y0070452D01*
X0319585Y0071069D02*
X0319585Y0068601D01*
X0318967Y0067983D01*
X0321416Y0068601D02*
X0322033Y0069218D01*
X0323268Y0069218D01*
X0323885Y0069835D01*
X0323268Y0070452D01*
X0321416Y0070452D01*
X0321416Y0068601D02*
X0322033Y0067983D01*
X0323885Y0067983D01*
X0325099Y0067983D02*
X0325099Y0069835D01*
X0325716Y0070452D01*
X0327568Y0070452D01*
X0327568Y0067983D01*
X0328789Y0067983D02*
X0330023Y0067983D01*
X0329406Y0067983D02*
X0329406Y0070452D01*
X0330023Y0070452D01*
X0329406Y0071686D02*
X0329406Y0072304D01*
X0330023Y0073983D02*
X0328172Y0073983D01*
X0327555Y0074601D01*
X0328172Y0075218D01*
X0329406Y0075218D01*
X0330023Y0075835D01*
X0329406Y0076452D01*
X0327555Y0076452D01*
X0326340Y0075835D02*
X0325723Y0076452D01*
X0324489Y0076452D01*
X0323872Y0075835D01*
X0323872Y0075218D01*
X0326340Y0075218D01*
X0326340Y0074601D02*
X0326340Y0075835D01*
X0326340Y0074601D02*
X0325723Y0073983D01*
X0324489Y0073983D01*
X0331238Y0074601D02*
X0331238Y0075835D01*
X0331855Y0076452D01*
X0333089Y0076452D01*
X0333707Y0075835D01*
X0333707Y0074601D01*
X0333089Y0073983D01*
X0331855Y0073983D01*
X0331238Y0074601D01*
X0334928Y0073983D02*
X0336162Y0073983D01*
X0335545Y0073983D02*
X0335545Y0077686D01*
X0336162Y0077686D01*
X0337376Y0076452D02*
X0339228Y0076452D01*
X0339845Y0075835D01*
X0339845Y0074601D01*
X0339228Y0073983D01*
X0337376Y0073983D01*
X0339228Y0072304D02*
X0339228Y0071686D01*
X0339228Y0070452D02*
X0339228Y0067983D01*
X0339845Y0067983D02*
X0338611Y0067983D01*
X0337390Y0067983D02*
X0335538Y0067983D01*
X0334921Y0068601D01*
X0335538Y0069218D01*
X0336773Y0069218D01*
X0337390Y0069835D01*
X0336773Y0070452D01*
X0334921Y0070452D01*
X0339228Y0070452D02*
X0339845Y0070452D01*
D14*
X0341995Y0069233D02*
X0341995Y0075233D01*
X0341997Y0075293D01*
X0342002Y0075354D01*
X0342011Y0075413D01*
X0342024Y0075472D01*
X0342040Y0075531D01*
X0342060Y0075588D01*
X0342083Y0075643D01*
X0342110Y0075698D01*
X0342139Y0075750D01*
X0342172Y0075801D01*
X0342208Y0075850D01*
X0342246Y0075896D01*
X0342288Y0075940D01*
X0342332Y0075982D01*
X0342378Y0076020D01*
X0342427Y0076056D01*
X0342478Y0076089D01*
X0342530Y0076118D01*
X0342585Y0076145D01*
X0342640Y0076168D01*
X0342697Y0076188D01*
X0342756Y0076204D01*
X0342815Y0076217D01*
X0342874Y0076226D01*
X0342935Y0076231D01*
X0342995Y0076233D01*
X0353995Y0076233D01*
X0354055Y0076231D01*
X0354116Y0076226D01*
X0354175Y0076217D01*
X0354234Y0076204D01*
X0354293Y0076188D01*
X0354350Y0076168D01*
X0354405Y0076145D01*
X0354460Y0076118D01*
X0354512Y0076089D01*
X0354563Y0076056D01*
X0354612Y0076020D01*
X0354658Y0075982D01*
X0354702Y0075940D01*
X0354744Y0075896D01*
X0354782Y0075850D01*
X0354818Y0075801D01*
X0354851Y0075750D01*
X0354880Y0075698D01*
X0354907Y0075643D01*
X0354930Y0075588D01*
X0354950Y0075531D01*
X0354966Y0075472D01*
X0354979Y0075413D01*
X0354988Y0075354D01*
X0354993Y0075293D01*
X0354995Y0075233D01*
X0354995Y0069233D01*
X0354993Y0069173D01*
X0354988Y0069112D01*
X0354979Y0069053D01*
X0354966Y0068994D01*
X0354950Y0068935D01*
X0354930Y0068878D01*
X0354907Y0068823D01*
X0354880Y0068768D01*
X0354851Y0068716D01*
X0354818Y0068665D01*
X0354782Y0068616D01*
X0354744Y0068570D01*
X0354702Y0068526D01*
X0354658Y0068484D01*
X0354612Y0068446D01*
X0354563Y0068410D01*
X0354512Y0068377D01*
X0354460Y0068348D01*
X0354405Y0068321D01*
X0354350Y0068298D01*
X0354293Y0068278D01*
X0354234Y0068262D01*
X0354175Y0068249D01*
X0354116Y0068240D01*
X0354055Y0068235D01*
X0353995Y0068233D01*
X0342995Y0068233D01*
X0342935Y0068235D01*
X0342874Y0068240D01*
X0342815Y0068249D01*
X0342756Y0068262D01*
X0342697Y0068278D01*
X0342640Y0068298D01*
X0342585Y0068321D01*
X0342530Y0068348D01*
X0342478Y0068377D01*
X0342427Y0068410D01*
X0342378Y0068446D01*
X0342332Y0068484D01*
X0342288Y0068526D01*
X0342246Y0068570D01*
X0342208Y0068616D01*
X0342172Y0068665D01*
X0342139Y0068716D01*
X0342110Y0068768D01*
X0342083Y0068823D01*
X0342060Y0068878D01*
X0342040Y0068935D01*
X0342024Y0068994D01*
X0342011Y0069053D01*
X0342002Y0069112D01*
X0341997Y0069173D01*
X0341995Y0069233D01*
X0421345Y0177583D02*
X0221345Y0177583D01*
X0221345Y0230583D01*
X0421345Y0230583D01*
X0421345Y0208583D01*
X0421219Y0208581D01*
X0421094Y0208575D01*
X0420969Y0208565D01*
X0420844Y0208551D01*
X0420719Y0208534D01*
X0420595Y0208512D01*
X0420472Y0208487D01*
X0420350Y0208457D01*
X0420229Y0208424D01*
X0420109Y0208387D01*
X0419990Y0208347D01*
X0419873Y0208302D01*
X0419756Y0208254D01*
X0419642Y0208202D01*
X0419529Y0208147D01*
X0419418Y0208088D01*
X0419309Y0208026D01*
X0419202Y0207960D01*
X0419097Y0207891D01*
X0418994Y0207819D01*
X0418893Y0207744D01*
X0418795Y0207665D01*
X0418700Y0207583D01*
X0418607Y0207499D01*
X0418517Y0207411D01*
X0418429Y0207321D01*
X0418345Y0207228D01*
X0418263Y0207133D01*
X0418184Y0207035D01*
X0418109Y0206934D01*
X0418037Y0206831D01*
X0417968Y0206726D01*
X0417902Y0206619D01*
X0417840Y0206510D01*
X0417781Y0206399D01*
X0417726Y0206286D01*
X0417674Y0206172D01*
X0417626Y0206055D01*
X0417581Y0205938D01*
X0417541Y0205819D01*
X0417504Y0205699D01*
X0417471Y0205578D01*
X0417441Y0205456D01*
X0417416Y0205333D01*
X0417394Y0205209D01*
X0417377Y0205084D01*
X0417363Y0204959D01*
X0417353Y0204834D01*
X0417347Y0204709D01*
X0417345Y0204583D01*
X0417347Y0204457D01*
X0417353Y0204332D01*
X0417363Y0204207D01*
X0417377Y0204082D01*
X0417394Y0203957D01*
X0417416Y0203833D01*
X0417441Y0203710D01*
X0417471Y0203588D01*
X0417504Y0203467D01*
X0417541Y0203347D01*
X0417581Y0203228D01*
X0417626Y0203111D01*
X0417674Y0202994D01*
X0417726Y0202880D01*
X0417781Y0202767D01*
X0417840Y0202656D01*
X0417902Y0202547D01*
X0417968Y0202440D01*
X0418037Y0202335D01*
X0418109Y0202232D01*
X0418184Y0202131D01*
X0418263Y0202033D01*
X0418345Y0201938D01*
X0418429Y0201845D01*
X0418517Y0201755D01*
X0418607Y0201667D01*
X0418700Y0201583D01*
X0418795Y0201501D01*
X0418893Y0201422D01*
X0418994Y0201347D01*
X0419097Y0201275D01*
X0419202Y0201206D01*
X0419309Y0201140D01*
X0419418Y0201078D01*
X0419529Y0201019D01*
X0419642Y0200964D01*
X0419756Y0200912D01*
X0419873Y0200864D01*
X0419990Y0200819D01*
X0420109Y0200779D01*
X0420229Y0200742D01*
X0420350Y0200709D01*
X0420472Y0200679D01*
X0420595Y0200654D01*
X0420719Y0200632D01*
X0420844Y0200615D01*
X0420969Y0200601D01*
X0421094Y0200591D01*
X0421219Y0200585D01*
X0421345Y0200583D01*
X0421345Y0177583D01*
X0364095Y0196083D02*
X0364095Y0202083D01*
X0364093Y0202143D01*
X0364088Y0202204D01*
X0364079Y0202263D01*
X0364066Y0202322D01*
X0364050Y0202381D01*
X0364030Y0202438D01*
X0364007Y0202493D01*
X0363980Y0202548D01*
X0363951Y0202600D01*
X0363918Y0202651D01*
X0363882Y0202700D01*
X0363844Y0202746D01*
X0363802Y0202790D01*
X0363758Y0202832D01*
X0363712Y0202870D01*
X0363663Y0202906D01*
X0363612Y0202939D01*
X0363560Y0202968D01*
X0363505Y0202995D01*
X0363450Y0203018D01*
X0363393Y0203038D01*
X0363334Y0203054D01*
X0363275Y0203067D01*
X0363216Y0203076D01*
X0363155Y0203081D01*
X0363095Y0203083D01*
X0352095Y0203083D01*
X0352035Y0203081D01*
X0351974Y0203076D01*
X0351915Y0203067D01*
X0351856Y0203054D01*
X0351797Y0203038D01*
X0351740Y0203018D01*
X0351685Y0202995D01*
X0351630Y0202968D01*
X0351578Y0202939D01*
X0351527Y0202906D01*
X0351478Y0202870D01*
X0351432Y0202832D01*
X0351388Y0202790D01*
X0351346Y0202746D01*
X0351308Y0202700D01*
X0351272Y0202651D01*
X0351239Y0202600D01*
X0351210Y0202548D01*
X0351183Y0202493D01*
X0351160Y0202438D01*
X0351140Y0202381D01*
X0351124Y0202322D01*
X0351111Y0202263D01*
X0351102Y0202204D01*
X0351097Y0202143D01*
X0351095Y0202083D01*
X0351095Y0196083D01*
X0351097Y0196023D01*
X0351102Y0195962D01*
X0351111Y0195903D01*
X0351124Y0195844D01*
X0351140Y0195785D01*
X0351160Y0195728D01*
X0351183Y0195673D01*
X0351210Y0195618D01*
X0351239Y0195566D01*
X0351272Y0195515D01*
X0351308Y0195466D01*
X0351346Y0195420D01*
X0351388Y0195376D01*
X0351432Y0195334D01*
X0351478Y0195296D01*
X0351527Y0195260D01*
X0351578Y0195227D01*
X0351630Y0195198D01*
X0351685Y0195171D01*
X0351740Y0195148D01*
X0351797Y0195128D01*
X0351856Y0195112D01*
X0351915Y0195099D01*
X0351974Y0195090D01*
X0352035Y0195085D01*
X0352095Y0195083D01*
X0363095Y0195083D01*
X0363155Y0195085D01*
X0363216Y0195090D01*
X0363275Y0195099D01*
X0363334Y0195112D01*
X0363393Y0195128D01*
X0363450Y0195148D01*
X0363505Y0195171D01*
X0363560Y0195198D01*
X0363612Y0195227D01*
X0363663Y0195260D01*
X0363712Y0195296D01*
X0363758Y0195334D01*
X0363802Y0195376D01*
X0363844Y0195420D01*
X0363882Y0195466D01*
X0363918Y0195515D01*
X0363951Y0195566D01*
X0363980Y0195618D01*
X0364007Y0195673D01*
X0364030Y0195728D01*
X0364050Y0195785D01*
X0364066Y0195844D01*
X0364079Y0195903D01*
X0364088Y0195962D01*
X0364093Y0196023D01*
X0364095Y0196083D01*
X0355095Y0248883D02*
X0355095Y0253287D01*
X0352893Y0253287D01*
X0352159Y0252553D01*
X0352159Y0251085D01*
X0352893Y0250351D01*
X0355095Y0250351D01*
X0350491Y0250351D02*
X0349023Y0251819D01*
X0348289Y0251819D01*
X0346655Y0251085D02*
X0345921Y0251819D01*
X0344453Y0251819D01*
X0343719Y0251085D01*
X0343719Y0249617D01*
X0344453Y0248883D01*
X0345921Y0248883D01*
X0346655Y0249617D01*
X0346655Y0251085D01*
X0350491Y0251819D02*
X0350491Y0248883D01*
X0342051Y0251085D02*
X0340583Y0251085D01*
X0338981Y0251085D02*
X0338247Y0251819D01*
X0336780Y0251819D01*
X0336046Y0251085D01*
X0336046Y0250351D01*
X0338981Y0250351D01*
X0338981Y0249617D02*
X0338981Y0251085D01*
X0338981Y0249617D02*
X0338247Y0248883D01*
X0336780Y0248883D01*
X0334377Y0248883D02*
X0332176Y0248883D01*
X0331442Y0249617D01*
X0332176Y0250351D01*
X0333644Y0250351D01*
X0334377Y0251085D01*
X0333644Y0251819D01*
X0331442Y0251819D01*
X0329774Y0251085D02*
X0329040Y0251819D01*
X0326838Y0251819D01*
X0327572Y0250351D02*
X0329040Y0250351D01*
X0329774Y0251085D01*
X0329774Y0248883D02*
X0327572Y0248883D01*
X0326838Y0249617D01*
X0327572Y0250351D01*
X0325170Y0248883D02*
X0323702Y0248883D01*
X0324436Y0248883D02*
X0324436Y0251819D01*
X0325170Y0251819D01*
X0324436Y0253287D02*
X0324436Y0254021D01*
X0322100Y0251085D02*
X0321366Y0251819D01*
X0319898Y0251819D01*
X0319165Y0251085D01*
X0319165Y0249617D01*
X0319898Y0248883D01*
X0321366Y0248883D01*
X0322100Y0249617D01*
X0322100Y0251085D01*
X0317496Y0251819D02*
X0315295Y0251819D01*
X0314561Y0251085D01*
X0314561Y0248883D01*
X0312893Y0249617D02*
X0312159Y0250351D01*
X0309957Y0250351D01*
X0309957Y0251085D02*
X0309957Y0248883D01*
X0312159Y0248883D01*
X0312893Y0249617D01*
X0312159Y0251819D02*
X0310691Y0251819D01*
X0309957Y0251085D01*
X0308289Y0248883D02*
X0306821Y0248883D01*
X0307555Y0248883D02*
X0307555Y0253287D01*
X0308289Y0253287D01*
X0300615Y0253287D02*
X0300615Y0248883D01*
X0298414Y0248883D01*
X0297680Y0249617D01*
X0297680Y0252553D01*
X0298414Y0253287D01*
X0300615Y0253287D01*
X0296011Y0251085D02*
X0296011Y0249617D01*
X0295277Y0248883D01*
X0293810Y0248883D01*
X0293076Y0249617D01*
X0293076Y0251085D01*
X0293810Y0251819D01*
X0295277Y0251819D01*
X0296011Y0251085D01*
X0291408Y0251085D02*
X0290674Y0251819D01*
X0288472Y0251819D01*
X0289206Y0250351D02*
X0290674Y0250351D01*
X0291408Y0251085D01*
X0291408Y0248883D02*
X0289206Y0248883D01*
X0288472Y0249617D01*
X0289206Y0250351D01*
X0282200Y0250351D02*
X0280732Y0248883D01*
X0279264Y0250351D01*
X0279264Y0253287D01*
X0282200Y0253287D02*
X0282200Y0250351D01*
X0272992Y0248883D02*
X0270056Y0248883D01*
X0271524Y0248883D02*
X0271524Y0253287D01*
X0272992Y0251819D01*
X0268388Y0249617D02*
X0267654Y0249617D01*
X0267654Y0248883D01*
X0268388Y0248883D01*
X0268388Y0249617D01*
X0266086Y0251085D02*
X0263884Y0253287D01*
X0263884Y0248883D01*
X0263150Y0251085D02*
X0266086Y0251085D01*
X0261482Y0252553D02*
X0260748Y0253287D01*
X0259280Y0253287D01*
X0258546Y0252553D01*
X0258546Y0251819D01*
X0261482Y0248883D01*
X0258546Y0248883D01*
X0252274Y0248883D02*
X0249338Y0251819D01*
X0249338Y0252553D01*
X0250072Y0253287D01*
X0251540Y0253287D01*
X0252274Y0252553D01*
X0252274Y0248883D02*
X0249338Y0248883D01*
X0247670Y0249617D02*
X0244734Y0252553D01*
X0244734Y0249617D01*
X0245468Y0248883D01*
X0246936Y0248883D01*
X0247670Y0249617D01*
X0247670Y0252553D01*
X0246936Y0253287D01*
X0245468Y0253287D01*
X0244734Y0252553D01*
X0243066Y0252553D02*
X0242332Y0253287D01*
X0240864Y0253287D01*
X0240130Y0252553D01*
X0240130Y0251819D01*
X0243066Y0248883D01*
X0240130Y0248883D01*
X0238462Y0249617D02*
X0237728Y0248883D01*
X0236261Y0248883D01*
X0235527Y0249617D01*
X0235527Y0250351D01*
X0236261Y0251085D01*
X0238462Y0251085D01*
X0238462Y0249617D01*
X0238462Y0251085D02*
X0236994Y0252553D01*
X0235527Y0253287D01*
X0317496Y0251819D02*
X0317496Y0248883D01*
X0340583Y0253287D02*
X0341317Y0252553D01*
X0341317Y0248883D01*
X0151595Y0201333D02*
X0151595Y0184333D01*
X0151593Y0184273D01*
X0151588Y0184212D01*
X0151579Y0184153D01*
X0151566Y0184094D01*
X0151550Y0184035D01*
X0151530Y0183978D01*
X0151507Y0183923D01*
X0151480Y0183868D01*
X0151451Y0183816D01*
X0151418Y0183765D01*
X0151382Y0183716D01*
X0151344Y0183670D01*
X0151302Y0183626D01*
X0151258Y0183584D01*
X0151212Y0183546D01*
X0151163Y0183510D01*
X0151112Y0183477D01*
X0151060Y0183448D01*
X0151005Y0183421D01*
X0150950Y0183398D01*
X0150893Y0183378D01*
X0150834Y0183362D01*
X0150775Y0183349D01*
X0150716Y0183340D01*
X0150655Y0183335D01*
X0150595Y0183333D01*
X0144595Y0183333D01*
X0144535Y0183335D01*
X0144474Y0183340D01*
X0144415Y0183349D01*
X0144356Y0183362D01*
X0144297Y0183378D01*
X0144240Y0183398D01*
X0144185Y0183421D01*
X0144130Y0183448D01*
X0144078Y0183477D01*
X0144027Y0183510D01*
X0143978Y0183546D01*
X0143932Y0183584D01*
X0143888Y0183626D01*
X0143846Y0183670D01*
X0143808Y0183716D01*
X0143772Y0183765D01*
X0143739Y0183816D01*
X0143710Y0183868D01*
X0143683Y0183923D01*
X0143660Y0183978D01*
X0143640Y0184035D01*
X0143624Y0184094D01*
X0143611Y0184153D01*
X0143602Y0184212D01*
X0143597Y0184273D01*
X0143595Y0184333D01*
X0143595Y0201333D01*
X0143597Y0201393D01*
X0143602Y0201454D01*
X0143611Y0201513D01*
X0143624Y0201572D01*
X0143640Y0201631D01*
X0143660Y0201688D01*
X0143683Y0201743D01*
X0143710Y0201798D01*
X0143739Y0201850D01*
X0143772Y0201901D01*
X0143808Y0201950D01*
X0143846Y0201996D01*
X0143888Y0202040D01*
X0143932Y0202082D01*
X0143978Y0202120D01*
X0144027Y0202156D01*
X0144078Y0202189D01*
X0144130Y0202218D01*
X0144185Y0202245D01*
X0144240Y0202268D01*
X0144297Y0202288D01*
X0144356Y0202304D01*
X0144415Y0202317D01*
X0144474Y0202326D01*
X0144535Y0202331D01*
X0144595Y0202333D01*
X0150595Y0202333D01*
X0150655Y0202331D01*
X0150716Y0202326D01*
X0150775Y0202317D01*
X0150834Y0202304D01*
X0150893Y0202288D01*
X0150950Y0202268D01*
X0151005Y0202245D01*
X0151060Y0202218D01*
X0151112Y0202189D01*
X0151163Y0202156D01*
X0151212Y0202120D01*
X0151258Y0202082D01*
X0151302Y0202040D01*
X0151344Y0201996D01*
X0151382Y0201950D01*
X0151418Y0201901D01*
X0151451Y0201850D01*
X0151480Y0201798D01*
X0151507Y0201743D01*
X0151530Y0201688D01*
X0151550Y0201631D01*
X0151566Y0201572D01*
X0151579Y0201513D01*
X0151588Y0201454D01*
X0151593Y0201393D01*
X0151595Y0201333D01*
X0139095Y0201333D02*
X0139095Y0184333D01*
X0139093Y0184273D01*
X0139088Y0184212D01*
X0139079Y0184153D01*
X0139066Y0184094D01*
X0139050Y0184035D01*
X0139030Y0183978D01*
X0139007Y0183923D01*
X0138980Y0183868D01*
X0138951Y0183816D01*
X0138918Y0183765D01*
X0138882Y0183716D01*
X0138844Y0183670D01*
X0138802Y0183626D01*
X0138758Y0183584D01*
X0138712Y0183546D01*
X0138663Y0183510D01*
X0138612Y0183477D01*
X0138560Y0183448D01*
X0138505Y0183421D01*
X0138450Y0183398D01*
X0138393Y0183378D01*
X0138334Y0183362D01*
X0138275Y0183349D01*
X0138216Y0183340D01*
X0138155Y0183335D01*
X0138095Y0183333D01*
X0132095Y0183333D01*
X0132035Y0183335D01*
X0131974Y0183340D01*
X0131915Y0183349D01*
X0131856Y0183362D01*
X0131797Y0183378D01*
X0131740Y0183398D01*
X0131685Y0183421D01*
X0131630Y0183448D01*
X0131578Y0183477D01*
X0131527Y0183510D01*
X0131478Y0183546D01*
X0131432Y0183584D01*
X0131388Y0183626D01*
X0131346Y0183670D01*
X0131308Y0183716D01*
X0131272Y0183765D01*
X0131239Y0183816D01*
X0131210Y0183868D01*
X0131183Y0183923D01*
X0131160Y0183978D01*
X0131140Y0184035D01*
X0131124Y0184094D01*
X0131111Y0184153D01*
X0131102Y0184212D01*
X0131097Y0184273D01*
X0131095Y0184333D01*
X0131095Y0201333D01*
X0131097Y0201393D01*
X0131102Y0201454D01*
X0131111Y0201513D01*
X0131124Y0201572D01*
X0131140Y0201631D01*
X0131160Y0201688D01*
X0131183Y0201743D01*
X0131210Y0201798D01*
X0131239Y0201850D01*
X0131272Y0201901D01*
X0131308Y0201950D01*
X0131346Y0201996D01*
X0131388Y0202040D01*
X0131432Y0202082D01*
X0131478Y0202120D01*
X0131527Y0202156D01*
X0131578Y0202189D01*
X0131630Y0202218D01*
X0131685Y0202245D01*
X0131740Y0202268D01*
X0131797Y0202288D01*
X0131856Y0202304D01*
X0131915Y0202317D01*
X0131974Y0202326D01*
X0132035Y0202331D01*
X0132095Y0202333D01*
X0138095Y0202333D01*
X0138155Y0202331D01*
X0138216Y0202326D01*
X0138275Y0202317D01*
X0138334Y0202304D01*
X0138393Y0202288D01*
X0138450Y0202268D01*
X0138505Y0202245D01*
X0138560Y0202218D01*
X0138612Y0202189D01*
X0138663Y0202156D01*
X0138712Y0202120D01*
X0138758Y0202082D01*
X0138802Y0202040D01*
X0138844Y0201996D01*
X0138882Y0201950D01*
X0138918Y0201901D01*
X0138951Y0201850D01*
X0138980Y0201798D01*
X0139007Y0201743D01*
X0139030Y0201688D01*
X0139050Y0201631D01*
X0139066Y0201572D01*
X0139079Y0201513D01*
X0139088Y0201454D01*
X0139093Y0201393D01*
X0139095Y0201333D01*
M02*
