%
M48
M72
T01C0.0118
T02C0.0236
T03C0.0320
T04C0.0360
T05C0.0400
%
T01
X22275Y7713
T02
X2760Y5033
X2135Y5533
X4635Y7783
X6635Y7783
X6635Y9033
X7635Y9033
X8510Y9033
X9510Y9033
X10510Y9033
X11510Y9033
X12135Y9408
X12510Y8908
X13260Y8783
X13510Y8408
X13260Y8033
X13510Y7658
X13260Y7283
X15885Y8908
X16635Y8783
X15135Y9033
X14135Y9158
X13510Y9408
X17385Y11408
X19010Y10283
X21525Y10538
X24135Y10908
X25260Y11533
X25885Y11658
X27135Y11658
X27135Y13158
X25885Y13908
X24635Y14658
X21385Y12533
X20635Y13908
X18385Y12908
X16760Y12908
X16135Y13408
X15510Y13408
X16385Y14283
X17385Y15033
X16760Y15658
X17260Y16158
X18635Y16908
X18010Y17158
X17510Y17158
X17510Y17658
X16385Y17408
X16635Y18533
X17385Y18533
X18635Y19783
X19385Y20283
X18760Y20658
X18260Y20783
X17760Y20908
X17260Y20783
X16635Y20408
X17135Y20033
X14760Y20408
X14135Y20533
X13510Y20408
X14510Y21908
X14486Y23955
X12611Y23955
X10736Y23955
X8861Y23955
X8510Y23158
X7760Y22408
X9510Y22408
X10510Y22408
X10385Y21783
X11010Y20783
X10760Y19908
X10010Y19533
X9635Y19158
X9135Y19908
X9385Y18408
X10510Y18533
X10885Y17908
X9260Y16908
X7135Y16908
X6635Y16408
X5635Y17408
X4010Y17033
X6635Y18533
X5635Y19283
X5260Y18783
X4010Y19033
X2385Y19408
X2385Y21033
X4010Y21033
X5385Y21408
X6135Y21408
X6635Y20408
X6135Y19908
X5510Y20408
X5361Y23955
X6986Y23955
X3486Y23955
X13635Y18158
X14760Y18158
X14010Y17033
X13510Y16533
X11010Y15033
X10260Y15283
X12635Y13533
X13260Y12658
X12635Y12158
X12010Y12408
X10760Y12658
X8635Y13033
X6760Y12658
X6510Y14283
X6135Y14908
X6885Y15408
X2385Y13658
X2385Y12033
X4635Y10533
X3760Y9408
X5135Y9033
X6635Y10658
X13635Y14408
X14635Y14408
X20885Y15783
X20885Y19033
X23635Y19533
X25385Y20408
X28135Y18033
X29135Y19158
X29635Y20158
X30260Y20158
X31010Y20658
X31635Y20658
X32885Y19658
X33510Y19283
X31885Y19158
X31635Y18408
X34010Y20658
X34885Y20658
X35885Y20658
X37635Y20533
X38885Y20408
X40135Y19908
X40635Y20283
X41135Y20783
X40635Y21408
X42260Y21658
X42260Y20283
X40510Y19283
X39635Y19158
X41135Y18408
X42260Y18783
X37760Y19533
X37510Y21908
X36760Y21908
X42135Y24033
X37635Y25158
X36135Y25158
X30135Y23908
X29635Y24283
X29135Y23908
X28135Y24283
X26510Y24283
X24630Y25118
X23585Y25133
X21485Y23932
X19861Y23955
X18111Y23955
X16361Y23955
X17885Y22908
X18385Y22908
X19510Y22408
X19635Y21908
X20260Y22408
X33635Y14408
X34635Y14908
X32635Y13908
X31635Y13783
X30510Y14158
X30135Y13533
X29635Y14158
X28635Y14158
X24135Y11908
X26635Y9658
X25635Y9408
X24210Y7403
X23635Y7508
X25635Y7158
X26635Y6908
X27635Y6658
X28635Y6408
X29635Y6158
X30635Y5908
X31635Y5783
X31885Y6533
X32635Y5783
X33135Y6533
X33635Y5783
X34260Y6533
X35475Y6073
X36385Y5533
X36385Y4033
X34135Y4033
X32135Y4033
X30135Y4033
X28135Y4033
X26135Y4033
X21280Y4223
X17260Y4908
X15135Y4908
X13135Y4908
X11135Y4908
X9135Y4908
X19135Y7533
X19760Y6658
X20135Y6908
X20510Y7158
X21040Y7408
X21570Y7668
X29135Y9158
X30135Y8908
X31385Y9033
X31760Y8533
X32135Y8033
X33135Y8533
X32635Y8908
X34260Y8908
X34885Y8533
X34655Y9523
X36385Y9033
X36385Y7283
T03
X35635Y4408
X34635Y4408
X33635Y4408
X32635Y4408
X31635Y4408
X30635Y4408
X29635Y4408
X28635Y4408
X27635Y4408
X26635Y4408
X25635Y4408
X24635Y4408
X23635Y4408
X22635Y4408
X16635Y5408
X15635Y5408
X14635Y5408
X13635Y5408
X12635Y5408
X11635Y5408
X10635Y5408
X9635Y5408
X8635Y5408
X7635Y5408
X6635Y5408
X5635Y5408
X4635Y5408
X3635Y5408
X5635Y6908
X6635Y6908
X7635Y6908
X8635Y6908
X9635Y6908
X10635Y6908
X11635Y6908
X12635Y6908
X12635Y9908
X11635Y9908
X10635Y9908
X9635Y9908
X8635Y9908
X7635Y9908
X6635Y9908
X5635Y9908
X5635Y11408
X6635Y11408
X7635Y11408
X8635Y11408
X9635Y11408
X10635Y11408
X11635Y11408
X12635Y11408
X13635Y11408
X14635Y11408
X15635Y11408
X16635Y11408
X18135Y13408
X15635Y14408
X14635Y13408
X13635Y13408
X12635Y14408
X11635Y14408
X10635Y13408
X9635Y13408
X8635Y14408
X7635Y14408
X6635Y13408
X5635Y13408
X4635Y14408
X4635Y15408
X3635Y15408
X2635Y15408
X2635Y16408
X3635Y16408
X4635Y16408
X4635Y17408
X3135Y17658
X3635Y18408
X4635Y18408
X4635Y19408
X4635Y20408
X3635Y20408
X2635Y20408
X3135Y21158
X3635Y21908
X2635Y21908
X2635Y22908
X3635Y22908
X4635Y23158
X4635Y22158
X4635Y21408
X6135Y22408
X6135Y23408
X7510Y23283
X10510Y23283
X11635Y21408
X11635Y20408
X12635Y20408
X12635Y19408
X11635Y19408
X11635Y18408
X12635Y18408
X12635Y17408
X11635Y17408
X11635Y16408
X12635Y16408
X12635Y15408
X11635Y15408
X8635Y15408
X7635Y15408
X7635Y16408
X8635Y16408
X8635Y17408
X7635Y17408
X7635Y18408
X8635Y18408
X8635Y19408
X8635Y20408
X7635Y20408
X7635Y19408
X7635Y21408
X8635Y21408
X2635Y18408
X3635Y11408
X4635Y11408
X2260Y10408
X2260Y9408
X15635Y15408
X15635Y16408
X16635Y16408
X15635Y17408
X15635Y18408
X15635Y19408
X16635Y19408
X15635Y20408
X21635Y21408
X21635Y22408
X22635Y22408
X23635Y22408
X24635Y22408
X25635Y22408
X26635Y22408
X27635Y22408
X28635Y22408
X29635Y22408
X30635Y22408
X31635Y22408
X32635Y22408
X33635Y22408
X34635Y22408
X35635Y22408
X36635Y22408
X37635Y22408
X38635Y22408
X39635Y22408
X40635Y22408
X41635Y22408
X41635Y23408
X40635Y23408
X39635Y23408
X38635Y23408
X37635Y23408
X36635Y23408
X35635Y23408
X34635Y23408
X33635Y23408
X32635Y23408
X31635Y23408
X30635Y23408
X29635Y23408
X28635Y23408
X27635Y23408
X26635Y23408
X25635Y23408
X24635Y23408
X23635Y23408
X22635Y23408
X24635Y21408
X25635Y21408
X26635Y21408
X27635Y21408
X28635Y21408
X29635Y21408
X30635Y21408
X32635Y21408
X33635Y21408
X34635Y21408
X35635Y21408
X36635Y21408
X37635Y21408
X38635Y21408
X39635Y21408
X39635Y18408
X38635Y18408
X37635Y18408
X36635Y18408
X35635Y18408
X34635Y18408
X33635Y18408
X32635Y18408
X32635Y17408
X33635Y17408
X34635Y17408
X35635Y17408
X36635Y17408
X37635Y17408
X38635Y17408
X39635Y17408
X40635Y17408
X41635Y17408
X41635Y16408
X40635Y16408
X39635Y16408
X38635Y16408
X37635Y16408
X36635Y16408
X35635Y16408
X34635Y16408
X33635Y16408
X32635Y16408
X31635Y16408
X31635Y17408
X30635Y17408
X29635Y17408
X28635Y17408
X27635Y17408
X26635Y17408
X25635Y17408
X24635Y17408
X23635Y17408
X22635Y17408
X21635Y17408
X21635Y16408
X22635Y16408
X23635Y16408
X24635Y16408
X25635Y16408
X26635Y16408
X27635Y16408
X28635Y16408
X29635Y16408
X30635Y16408
X30635Y15408
X29635Y15408
X28635Y15408
X27635Y15408
X26635Y15408
X25635Y15408
X24635Y15408
X23635Y15408
X22635Y15408
X18135Y16408
X24635Y18408
X25635Y18408
X26635Y18408
X27635Y18408
X28635Y18408
X29635Y18408
X30635Y18408
X31635Y15408
X32635Y15408
X33635Y15408
X37135Y15283
X37135Y14283
X39135Y14283
X39135Y15283
X42260Y15408
X42260Y14408
X35635Y10408
X34635Y10408
X33635Y10408
X32635Y10408
X31635Y10408
X31635Y11408
X32635Y11408
X33635Y11408
X33635Y12408
X32635Y12408
X31635Y12408
X30635Y12408
X29635Y12408
X28635Y12408
X27635Y12408
X26635Y12408
X25635Y12408
X24635Y12408
X23635Y12408
X22635Y12408
X22635Y11408
X23635Y11408
X23635Y10408
X24635Y10408
X25635Y10408
X26635Y10408
X27635Y10408
X28635Y10408
X29635Y10408
X30635Y10408
X30635Y11408
X29635Y11408
X28635Y11408
X22635Y10408
X30635Y24408
X31635Y24408
X32635Y24408
X33635Y24408
X34635Y24408
X35635Y24408
X36635Y24408
X37635Y24408
X38635Y24408
X39635Y24408
X40635Y24408
X41635Y24408
T04
X2260Y7408
X2260Y6408
T05
X3635Y12408
X3635Y13408
X3635Y14408
X19135Y14408
X20135Y14408
X20135Y13408
X19135Y13408
X19135Y12408
X20135Y12408
X20135Y15408
X19135Y15408
X19135Y16408
X20135Y16408
X20135Y17408
X19135Y17408
X19135Y18408
X20135Y18408
X35135Y15408
X36135Y15408
X36135Y14408
X35135Y14408
X35135Y13408
X36135Y13408
X36135Y12408
X35135Y12408
X35135Y11408
X36135Y11408
X40260Y14408
X41260Y14408
X41260Y15408
X40260Y15408
M30
