G75*
%MOIN*%
%OFA0B0*%
%FSLAX25Y25*%
%IPPOS*%
%LPD*%
%AMOC8*
5,1,8,0,0,1.08239X$1,22.5*
%
%ADD10C,0.00000*%
%ADD11C,0.00600*%
D10*
X0001500Y0001000D02*
X0211500Y0001000D01*
X0211500Y0090950D01*
X0001500Y0090950D01*
X0001500Y0001000D01*
D11*
X0009000Y0041350D02*
X0014000Y0041350D01*
X0016500Y0043850D01*
X0016500Y0058850D01*
X0019000Y0061350D01*
X0024000Y0061350D01*
X0026500Y0058850D01*
X0026500Y0043850D01*
X0029000Y0041350D01*
X0034000Y0041350D01*
X0036500Y0043850D01*
X0036500Y0058850D01*
X0039000Y0061350D01*
X0044000Y0061350D01*
X0046500Y0058850D01*
X0046500Y0043850D01*
X0049000Y0041350D01*
X0054000Y0041350D01*
X0056500Y0043850D01*
X0056500Y0058850D01*
X0059000Y0061350D01*
X0064000Y0061350D01*
X0066500Y0058850D01*
X0066500Y0043850D01*
X0069000Y0041350D01*
X0074000Y0041350D01*
X0076500Y0043850D01*
X0076500Y0058850D01*
X0074000Y0061350D01*
X0069000Y0061350D01*
X0066500Y0058850D01*
X0076500Y0058850D02*
X0079000Y0061350D01*
X0084000Y0061350D01*
X0086500Y0058850D01*
X0086500Y0043850D01*
X0089000Y0041350D01*
X0094000Y0041350D01*
X0096500Y0043850D01*
X0096500Y0058850D01*
X0094000Y0061350D01*
X0089000Y0061350D01*
X0086500Y0058850D01*
X0096500Y0058850D02*
X0099000Y0061350D01*
X0104000Y0061350D01*
X0106500Y0058850D01*
X0106500Y0043850D01*
X0109000Y0041350D01*
X0114000Y0041350D01*
X0116500Y0043850D01*
X0116500Y0058850D01*
X0114000Y0061350D01*
X0109000Y0061350D01*
X0106500Y0058850D01*
X0116500Y0058850D02*
X0119000Y0061350D01*
X0124000Y0061350D01*
X0126500Y0058850D01*
X0126500Y0043850D01*
X0129000Y0041350D01*
X0134000Y0041350D01*
X0136500Y0043850D01*
X0136500Y0058850D01*
X0134000Y0061350D01*
X0129000Y0061350D01*
X0126500Y0058850D01*
X0136500Y0058850D02*
X0139000Y0061350D01*
X0144000Y0061350D01*
X0146500Y0058850D01*
X0146500Y0043850D01*
X0149000Y0041350D01*
X0154000Y0041350D01*
X0156500Y0043850D01*
X0156500Y0058850D01*
X0154000Y0061350D01*
X0149000Y0061350D01*
X0146500Y0058850D01*
X0156500Y0058850D02*
X0159000Y0061350D01*
X0164000Y0061350D01*
X0166500Y0058850D01*
X0166500Y0043850D01*
X0169000Y0041350D01*
X0174000Y0041350D01*
X0176500Y0043850D01*
X0176500Y0058850D01*
X0174000Y0061350D01*
X0169000Y0061350D01*
X0166500Y0058850D01*
X0176500Y0058850D02*
X0179000Y0061350D01*
X0184000Y0061350D01*
X0186500Y0058850D01*
X0186500Y0043850D01*
X0189000Y0041350D01*
X0194000Y0041350D01*
X0196500Y0043850D01*
X0199000Y0041350D01*
X0204000Y0041350D01*
X0206500Y0043850D01*
X0206500Y0058850D01*
X0204000Y0061350D01*
X0199000Y0061350D01*
X0196500Y0058850D01*
X0196500Y0043850D01*
X0186500Y0043850D02*
X0184000Y0041350D01*
X0179000Y0041350D01*
X0176500Y0043850D01*
X0166500Y0043850D02*
X0164000Y0041350D01*
X0159000Y0041350D01*
X0156500Y0043850D01*
X0146500Y0043850D02*
X0144000Y0041350D01*
X0139000Y0041350D01*
X0136500Y0043850D01*
X0126500Y0043850D02*
X0124000Y0041350D01*
X0119000Y0041350D01*
X0116500Y0043850D01*
X0106500Y0043850D02*
X0104000Y0041350D01*
X0099000Y0041350D01*
X0096500Y0043850D01*
X0086500Y0043850D02*
X0084000Y0041350D01*
X0079000Y0041350D01*
X0076500Y0043850D01*
X0066500Y0043850D02*
X0064000Y0041350D01*
X0059000Y0041350D01*
X0056500Y0043850D01*
X0046500Y0043850D02*
X0044000Y0041350D01*
X0039000Y0041350D01*
X0036500Y0043850D01*
X0026500Y0043850D02*
X0024000Y0041350D01*
X0019000Y0041350D01*
X0016500Y0043850D01*
X0009000Y0041350D02*
X0006500Y0043850D01*
X0006500Y0058850D01*
X0009000Y0061350D01*
X0014000Y0061350D01*
X0016500Y0058850D01*
X0026500Y0058850D02*
X0029000Y0061350D01*
X0034000Y0061350D01*
X0036500Y0058850D01*
X0046500Y0058850D02*
X0049000Y0061350D01*
X0054000Y0061350D01*
X0056500Y0058850D01*
X0186500Y0058850D02*
X0189000Y0061350D01*
X0194000Y0061350D01*
X0196500Y0058850D01*
M02*
