G75*
%MOIN*%
%OFA0B0*%
%FSLAX25Y25*%
%IPPOS*%
%LPD*%
%AMOC8*
5,1,8,0,0,1.08239X$1,22.5*
%
%ADD10C,0.05937*%
%ADD11R,0.06000X0.06000*%
%ADD12C,0.06000*%
%ADD13C,0.01600*%
%ADD14C,0.01000*%
D10*
X0011500Y0005975D03*
X0021500Y0005975D03*
X0031500Y0005975D03*
X0041500Y0005975D03*
X0051500Y0005975D03*
X0061500Y0005975D03*
X0071500Y0005975D03*
X0081500Y0005975D03*
X0091500Y0005975D03*
X0101500Y0005975D03*
X0111500Y0005975D03*
X0121500Y0005975D03*
X0131500Y0005975D03*
X0141500Y0005975D03*
X0151500Y0005975D03*
X0161500Y0005975D03*
X0171500Y0005975D03*
X0181500Y0005975D03*
X0191500Y0005975D03*
X0201500Y0005975D03*
X0201500Y0065975D03*
X0191500Y0065975D03*
X0181500Y0065975D03*
X0171500Y0065975D03*
X0161500Y0065975D03*
X0151500Y0065975D03*
X0141500Y0065975D03*
X0131500Y0065975D03*
X0121500Y0065975D03*
X0111500Y0065975D03*
X0101500Y0065975D03*
X0091500Y0065975D03*
X0081500Y0065975D03*
X0071500Y0065975D03*
X0061500Y0065975D03*
X0051500Y0065975D03*
X0041500Y0065975D03*
X0031500Y0065975D03*
X0021500Y0065975D03*
X0011500Y0065975D03*
D11*
X0011500Y0075525D03*
X0011500Y0056350D03*
D12*
X0021500Y0056350D03*
X0031500Y0056350D03*
X0041500Y0056350D03*
X0051500Y0056350D03*
X0061500Y0056350D03*
X0071500Y0056350D03*
X0081500Y0056350D03*
X0091500Y0056350D03*
X0101500Y0056350D03*
X0111500Y0056350D03*
X0121500Y0056350D03*
X0131500Y0056350D03*
X0141500Y0056350D03*
X0151500Y0056350D03*
X0161500Y0056350D03*
X0171500Y0056350D03*
X0181500Y0056350D03*
X0191500Y0056350D03*
X0201500Y0056350D03*
X0201500Y0046350D03*
X0191500Y0046350D03*
X0181500Y0046350D03*
X0171500Y0046350D03*
X0161500Y0046350D03*
X0151500Y0046350D03*
X0141500Y0046350D03*
X0131500Y0046350D03*
X0121500Y0046350D03*
X0111500Y0046350D03*
X0101500Y0046350D03*
X0091500Y0046350D03*
X0081500Y0046350D03*
X0071500Y0046350D03*
X0061500Y0046350D03*
X0051500Y0046350D03*
X0041500Y0046350D03*
X0031500Y0046350D03*
X0021500Y0046350D03*
X0011500Y0046350D03*
X0021500Y0075525D03*
X0031500Y0075525D03*
X0041500Y0075525D03*
X0051500Y0075525D03*
X0061500Y0075525D03*
X0071500Y0075525D03*
X0081500Y0075525D03*
X0091500Y0075525D03*
X0101500Y0075525D03*
X0111500Y0075525D03*
X0121500Y0075525D03*
X0131500Y0075525D03*
X0141500Y0075525D03*
X0151500Y0075525D03*
X0161500Y0075525D03*
X0171500Y0075525D03*
X0181500Y0075525D03*
X0191500Y0075525D03*
X0201500Y0075525D03*
X0201500Y0085525D03*
X0191500Y0085525D03*
X0181500Y0085525D03*
X0171500Y0085525D03*
X0161500Y0085525D03*
X0151500Y0085525D03*
X0141500Y0085525D03*
X0131500Y0085525D03*
X0121500Y0085525D03*
X0111500Y0085525D03*
X0101500Y0085525D03*
X0091500Y0085525D03*
X0081500Y0085525D03*
X0071500Y0085525D03*
X0061500Y0085525D03*
X0051500Y0085525D03*
X0041500Y0085525D03*
X0031500Y0085525D03*
X0021500Y0085525D03*
X0011500Y0085525D03*
D13*
X0016475Y0080550D01*
X0016475Y0051325D01*
X0011500Y0046350D01*
X0011500Y0005975D01*
X0021500Y0005975D02*
X0021500Y0046350D01*
X0026500Y0050350D01*
X0026500Y0080325D01*
X0021500Y0085525D01*
X0031500Y0085525D02*
X0036500Y0080325D01*
X0036500Y0050350D01*
X0031500Y0046350D01*
X0031500Y0005975D01*
X0041500Y0005975D02*
X0041500Y0046350D01*
X0046500Y0050350D01*
X0046500Y0080325D01*
X0041500Y0085525D01*
X0051500Y0085525D02*
X0056500Y0080325D01*
X0056500Y0050350D01*
X0051500Y0046350D01*
X0051500Y0005975D01*
X0061500Y0005975D02*
X0061500Y0046350D01*
X0066500Y0050350D01*
X0066500Y0080325D01*
X0061500Y0085525D01*
X0071500Y0085525D02*
X0076500Y0080325D01*
X0076500Y0050350D01*
X0071500Y0046350D01*
X0071500Y0005975D01*
X0081500Y0005975D02*
X0081500Y0046350D01*
X0086500Y0050350D01*
X0086500Y0080325D01*
X0081500Y0085525D01*
X0091500Y0085525D02*
X0096500Y0080325D01*
X0096500Y0050350D01*
X0091500Y0046350D01*
X0091500Y0005975D01*
X0101500Y0005975D02*
X0101500Y0046350D01*
X0106500Y0050350D01*
X0106500Y0080325D01*
X0101500Y0085525D01*
X0111500Y0085525D02*
X0116500Y0080325D01*
X0116500Y0050350D01*
X0111500Y0046350D01*
X0111500Y0005975D01*
X0121500Y0005975D02*
X0121500Y0046350D01*
X0126500Y0050350D01*
X0126500Y0080325D01*
X0121500Y0085525D01*
X0131500Y0085525D02*
X0136500Y0080325D01*
X0136500Y0050350D01*
X0131500Y0046350D01*
X0131500Y0005975D01*
X0141500Y0005975D02*
X0141500Y0046350D01*
X0146500Y0050350D01*
X0146500Y0080325D01*
X0141500Y0085525D01*
X0151500Y0085525D02*
X0156500Y0080325D01*
X0156500Y0050350D01*
X0151500Y0046350D01*
X0151500Y0005975D01*
X0161500Y0005975D02*
X0161500Y0046350D01*
X0166500Y0050350D01*
X0166500Y0080325D01*
X0161500Y0085525D01*
X0171500Y0085525D02*
X0176500Y0080325D01*
X0176500Y0050350D01*
X0171500Y0046350D01*
X0171500Y0005975D01*
X0181500Y0005975D02*
X0181500Y0046350D01*
X0186500Y0050350D01*
X0186500Y0080325D01*
X0181500Y0085525D01*
X0191500Y0085525D02*
X0196500Y0080325D01*
X0196500Y0050350D01*
X0191500Y0046350D01*
X0191500Y0005975D01*
X0201500Y0005975D02*
X0201500Y0046350D01*
X0206500Y0050350D01*
X0206500Y0080325D01*
X0201500Y0085525D01*
X0201500Y0075525D02*
X0201500Y0065975D01*
X0201500Y0056350D01*
X0191500Y0056350D02*
X0191500Y0065975D01*
X0191500Y0075525D01*
X0181500Y0075525D02*
X0181500Y0065975D01*
X0181500Y0056350D01*
X0171500Y0056350D02*
X0171500Y0065975D01*
X0171500Y0075525D01*
X0161500Y0075525D02*
X0161500Y0065975D01*
X0161500Y0056350D01*
X0151500Y0056350D02*
X0151500Y0065975D01*
X0151500Y0075525D01*
X0141500Y0075525D02*
X0141500Y0065975D01*
X0141500Y0056350D01*
X0131500Y0056350D02*
X0131500Y0065975D01*
X0131500Y0075525D01*
X0121500Y0075525D02*
X0121500Y0065975D01*
X0121500Y0056350D01*
X0111500Y0056350D02*
X0111500Y0065975D01*
X0111500Y0075525D01*
X0101500Y0075525D02*
X0101500Y0065975D01*
X0101500Y0056350D01*
X0091500Y0056350D02*
X0091500Y0065975D01*
X0091500Y0075525D01*
X0081500Y0075525D02*
X0081500Y0065975D01*
X0081500Y0056350D01*
X0071500Y0056350D02*
X0071500Y0065975D01*
X0071500Y0075525D01*
X0061500Y0075525D02*
X0061500Y0065975D01*
X0061500Y0056350D01*
X0051500Y0056350D02*
X0051500Y0065975D01*
X0051500Y0075525D01*
X0041500Y0075525D02*
X0041500Y0065975D01*
X0041500Y0056350D01*
X0031500Y0056350D02*
X0031500Y0065975D01*
X0031500Y0075525D01*
X0021500Y0075525D02*
X0021500Y0065975D01*
X0021500Y0056350D01*
X0011500Y0056350D02*
X0011500Y0065975D01*
X0011500Y0075525D01*
D14*
X0002039Y0090411D02*
X0002039Y0001600D01*
X0210961Y0001600D01*
X0210961Y0090411D01*
X0002039Y0090411D01*
X0002039Y0090191D02*
X0210961Y0090191D01*
X0210961Y0089193D02*
X0203901Y0089193D01*
X0203940Y0089176D02*
X0202357Y0089832D01*
X0200643Y0089832D01*
X0199060Y0089176D01*
X0197849Y0087965D01*
X0197193Y0086382D01*
X0197193Y0084668D01*
X0197849Y0083085D01*
X0199060Y0081874D01*
X0200643Y0081218D01*
X0202357Y0081218D01*
X0202615Y0081325D01*
X0204393Y0079476D01*
X0204393Y0078723D01*
X0203940Y0079176D01*
X0202357Y0079832D01*
X0200643Y0079832D01*
X0199060Y0079176D01*
X0198607Y0078723D01*
X0198607Y0080304D01*
X0198624Y0081156D01*
X0198607Y0081174D01*
X0198607Y0081198D01*
X0198005Y0081800D01*
X0195638Y0084261D01*
X0195807Y0084668D01*
X0195807Y0086382D01*
X0195151Y0087965D01*
X0193940Y0089176D01*
X0192357Y0089832D01*
X0190643Y0089832D01*
X0189060Y0089176D01*
X0187849Y0087965D01*
X0187193Y0086382D01*
X0187193Y0084668D01*
X0187849Y0083085D01*
X0189060Y0081874D01*
X0190643Y0081218D01*
X0192357Y0081218D01*
X0192615Y0081325D01*
X0194393Y0079476D01*
X0194393Y0078723D01*
X0193940Y0079176D01*
X0192357Y0079832D01*
X0190643Y0079832D01*
X0189060Y0079176D01*
X0188607Y0078723D01*
X0188607Y0080304D01*
X0188624Y0081156D01*
X0188607Y0081174D01*
X0188607Y0081198D01*
X0188005Y0081800D01*
X0185638Y0084261D01*
X0185807Y0084668D01*
X0185807Y0086382D01*
X0185151Y0087965D01*
X0183940Y0089176D01*
X0182357Y0089832D01*
X0180643Y0089832D01*
X0179060Y0089176D01*
X0177849Y0087965D01*
X0177193Y0086382D01*
X0177193Y0084668D01*
X0177849Y0083085D01*
X0179060Y0081874D01*
X0180643Y0081218D01*
X0182357Y0081218D01*
X0182615Y0081325D01*
X0184393Y0079476D01*
X0184393Y0078723D01*
X0183940Y0079176D01*
X0182357Y0079832D01*
X0180643Y0079832D01*
X0179060Y0079176D01*
X0178607Y0078723D01*
X0178607Y0080304D01*
X0178624Y0081156D01*
X0178607Y0081174D01*
X0178607Y0081198D01*
X0178005Y0081800D01*
X0175638Y0084261D01*
X0175807Y0084668D01*
X0175807Y0086382D01*
X0175151Y0087965D01*
X0173940Y0089176D01*
X0172357Y0089832D01*
X0170643Y0089832D01*
X0169060Y0089176D01*
X0167849Y0087965D01*
X0167193Y0086382D01*
X0167193Y0084668D01*
X0167849Y0083085D01*
X0169060Y0081874D01*
X0170643Y0081218D01*
X0172357Y0081218D01*
X0172615Y0081325D01*
X0174393Y0079476D01*
X0174393Y0078723D01*
X0173940Y0079176D01*
X0172357Y0079832D01*
X0170643Y0079832D01*
X0169060Y0079176D01*
X0168607Y0078723D01*
X0168607Y0080304D01*
X0168624Y0081156D01*
X0168607Y0081174D01*
X0168607Y0081198D01*
X0168005Y0081800D01*
X0165638Y0084261D01*
X0165807Y0084668D01*
X0165807Y0086382D01*
X0165151Y0087965D01*
X0163940Y0089176D01*
X0162357Y0089832D01*
X0160643Y0089832D01*
X0159060Y0089176D01*
X0157849Y0087965D01*
X0157193Y0086382D01*
X0157193Y0084668D01*
X0157849Y0083085D01*
X0159060Y0081874D01*
X0160643Y0081218D01*
X0162357Y0081218D01*
X0162615Y0081325D01*
X0164393Y0079476D01*
X0164393Y0078723D01*
X0163940Y0079176D01*
X0162357Y0079832D01*
X0160643Y0079832D01*
X0159060Y0079176D01*
X0158607Y0078723D01*
X0158607Y0080304D01*
X0158624Y0081156D01*
X0158607Y0081174D01*
X0158607Y0081198D01*
X0158005Y0081800D01*
X0155638Y0084261D01*
X0155807Y0084668D01*
X0155807Y0086382D01*
X0155151Y0087965D01*
X0153940Y0089176D01*
X0152357Y0089832D01*
X0150643Y0089832D01*
X0149060Y0089176D01*
X0147849Y0087965D01*
X0147193Y0086382D01*
X0147193Y0084668D01*
X0147849Y0083085D01*
X0149060Y0081874D01*
X0150643Y0081218D01*
X0152357Y0081218D01*
X0152615Y0081325D01*
X0154393Y0079476D01*
X0154393Y0078723D01*
X0153940Y0079176D01*
X0152357Y0079832D01*
X0150643Y0079832D01*
X0149060Y0079176D01*
X0148607Y0078723D01*
X0148607Y0080304D01*
X0148624Y0081156D01*
X0148607Y0081174D01*
X0148607Y0081198D01*
X0148005Y0081800D01*
X0145638Y0084261D01*
X0145807Y0084668D01*
X0145807Y0086382D01*
X0145151Y0087965D01*
X0143940Y0089176D01*
X0142357Y0089832D01*
X0140643Y0089832D01*
X0139060Y0089176D01*
X0137849Y0087965D01*
X0137193Y0086382D01*
X0137193Y0084668D01*
X0137849Y0083085D01*
X0139060Y0081874D01*
X0140643Y0081218D01*
X0142357Y0081218D01*
X0142615Y0081325D01*
X0144393Y0079476D01*
X0144393Y0078723D01*
X0143940Y0079176D01*
X0142357Y0079832D01*
X0140643Y0079832D01*
X0139060Y0079176D01*
X0138607Y0078723D01*
X0138607Y0080304D01*
X0138624Y0081156D01*
X0138607Y0081174D01*
X0138607Y0081198D01*
X0138005Y0081800D01*
X0135638Y0084261D01*
X0135807Y0084668D01*
X0135807Y0086382D01*
X0135151Y0087965D01*
X0133940Y0089176D01*
X0132357Y0089832D01*
X0130643Y0089832D01*
X0129060Y0089176D01*
X0127849Y0087965D01*
X0127193Y0086382D01*
X0127193Y0084668D01*
X0127849Y0083085D01*
X0129060Y0081874D01*
X0130643Y0081218D01*
X0132357Y0081218D01*
X0132615Y0081325D01*
X0134393Y0079476D01*
X0134393Y0078723D01*
X0133940Y0079176D01*
X0132357Y0079832D01*
X0130643Y0079832D01*
X0129060Y0079176D01*
X0128607Y0078723D01*
X0128607Y0080304D01*
X0128624Y0081156D01*
X0128607Y0081174D01*
X0128607Y0081198D01*
X0128005Y0081800D01*
X0125638Y0084261D01*
X0125807Y0084668D01*
X0125807Y0086382D01*
X0125151Y0087965D01*
X0123940Y0089176D01*
X0122357Y0089832D01*
X0120643Y0089832D01*
X0119060Y0089176D01*
X0117849Y0087965D01*
X0117193Y0086382D01*
X0117193Y0084668D01*
X0117849Y0083085D01*
X0119060Y0081874D01*
X0120643Y0081218D01*
X0122357Y0081218D01*
X0122615Y0081325D01*
X0124393Y0079476D01*
X0124393Y0078723D01*
X0123940Y0079176D01*
X0122357Y0079832D01*
X0120643Y0079832D01*
X0119060Y0079176D01*
X0118607Y0078723D01*
X0118607Y0080304D01*
X0118624Y0081156D01*
X0118607Y0081174D01*
X0118607Y0081198D01*
X0118005Y0081800D01*
X0115638Y0084261D01*
X0115807Y0084668D01*
X0115807Y0086382D01*
X0115151Y0087965D01*
X0113940Y0089176D01*
X0112357Y0089832D01*
X0110643Y0089832D01*
X0109060Y0089176D01*
X0107849Y0087965D01*
X0107193Y0086382D01*
X0107193Y0084668D01*
X0107849Y0083085D01*
X0109060Y0081874D01*
X0110643Y0081218D01*
X0112357Y0081218D01*
X0112615Y0081325D01*
X0114393Y0079476D01*
X0114393Y0078723D01*
X0113940Y0079176D01*
X0112357Y0079832D01*
X0110643Y0079832D01*
X0109060Y0079176D01*
X0108607Y0078723D01*
X0108607Y0080304D01*
X0108624Y0081156D01*
X0108607Y0081174D01*
X0108607Y0081198D01*
X0108005Y0081800D01*
X0105638Y0084261D01*
X0105807Y0084668D01*
X0105807Y0086382D01*
X0105151Y0087965D01*
X0103940Y0089176D01*
X0102357Y0089832D01*
X0100643Y0089832D01*
X0099060Y0089176D01*
X0097849Y0087965D01*
X0097193Y0086382D01*
X0097193Y0084668D01*
X0097849Y0083085D01*
X0099060Y0081874D01*
X0100643Y0081218D01*
X0102357Y0081218D01*
X0102615Y0081325D01*
X0104393Y0079476D01*
X0104393Y0078723D01*
X0103940Y0079176D01*
X0102357Y0079832D01*
X0100643Y0079832D01*
X0099060Y0079176D01*
X0098607Y0078723D01*
X0098607Y0080304D01*
X0098624Y0081156D01*
X0098607Y0081174D01*
X0098607Y0081198D01*
X0098005Y0081800D01*
X0095638Y0084261D01*
X0095807Y0084668D01*
X0095807Y0086382D01*
X0095151Y0087965D01*
X0093940Y0089176D01*
X0092357Y0089832D01*
X0090643Y0089832D01*
X0089060Y0089176D01*
X0087849Y0087965D01*
X0087193Y0086382D01*
X0087193Y0084668D01*
X0087849Y0083085D01*
X0089060Y0081874D01*
X0090643Y0081218D01*
X0092357Y0081218D01*
X0092615Y0081325D01*
X0094393Y0079476D01*
X0094393Y0078723D01*
X0093940Y0079176D01*
X0092357Y0079832D01*
X0090643Y0079832D01*
X0089060Y0079176D01*
X0088607Y0078723D01*
X0088607Y0080304D01*
X0088624Y0081156D01*
X0088607Y0081174D01*
X0088607Y0081198D01*
X0088005Y0081800D01*
X0085638Y0084261D01*
X0085807Y0084668D01*
X0085807Y0086382D01*
X0085151Y0087965D01*
X0083940Y0089176D01*
X0082357Y0089832D01*
X0080643Y0089832D01*
X0079060Y0089176D01*
X0077849Y0087965D01*
X0077193Y0086382D01*
X0077193Y0084668D01*
X0077849Y0083085D01*
X0079060Y0081874D01*
X0080643Y0081218D01*
X0082357Y0081218D01*
X0082615Y0081325D01*
X0084393Y0079476D01*
X0084393Y0078723D01*
X0083940Y0079176D01*
X0082357Y0079832D01*
X0080643Y0079832D01*
X0079060Y0079176D01*
X0078607Y0078723D01*
X0078607Y0080304D01*
X0078624Y0081156D01*
X0078607Y0081174D01*
X0078607Y0081198D01*
X0078005Y0081800D01*
X0075638Y0084261D01*
X0075807Y0084668D01*
X0075807Y0086382D01*
X0075151Y0087965D01*
X0073940Y0089176D01*
X0072357Y0089832D01*
X0070643Y0089832D01*
X0069060Y0089176D01*
X0067849Y0087965D01*
X0067193Y0086382D01*
X0067193Y0084668D01*
X0067849Y0083085D01*
X0069060Y0081874D01*
X0070643Y0081218D01*
X0072357Y0081218D01*
X0072615Y0081325D01*
X0074393Y0079476D01*
X0074393Y0078723D01*
X0073940Y0079176D01*
X0072357Y0079832D01*
X0070643Y0079832D01*
X0069060Y0079176D01*
X0068607Y0078723D01*
X0068607Y0080304D01*
X0068624Y0081156D01*
X0068607Y0081174D01*
X0068607Y0081198D01*
X0068005Y0081800D01*
X0065638Y0084261D01*
X0065807Y0084668D01*
X0065807Y0086382D01*
X0065151Y0087965D01*
X0063940Y0089176D01*
X0062357Y0089832D01*
X0060643Y0089832D01*
X0059060Y0089176D01*
X0057849Y0087965D01*
X0057193Y0086382D01*
X0057193Y0084668D01*
X0057849Y0083085D01*
X0059060Y0081874D01*
X0060643Y0081218D01*
X0062357Y0081218D01*
X0062615Y0081325D01*
X0064393Y0079476D01*
X0064393Y0078723D01*
X0063940Y0079176D01*
X0062357Y0079832D01*
X0060643Y0079832D01*
X0059060Y0079176D01*
X0058607Y0078723D01*
X0058607Y0080304D01*
X0058624Y0081156D01*
X0058607Y0081174D01*
X0058607Y0081198D01*
X0058005Y0081800D01*
X0055638Y0084261D01*
X0055807Y0084668D01*
X0055807Y0086382D01*
X0055151Y0087965D01*
X0053940Y0089176D01*
X0052357Y0089832D01*
X0050643Y0089832D01*
X0049060Y0089176D01*
X0047849Y0087965D01*
X0047193Y0086382D01*
X0047193Y0084668D01*
X0047849Y0083085D01*
X0049060Y0081874D01*
X0050643Y0081218D01*
X0052357Y0081218D01*
X0052615Y0081325D01*
X0054393Y0079476D01*
X0054393Y0078723D01*
X0053940Y0079176D01*
X0052357Y0079832D01*
X0050643Y0079832D01*
X0049060Y0079176D01*
X0048607Y0078723D01*
X0048607Y0080304D01*
X0048624Y0081156D01*
X0048607Y0081174D01*
X0048607Y0081198D01*
X0048005Y0081800D01*
X0045638Y0084261D01*
X0045807Y0084668D01*
X0045807Y0086382D01*
X0045151Y0087965D01*
X0043940Y0089176D01*
X0042357Y0089832D01*
X0040643Y0089832D01*
X0039060Y0089176D01*
X0037849Y0087965D01*
X0037193Y0086382D01*
X0037193Y0084668D01*
X0037849Y0083085D01*
X0039060Y0081874D01*
X0040643Y0081218D01*
X0042357Y0081218D01*
X0042615Y0081325D01*
X0044393Y0079476D01*
X0044393Y0078723D01*
X0043940Y0079176D01*
X0042357Y0079832D01*
X0040643Y0079832D01*
X0039060Y0079176D01*
X0038607Y0078723D01*
X0038607Y0080304D01*
X0038624Y0081156D01*
X0038607Y0081174D01*
X0038607Y0081198D01*
X0038005Y0081800D01*
X0035638Y0084261D01*
X0035807Y0084668D01*
X0035807Y0086382D01*
X0035151Y0087965D01*
X0033940Y0089176D01*
X0032357Y0089832D01*
X0030643Y0089832D01*
X0029060Y0089176D01*
X0027849Y0087965D01*
X0027193Y0086382D01*
X0027193Y0084668D01*
X0027849Y0083085D01*
X0029060Y0081874D01*
X0030643Y0081218D01*
X0032357Y0081218D01*
X0032615Y0081325D01*
X0034393Y0079476D01*
X0034393Y0078723D01*
X0033940Y0079176D01*
X0032357Y0079832D01*
X0030643Y0079832D01*
X0029060Y0079176D01*
X0028607Y0078723D01*
X0028607Y0080304D01*
X0028624Y0081156D01*
X0028607Y0081174D01*
X0028607Y0081198D01*
X0028005Y0081800D01*
X0025638Y0084261D01*
X0025807Y0084668D01*
X0025807Y0086382D01*
X0025151Y0087965D01*
X0023940Y0089176D01*
X0022357Y0089832D01*
X0020643Y0089832D01*
X0019060Y0089176D01*
X0017849Y0087965D01*
X0017193Y0086382D01*
X0017193Y0084668D01*
X0017849Y0083085D01*
X0019060Y0081874D01*
X0020643Y0081218D01*
X0022357Y0081218D01*
X0022615Y0081325D01*
X0024393Y0079476D01*
X0024393Y0078723D01*
X0023940Y0079176D01*
X0022357Y0079832D01*
X0020643Y0079832D01*
X0019060Y0079176D01*
X0018582Y0078698D01*
X0018582Y0081423D01*
X0015669Y0084336D01*
X0015807Y0084668D01*
X0015807Y0086382D01*
X0015151Y0087965D01*
X0013940Y0089176D01*
X0012357Y0089832D01*
X0010643Y0089832D01*
X0009060Y0089176D01*
X0007849Y0087965D01*
X0007193Y0086382D01*
X0007193Y0084668D01*
X0007849Y0083085D01*
X0009060Y0081874D01*
X0010643Y0081218D01*
X0012357Y0081218D01*
X0012689Y0081356D01*
X0014213Y0079832D01*
X0007959Y0079832D01*
X0007193Y0079066D01*
X0007193Y0071984D01*
X0007959Y0071218D01*
X0009393Y0071218D01*
X0009393Y0069730D01*
X0009078Y0069600D01*
X0007875Y0068397D01*
X0007224Y0066825D01*
X0007224Y0065125D01*
X0007875Y0063553D01*
X0009078Y0062350D01*
X0009393Y0062220D01*
X0009393Y0060657D01*
X0007959Y0060657D01*
X0007193Y0059891D01*
X0007193Y0052809D01*
X0007959Y0052043D01*
X0014213Y0052043D01*
X0012689Y0050519D01*
X0012357Y0050657D01*
X0010643Y0050657D01*
X0009060Y0050001D01*
X0007849Y0048790D01*
X0007193Y0047207D01*
X0007193Y0045493D01*
X0007849Y0043910D01*
X0009060Y0042699D01*
X0009393Y0042561D01*
X0009393Y0009730D01*
X0009078Y0009600D01*
X0007875Y0008397D01*
X0007224Y0006825D01*
X0007224Y0005125D01*
X0007875Y0003553D01*
X0009078Y0002350D01*
X0010650Y0001699D01*
X0012350Y0001699D01*
X0013922Y0002350D01*
X0015125Y0003553D01*
X0015776Y0005125D01*
X0015776Y0006825D01*
X0015125Y0008397D01*
X0013922Y0009600D01*
X0013607Y0009730D01*
X0013607Y0042561D01*
X0013940Y0042699D01*
X0015151Y0043910D01*
X0015807Y0045493D01*
X0015807Y0047207D01*
X0015669Y0047539D01*
X0017348Y0049218D01*
X0018582Y0050452D01*
X0018582Y0053177D01*
X0019060Y0052699D01*
X0020643Y0052043D01*
X0022357Y0052043D01*
X0023940Y0052699D01*
X0024393Y0053152D01*
X0024393Y0051363D01*
X0023117Y0050342D01*
X0022357Y0050657D01*
X0020643Y0050657D01*
X0019060Y0050001D01*
X0017849Y0048790D01*
X0017193Y0047207D01*
X0017193Y0045493D01*
X0017849Y0043910D01*
X0019060Y0042699D01*
X0019393Y0042561D01*
X0019393Y0009730D01*
X0019078Y0009600D01*
X0017875Y0008397D01*
X0017224Y0006825D01*
X0017224Y0005125D01*
X0017875Y0003553D01*
X0019078Y0002350D01*
X0020650Y0001699D01*
X0022350Y0001699D01*
X0023922Y0002350D01*
X0025125Y0003553D01*
X0025776Y0005125D01*
X0025776Y0006825D01*
X0025125Y0008397D01*
X0023922Y0009600D01*
X0023607Y0009730D01*
X0023607Y0042561D01*
X0023940Y0042699D01*
X0025151Y0043910D01*
X0025807Y0045493D01*
X0025807Y0047097D01*
X0027239Y0048243D01*
X0027373Y0048243D01*
X0027798Y0048669D01*
X0027193Y0047207D01*
X0027193Y0045493D01*
X0027849Y0043910D01*
X0029060Y0042699D01*
X0029393Y0042561D01*
X0029393Y0009730D01*
X0029078Y0009600D01*
X0027875Y0008397D01*
X0027224Y0006825D01*
X0027224Y0005125D01*
X0027875Y0003553D01*
X0029078Y0002350D01*
X0030650Y0001699D01*
X0032350Y0001699D01*
X0033922Y0002350D01*
X0035125Y0003553D01*
X0035776Y0005125D01*
X0035776Y0006825D01*
X0035125Y0008397D01*
X0033922Y0009600D01*
X0033607Y0009730D01*
X0033607Y0042561D01*
X0033940Y0042699D01*
X0035151Y0043910D01*
X0035807Y0045493D01*
X0035807Y0047097D01*
X0037239Y0048243D01*
X0037373Y0048243D01*
X0037798Y0048669D01*
X0037193Y0047207D01*
X0037193Y0045493D01*
X0037849Y0043910D01*
X0039060Y0042699D01*
X0039393Y0042561D01*
X0039393Y0009730D01*
X0039078Y0009600D01*
X0037875Y0008397D01*
X0037224Y0006825D01*
X0037224Y0005125D01*
X0037875Y0003553D01*
X0039078Y0002350D01*
X0040650Y0001699D01*
X0042350Y0001699D01*
X0043922Y0002350D01*
X0045125Y0003553D01*
X0045776Y0005125D01*
X0045776Y0006825D01*
X0045125Y0008397D01*
X0043922Y0009600D01*
X0043607Y0009730D01*
X0043607Y0042561D01*
X0043940Y0042699D01*
X0045151Y0043910D01*
X0045807Y0045493D01*
X0045807Y0047097D01*
X0047239Y0048243D01*
X0047373Y0048243D01*
X0047798Y0048669D01*
X0047193Y0047207D01*
X0047193Y0045493D01*
X0047849Y0043910D01*
X0049060Y0042699D01*
X0049393Y0042561D01*
X0049393Y0009730D01*
X0049078Y0009600D01*
X0047875Y0008397D01*
X0047224Y0006825D01*
X0047224Y0005125D01*
X0047875Y0003553D01*
X0049078Y0002350D01*
X0050650Y0001699D01*
X0052350Y0001699D01*
X0053922Y0002350D01*
X0055125Y0003553D01*
X0055776Y0005125D01*
X0055776Y0006825D01*
X0055125Y0008397D01*
X0053922Y0009600D01*
X0053607Y0009730D01*
X0053607Y0042561D01*
X0053940Y0042699D01*
X0055151Y0043910D01*
X0055807Y0045493D01*
X0055807Y0047097D01*
X0057239Y0048243D01*
X0057373Y0048243D01*
X0057798Y0048669D01*
X0057193Y0047207D01*
X0057193Y0045493D01*
X0057849Y0043910D01*
X0059060Y0042699D01*
X0059393Y0042561D01*
X0059393Y0009730D01*
X0059078Y0009600D01*
X0057875Y0008397D01*
X0057224Y0006825D01*
X0057224Y0005125D01*
X0057875Y0003553D01*
X0059078Y0002350D01*
X0060650Y0001699D01*
X0062350Y0001699D01*
X0063922Y0002350D01*
X0065125Y0003553D01*
X0065776Y0005125D01*
X0065776Y0006825D01*
X0065125Y0008397D01*
X0063922Y0009600D01*
X0063607Y0009730D01*
X0063607Y0042561D01*
X0063940Y0042699D01*
X0065151Y0043910D01*
X0065807Y0045493D01*
X0065807Y0047097D01*
X0067239Y0048243D01*
X0067373Y0048243D01*
X0067798Y0048669D01*
X0067193Y0047207D01*
X0067193Y0045493D01*
X0067849Y0043910D01*
X0069060Y0042699D01*
X0069393Y0042561D01*
X0069393Y0009730D01*
X0069078Y0009600D01*
X0067875Y0008397D01*
X0067224Y0006825D01*
X0067224Y0005125D01*
X0067875Y0003553D01*
X0069078Y0002350D01*
X0070650Y0001699D01*
X0072350Y0001699D01*
X0073922Y0002350D01*
X0075125Y0003553D01*
X0075776Y0005125D01*
X0075776Y0006825D01*
X0075125Y0008397D01*
X0073922Y0009600D01*
X0073607Y0009730D01*
X0073607Y0042561D01*
X0073940Y0042699D01*
X0075151Y0043910D01*
X0075807Y0045493D01*
X0075807Y0047097D01*
X0077239Y0048243D01*
X0077373Y0048243D01*
X0077798Y0048669D01*
X0077193Y0047207D01*
X0077193Y0045493D01*
X0077849Y0043910D01*
X0079060Y0042699D01*
X0079393Y0042561D01*
X0079393Y0009730D01*
X0079078Y0009600D01*
X0077875Y0008397D01*
X0077224Y0006825D01*
X0077224Y0005125D01*
X0077875Y0003553D01*
X0079078Y0002350D01*
X0080650Y0001699D01*
X0082350Y0001699D01*
X0083922Y0002350D01*
X0085125Y0003553D01*
X0085776Y0005125D01*
X0085776Y0006825D01*
X0085125Y0008397D01*
X0083922Y0009600D01*
X0083607Y0009730D01*
X0083607Y0042561D01*
X0083940Y0042699D01*
X0085151Y0043910D01*
X0085807Y0045493D01*
X0085807Y0047097D01*
X0087239Y0048243D01*
X0087373Y0048243D01*
X0087798Y0048669D01*
X0087193Y0047207D01*
X0087193Y0045493D01*
X0087849Y0043910D01*
X0089060Y0042699D01*
X0089393Y0042561D01*
X0089393Y0009730D01*
X0089078Y0009600D01*
X0087875Y0008397D01*
X0087224Y0006825D01*
X0087224Y0005125D01*
X0087875Y0003553D01*
X0089078Y0002350D01*
X0090650Y0001699D01*
X0092350Y0001699D01*
X0093922Y0002350D01*
X0095125Y0003553D01*
X0095776Y0005125D01*
X0095776Y0006825D01*
X0095125Y0008397D01*
X0093922Y0009600D01*
X0093607Y0009730D01*
X0093607Y0042561D01*
X0093940Y0042699D01*
X0095151Y0043910D01*
X0095807Y0045493D01*
X0095807Y0047097D01*
X0097239Y0048243D01*
X0097373Y0048243D01*
X0097798Y0048669D01*
X0097193Y0047207D01*
X0097193Y0045493D01*
X0097849Y0043910D01*
X0099060Y0042699D01*
X0099393Y0042561D01*
X0099393Y0009730D01*
X0099078Y0009600D01*
X0097875Y0008397D01*
X0097224Y0006825D01*
X0097224Y0005125D01*
X0097875Y0003553D01*
X0099078Y0002350D01*
X0100650Y0001699D01*
X0102350Y0001699D01*
X0103922Y0002350D01*
X0105125Y0003553D01*
X0105776Y0005125D01*
X0105776Y0006825D01*
X0105125Y0008397D01*
X0103922Y0009600D01*
X0103607Y0009730D01*
X0103607Y0042561D01*
X0103940Y0042699D01*
X0105151Y0043910D01*
X0105807Y0045493D01*
X0105807Y0047097D01*
X0107239Y0048243D01*
X0107373Y0048243D01*
X0107798Y0048669D01*
X0107193Y0047207D01*
X0107193Y0045493D01*
X0107849Y0043910D01*
X0109060Y0042699D01*
X0109393Y0042561D01*
X0109393Y0009730D01*
X0109078Y0009600D01*
X0107875Y0008397D01*
X0107224Y0006825D01*
X0107224Y0005125D01*
X0107875Y0003553D01*
X0109078Y0002350D01*
X0110650Y0001699D01*
X0112350Y0001699D01*
X0113922Y0002350D01*
X0115125Y0003553D01*
X0115776Y0005125D01*
X0115776Y0006825D01*
X0115125Y0008397D01*
X0113922Y0009600D01*
X0113607Y0009730D01*
X0113607Y0042561D01*
X0113940Y0042699D01*
X0115151Y0043910D01*
X0115807Y0045493D01*
X0115807Y0047097D01*
X0117239Y0048243D01*
X0117373Y0048243D01*
X0117798Y0048669D01*
X0117193Y0047207D01*
X0117193Y0045493D01*
X0117849Y0043910D01*
X0119060Y0042699D01*
X0119393Y0042561D01*
X0119393Y0009730D01*
X0119078Y0009600D01*
X0117875Y0008397D01*
X0117224Y0006825D01*
X0117224Y0005125D01*
X0117875Y0003553D01*
X0119078Y0002350D01*
X0120650Y0001699D01*
X0122350Y0001699D01*
X0123922Y0002350D01*
X0125125Y0003553D01*
X0125776Y0005125D01*
X0125776Y0006825D01*
X0125125Y0008397D01*
X0123922Y0009600D01*
X0123607Y0009730D01*
X0123607Y0042561D01*
X0123940Y0042699D01*
X0125151Y0043910D01*
X0125807Y0045493D01*
X0125807Y0047097D01*
X0127239Y0048243D01*
X0127373Y0048243D01*
X0127798Y0048669D01*
X0127193Y0047207D01*
X0127193Y0045493D01*
X0127849Y0043910D01*
X0129060Y0042699D01*
X0129393Y0042561D01*
X0129393Y0009730D01*
X0129078Y0009600D01*
X0127875Y0008397D01*
X0127224Y0006825D01*
X0127224Y0005125D01*
X0127875Y0003553D01*
X0129078Y0002350D01*
X0130650Y0001699D01*
X0132350Y0001699D01*
X0133922Y0002350D01*
X0135125Y0003553D01*
X0135776Y0005125D01*
X0135776Y0006825D01*
X0135125Y0008397D01*
X0133922Y0009600D01*
X0133607Y0009730D01*
X0133607Y0042561D01*
X0133940Y0042699D01*
X0135151Y0043910D01*
X0135807Y0045493D01*
X0135807Y0047097D01*
X0137239Y0048243D01*
X0137373Y0048243D01*
X0137798Y0048669D01*
X0137193Y0047207D01*
X0137193Y0045493D01*
X0137849Y0043910D01*
X0139060Y0042699D01*
X0139393Y0042561D01*
X0139393Y0009730D01*
X0139078Y0009600D01*
X0137875Y0008397D01*
X0137224Y0006825D01*
X0137224Y0005125D01*
X0137875Y0003553D01*
X0139078Y0002350D01*
X0140650Y0001699D01*
X0142350Y0001699D01*
X0143922Y0002350D01*
X0145125Y0003553D01*
X0145776Y0005125D01*
X0145776Y0006825D01*
X0145125Y0008397D01*
X0143922Y0009600D01*
X0143607Y0009730D01*
X0143607Y0042561D01*
X0143940Y0042699D01*
X0145151Y0043910D01*
X0145807Y0045493D01*
X0145807Y0047097D01*
X0147239Y0048243D01*
X0147373Y0048243D01*
X0147798Y0048669D01*
X0147193Y0047207D01*
X0147193Y0045493D01*
X0147849Y0043910D01*
X0149060Y0042699D01*
X0149393Y0042561D01*
X0149393Y0009730D01*
X0149078Y0009600D01*
X0147875Y0008397D01*
X0147224Y0006825D01*
X0147224Y0005125D01*
X0147875Y0003553D01*
X0149078Y0002350D01*
X0150650Y0001699D01*
X0152350Y0001699D01*
X0153922Y0002350D01*
X0155125Y0003553D01*
X0155776Y0005125D01*
X0155776Y0006825D01*
X0155125Y0008397D01*
X0153922Y0009600D01*
X0153607Y0009730D01*
X0153607Y0042561D01*
X0153940Y0042699D01*
X0155151Y0043910D01*
X0155807Y0045493D01*
X0155807Y0047097D01*
X0157239Y0048243D01*
X0157373Y0048243D01*
X0157798Y0048669D01*
X0157193Y0047207D01*
X0157193Y0045493D01*
X0157849Y0043910D01*
X0159060Y0042699D01*
X0159393Y0042561D01*
X0159393Y0009730D01*
X0159078Y0009600D01*
X0157875Y0008397D01*
X0157224Y0006825D01*
X0157224Y0005125D01*
X0157875Y0003553D01*
X0159078Y0002350D01*
X0160650Y0001699D01*
X0162350Y0001699D01*
X0163922Y0002350D01*
X0165125Y0003553D01*
X0165776Y0005125D01*
X0165776Y0006825D01*
X0165125Y0008397D01*
X0163922Y0009600D01*
X0163607Y0009730D01*
X0163607Y0042561D01*
X0163940Y0042699D01*
X0165151Y0043910D01*
X0165807Y0045493D01*
X0165807Y0047097D01*
X0167239Y0048243D01*
X0167373Y0048243D01*
X0167798Y0048669D01*
X0167193Y0047207D01*
X0167193Y0045493D01*
X0167849Y0043910D01*
X0169060Y0042699D01*
X0169393Y0042561D01*
X0169393Y0009730D01*
X0169078Y0009600D01*
X0167875Y0008397D01*
X0167224Y0006825D01*
X0167224Y0005125D01*
X0167875Y0003553D01*
X0169078Y0002350D01*
X0170650Y0001699D01*
X0172350Y0001699D01*
X0173922Y0002350D01*
X0175125Y0003553D01*
X0175776Y0005125D01*
X0175776Y0006825D01*
X0175125Y0008397D01*
X0173922Y0009600D01*
X0173607Y0009730D01*
X0173607Y0042561D01*
X0173940Y0042699D01*
X0175151Y0043910D01*
X0175807Y0045493D01*
X0175807Y0047097D01*
X0177239Y0048243D01*
X0177373Y0048243D01*
X0177798Y0048669D01*
X0177193Y0047207D01*
X0177193Y0045493D01*
X0177849Y0043910D01*
X0179060Y0042699D01*
X0179393Y0042561D01*
X0179393Y0009730D01*
X0179078Y0009600D01*
X0177875Y0008397D01*
X0177224Y0006825D01*
X0177224Y0005125D01*
X0177875Y0003553D01*
X0179078Y0002350D01*
X0180650Y0001699D01*
X0182350Y0001699D01*
X0183922Y0002350D01*
X0185125Y0003553D01*
X0185776Y0005125D01*
X0185776Y0006825D01*
X0185125Y0008397D01*
X0183922Y0009600D01*
X0183607Y0009730D01*
X0183607Y0042561D01*
X0183940Y0042699D01*
X0185151Y0043910D01*
X0185807Y0045493D01*
X0185807Y0047097D01*
X0187239Y0048243D01*
X0187373Y0048243D01*
X0187798Y0048669D01*
X0187193Y0047207D01*
X0187193Y0045493D01*
X0187849Y0043910D01*
X0189060Y0042699D01*
X0189393Y0042561D01*
X0189393Y0009730D01*
X0189078Y0009600D01*
X0187875Y0008397D01*
X0187224Y0006825D01*
X0187224Y0005125D01*
X0187875Y0003553D01*
X0189078Y0002350D01*
X0190650Y0001699D01*
X0192350Y0001699D01*
X0193922Y0002350D01*
X0195125Y0003553D01*
X0195776Y0005125D01*
X0195776Y0006825D01*
X0195125Y0008397D01*
X0193922Y0009600D01*
X0193607Y0009730D01*
X0193607Y0042561D01*
X0193940Y0042699D01*
X0195151Y0043910D01*
X0195807Y0045493D01*
X0195807Y0047097D01*
X0197239Y0048243D01*
X0197373Y0048243D01*
X0197798Y0048669D01*
X0197193Y0047207D01*
X0197193Y0045493D01*
X0197849Y0043910D01*
X0199060Y0042699D01*
X0199393Y0042561D01*
X0199393Y0009730D01*
X0199078Y0009600D01*
X0197875Y0008397D01*
X0197224Y0006825D01*
X0197224Y0005125D01*
X0197875Y0003553D01*
X0199078Y0002350D01*
X0200650Y0001699D01*
X0202350Y0001699D01*
X0203922Y0002350D01*
X0205125Y0003553D01*
X0205776Y0005125D01*
X0205776Y0006825D01*
X0205125Y0008397D01*
X0203922Y0009600D01*
X0203607Y0009730D01*
X0203607Y0042561D01*
X0203940Y0042699D01*
X0205151Y0043910D01*
X0205807Y0045493D01*
X0205807Y0047097D01*
X0207239Y0048243D01*
X0207373Y0048243D01*
X0207907Y0048778D01*
X0208498Y0049250D01*
X0208513Y0049383D01*
X0208607Y0049477D01*
X0208607Y0050233D01*
X0208691Y0050985D01*
X0208607Y0051089D01*
X0208607Y0080304D01*
X0208624Y0081156D01*
X0208607Y0081174D01*
X0208607Y0081198D01*
X0208005Y0081800D01*
X0205638Y0084261D01*
X0205807Y0084668D01*
X0205807Y0086382D01*
X0205151Y0087965D01*
X0203940Y0089176D01*
X0204922Y0088194D02*
X0210961Y0088194D01*
X0210961Y0087195D02*
X0205470Y0087195D01*
X0205807Y0086197D02*
X0210961Y0086197D01*
X0210961Y0085198D02*
X0205807Y0085198D01*
X0205697Y0084200D02*
X0210961Y0084200D01*
X0210961Y0083201D02*
X0206657Y0083201D01*
X0207617Y0082203D02*
X0210961Y0082203D01*
X0210961Y0081204D02*
X0208600Y0081204D01*
X0208607Y0080206D02*
X0210961Y0080206D01*
X0210961Y0079207D02*
X0208607Y0079207D01*
X0208607Y0078209D02*
X0210961Y0078209D01*
X0210961Y0077210D02*
X0208607Y0077210D01*
X0208607Y0076212D02*
X0210961Y0076212D01*
X0210961Y0075213D02*
X0208607Y0075213D01*
X0208607Y0074215D02*
X0210961Y0074215D01*
X0210961Y0073216D02*
X0208607Y0073216D01*
X0208607Y0072218D02*
X0210961Y0072218D01*
X0210961Y0071219D02*
X0208607Y0071219D01*
X0208607Y0070221D02*
X0210961Y0070221D01*
X0210961Y0069222D02*
X0208607Y0069222D01*
X0208607Y0068224D02*
X0210961Y0068224D01*
X0210961Y0067225D02*
X0208607Y0067225D01*
X0208607Y0066227D02*
X0210961Y0066227D01*
X0210961Y0065228D02*
X0208607Y0065228D01*
X0208607Y0064230D02*
X0210961Y0064230D01*
X0210961Y0063231D02*
X0208607Y0063231D01*
X0208607Y0062233D02*
X0210961Y0062233D01*
X0210961Y0061234D02*
X0208607Y0061234D01*
X0208607Y0060236D02*
X0210961Y0060236D01*
X0210961Y0059237D02*
X0208607Y0059237D01*
X0208607Y0058239D02*
X0210961Y0058239D01*
X0210961Y0057240D02*
X0208607Y0057240D01*
X0208607Y0056242D02*
X0210961Y0056242D01*
X0210961Y0055243D02*
X0208607Y0055243D01*
X0208607Y0054245D02*
X0210961Y0054245D01*
X0210961Y0053246D02*
X0208607Y0053246D01*
X0208607Y0052248D02*
X0210961Y0052248D01*
X0210961Y0051249D02*
X0208607Y0051249D01*
X0208609Y0050251D02*
X0210961Y0050251D01*
X0210961Y0049252D02*
X0208498Y0049252D01*
X0207383Y0048254D02*
X0210961Y0048254D01*
X0210961Y0047255D02*
X0206004Y0047255D01*
X0205807Y0046257D02*
X0210961Y0046257D01*
X0210961Y0045258D02*
X0205710Y0045258D01*
X0205296Y0044259D02*
X0210961Y0044259D01*
X0210961Y0043261D02*
X0204502Y0043261D01*
X0203607Y0042262D02*
X0210961Y0042262D01*
X0210961Y0041264D02*
X0203607Y0041264D01*
X0203607Y0040265D02*
X0210961Y0040265D01*
X0210961Y0039267D02*
X0203607Y0039267D01*
X0203607Y0038268D02*
X0210961Y0038268D01*
X0210961Y0037270D02*
X0203607Y0037270D01*
X0203607Y0036271D02*
X0210961Y0036271D01*
X0210961Y0035273D02*
X0203607Y0035273D01*
X0203607Y0034274D02*
X0210961Y0034274D01*
X0210961Y0033276D02*
X0203607Y0033276D01*
X0203607Y0032277D02*
X0210961Y0032277D01*
X0210961Y0031279D02*
X0203607Y0031279D01*
X0203607Y0030280D02*
X0210961Y0030280D01*
X0210961Y0029282D02*
X0203607Y0029282D01*
X0203607Y0028283D02*
X0210961Y0028283D01*
X0210961Y0027285D02*
X0203607Y0027285D01*
X0203607Y0026286D02*
X0210961Y0026286D01*
X0210961Y0025288D02*
X0203607Y0025288D01*
X0203607Y0024289D02*
X0210961Y0024289D01*
X0210961Y0023291D02*
X0203607Y0023291D01*
X0203607Y0022292D02*
X0210961Y0022292D01*
X0210961Y0021294D02*
X0203607Y0021294D01*
X0203607Y0020295D02*
X0210961Y0020295D01*
X0210961Y0019297D02*
X0203607Y0019297D01*
X0203607Y0018298D02*
X0210961Y0018298D01*
X0210961Y0017300D02*
X0203607Y0017300D01*
X0203607Y0016301D02*
X0210961Y0016301D01*
X0210961Y0015303D02*
X0203607Y0015303D01*
X0203607Y0014304D02*
X0210961Y0014304D01*
X0210961Y0013306D02*
X0203607Y0013306D01*
X0203607Y0012307D02*
X0210961Y0012307D01*
X0210961Y0011309D02*
X0203607Y0011309D01*
X0203607Y0010310D02*
X0210961Y0010310D01*
X0210961Y0009312D02*
X0204210Y0009312D01*
X0205159Y0008313D02*
X0210961Y0008313D01*
X0210961Y0007315D02*
X0205573Y0007315D01*
X0205776Y0006316D02*
X0210961Y0006316D01*
X0210961Y0005318D02*
X0205776Y0005318D01*
X0205442Y0004319D02*
X0210961Y0004319D01*
X0210961Y0003321D02*
X0204892Y0003321D01*
X0203854Y0002322D02*
X0210961Y0002322D01*
X0199146Y0002322D02*
X0193854Y0002322D01*
X0194892Y0003321D02*
X0198108Y0003321D01*
X0197558Y0004319D02*
X0195442Y0004319D01*
X0195776Y0005318D02*
X0197224Y0005318D01*
X0197224Y0006316D02*
X0195776Y0006316D01*
X0195573Y0007315D02*
X0197427Y0007315D01*
X0197841Y0008313D02*
X0195159Y0008313D01*
X0194210Y0009312D02*
X0198790Y0009312D01*
X0199393Y0010310D02*
X0193607Y0010310D01*
X0193607Y0011309D02*
X0199393Y0011309D01*
X0199393Y0012307D02*
X0193607Y0012307D01*
X0193607Y0013306D02*
X0199393Y0013306D01*
X0199393Y0014304D02*
X0193607Y0014304D01*
X0193607Y0015303D02*
X0199393Y0015303D01*
X0199393Y0016301D02*
X0193607Y0016301D01*
X0193607Y0017300D02*
X0199393Y0017300D01*
X0199393Y0018298D02*
X0193607Y0018298D01*
X0193607Y0019297D02*
X0199393Y0019297D01*
X0199393Y0020295D02*
X0193607Y0020295D01*
X0193607Y0021294D02*
X0199393Y0021294D01*
X0199393Y0022292D02*
X0193607Y0022292D01*
X0193607Y0023291D02*
X0199393Y0023291D01*
X0199393Y0024289D02*
X0193607Y0024289D01*
X0193607Y0025288D02*
X0199393Y0025288D01*
X0199393Y0026286D02*
X0193607Y0026286D01*
X0193607Y0027285D02*
X0199393Y0027285D01*
X0199393Y0028283D02*
X0193607Y0028283D01*
X0193607Y0029282D02*
X0199393Y0029282D01*
X0199393Y0030280D02*
X0193607Y0030280D01*
X0193607Y0031279D02*
X0199393Y0031279D01*
X0199393Y0032277D02*
X0193607Y0032277D01*
X0193607Y0033276D02*
X0199393Y0033276D01*
X0199393Y0034274D02*
X0193607Y0034274D01*
X0193607Y0035273D02*
X0199393Y0035273D01*
X0199393Y0036271D02*
X0193607Y0036271D01*
X0193607Y0037270D02*
X0199393Y0037270D01*
X0199393Y0038268D02*
X0193607Y0038268D01*
X0193607Y0039267D02*
X0199393Y0039267D01*
X0199393Y0040265D02*
X0193607Y0040265D01*
X0193607Y0041264D02*
X0199393Y0041264D01*
X0199393Y0042262D02*
X0193607Y0042262D01*
X0194502Y0043261D02*
X0198498Y0043261D01*
X0197704Y0044259D02*
X0195296Y0044259D01*
X0195710Y0045258D02*
X0197290Y0045258D01*
X0197193Y0046257D02*
X0195807Y0046257D01*
X0196004Y0047255D02*
X0197213Y0047255D01*
X0197383Y0048254D02*
X0197627Y0048254D01*
X0198607Y0049548D02*
X0198607Y0050233D01*
X0198691Y0050985D01*
X0198607Y0051089D01*
X0198607Y0053152D01*
X0199060Y0052699D01*
X0200643Y0052043D01*
X0202357Y0052043D01*
X0203940Y0052699D01*
X0204393Y0053152D01*
X0204393Y0051363D01*
X0203117Y0050342D01*
X0202357Y0050657D01*
X0200643Y0050657D01*
X0199060Y0050001D01*
X0198607Y0049548D01*
X0198609Y0050251D02*
X0199662Y0050251D01*
X0198607Y0051249D02*
X0204251Y0051249D01*
X0204393Y0052248D02*
X0202851Y0052248D01*
X0200149Y0052248D02*
X0198607Y0052248D01*
X0194393Y0052248D02*
X0192851Y0052248D01*
X0192357Y0052043D02*
X0193940Y0052699D01*
X0194393Y0053152D01*
X0194393Y0051363D01*
X0193117Y0050342D01*
X0192357Y0050657D01*
X0190643Y0050657D01*
X0189060Y0050001D01*
X0188607Y0049548D01*
X0188607Y0050233D01*
X0188691Y0050985D01*
X0188607Y0051089D01*
X0188607Y0053152D01*
X0189060Y0052699D01*
X0190643Y0052043D01*
X0192357Y0052043D01*
X0194251Y0051249D02*
X0188607Y0051249D01*
X0188609Y0050251D02*
X0189662Y0050251D01*
X0190149Y0052248D02*
X0188607Y0052248D01*
X0184393Y0052248D02*
X0182851Y0052248D01*
X0182357Y0052043D02*
X0183940Y0052699D01*
X0184393Y0053152D01*
X0184393Y0051363D01*
X0183117Y0050342D01*
X0182357Y0050657D01*
X0180643Y0050657D01*
X0179060Y0050001D01*
X0178607Y0049548D01*
X0178607Y0050233D01*
X0178691Y0050985D01*
X0178607Y0051089D01*
X0178607Y0053152D01*
X0179060Y0052699D01*
X0180643Y0052043D01*
X0182357Y0052043D01*
X0184251Y0051249D02*
X0178607Y0051249D01*
X0178609Y0050251D02*
X0179662Y0050251D01*
X0180149Y0052248D02*
X0178607Y0052248D01*
X0174393Y0052248D02*
X0172851Y0052248D01*
X0172357Y0052043D02*
X0173940Y0052699D01*
X0174393Y0053152D01*
X0174393Y0051363D01*
X0173117Y0050342D01*
X0172357Y0050657D01*
X0170643Y0050657D01*
X0169060Y0050001D01*
X0168607Y0049548D01*
X0168607Y0050233D01*
X0168691Y0050985D01*
X0168607Y0051089D01*
X0168607Y0053152D01*
X0169060Y0052699D01*
X0170643Y0052043D01*
X0172357Y0052043D01*
X0174251Y0051249D02*
X0168607Y0051249D01*
X0168609Y0050251D02*
X0169662Y0050251D01*
X0170149Y0052248D02*
X0168607Y0052248D01*
X0164393Y0052248D02*
X0162851Y0052248D01*
X0162357Y0052043D02*
X0163940Y0052699D01*
X0164393Y0053152D01*
X0164393Y0051363D01*
X0163117Y0050342D01*
X0162357Y0050657D01*
X0160643Y0050657D01*
X0159060Y0050001D01*
X0158607Y0049548D01*
X0158607Y0050233D01*
X0158691Y0050985D01*
X0158607Y0051089D01*
X0158607Y0053152D01*
X0159060Y0052699D01*
X0160643Y0052043D01*
X0162357Y0052043D01*
X0164251Y0051249D02*
X0158607Y0051249D01*
X0158609Y0050251D02*
X0159662Y0050251D01*
X0160149Y0052248D02*
X0158607Y0052248D01*
X0154393Y0052248D02*
X0152851Y0052248D01*
X0152357Y0052043D02*
X0153940Y0052699D01*
X0154393Y0053152D01*
X0154393Y0051363D01*
X0153117Y0050342D01*
X0152357Y0050657D01*
X0150643Y0050657D01*
X0149060Y0050001D01*
X0148607Y0049548D01*
X0148607Y0050233D01*
X0148691Y0050985D01*
X0148607Y0051089D01*
X0148607Y0053152D01*
X0149060Y0052699D01*
X0150643Y0052043D01*
X0152357Y0052043D01*
X0154251Y0051249D02*
X0148607Y0051249D01*
X0148609Y0050251D02*
X0149662Y0050251D01*
X0150149Y0052248D02*
X0148607Y0052248D01*
X0144393Y0052248D02*
X0142851Y0052248D01*
X0142357Y0052043D02*
X0143940Y0052699D01*
X0144393Y0053152D01*
X0144393Y0051363D01*
X0143117Y0050342D01*
X0142357Y0050657D01*
X0140643Y0050657D01*
X0139060Y0050001D01*
X0138607Y0049548D01*
X0138607Y0050233D01*
X0138691Y0050985D01*
X0138607Y0051089D01*
X0138607Y0053152D01*
X0139060Y0052699D01*
X0140643Y0052043D01*
X0142357Y0052043D01*
X0144251Y0051249D02*
X0138607Y0051249D01*
X0138609Y0050251D02*
X0139662Y0050251D01*
X0140149Y0052248D02*
X0138607Y0052248D01*
X0134393Y0052248D02*
X0132851Y0052248D01*
X0132357Y0052043D02*
X0133940Y0052699D01*
X0134393Y0053152D01*
X0134393Y0051363D01*
X0133117Y0050342D01*
X0132357Y0050657D01*
X0130643Y0050657D01*
X0129060Y0050001D01*
X0128607Y0049548D01*
X0128607Y0050233D01*
X0128691Y0050985D01*
X0128607Y0051089D01*
X0128607Y0053152D01*
X0129060Y0052699D01*
X0130643Y0052043D01*
X0132357Y0052043D01*
X0134251Y0051249D02*
X0128607Y0051249D01*
X0128609Y0050251D02*
X0129662Y0050251D01*
X0130149Y0052248D02*
X0128607Y0052248D01*
X0124393Y0052248D02*
X0122851Y0052248D01*
X0122357Y0052043D02*
X0123940Y0052699D01*
X0124393Y0053152D01*
X0124393Y0051363D01*
X0123117Y0050342D01*
X0122357Y0050657D01*
X0120643Y0050657D01*
X0119060Y0050001D01*
X0118607Y0049548D01*
X0118607Y0050233D01*
X0118691Y0050985D01*
X0118607Y0051089D01*
X0118607Y0053152D01*
X0119060Y0052699D01*
X0120643Y0052043D01*
X0122357Y0052043D01*
X0124251Y0051249D02*
X0118607Y0051249D01*
X0118609Y0050251D02*
X0119662Y0050251D01*
X0120149Y0052248D02*
X0118607Y0052248D01*
X0114393Y0052248D02*
X0112851Y0052248D01*
X0112357Y0052043D02*
X0113940Y0052699D01*
X0114393Y0053152D01*
X0114393Y0051363D01*
X0113117Y0050342D01*
X0112357Y0050657D01*
X0110643Y0050657D01*
X0109060Y0050001D01*
X0108607Y0049548D01*
X0108607Y0050233D01*
X0108691Y0050985D01*
X0108607Y0051089D01*
X0108607Y0053152D01*
X0109060Y0052699D01*
X0110643Y0052043D01*
X0112357Y0052043D01*
X0114251Y0051249D02*
X0108607Y0051249D01*
X0108609Y0050251D02*
X0109662Y0050251D01*
X0110149Y0052248D02*
X0108607Y0052248D01*
X0104393Y0052248D02*
X0102851Y0052248D01*
X0102357Y0052043D02*
X0103940Y0052699D01*
X0104393Y0053152D01*
X0104393Y0051363D01*
X0103117Y0050342D01*
X0102357Y0050657D01*
X0100643Y0050657D01*
X0099060Y0050001D01*
X0098607Y0049548D01*
X0098607Y0050233D01*
X0098691Y0050985D01*
X0098607Y0051089D01*
X0098607Y0053152D01*
X0099060Y0052699D01*
X0100643Y0052043D01*
X0102357Y0052043D01*
X0104251Y0051249D02*
X0098607Y0051249D01*
X0098609Y0050251D02*
X0099662Y0050251D01*
X0100149Y0052248D02*
X0098607Y0052248D01*
X0094393Y0052248D02*
X0092851Y0052248D01*
X0092357Y0052043D02*
X0093940Y0052699D01*
X0094393Y0053152D01*
X0094393Y0051363D01*
X0093117Y0050342D01*
X0092357Y0050657D01*
X0090643Y0050657D01*
X0089060Y0050001D01*
X0088607Y0049548D01*
X0088607Y0050233D01*
X0088691Y0050985D01*
X0088607Y0051089D01*
X0088607Y0053152D01*
X0089060Y0052699D01*
X0090643Y0052043D01*
X0092357Y0052043D01*
X0094251Y0051249D02*
X0088607Y0051249D01*
X0088609Y0050251D02*
X0089662Y0050251D01*
X0090149Y0052248D02*
X0088607Y0052248D01*
X0084393Y0052248D02*
X0082851Y0052248D01*
X0082357Y0052043D02*
X0083940Y0052699D01*
X0084393Y0053152D01*
X0084393Y0051363D01*
X0083117Y0050342D01*
X0082357Y0050657D01*
X0080643Y0050657D01*
X0079060Y0050001D01*
X0078607Y0049548D01*
X0078607Y0050233D01*
X0078691Y0050985D01*
X0078607Y0051089D01*
X0078607Y0053152D01*
X0079060Y0052699D01*
X0080643Y0052043D01*
X0082357Y0052043D01*
X0084251Y0051249D02*
X0078607Y0051249D01*
X0078609Y0050251D02*
X0079662Y0050251D01*
X0080149Y0052248D02*
X0078607Y0052248D01*
X0074393Y0052248D02*
X0072851Y0052248D01*
X0072357Y0052043D02*
X0073940Y0052699D01*
X0074393Y0053152D01*
X0074393Y0051363D01*
X0073117Y0050342D01*
X0072357Y0050657D01*
X0070643Y0050657D01*
X0069060Y0050001D01*
X0068607Y0049548D01*
X0068607Y0050233D01*
X0068691Y0050985D01*
X0068607Y0051089D01*
X0068607Y0053152D01*
X0069060Y0052699D01*
X0070643Y0052043D01*
X0072357Y0052043D01*
X0074251Y0051249D02*
X0068607Y0051249D01*
X0068609Y0050251D02*
X0069662Y0050251D01*
X0070149Y0052248D02*
X0068607Y0052248D01*
X0064393Y0052248D02*
X0062851Y0052248D01*
X0062357Y0052043D02*
X0063940Y0052699D01*
X0064393Y0053152D01*
X0064393Y0051363D01*
X0063117Y0050342D01*
X0062357Y0050657D01*
X0060643Y0050657D01*
X0059060Y0050001D01*
X0058607Y0049548D01*
X0058607Y0050233D01*
X0058691Y0050985D01*
X0058607Y0051089D01*
X0058607Y0053152D01*
X0059060Y0052699D01*
X0060643Y0052043D01*
X0062357Y0052043D01*
X0064251Y0051249D02*
X0058607Y0051249D01*
X0058609Y0050251D02*
X0059662Y0050251D01*
X0060149Y0052248D02*
X0058607Y0052248D01*
X0054393Y0052248D02*
X0052851Y0052248D01*
X0052357Y0052043D02*
X0053940Y0052699D01*
X0054393Y0053152D01*
X0054393Y0051363D01*
X0053117Y0050342D01*
X0052357Y0050657D01*
X0050643Y0050657D01*
X0049060Y0050001D01*
X0048607Y0049548D01*
X0048607Y0050233D01*
X0048691Y0050985D01*
X0048607Y0051089D01*
X0048607Y0053152D01*
X0049060Y0052699D01*
X0050643Y0052043D01*
X0052357Y0052043D01*
X0054251Y0051249D02*
X0048607Y0051249D01*
X0048609Y0050251D02*
X0049662Y0050251D01*
X0050149Y0052248D02*
X0048607Y0052248D01*
X0044393Y0052248D02*
X0042851Y0052248D01*
X0042357Y0052043D02*
X0043940Y0052699D01*
X0044393Y0053152D01*
X0044393Y0051363D01*
X0043117Y0050342D01*
X0042357Y0050657D01*
X0040643Y0050657D01*
X0039060Y0050001D01*
X0038607Y0049548D01*
X0038607Y0050233D01*
X0038691Y0050985D01*
X0038607Y0051089D01*
X0038607Y0053152D01*
X0039060Y0052699D01*
X0040643Y0052043D01*
X0042357Y0052043D01*
X0044251Y0051249D02*
X0038607Y0051249D01*
X0038609Y0050251D02*
X0039662Y0050251D01*
X0040149Y0052248D02*
X0038607Y0052248D01*
X0034393Y0052248D02*
X0032851Y0052248D01*
X0032357Y0052043D02*
X0033940Y0052699D01*
X0034393Y0053152D01*
X0034393Y0051363D01*
X0033117Y0050342D01*
X0032357Y0050657D01*
X0030643Y0050657D01*
X0029060Y0050001D01*
X0028607Y0049548D01*
X0028607Y0050233D01*
X0028691Y0050985D01*
X0028607Y0051089D01*
X0028607Y0053152D01*
X0029060Y0052699D01*
X0030643Y0052043D01*
X0032357Y0052043D01*
X0034251Y0051249D02*
X0028607Y0051249D01*
X0028609Y0050251D02*
X0029662Y0050251D01*
X0030149Y0052248D02*
X0028607Y0052248D01*
X0024393Y0052248D02*
X0022851Y0052248D01*
X0024251Y0051249D02*
X0018582Y0051249D01*
X0018582Y0052248D02*
X0020149Y0052248D01*
X0019662Y0050251D02*
X0018380Y0050251D01*
X0018311Y0049252D02*
X0017382Y0049252D01*
X0017627Y0048254D02*
X0016383Y0048254D01*
X0015787Y0047255D02*
X0017213Y0047255D01*
X0017193Y0046257D02*
X0015807Y0046257D01*
X0015710Y0045258D02*
X0017290Y0045258D01*
X0017704Y0044259D02*
X0015296Y0044259D01*
X0014502Y0043261D02*
X0018498Y0043261D01*
X0019393Y0042262D02*
X0013607Y0042262D01*
X0013607Y0041264D02*
X0019393Y0041264D01*
X0019393Y0040265D02*
X0013607Y0040265D01*
X0013607Y0039267D02*
X0019393Y0039267D01*
X0019393Y0038268D02*
X0013607Y0038268D01*
X0013607Y0037270D02*
X0019393Y0037270D01*
X0019393Y0036271D02*
X0013607Y0036271D01*
X0013607Y0035273D02*
X0019393Y0035273D01*
X0019393Y0034274D02*
X0013607Y0034274D01*
X0013607Y0033276D02*
X0019393Y0033276D01*
X0019393Y0032277D02*
X0013607Y0032277D01*
X0013607Y0031279D02*
X0019393Y0031279D01*
X0019393Y0030280D02*
X0013607Y0030280D01*
X0013607Y0029282D02*
X0019393Y0029282D01*
X0019393Y0028283D02*
X0013607Y0028283D01*
X0013607Y0027285D02*
X0019393Y0027285D01*
X0019393Y0026286D02*
X0013607Y0026286D01*
X0013607Y0025288D02*
X0019393Y0025288D01*
X0019393Y0024289D02*
X0013607Y0024289D01*
X0013607Y0023291D02*
X0019393Y0023291D01*
X0019393Y0022292D02*
X0013607Y0022292D01*
X0013607Y0021294D02*
X0019393Y0021294D01*
X0019393Y0020295D02*
X0013607Y0020295D01*
X0013607Y0019297D02*
X0019393Y0019297D01*
X0019393Y0018298D02*
X0013607Y0018298D01*
X0013607Y0017300D02*
X0019393Y0017300D01*
X0019393Y0016301D02*
X0013607Y0016301D01*
X0013607Y0015303D02*
X0019393Y0015303D01*
X0019393Y0014304D02*
X0013607Y0014304D01*
X0013607Y0013306D02*
X0019393Y0013306D01*
X0019393Y0012307D02*
X0013607Y0012307D01*
X0013607Y0011309D02*
X0019393Y0011309D01*
X0019393Y0010310D02*
X0013607Y0010310D01*
X0014210Y0009312D02*
X0018790Y0009312D01*
X0017841Y0008313D02*
X0015159Y0008313D01*
X0015573Y0007315D02*
X0017427Y0007315D01*
X0017224Y0006316D02*
X0015776Y0006316D01*
X0015776Y0005318D02*
X0017224Y0005318D01*
X0017558Y0004319D02*
X0015442Y0004319D01*
X0014892Y0003321D02*
X0018108Y0003321D01*
X0019146Y0002322D02*
X0013854Y0002322D01*
X0009146Y0002322D02*
X0002039Y0002322D01*
X0002039Y0003321D02*
X0008108Y0003321D01*
X0007558Y0004319D02*
X0002039Y0004319D01*
X0002039Y0005318D02*
X0007224Y0005318D01*
X0007224Y0006316D02*
X0002039Y0006316D01*
X0002039Y0007315D02*
X0007427Y0007315D01*
X0007841Y0008313D02*
X0002039Y0008313D01*
X0002039Y0009312D02*
X0008790Y0009312D01*
X0009393Y0010310D02*
X0002039Y0010310D01*
X0002039Y0011309D02*
X0009393Y0011309D01*
X0009393Y0012307D02*
X0002039Y0012307D01*
X0002039Y0013306D02*
X0009393Y0013306D01*
X0009393Y0014304D02*
X0002039Y0014304D01*
X0002039Y0015303D02*
X0009393Y0015303D01*
X0009393Y0016301D02*
X0002039Y0016301D01*
X0002039Y0017300D02*
X0009393Y0017300D01*
X0009393Y0018298D02*
X0002039Y0018298D01*
X0002039Y0019297D02*
X0009393Y0019297D01*
X0009393Y0020295D02*
X0002039Y0020295D01*
X0002039Y0021294D02*
X0009393Y0021294D01*
X0009393Y0022292D02*
X0002039Y0022292D01*
X0002039Y0023291D02*
X0009393Y0023291D01*
X0009393Y0024289D02*
X0002039Y0024289D01*
X0002039Y0025288D02*
X0009393Y0025288D01*
X0009393Y0026286D02*
X0002039Y0026286D01*
X0002039Y0027285D02*
X0009393Y0027285D01*
X0009393Y0028283D02*
X0002039Y0028283D01*
X0002039Y0029282D02*
X0009393Y0029282D01*
X0009393Y0030280D02*
X0002039Y0030280D01*
X0002039Y0031279D02*
X0009393Y0031279D01*
X0009393Y0032277D02*
X0002039Y0032277D01*
X0002039Y0033276D02*
X0009393Y0033276D01*
X0009393Y0034274D02*
X0002039Y0034274D01*
X0002039Y0035273D02*
X0009393Y0035273D01*
X0009393Y0036271D02*
X0002039Y0036271D01*
X0002039Y0037270D02*
X0009393Y0037270D01*
X0009393Y0038268D02*
X0002039Y0038268D01*
X0002039Y0039267D02*
X0009393Y0039267D01*
X0009393Y0040265D02*
X0002039Y0040265D01*
X0002039Y0041264D02*
X0009393Y0041264D01*
X0009393Y0042262D02*
X0002039Y0042262D01*
X0002039Y0043261D02*
X0008498Y0043261D01*
X0007704Y0044259D02*
X0002039Y0044259D01*
X0002039Y0045258D02*
X0007290Y0045258D01*
X0007193Y0046257D02*
X0002039Y0046257D01*
X0002039Y0047255D02*
X0007213Y0047255D01*
X0007627Y0048254D02*
X0002039Y0048254D01*
X0002039Y0049252D02*
X0008311Y0049252D01*
X0009662Y0050251D02*
X0002039Y0050251D01*
X0002039Y0051249D02*
X0013419Y0051249D01*
X0007754Y0052248D02*
X0002039Y0052248D01*
X0002039Y0053246D02*
X0007193Y0053246D01*
X0007193Y0054245D02*
X0002039Y0054245D01*
X0002039Y0055243D02*
X0007193Y0055243D01*
X0007193Y0056242D02*
X0002039Y0056242D01*
X0002039Y0057240D02*
X0007193Y0057240D01*
X0007193Y0058239D02*
X0002039Y0058239D01*
X0002039Y0059237D02*
X0007193Y0059237D01*
X0007537Y0060236D02*
X0002039Y0060236D01*
X0002039Y0061234D02*
X0009393Y0061234D01*
X0009362Y0062233D02*
X0002039Y0062233D01*
X0002039Y0063231D02*
X0008197Y0063231D01*
X0007595Y0064230D02*
X0002039Y0064230D01*
X0002039Y0065228D02*
X0007224Y0065228D01*
X0007224Y0066227D02*
X0002039Y0066227D01*
X0002039Y0067225D02*
X0007390Y0067225D01*
X0007804Y0068224D02*
X0002039Y0068224D01*
X0002039Y0069222D02*
X0008701Y0069222D01*
X0009393Y0070221D02*
X0002039Y0070221D01*
X0002039Y0071219D02*
X0007957Y0071219D01*
X0007193Y0072218D02*
X0002039Y0072218D01*
X0002039Y0073216D02*
X0007193Y0073216D01*
X0007193Y0074215D02*
X0002039Y0074215D01*
X0002039Y0075213D02*
X0007193Y0075213D01*
X0007193Y0076212D02*
X0002039Y0076212D01*
X0002039Y0077210D02*
X0007193Y0077210D01*
X0007193Y0078209D02*
X0002039Y0078209D01*
X0002039Y0079207D02*
X0007334Y0079207D01*
X0008731Y0082203D02*
X0002039Y0082203D01*
X0002039Y0083201D02*
X0007800Y0083201D01*
X0007387Y0084200D02*
X0002039Y0084200D01*
X0002039Y0085198D02*
X0007193Y0085198D01*
X0007193Y0086197D02*
X0002039Y0086197D01*
X0002039Y0087195D02*
X0007530Y0087195D01*
X0008078Y0088194D02*
X0002039Y0088194D01*
X0002039Y0089193D02*
X0009099Y0089193D01*
X0013901Y0089193D02*
X0019099Y0089193D01*
X0018078Y0088194D02*
X0014922Y0088194D01*
X0015470Y0087195D02*
X0017530Y0087195D01*
X0017193Y0086197D02*
X0015807Y0086197D01*
X0015807Y0085198D02*
X0017193Y0085198D01*
X0017387Y0084200D02*
X0015805Y0084200D01*
X0016803Y0083201D02*
X0017800Y0083201D01*
X0017802Y0082203D02*
X0018731Y0082203D01*
X0018582Y0081204D02*
X0022731Y0081204D01*
X0023691Y0080206D02*
X0018582Y0080206D01*
X0018582Y0079207D02*
X0019135Y0079207D01*
X0013839Y0080206D02*
X0002039Y0080206D01*
X0002039Y0081204D02*
X0012841Y0081204D01*
X0023865Y0079207D02*
X0024393Y0079207D01*
X0028607Y0079207D02*
X0029135Y0079207D01*
X0028607Y0080206D02*
X0033691Y0080206D01*
X0033865Y0079207D02*
X0034393Y0079207D01*
X0032731Y0081204D02*
X0028600Y0081204D01*
X0028731Y0082203D02*
X0027617Y0082203D01*
X0027800Y0083201D02*
X0026657Y0083201D01*
X0027387Y0084200D02*
X0025697Y0084200D01*
X0025807Y0085198D02*
X0027193Y0085198D01*
X0027193Y0086197D02*
X0025807Y0086197D01*
X0025470Y0087195D02*
X0027530Y0087195D01*
X0028078Y0088194D02*
X0024922Y0088194D01*
X0023901Y0089193D02*
X0029099Y0089193D01*
X0033901Y0089193D02*
X0039099Y0089193D01*
X0038078Y0088194D02*
X0034922Y0088194D01*
X0035470Y0087195D02*
X0037530Y0087195D01*
X0037193Y0086197D02*
X0035807Y0086197D01*
X0035807Y0085198D02*
X0037193Y0085198D01*
X0037387Y0084200D02*
X0035697Y0084200D01*
X0036657Y0083201D02*
X0037800Y0083201D01*
X0037617Y0082203D02*
X0038731Y0082203D01*
X0038600Y0081204D02*
X0042731Y0081204D01*
X0043691Y0080206D02*
X0038607Y0080206D01*
X0038607Y0079207D02*
X0039135Y0079207D01*
X0043865Y0079207D02*
X0044393Y0079207D01*
X0048607Y0079207D02*
X0049135Y0079207D01*
X0048607Y0080206D02*
X0053691Y0080206D01*
X0053865Y0079207D02*
X0054393Y0079207D01*
X0052731Y0081204D02*
X0048600Y0081204D01*
X0048731Y0082203D02*
X0047617Y0082203D01*
X0047800Y0083201D02*
X0046657Y0083201D01*
X0047387Y0084200D02*
X0045697Y0084200D01*
X0045807Y0085198D02*
X0047193Y0085198D01*
X0047193Y0086197D02*
X0045807Y0086197D01*
X0045470Y0087195D02*
X0047530Y0087195D01*
X0048078Y0088194D02*
X0044922Y0088194D01*
X0043901Y0089193D02*
X0049099Y0089193D01*
X0053901Y0089193D02*
X0059099Y0089193D01*
X0058078Y0088194D02*
X0054922Y0088194D01*
X0055470Y0087195D02*
X0057530Y0087195D01*
X0057193Y0086197D02*
X0055807Y0086197D01*
X0055807Y0085198D02*
X0057193Y0085198D01*
X0057387Y0084200D02*
X0055697Y0084200D01*
X0056657Y0083201D02*
X0057800Y0083201D01*
X0057617Y0082203D02*
X0058731Y0082203D01*
X0058600Y0081204D02*
X0062731Y0081204D01*
X0063691Y0080206D02*
X0058607Y0080206D01*
X0058607Y0079207D02*
X0059135Y0079207D01*
X0063865Y0079207D02*
X0064393Y0079207D01*
X0068607Y0079207D02*
X0069135Y0079207D01*
X0068607Y0080206D02*
X0073691Y0080206D01*
X0073865Y0079207D02*
X0074393Y0079207D01*
X0072731Y0081204D02*
X0068600Y0081204D01*
X0068731Y0082203D02*
X0067617Y0082203D01*
X0067800Y0083201D02*
X0066657Y0083201D01*
X0067387Y0084200D02*
X0065697Y0084200D01*
X0065807Y0085198D02*
X0067193Y0085198D01*
X0067193Y0086197D02*
X0065807Y0086197D01*
X0065470Y0087195D02*
X0067530Y0087195D01*
X0068078Y0088194D02*
X0064922Y0088194D01*
X0063901Y0089193D02*
X0069099Y0089193D01*
X0073901Y0089193D02*
X0079099Y0089193D01*
X0078078Y0088194D02*
X0074922Y0088194D01*
X0075470Y0087195D02*
X0077530Y0087195D01*
X0077193Y0086197D02*
X0075807Y0086197D01*
X0075807Y0085198D02*
X0077193Y0085198D01*
X0077387Y0084200D02*
X0075697Y0084200D01*
X0076657Y0083201D02*
X0077800Y0083201D01*
X0077617Y0082203D02*
X0078731Y0082203D01*
X0078600Y0081204D02*
X0082731Y0081204D01*
X0083691Y0080206D02*
X0078607Y0080206D01*
X0078607Y0079207D02*
X0079135Y0079207D01*
X0083865Y0079207D02*
X0084393Y0079207D01*
X0088607Y0079207D02*
X0089135Y0079207D01*
X0088607Y0080206D02*
X0093691Y0080206D01*
X0093865Y0079207D02*
X0094393Y0079207D01*
X0092731Y0081204D02*
X0088600Y0081204D01*
X0088731Y0082203D02*
X0087617Y0082203D01*
X0087800Y0083201D02*
X0086657Y0083201D01*
X0087387Y0084200D02*
X0085697Y0084200D01*
X0085807Y0085198D02*
X0087193Y0085198D01*
X0087193Y0086197D02*
X0085807Y0086197D01*
X0085470Y0087195D02*
X0087530Y0087195D01*
X0088078Y0088194D02*
X0084922Y0088194D01*
X0083901Y0089193D02*
X0089099Y0089193D01*
X0093901Y0089193D02*
X0099099Y0089193D01*
X0098078Y0088194D02*
X0094922Y0088194D01*
X0095470Y0087195D02*
X0097530Y0087195D01*
X0097193Y0086197D02*
X0095807Y0086197D01*
X0095807Y0085198D02*
X0097193Y0085198D01*
X0097387Y0084200D02*
X0095697Y0084200D01*
X0096657Y0083201D02*
X0097800Y0083201D01*
X0097617Y0082203D02*
X0098731Y0082203D01*
X0098600Y0081204D02*
X0102731Y0081204D01*
X0103691Y0080206D02*
X0098607Y0080206D01*
X0098607Y0079207D02*
X0099135Y0079207D01*
X0103865Y0079207D02*
X0104393Y0079207D01*
X0108607Y0079207D02*
X0109135Y0079207D01*
X0108607Y0080206D02*
X0113691Y0080206D01*
X0113865Y0079207D02*
X0114393Y0079207D01*
X0112731Y0081204D02*
X0108600Y0081204D01*
X0108731Y0082203D02*
X0107617Y0082203D01*
X0107800Y0083201D02*
X0106657Y0083201D01*
X0107387Y0084200D02*
X0105697Y0084200D01*
X0105807Y0085198D02*
X0107193Y0085198D01*
X0107193Y0086197D02*
X0105807Y0086197D01*
X0105470Y0087195D02*
X0107530Y0087195D01*
X0108078Y0088194D02*
X0104922Y0088194D01*
X0103901Y0089193D02*
X0109099Y0089193D01*
X0113901Y0089193D02*
X0119099Y0089193D01*
X0118078Y0088194D02*
X0114922Y0088194D01*
X0115470Y0087195D02*
X0117530Y0087195D01*
X0117193Y0086197D02*
X0115807Y0086197D01*
X0115807Y0085198D02*
X0117193Y0085198D01*
X0117387Y0084200D02*
X0115697Y0084200D01*
X0116657Y0083201D02*
X0117800Y0083201D01*
X0117617Y0082203D02*
X0118731Y0082203D01*
X0118600Y0081204D02*
X0122731Y0081204D01*
X0123691Y0080206D02*
X0118607Y0080206D01*
X0118607Y0079207D02*
X0119135Y0079207D01*
X0123865Y0079207D02*
X0124393Y0079207D01*
X0128607Y0079207D02*
X0129135Y0079207D01*
X0128607Y0080206D02*
X0133691Y0080206D01*
X0133865Y0079207D02*
X0134393Y0079207D01*
X0132731Y0081204D02*
X0128600Y0081204D01*
X0128731Y0082203D02*
X0127617Y0082203D01*
X0127800Y0083201D02*
X0126657Y0083201D01*
X0127387Y0084200D02*
X0125697Y0084200D01*
X0125807Y0085198D02*
X0127193Y0085198D01*
X0127193Y0086197D02*
X0125807Y0086197D01*
X0125470Y0087195D02*
X0127530Y0087195D01*
X0128078Y0088194D02*
X0124922Y0088194D01*
X0123901Y0089193D02*
X0129099Y0089193D01*
X0133901Y0089193D02*
X0139099Y0089193D01*
X0138078Y0088194D02*
X0134922Y0088194D01*
X0135470Y0087195D02*
X0137530Y0087195D01*
X0137193Y0086197D02*
X0135807Y0086197D01*
X0135807Y0085198D02*
X0137193Y0085198D01*
X0137387Y0084200D02*
X0135697Y0084200D01*
X0136657Y0083201D02*
X0137800Y0083201D01*
X0137617Y0082203D02*
X0138731Y0082203D01*
X0138600Y0081204D02*
X0142731Y0081204D01*
X0143691Y0080206D02*
X0138607Y0080206D01*
X0138607Y0079207D02*
X0139135Y0079207D01*
X0143865Y0079207D02*
X0144393Y0079207D01*
X0148607Y0079207D02*
X0149135Y0079207D01*
X0148607Y0080206D02*
X0153691Y0080206D01*
X0153865Y0079207D02*
X0154393Y0079207D01*
X0152731Y0081204D02*
X0148600Y0081204D01*
X0148731Y0082203D02*
X0147617Y0082203D01*
X0147800Y0083201D02*
X0146657Y0083201D01*
X0147387Y0084200D02*
X0145697Y0084200D01*
X0145807Y0085198D02*
X0147193Y0085198D01*
X0147193Y0086197D02*
X0145807Y0086197D01*
X0145470Y0087195D02*
X0147530Y0087195D01*
X0148078Y0088194D02*
X0144922Y0088194D01*
X0143901Y0089193D02*
X0149099Y0089193D01*
X0153901Y0089193D02*
X0159099Y0089193D01*
X0158078Y0088194D02*
X0154922Y0088194D01*
X0155470Y0087195D02*
X0157530Y0087195D01*
X0157193Y0086197D02*
X0155807Y0086197D01*
X0155807Y0085198D02*
X0157193Y0085198D01*
X0157387Y0084200D02*
X0155697Y0084200D01*
X0156657Y0083201D02*
X0157800Y0083201D01*
X0157617Y0082203D02*
X0158731Y0082203D01*
X0158600Y0081204D02*
X0162731Y0081204D01*
X0163691Y0080206D02*
X0158607Y0080206D01*
X0158607Y0079207D02*
X0159135Y0079207D01*
X0163865Y0079207D02*
X0164393Y0079207D01*
X0168607Y0079207D02*
X0169135Y0079207D01*
X0168607Y0080206D02*
X0173691Y0080206D01*
X0173865Y0079207D02*
X0174393Y0079207D01*
X0172731Y0081204D02*
X0168600Y0081204D01*
X0168731Y0082203D02*
X0167617Y0082203D01*
X0167800Y0083201D02*
X0166657Y0083201D01*
X0167387Y0084200D02*
X0165697Y0084200D01*
X0165807Y0085198D02*
X0167193Y0085198D01*
X0167193Y0086197D02*
X0165807Y0086197D01*
X0165470Y0087195D02*
X0167530Y0087195D01*
X0168078Y0088194D02*
X0164922Y0088194D01*
X0163901Y0089193D02*
X0169099Y0089193D01*
X0173901Y0089193D02*
X0179099Y0089193D01*
X0178078Y0088194D02*
X0174922Y0088194D01*
X0175470Y0087195D02*
X0177530Y0087195D01*
X0177193Y0086197D02*
X0175807Y0086197D01*
X0175807Y0085198D02*
X0177193Y0085198D01*
X0177387Y0084200D02*
X0175697Y0084200D01*
X0176657Y0083201D02*
X0177800Y0083201D01*
X0177617Y0082203D02*
X0178731Y0082203D01*
X0178600Y0081204D02*
X0182731Y0081204D01*
X0183691Y0080206D02*
X0178607Y0080206D01*
X0178607Y0079207D02*
X0179135Y0079207D01*
X0183865Y0079207D02*
X0184393Y0079207D01*
X0188607Y0079207D02*
X0189135Y0079207D01*
X0188607Y0080206D02*
X0193691Y0080206D01*
X0193865Y0079207D02*
X0194393Y0079207D01*
X0192731Y0081204D02*
X0188600Y0081204D01*
X0188731Y0082203D02*
X0187617Y0082203D01*
X0187800Y0083201D02*
X0186657Y0083201D01*
X0187387Y0084200D02*
X0185697Y0084200D01*
X0185807Y0085198D02*
X0187193Y0085198D01*
X0187193Y0086197D02*
X0185807Y0086197D01*
X0185470Y0087195D02*
X0187530Y0087195D01*
X0188078Y0088194D02*
X0184922Y0088194D01*
X0183901Y0089193D02*
X0189099Y0089193D01*
X0193901Y0089193D02*
X0199099Y0089193D01*
X0198078Y0088194D02*
X0194922Y0088194D01*
X0195470Y0087195D02*
X0197530Y0087195D01*
X0197193Y0086197D02*
X0195807Y0086197D01*
X0195807Y0085198D02*
X0197193Y0085198D01*
X0197387Y0084200D02*
X0195697Y0084200D01*
X0196657Y0083201D02*
X0197800Y0083201D01*
X0197617Y0082203D02*
X0198731Y0082203D01*
X0198600Y0081204D02*
X0202731Y0081204D01*
X0203691Y0080206D02*
X0198607Y0080206D01*
X0198607Y0079207D02*
X0199135Y0079207D01*
X0203865Y0079207D02*
X0204393Y0079207D01*
X0204393Y0072327D02*
X0204393Y0069129D01*
X0203922Y0069600D01*
X0203607Y0069730D01*
X0203607Y0071736D01*
X0203940Y0071874D01*
X0204393Y0072327D01*
X0204393Y0072218D02*
X0204284Y0072218D01*
X0204393Y0071219D02*
X0203607Y0071219D01*
X0203607Y0070221D02*
X0204393Y0070221D01*
X0204393Y0069222D02*
X0204299Y0069222D01*
X0199393Y0069730D02*
X0199078Y0069600D01*
X0198607Y0069129D01*
X0198607Y0072327D01*
X0199060Y0071874D01*
X0199393Y0071736D01*
X0199393Y0069730D01*
X0199393Y0070221D02*
X0198607Y0070221D01*
X0198607Y0069222D02*
X0198701Y0069222D01*
X0194393Y0069222D02*
X0194299Y0069222D01*
X0194393Y0069129D02*
X0193922Y0069600D01*
X0193607Y0069730D01*
X0193607Y0071736D01*
X0193940Y0071874D01*
X0194393Y0072327D01*
X0194393Y0069129D01*
X0194393Y0070221D02*
X0193607Y0070221D01*
X0193607Y0071219D02*
X0194393Y0071219D01*
X0194393Y0072218D02*
X0194284Y0072218D01*
X0198607Y0072218D02*
X0198716Y0072218D01*
X0198607Y0071219D02*
X0199393Y0071219D01*
X0189393Y0071219D02*
X0188607Y0071219D01*
X0189060Y0071874D02*
X0189393Y0071736D01*
X0189393Y0069730D01*
X0189078Y0069600D01*
X0188607Y0069129D01*
X0188607Y0072327D01*
X0189060Y0071874D01*
X0188716Y0072218D02*
X0188607Y0072218D01*
X0184393Y0072218D02*
X0184284Y0072218D01*
X0184393Y0072327D02*
X0184393Y0069129D01*
X0183922Y0069600D01*
X0183607Y0069730D01*
X0183607Y0071736D01*
X0183940Y0071874D01*
X0184393Y0072327D01*
X0184393Y0071219D02*
X0183607Y0071219D01*
X0183607Y0070221D02*
X0184393Y0070221D01*
X0184393Y0069222D02*
X0184299Y0069222D01*
X0188607Y0069222D02*
X0188701Y0069222D01*
X0188607Y0070221D02*
X0189393Y0070221D01*
X0179393Y0070221D02*
X0178607Y0070221D01*
X0179078Y0069600D02*
X0178607Y0069129D01*
X0178607Y0072327D01*
X0179060Y0071874D01*
X0179393Y0071736D01*
X0179393Y0069730D01*
X0179078Y0069600D01*
X0178701Y0069222D02*
X0178607Y0069222D01*
X0174393Y0069222D02*
X0174299Y0069222D01*
X0174393Y0069129D02*
X0173922Y0069600D01*
X0173607Y0069730D01*
X0173607Y0071736D01*
X0173940Y0071874D01*
X0174393Y0072327D01*
X0174393Y0069129D01*
X0174393Y0070221D02*
X0173607Y0070221D01*
X0173607Y0071219D02*
X0174393Y0071219D01*
X0174393Y0072218D02*
X0174284Y0072218D01*
X0178607Y0072218D02*
X0178716Y0072218D01*
X0178607Y0071219D02*
X0179393Y0071219D01*
X0169393Y0071219D02*
X0168607Y0071219D01*
X0169060Y0071874D02*
X0169393Y0071736D01*
X0169393Y0069730D01*
X0169078Y0069600D01*
X0168607Y0069129D01*
X0168607Y0072327D01*
X0169060Y0071874D01*
X0168716Y0072218D02*
X0168607Y0072218D01*
X0164393Y0072218D02*
X0164284Y0072218D01*
X0164393Y0072327D02*
X0164393Y0069129D01*
X0163922Y0069600D01*
X0163607Y0069730D01*
X0163607Y0071736D01*
X0163940Y0071874D01*
X0164393Y0072327D01*
X0164393Y0071219D02*
X0163607Y0071219D01*
X0163607Y0070221D02*
X0164393Y0070221D01*
X0164393Y0069222D02*
X0164299Y0069222D01*
X0168607Y0069222D02*
X0168701Y0069222D01*
X0168607Y0070221D02*
X0169393Y0070221D01*
X0159393Y0070221D02*
X0158607Y0070221D01*
X0159078Y0069600D02*
X0159393Y0069730D01*
X0159393Y0071736D01*
X0159060Y0071874D01*
X0158607Y0072327D01*
X0158607Y0069129D01*
X0159078Y0069600D01*
X0158701Y0069222D02*
X0158607Y0069222D01*
X0154393Y0069222D02*
X0154299Y0069222D01*
X0154393Y0069129D02*
X0153922Y0069600D01*
X0153607Y0069730D01*
X0153607Y0071736D01*
X0153940Y0071874D01*
X0154393Y0072327D01*
X0154393Y0069129D01*
X0154393Y0070221D02*
X0153607Y0070221D01*
X0153607Y0071219D02*
X0154393Y0071219D01*
X0154393Y0072218D02*
X0154284Y0072218D01*
X0158607Y0072218D02*
X0158716Y0072218D01*
X0158607Y0071219D02*
X0159393Y0071219D01*
X0149393Y0071219D02*
X0148607Y0071219D01*
X0149060Y0071874D02*
X0148607Y0072327D01*
X0148607Y0069129D01*
X0149078Y0069600D01*
X0149393Y0069730D01*
X0149393Y0071736D01*
X0149060Y0071874D01*
X0148716Y0072218D02*
X0148607Y0072218D01*
X0144393Y0072218D02*
X0144284Y0072218D01*
X0144393Y0072327D02*
X0144393Y0069129D01*
X0143922Y0069600D01*
X0143607Y0069730D01*
X0143607Y0071736D01*
X0143940Y0071874D01*
X0144393Y0072327D01*
X0144393Y0071219D02*
X0143607Y0071219D01*
X0143607Y0070221D02*
X0144393Y0070221D01*
X0144393Y0069222D02*
X0144299Y0069222D01*
X0148607Y0069222D02*
X0148701Y0069222D01*
X0148607Y0070221D02*
X0149393Y0070221D01*
X0139393Y0070221D02*
X0138607Y0070221D01*
X0139078Y0069600D02*
X0138607Y0069129D01*
X0138607Y0072327D01*
X0139060Y0071874D01*
X0139393Y0071736D01*
X0139393Y0069730D01*
X0139078Y0069600D01*
X0138701Y0069222D02*
X0138607Y0069222D01*
X0134393Y0069222D02*
X0134299Y0069222D01*
X0134393Y0069129D02*
X0133922Y0069600D01*
X0133607Y0069730D01*
X0133607Y0071736D01*
X0133940Y0071874D01*
X0134393Y0072327D01*
X0134393Y0069129D01*
X0134393Y0070221D02*
X0133607Y0070221D01*
X0133607Y0071219D02*
X0134393Y0071219D01*
X0134393Y0072218D02*
X0134284Y0072218D01*
X0138607Y0072218D02*
X0138716Y0072218D01*
X0138607Y0071219D02*
X0139393Y0071219D01*
X0129393Y0071219D02*
X0128607Y0071219D01*
X0129060Y0071874D02*
X0128607Y0072327D01*
X0128607Y0069129D01*
X0129078Y0069600D01*
X0129393Y0069730D01*
X0129393Y0071736D01*
X0129060Y0071874D01*
X0128716Y0072218D02*
X0128607Y0072218D01*
X0124393Y0072218D02*
X0124284Y0072218D01*
X0124393Y0072327D02*
X0124393Y0069129D01*
X0123922Y0069600D01*
X0123607Y0069730D01*
X0123607Y0071736D01*
X0123940Y0071874D01*
X0124393Y0072327D01*
X0124393Y0071219D02*
X0123607Y0071219D01*
X0123607Y0070221D02*
X0124393Y0070221D01*
X0124393Y0069222D02*
X0124299Y0069222D01*
X0128607Y0069222D02*
X0128701Y0069222D01*
X0128607Y0070221D02*
X0129393Y0070221D01*
X0119393Y0070221D02*
X0118607Y0070221D01*
X0119078Y0069600D02*
X0118607Y0069129D01*
X0118607Y0072327D01*
X0119060Y0071874D01*
X0119393Y0071736D01*
X0119393Y0069730D01*
X0119078Y0069600D01*
X0118701Y0069222D02*
X0118607Y0069222D01*
X0114393Y0069222D02*
X0114299Y0069222D01*
X0114393Y0069129D02*
X0113922Y0069600D01*
X0113607Y0069730D01*
X0113607Y0071736D01*
X0113940Y0071874D01*
X0114393Y0072327D01*
X0114393Y0069129D01*
X0114393Y0070221D02*
X0113607Y0070221D01*
X0113607Y0071219D02*
X0114393Y0071219D01*
X0114393Y0072218D02*
X0114284Y0072218D01*
X0118607Y0072218D02*
X0118716Y0072218D01*
X0118607Y0071219D02*
X0119393Y0071219D01*
X0109393Y0071219D02*
X0108607Y0071219D01*
X0109060Y0071874D02*
X0108607Y0072327D01*
X0108607Y0069129D01*
X0109078Y0069600D01*
X0109393Y0069730D01*
X0109393Y0071736D01*
X0109060Y0071874D01*
X0108716Y0072218D02*
X0108607Y0072218D01*
X0104393Y0072218D02*
X0104284Y0072218D01*
X0104393Y0072327D02*
X0103940Y0071874D01*
X0103607Y0071736D01*
X0103607Y0069730D01*
X0103922Y0069600D01*
X0104393Y0069129D01*
X0104393Y0072327D01*
X0104393Y0071219D02*
X0103607Y0071219D01*
X0103607Y0070221D02*
X0104393Y0070221D01*
X0104393Y0069222D02*
X0104299Y0069222D01*
X0108607Y0069222D02*
X0108701Y0069222D01*
X0108607Y0070221D02*
X0109393Y0070221D01*
X0099393Y0070221D02*
X0098607Y0070221D01*
X0099078Y0069600D02*
X0098607Y0069129D01*
X0098607Y0072327D01*
X0099060Y0071874D01*
X0099393Y0071736D01*
X0099393Y0069730D01*
X0099078Y0069600D01*
X0098701Y0069222D02*
X0098607Y0069222D01*
X0094393Y0069222D02*
X0094299Y0069222D01*
X0094393Y0069129D02*
X0093922Y0069600D01*
X0093607Y0069730D01*
X0093607Y0071736D01*
X0093940Y0071874D01*
X0094393Y0072327D01*
X0094393Y0069129D01*
X0094393Y0070221D02*
X0093607Y0070221D01*
X0093607Y0071219D02*
X0094393Y0071219D01*
X0094393Y0072218D02*
X0094284Y0072218D01*
X0098607Y0072218D02*
X0098716Y0072218D01*
X0098607Y0071219D02*
X0099393Y0071219D01*
X0089393Y0071219D02*
X0088607Y0071219D01*
X0089060Y0071874D02*
X0088607Y0072327D01*
X0088607Y0069129D01*
X0089078Y0069600D01*
X0089393Y0069730D01*
X0089393Y0071736D01*
X0089060Y0071874D01*
X0088716Y0072218D02*
X0088607Y0072218D01*
X0084393Y0072218D02*
X0084284Y0072218D01*
X0084393Y0072327D02*
X0084393Y0069129D01*
X0083922Y0069600D01*
X0083607Y0069730D01*
X0083607Y0071736D01*
X0083940Y0071874D01*
X0084393Y0072327D01*
X0084393Y0071219D02*
X0083607Y0071219D01*
X0083607Y0070221D02*
X0084393Y0070221D01*
X0084393Y0069222D02*
X0084299Y0069222D01*
X0088607Y0069222D02*
X0088701Y0069222D01*
X0088607Y0070221D02*
X0089393Y0070221D01*
X0079393Y0070221D02*
X0078607Y0070221D01*
X0079078Y0069600D02*
X0078607Y0069129D01*
X0078607Y0072327D01*
X0079060Y0071874D01*
X0079393Y0071736D01*
X0079393Y0069730D01*
X0079078Y0069600D01*
X0078701Y0069222D02*
X0078607Y0069222D01*
X0074393Y0069222D02*
X0074299Y0069222D01*
X0074393Y0069129D02*
X0073922Y0069600D01*
X0073607Y0069730D01*
X0073607Y0071736D01*
X0073940Y0071874D01*
X0074393Y0072327D01*
X0074393Y0069129D01*
X0074393Y0070221D02*
X0073607Y0070221D01*
X0073607Y0071219D02*
X0074393Y0071219D01*
X0074393Y0072218D02*
X0074284Y0072218D01*
X0078607Y0072218D02*
X0078716Y0072218D01*
X0078607Y0071219D02*
X0079393Y0071219D01*
X0069393Y0071219D02*
X0068607Y0071219D01*
X0069060Y0071874D02*
X0069393Y0071736D01*
X0069393Y0069730D01*
X0069078Y0069600D01*
X0068607Y0069129D01*
X0068607Y0072327D01*
X0069060Y0071874D01*
X0068716Y0072218D02*
X0068607Y0072218D01*
X0064393Y0072218D02*
X0064284Y0072218D01*
X0064393Y0072327D02*
X0064393Y0069129D01*
X0063922Y0069600D01*
X0063607Y0069730D01*
X0063607Y0071736D01*
X0063940Y0071874D01*
X0064393Y0072327D01*
X0064393Y0071219D02*
X0063607Y0071219D01*
X0063607Y0070221D02*
X0064393Y0070221D01*
X0064393Y0069222D02*
X0064299Y0069222D01*
X0068607Y0069222D02*
X0068701Y0069222D01*
X0068607Y0070221D02*
X0069393Y0070221D01*
X0059393Y0070221D02*
X0058607Y0070221D01*
X0059078Y0069600D02*
X0058607Y0069129D01*
X0058607Y0072327D01*
X0059060Y0071874D01*
X0059393Y0071736D01*
X0059393Y0069730D01*
X0059078Y0069600D01*
X0058701Y0069222D02*
X0058607Y0069222D01*
X0054393Y0069222D02*
X0054299Y0069222D01*
X0054393Y0069129D02*
X0053922Y0069600D01*
X0053607Y0069730D01*
X0053607Y0071736D01*
X0053940Y0071874D01*
X0054393Y0072327D01*
X0054393Y0069129D01*
X0054393Y0070221D02*
X0053607Y0070221D01*
X0053607Y0071219D02*
X0054393Y0071219D01*
X0054393Y0072218D02*
X0054284Y0072218D01*
X0058607Y0072218D02*
X0058716Y0072218D01*
X0058607Y0071219D02*
X0059393Y0071219D01*
X0049393Y0071219D02*
X0048607Y0071219D01*
X0049060Y0071874D02*
X0048607Y0072327D01*
X0048607Y0069129D01*
X0049078Y0069600D01*
X0049393Y0069730D01*
X0049393Y0071736D01*
X0049060Y0071874D01*
X0048716Y0072218D02*
X0048607Y0072218D01*
X0044393Y0072218D02*
X0044284Y0072218D01*
X0044393Y0072327D02*
X0044393Y0069129D01*
X0043922Y0069600D01*
X0043607Y0069730D01*
X0043607Y0071736D01*
X0043940Y0071874D01*
X0044393Y0072327D01*
X0044393Y0071219D02*
X0043607Y0071219D01*
X0043607Y0070221D02*
X0044393Y0070221D01*
X0044393Y0069222D02*
X0044299Y0069222D01*
X0048607Y0069222D02*
X0048701Y0069222D01*
X0048607Y0070221D02*
X0049393Y0070221D01*
X0039393Y0070221D02*
X0038607Y0070221D01*
X0039078Y0069600D02*
X0038607Y0069129D01*
X0038607Y0072327D01*
X0039060Y0071874D01*
X0039393Y0071736D01*
X0039393Y0069730D01*
X0039078Y0069600D01*
X0038701Y0069222D02*
X0038607Y0069222D01*
X0034393Y0069222D02*
X0034299Y0069222D01*
X0034393Y0069129D02*
X0033922Y0069600D01*
X0033607Y0069730D01*
X0033607Y0071736D01*
X0033940Y0071874D01*
X0034393Y0072327D01*
X0034393Y0069129D01*
X0034393Y0070221D02*
X0033607Y0070221D01*
X0033607Y0071219D02*
X0034393Y0071219D01*
X0034393Y0072218D02*
X0034284Y0072218D01*
X0038607Y0072218D02*
X0038716Y0072218D01*
X0038607Y0071219D02*
X0039393Y0071219D01*
X0029393Y0071219D02*
X0028607Y0071219D01*
X0029060Y0071874D02*
X0029393Y0071736D01*
X0029393Y0069730D01*
X0029078Y0069600D01*
X0028607Y0069129D01*
X0028607Y0072327D01*
X0029060Y0071874D01*
X0028716Y0072218D02*
X0028607Y0072218D01*
X0024393Y0072218D02*
X0024284Y0072218D01*
X0024393Y0072327D02*
X0024393Y0069129D01*
X0023922Y0069600D01*
X0023607Y0069730D01*
X0023607Y0071736D01*
X0023940Y0071874D01*
X0024393Y0072327D01*
X0024393Y0071219D02*
X0023607Y0071219D01*
X0023607Y0070221D02*
X0024393Y0070221D01*
X0024393Y0069222D02*
X0024299Y0069222D01*
X0028607Y0069222D02*
X0028701Y0069222D01*
X0028607Y0070221D02*
X0029393Y0070221D01*
X0019393Y0070221D02*
X0018582Y0070221D01*
X0019078Y0069600D02*
X0018582Y0069104D01*
X0018582Y0072352D01*
X0019060Y0071874D01*
X0019393Y0071736D01*
X0019393Y0069730D01*
X0019078Y0069600D01*
X0018701Y0069222D02*
X0018582Y0069222D01*
X0014368Y0069222D02*
X0014299Y0069222D01*
X0014368Y0069154D02*
X0013922Y0069600D01*
X0013607Y0069730D01*
X0013607Y0071218D01*
X0014368Y0071218D01*
X0014368Y0069154D01*
X0014368Y0070221D02*
X0013607Y0070221D01*
X0018582Y0071219D02*
X0019393Y0071219D01*
X0018716Y0072218D02*
X0018582Y0072218D01*
X0018582Y0062846D02*
X0019078Y0062350D01*
X0019393Y0062220D01*
X0019393Y0060139D01*
X0019060Y0060001D01*
X0018582Y0059523D01*
X0018582Y0062846D01*
X0018582Y0062233D02*
X0019362Y0062233D01*
X0019393Y0061234D02*
X0018582Y0061234D01*
X0018582Y0060236D02*
X0019393Y0060236D01*
X0023607Y0060236D02*
X0024393Y0060236D01*
X0023940Y0060001D02*
X0023607Y0060139D01*
X0023607Y0062220D01*
X0023922Y0062350D01*
X0024393Y0062821D01*
X0024393Y0059548D01*
X0023940Y0060001D01*
X0023607Y0061234D02*
X0024393Y0061234D01*
X0024393Y0062233D02*
X0023638Y0062233D01*
X0028607Y0062233D02*
X0029362Y0062233D01*
X0029393Y0062220D02*
X0029393Y0060139D01*
X0029060Y0060001D01*
X0028607Y0059548D01*
X0028607Y0062821D01*
X0029078Y0062350D01*
X0029393Y0062220D01*
X0029393Y0061234D02*
X0028607Y0061234D01*
X0028607Y0060236D02*
X0029393Y0060236D01*
X0033607Y0060236D02*
X0034393Y0060236D01*
X0033940Y0060001D02*
X0034393Y0059548D01*
X0034393Y0062821D01*
X0033922Y0062350D01*
X0033607Y0062220D01*
X0033607Y0060139D01*
X0033940Y0060001D01*
X0033607Y0061234D02*
X0034393Y0061234D01*
X0034393Y0062233D02*
X0033638Y0062233D01*
X0038607Y0062233D02*
X0039362Y0062233D01*
X0039393Y0062220D02*
X0039393Y0060139D01*
X0039060Y0060001D01*
X0038607Y0059548D01*
X0038607Y0062821D01*
X0039078Y0062350D01*
X0039393Y0062220D01*
X0039393Y0061234D02*
X0038607Y0061234D01*
X0038607Y0060236D02*
X0039393Y0060236D01*
X0043607Y0060236D02*
X0044393Y0060236D01*
X0043940Y0060001D02*
X0043607Y0060139D01*
X0043607Y0062220D01*
X0043922Y0062350D01*
X0044393Y0062821D01*
X0044393Y0059548D01*
X0043940Y0060001D01*
X0043607Y0061234D02*
X0044393Y0061234D01*
X0044393Y0062233D02*
X0043638Y0062233D01*
X0048607Y0062233D02*
X0049362Y0062233D01*
X0049393Y0062220D02*
X0049393Y0060139D01*
X0049060Y0060001D01*
X0048607Y0059548D01*
X0048607Y0062821D01*
X0049078Y0062350D01*
X0049393Y0062220D01*
X0049393Y0061234D02*
X0048607Y0061234D01*
X0048607Y0060236D02*
X0049393Y0060236D01*
X0053607Y0060236D02*
X0054393Y0060236D01*
X0053940Y0060001D02*
X0053607Y0060139D01*
X0053607Y0062220D01*
X0053922Y0062350D01*
X0054393Y0062821D01*
X0054393Y0059548D01*
X0053940Y0060001D01*
X0053607Y0061234D02*
X0054393Y0061234D01*
X0054393Y0062233D02*
X0053638Y0062233D01*
X0058607Y0062233D02*
X0059362Y0062233D01*
X0059393Y0062220D02*
X0059393Y0060139D01*
X0059060Y0060001D01*
X0058607Y0059548D01*
X0058607Y0062821D01*
X0059078Y0062350D01*
X0059393Y0062220D01*
X0059393Y0061234D02*
X0058607Y0061234D01*
X0058607Y0060236D02*
X0059393Y0060236D01*
X0063607Y0060236D02*
X0064393Y0060236D01*
X0063940Y0060001D02*
X0063607Y0060139D01*
X0063607Y0062220D01*
X0063922Y0062350D01*
X0064393Y0062821D01*
X0064393Y0059548D01*
X0063940Y0060001D01*
X0063607Y0061234D02*
X0064393Y0061234D01*
X0064393Y0062233D02*
X0063638Y0062233D01*
X0068607Y0062233D02*
X0069362Y0062233D01*
X0069393Y0062220D02*
X0069393Y0060139D01*
X0069060Y0060001D01*
X0068607Y0059548D01*
X0068607Y0062821D01*
X0069078Y0062350D01*
X0069393Y0062220D01*
X0069393Y0061234D02*
X0068607Y0061234D01*
X0068607Y0060236D02*
X0069393Y0060236D01*
X0073607Y0060236D02*
X0074393Y0060236D01*
X0073940Y0060001D02*
X0073607Y0060139D01*
X0073607Y0062220D01*
X0073922Y0062350D01*
X0074393Y0062821D01*
X0074393Y0059548D01*
X0073940Y0060001D01*
X0073607Y0061234D02*
X0074393Y0061234D01*
X0074393Y0062233D02*
X0073638Y0062233D01*
X0078607Y0062233D02*
X0079362Y0062233D01*
X0079393Y0062220D02*
X0079393Y0060139D01*
X0079060Y0060001D01*
X0078607Y0059548D01*
X0078607Y0062821D01*
X0079078Y0062350D01*
X0079393Y0062220D01*
X0079393Y0061234D02*
X0078607Y0061234D01*
X0078607Y0060236D02*
X0079393Y0060236D01*
X0083607Y0060236D02*
X0084393Y0060236D01*
X0083940Y0060001D02*
X0083607Y0060139D01*
X0083607Y0062220D01*
X0083922Y0062350D01*
X0084393Y0062821D01*
X0084393Y0059548D01*
X0083940Y0060001D01*
X0083607Y0061234D02*
X0084393Y0061234D01*
X0084393Y0062233D02*
X0083638Y0062233D01*
X0088607Y0062233D02*
X0089362Y0062233D01*
X0089393Y0062220D02*
X0089393Y0060139D01*
X0089060Y0060001D01*
X0088607Y0059548D01*
X0088607Y0062821D01*
X0089078Y0062350D01*
X0089393Y0062220D01*
X0089393Y0061234D02*
X0088607Y0061234D01*
X0088607Y0060236D02*
X0089393Y0060236D01*
X0093607Y0060236D02*
X0094393Y0060236D01*
X0093940Y0060001D02*
X0094393Y0059548D01*
X0094393Y0062821D01*
X0093922Y0062350D01*
X0093607Y0062220D01*
X0093607Y0060139D01*
X0093940Y0060001D01*
X0093607Y0061234D02*
X0094393Y0061234D01*
X0094393Y0062233D02*
X0093638Y0062233D01*
X0098607Y0062233D02*
X0099362Y0062233D01*
X0099393Y0062220D02*
X0099393Y0060139D01*
X0099060Y0060001D01*
X0098607Y0059548D01*
X0098607Y0062821D01*
X0099078Y0062350D01*
X0099393Y0062220D01*
X0099393Y0061234D02*
X0098607Y0061234D01*
X0098607Y0060236D02*
X0099393Y0060236D01*
X0103607Y0060236D02*
X0104393Y0060236D01*
X0103940Y0060001D02*
X0104393Y0059548D01*
X0104393Y0062821D01*
X0103922Y0062350D01*
X0103607Y0062220D01*
X0103607Y0060139D01*
X0103940Y0060001D01*
X0103607Y0061234D02*
X0104393Y0061234D01*
X0104393Y0062233D02*
X0103638Y0062233D01*
X0108607Y0062233D02*
X0109362Y0062233D01*
X0109393Y0062220D02*
X0109393Y0060139D01*
X0109060Y0060001D01*
X0108607Y0059548D01*
X0108607Y0062821D01*
X0109078Y0062350D01*
X0109393Y0062220D01*
X0109393Y0061234D02*
X0108607Y0061234D01*
X0108607Y0060236D02*
X0109393Y0060236D01*
X0113607Y0060236D02*
X0114393Y0060236D01*
X0113940Y0060001D02*
X0113607Y0060139D01*
X0113607Y0062220D01*
X0113922Y0062350D01*
X0114393Y0062821D01*
X0114393Y0059548D01*
X0113940Y0060001D01*
X0113607Y0061234D02*
X0114393Y0061234D01*
X0114393Y0062233D02*
X0113638Y0062233D01*
X0118607Y0062233D02*
X0119362Y0062233D01*
X0119393Y0062220D02*
X0119393Y0060139D01*
X0119060Y0060001D01*
X0118607Y0059548D01*
X0118607Y0062821D01*
X0119078Y0062350D01*
X0119393Y0062220D01*
X0119393Y0061234D02*
X0118607Y0061234D01*
X0118607Y0060236D02*
X0119393Y0060236D01*
X0123607Y0060236D02*
X0124393Y0060236D01*
X0123940Y0060001D02*
X0123607Y0060139D01*
X0123607Y0062220D01*
X0123922Y0062350D01*
X0124393Y0062821D01*
X0124393Y0059548D01*
X0123940Y0060001D01*
X0123607Y0061234D02*
X0124393Y0061234D01*
X0124393Y0062233D02*
X0123638Y0062233D01*
X0128607Y0062233D02*
X0129362Y0062233D01*
X0129393Y0062220D02*
X0129393Y0060139D01*
X0129060Y0060001D01*
X0128607Y0059548D01*
X0128607Y0062821D01*
X0129078Y0062350D01*
X0129393Y0062220D01*
X0129393Y0061234D02*
X0128607Y0061234D01*
X0128607Y0060236D02*
X0129393Y0060236D01*
X0133607Y0060236D02*
X0134393Y0060236D01*
X0133940Y0060001D02*
X0134393Y0059548D01*
X0134393Y0062821D01*
X0133922Y0062350D01*
X0133607Y0062220D01*
X0133607Y0060139D01*
X0133940Y0060001D01*
X0133607Y0061234D02*
X0134393Y0061234D01*
X0134393Y0062233D02*
X0133638Y0062233D01*
X0138607Y0062233D02*
X0139362Y0062233D01*
X0139393Y0062220D02*
X0139393Y0060139D01*
X0139060Y0060001D01*
X0138607Y0059548D01*
X0138607Y0062821D01*
X0139078Y0062350D01*
X0139393Y0062220D01*
X0139393Y0061234D02*
X0138607Y0061234D01*
X0138607Y0060236D02*
X0139393Y0060236D01*
X0143607Y0060236D02*
X0144393Y0060236D01*
X0143940Y0060001D02*
X0143607Y0060139D01*
X0143607Y0062220D01*
X0143922Y0062350D01*
X0144393Y0062821D01*
X0144393Y0059548D01*
X0143940Y0060001D01*
X0143607Y0061234D02*
X0144393Y0061234D01*
X0144393Y0062233D02*
X0143638Y0062233D01*
X0148607Y0062233D02*
X0149362Y0062233D01*
X0149393Y0062220D02*
X0149393Y0060139D01*
X0149060Y0060001D01*
X0148607Y0059548D01*
X0148607Y0062821D01*
X0149078Y0062350D01*
X0149393Y0062220D01*
X0149393Y0061234D02*
X0148607Y0061234D01*
X0148607Y0060236D02*
X0149393Y0060236D01*
X0153607Y0060236D02*
X0154393Y0060236D01*
X0153940Y0060001D02*
X0153607Y0060139D01*
X0153607Y0062220D01*
X0153922Y0062350D01*
X0154393Y0062821D01*
X0154393Y0059548D01*
X0153940Y0060001D01*
X0153607Y0061234D02*
X0154393Y0061234D01*
X0154393Y0062233D02*
X0153638Y0062233D01*
X0158607Y0062233D02*
X0159362Y0062233D01*
X0159393Y0062220D02*
X0159393Y0060139D01*
X0159060Y0060001D01*
X0158607Y0059548D01*
X0158607Y0062821D01*
X0159078Y0062350D01*
X0159393Y0062220D01*
X0159393Y0061234D02*
X0158607Y0061234D01*
X0158607Y0060236D02*
X0159393Y0060236D01*
X0163607Y0060236D02*
X0164393Y0060236D01*
X0163940Y0060001D02*
X0164393Y0059548D01*
X0164393Y0062821D01*
X0163922Y0062350D01*
X0163607Y0062220D01*
X0163607Y0060139D01*
X0163940Y0060001D01*
X0163607Y0061234D02*
X0164393Y0061234D01*
X0164393Y0062233D02*
X0163638Y0062233D01*
X0168607Y0062233D02*
X0169362Y0062233D01*
X0169393Y0062220D02*
X0169393Y0060139D01*
X0169060Y0060001D01*
X0168607Y0059548D01*
X0168607Y0062821D01*
X0169078Y0062350D01*
X0169393Y0062220D01*
X0169393Y0061234D02*
X0168607Y0061234D01*
X0168607Y0060236D02*
X0169393Y0060236D01*
X0173607Y0060236D02*
X0174393Y0060236D01*
X0173940Y0060001D02*
X0173607Y0060139D01*
X0173607Y0062220D01*
X0173922Y0062350D01*
X0174393Y0062821D01*
X0174393Y0059548D01*
X0173940Y0060001D01*
X0173607Y0061234D02*
X0174393Y0061234D01*
X0174393Y0062233D02*
X0173638Y0062233D01*
X0178607Y0062233D02*
X0179362Y0062233D01*
X0179393Y0062220D02*
X0179393Y0060139D01*
X0179060Y0060001D01*
X0178607Y0059548D01*
X0178607Y0062821D01*
X0179078Y0062350D01*
X0179393Y0062220D01*
X0179393Y0061234D02*
X0178607Y0061234D01*
X0178607Y0060236D02*
X0179393Y0060236D01*
X0183607Y0060236D02*
X0184393Y0060236D01*
X0183940Y0060001D02*
X0183607Y0060139D01*
X0183607Y0062220D01*
X0183922Y0062350D01*
X0184393Y0062821D01*
X0184393Y0059548D01*
X0183940Y0060001D01*
X0183607Y0061234D02*
X0184393Y0061234D01*
X0184393Y0062233D02*
X0183638Y0062233D01*
X0188607Y0062233D02*
X0189362Y0062233D01*
X0189393Y0062220D02*
X0189393Y0060139D01*
X0189060Y0060001D01*
X0188607Y0059548D01*
X0188607Y0062821D01*
X0189078Y0062350D01*
X0189393Y0062220D01*
X0189393Y0061234D02*
X0188607Y0061234D01*
X0188607Y0060236D02*
X0189393Y0060236D01*
X0193607Y0060236D02*
X0194393Y0060236D01*
X0193940Y0060001D02*
X0194393Y0059548D01*
X0194393Y0062821D01*
X0193922Y0062350D01*
X0193607Y0062220D01*
X0193607Y0060139D01*
X0193940Y0060001D01*
X0193607Y0061234D02*
X0194393Y0061234D01*
X0194393Y0062233D02*
X0193638Y0062233D01*
X0198607Y0062233D02*
X0199362Y0062233D01*
X0199393Y0062220D02*
X0199393Y0060139D01*
X0199060Y0060001D01*
X0198607Y0059548D01*
X0198607Y0062821D01*
X0199078Y0062350D01*
X0199393Y0062220D01*
X0199393Y0061234D02*
X0198607Y0061234D01*
X0198607Y0060236D02*
X0199393Y0060236D01*
X0203607Y0060236D02*
X0204393Y0060236D01*
X0203940Y0060001D02*
X0203607Y0060139D01*
X0203607Y0062220D01*
X0203922Y0062350D01*
X0204393Y0062821D01*
X0204393Y0059548D01*
X0203940Y0060001D01*
X0203607Y0061234D02*
X0204393Y0061234D01*
X0204393Y0062233D02*
X0203638Y0062233D01*
X0187627Y0048254D02*
X0187383Y0048254D01*
X0187213Y0047255D02*
X0186004Y0047255D01*
X0185807Y0046257D02*
X0187193Y0046257D01*
X0187290Y0045258D02*
X0185710Y0045258D01*
X0185296Y0044259D02*
X0187704Y0044259D01*
X0188498Y0043261D02*
X0184502Y0043261D01*
X0183607Y0042262D02*
X0189393Y0042262D01*
X0189393Y0041264D02*
X0183607Y0041264D01*
X0183607Y0040265D02*
X0189393Y0040265D01*
X0189393Y0039267D02*
X0183607Y0039267D01*
X0183607Y0038268D02*
X0189393Y0038268D01*
X0189393Y0037270D02*
X0183607Y0037270D01*
X0183607Y0036271D02*
X0189393Y0036271D01*
X0189393Y0035273D02*
X0183607Y0035273D01*
X0183607Y0034274D02*
X0189393Y0034274D01*
X0189393Y0033276D02*
X0183607Y0033276D01*
X0183607Y0032277D02*
X0189393Y0032277D01*
X0189393Y0031279D02*
X0183607Y0031279D01*
X0183607Y0030280D02*
X0189393Y0030280D01*
X0189393Y0029282D02*
X0183607Y0029282D01*
X0183607Y0028283D02*
X0189393Y0028283D01*
X0189393Y0027285D02*
X0183607Y0027285D01*
X0183607Y0026286D02*
X0189393Y0026286D01*
X0189393Y0025288D02*
X0183607Y0025288D01*
X0183607Y0024289D02*
X0189393Y0024289D01*
X0189393Y0023291D02*
X0183607Y0023291D01*
X0183607Y0022292D02*
X0189393Y0022292D01*
X0189393Y0021294D02*
X0183607Y0021294D01*
X0183607Y0020295D02*
X0189393Y0020295D01*
X0189393Y0019297D02*
X0183607Y0019297D01*
X0183607Y0018298D02*
X0189393Y0018298D01*
X0189393Y0017300D02*
X0183607Y0017300D01*
X0183607Y0016301D02*
X0189393Y0016301D01*
X0189393Y0015303D02*
X0183607Y0015303D01*
X0183607Y0014304D02*
X0189393Y0014304D01*
X0189393Y0013306D02*
X0183607Y0013306D01*
X0183607Y0012307D02*
X0189393Y0012307D01*
X0189393Y0011309D02*
X0183607Y0011309D01*
X0183607Y0010310D02*
X0189393Y0010310D01*
X0188790Y0009312D02*
X0184210Y0009312D01*
X0185159Y0008313D02*
X0187841Y0008313D01*
X0187427Y0007315D02*
X0185573Y0007315D01*
X0185776Y0006316D02*
X0187224Y0006316D01*
X0187224Y0005318D02*
X0185776Y0005318D01*
X0185442Y0004319D02*
X0187558Y0004319D01*
X0188108Y0003321D02*
X0184892Y0003321D01*
X0183854Y0002322D02*
X0189146Y0002322D01*
X0179146Y0002322D02*
X0173854Y0002322D01*
X0174892Y0003321D02*
X0178108Y0003321D01*
X0177558Y0004319D02*
X0175442Y0004319D01*
X0175776Y0005318D02*
X0177224Y0005318D01*
X0177224Y0006316D02*
X0175776Y0006316D01*
X0175573Y0007315D02*
X0177427Y0007315D01*
X0177841Y0008313D02*
X0175159Y0008313D01*
X0174210Y0009312D02*
X0178790Y0009312D01*
X0179393Y0010310D02*
X0173607Y0010310D01*
X0173607Y0011309D02*
X0179393Y0011309D01*
X0179393Y0012307D02*
X0173607Y0012307D01*
X0173607Y0013306D02*
X0179393Y0013306D01*
X0179393Y0014304D02*
X0173607Y0014304D01*
X0173607Y0015303D02*
X0179393Y0015303D01*
X0179393Y0016301D02*
X0173607Y0016301D01*
X0173607Y0017300D02*
X0179393Y0017300D01*
X0179393Y0018298D02*
X0173607Y0018298D01*
X0173607Y0019297D02*
X0179393Y0019297D01*
X0179393Y0020295D02*
X0173607Y0020295D01*
X0173607Y0021294D02*
X0179393Y0021294D01*
X0179393Y0022292D02*
X0173607Y0022292D01*
X0173607Y0023291D02*
X0179393Y0023291D01*
X0179393Y0024289D02*
X0173607Y0024289D01*
X0173607Y0025288D02*
X0179393Y0025288D01*
X0179393Y0026286D02*
X0173607Y0026286D01*
X0173607Y0027285D02*
X0179393Y0027285D01*
X0179393Y0028283D02*
X0173607Y0028283D01*
X0173607Y0029282D02*
X0179393Y0029282D01*
X0179393Y0030280D02*
X0173607Y0030280D01*
X0173607Y0031279D02*
X0179393Y0031279D01*
X0179393Y0032277D02*
X0173607Y0032277D01*
X0173607Y0033276D02*
X0179393Y0033276D01*
X0179393Y0034274D02*
X0173607Y0034274D01*
X0173607Y0035273D02*
X0179393Y0035273D01*
X0179393Y0036271D02*
X0173607Y0036271D01*
X0173607Y0037270D02*
X0179393Y0037270D01*
X0179393Y0038268D02*
X0173607Y0038268D01*
X0173607Y0039267D02*
X0179393Y0039267D01*
X0179393Y0040265D02*
X0173607Y0040265D01*
X0173607Y0041264D02*
X0179393Y0041264D01*
X0179393Y0042262D02*
X0173607Y0042262D01*
X0174502Y0043261D02*
X0178498Y0043261D01*
X0177704Y0044259D02*
X0175296Y0044259D01*
X0175710Y0045258D02*
X0177290Y0045258D01*
X0177193Y0046257D02*
X0175807Y0046257D01*
X0176004Y0047255D02*
X0177213Y0047255D01*
X0177383Y0048254D02*
X0177627Y0048254D01*
X0167627Y0048254D02*
X0167383Y0048254D01*
X0167213Y0047255D02*
X0166004Y0047255D01*
X0165807Y0046257D02*
X0167193Y0046257D01*
X0167290Y0045258D02*
X0165710Y0045258D01*
X0165296Y0044259D02*
X0167704Y0044259D01*
X0168498Y0043261D02*
X0164502Y0043261D01*
X0163607Y0042262D02*
X0169393Y0042262D01*
X0169393Y0041264D02*
X0163607Y0041264D01*
X0163607Y0040265D02*
X0169393Y0040265D01*
X0169393Y0039267D02*
X0163607Y0039267D01*
X0163607Y0038268D02*
X0169393Y0038268D01*
X0169393Y0037270D02*
X0163607Y0037270D01*
X0163607Y0036271D02*
X0169393Y0036271D01*
X0169393Y0035273D02*
X0163607Y0035273D01*
X0163607Y0034274D02*
X0169393Y0034274D01*
X0169393Y0033276D02*
X0163607Y0033276D01*
X0163607Y0032277D02*
X0169393Y0032277D01*
X0169393Y0031279D02*
X0163607Y0031279D01*
X0163607Y0030280D02*
X0169393Y0030280D01*
X0169393Y0029282D02*
X0163607Y0029282D01*
X0163607Y0028283D02*
X0169393Y0028283D01*
X0169393Y0027285D02*
X0163607Y0027285D01*
X0163607Y0026286D02*
X0169393Y0026286D01*
X0169393Y0025288D02*
X0163607Y0025288D01*
X0163607Y0024289D02*
X0169393Y0024289D01*
X0169393Y0023291D02*
X0163607Y0023291D01*
X0163607Y0022292D02*
X0169393Y0022292D01*
X0169393Y0021294D02*
X0163607Y0021294D01*
X0163607Y0020295D02*
X0169393Y0020295D01*
X0169393Y0019297D02*
X0163607Y0019297D01*
X0163607Y0018298D02*
X0169393Y0018298D01*
X0169393Y0017300D02*
X0163607Y0017300D01*
X0163607Y0016301D02*
X0169393Y0016301D01*
X0169393Y0015303D02*
X0163607Y0015303D01*
X0163607Y0014304D02*
X0169393Y0014304D01*
X0169393Y0013306D02*
X0163607Y0013306D01*
X0163607Y0012307D02*
X0169393Y0012307D01*
X0169393Y0011309D02*
X0163607Y0011309D01*
X0163607Y0010310D02*
X0169393Y0010310D01*
X0168790Y0009312D02*
X0164210Y0009312D01*
X0165159Y0008313D02*
X0167841Y0008313D01*
X0167427Y0007315D02*
X0165573Y0007315D01*
X0165776Y0006316D02*
X0167224Y0006316D01*
X0167224Y0005318D02*
X0165776Y0005318D01*
X0165442Y0004319D02*
X0167558Y0004319D01*
X0168108Y0003321D02*
X0164892Y0003321D01*
X0163854Y0002322D02*
X0169146Y0002322D01*
X0159146Y0002322D02*
X0153854Y0002322D01*
X0154892Y0003321D02*
X0158108Y0003321D01*
X0157558Y0004319D02*
X0155442Y0004319D01*
X0155776Y0005318D02*
X0157224Y0005318D01*
X0157224Y0006316D02*
X0155776Y0006316D01*
X0155573Y0007315D02*
X0157427Y0007315D01*
X0157841Y0008313D02*
X0155159Y0008313D01*
X0154210Y0009312D02*
X0158790Y0009312D01*
X0159393Y0010310D02*
X0153607Y0010310D01*
X0153607Y0011309D02*
X0159393Y0011309D01*
X0159393Y0012307D02*
X0153607Y0012307D01*
X0153607Y0013306D02*
X0159393Y0013306D01*
X0159393Y0014304D02*
X0153607Y0014304D01*
X0153607Y0015303D02*
X0159393Y0015303D01*
X0159393Y0016301D02*
X0153607Y0016301D01*
X0153607Y0017300D02*
X0159393Y0017300D01*
X0159393Y0018298D02*
X0153607Y0018298D01*
X0153607Y0019297D02*
X0159393Y0019297D01*
X0159393Y0020295D02*
X0153607Y0020295D01*
X0153607Y0021294D02*
X0159393Y0021294D01*
X0159393Y0022292D02*
X0153607Y0022292D01*
X0153607Y0023291D02*
X0159393Y0023291D01*
X0159393Y0024289D02*
X0153607Y0024289D01*
X0153607Y0025288D02*
X0159393Y0025288D01*
X0159393Y0026286D02*
X0153607Y0026286D01*
X0153607Y0027285D02*
X0159393Y0027285D01*
X0159393Y0028283D02*
X0153607Y0028283D01*
X0153607Y0029282D02*
X0159393Y0029282D01*
X0159393Y0030280D02*
X0153607Y0030280D01*
X0153607Y0031279D02*
X0159393Y0031279D01*
X0159393Y0032277D02*
X0153607Y0032277D01*
X0153607Y0033276D02*
X0159393Y0033276D01*
X0159393Y0034274D02*
X0153607Y0034274D01*
X0153607Y0035273D02*
X0159393Y0035273D01*
X0159393Y0036271D02*
X0153607Y0036271D01*
X0153607Y0037270D02*
X0159393Y0037270D01*
X0159393Y0038268D02*
X0153607Y0038268D01*
X0153607Y0039267D02*
X0159393Y0039267D01*
X0159393Y0040265D02*
X0153607Y0040265D01*
X0153607Y0041264D02*
X0159393Y0041264D01*
X0159393Y0042262D02*
X0153607Y0042262D01*
X0154502Y0043261D02*
X0158498Y0043261D01*
X0157704Y0044259D02*
X0155296Y0044259D01*
X0155710Y0045258D02*
X0157290Y0045258D01*
X0157193Y0046257D02*
X0155807Y0046257D01*
X0156004Y0047255D02*
X0157213Y0047255D01*
X0157383Y0048254D02*
X0157627Y0048254D01*
X0147627Y0048254D02*
X0147383Y0048254D01*
X0147213Y0047255D02*
X0146004Y0047255D01*
X0145807Y0046257D02*
X0147193Y0046257D01*
X0147290Y0045258D02*
X0145710Y0045258D01*
X0145296Y0044259D02*
X0147704Y0044259D01*
X0148498Y0043261D02*
X0144502Y0043261D01*
X0143607Y0042262D02*
X0149393Y0042262D01*
X0149393Y0041264D02*
X0143607Y0041264D01*
X0143607Y0040265D02*
X0149393Y0040265D01*
X0149393Y0039267D02*
X0143607Y0039267D01*
X0143607Y0038268D02*
X0149393Y0038268D01*
X0149393Y0037270D02*
X0143607Y0037270D01*
X0143607Y0036271D02*
X0149393Y0036271D01*
X0149393Y0035273D02*
X0143607Y0035273D01*
X0143607Y0034274D02*
X0149393Y0034274D01*
X0149393Y0033276D02*
X0143607Y0033276D01*
X0143607Y0032277D02*
X0149393Y0032277D01*
X0149393Y0031279D02*
X0143607Y0031279D01*
X0143607Y0030280D02*
X0149393Y0030280D01*
X0149393Y0029282D02*
X0143607Y0029282D01*
X0143607Y0028283D02*
X0149393Y0028283D01*
X0149393Y0027285D02*
X0143607Y0027285D01*
X0143607Y0026286D02*
X0149393Y0026286D01*
X0149393Y0025288D02*
X0143607Y0025288D01*
X0143607Y0024289D02*
X0149393Y0024289D01*
X0149393Y0023291D02*
X0143607Y0023291D01*
X0143607Y0022292D02*
X0149393Y0022292D01*
X0149393Y0021294D02*
X0143607Y0021294D01*
X0143607Y0020295D02*
X0149393Y0020295D01*
X0149393Y0019297D02*
X0143607Y0019297D01*
X0143607Y0018298D02*
X0149393Y0018298D01*
X0149393Y0017300D02*
X0143607Y0017300D01*
X0143607Y0016301D02*
X0149393Y0016301D01*
X0149393Y0015303D02*
X0143607Y0015303D01*
X0143607Y0014304D02*
X0149393Y0014304D01*
X0149393Y0013306D02*
X0143607Y0013306D01*
X0143607Y0012307D02*
X0149393Y0012307D01*
X0149393Y0011309D02*
X0143607Y0011309D01*
X0143607Y0010310D02*
X0149393Y0010310D01*
X0148790Y0009312D02*
X0144210Y0009312D01*
X0145159Y0008313D02*
X0147841Y0008313D01*
X0147427Y0007315D02*
X0145573Y0007315D01*
X0145776Y0006316D02*
X0147224Y0006316D01*
X0147224Y0005318D02*
X0145776Y0005318D01*
X0145442Y0004319D02*
X0147558Y0004319D01*
X0148108Y0003321D02*
X0144892Y0003321D01*
X0143854Y0002322D02*
X0149146Y0002322D01*
X0139146Y0002322D02*
X0133854Y0002322D01*
X0134892Y0003321D02*
X0138108Y0003321D01*
X0137558Y0004319D02*
X0135442Y0004319D01*
X0135776Y0005318D02*
X0137224Y0005318D01*
X0137224Y0006316D02*
X0135776Y0006316D01*
X0135573Y0007315D02*
X0137427Y0007315D01*
X0137841Y0008313D02*
X0135159Y0008313D01*
X0134210Y0009312D02*
X0138790Y0009312D01*
X0139393Y0010310D02*
X0133607Y0010310D01*
X0133607Y0011309D02*
X0139393Y0011309D01*
X0139393Y0012307D02*
X0133607Y0012307D01*
X0133607Y0013306D02*
X0139393Y0013306D01*
X0139393Y0014304D02*
X0133607Y0014304D01*
X0133607Y0015303D02*
X0139393Y0015303D01*
X0139393Y0016301D02*
X0133607Y0016301D01*
X0133607Y0017300D02*
X0139393Y0017300D01*
X0139393Y0018298D02*
X0133607Y0018298D01*
X0133607Y0019297D02*
X0139393Y0019297D01*
X0139393Y0020295D02*
X0133607Y0020295D01*
X0133607Y0021294D02*
X0139393Y0021294D01*
X0139393Y0022292D02*
X0133607Y0022292D01*
X0133607Y0023291D02*
X0139393Y0023291D01*
X0139393Y0024289D02*
X0133607Y0024289D01*
X0133607Y0025288D02*
X0139393Y0025288D01*
X0139393Y0026286D02*
X0133607Y0026286D01*
X0133607Y0027285D02*
X0139393Y0027285D01*
X0139393Y0028283D02*
X0133607Y0028283D01*
X0133607Y0029282D02*
X0139393Y0029282D01*
X0139393Y0030280D02*
X0133607Y0030280D01*
X0133607Y0031279D02*
X0139393Y0031279D01*
X0139393Y0032277D02*
X0133607Y0032277D01*
X0133607Y0033276D02*
X0139393Y0033276D01*
X0139393Y0034274D02*
X0133607Y0034274D01*
X0133607Y0035273D02*
X0139393Y0035273D01*
X0139393Y0036271D02*
X0133607Y0036271D01*
X0133607Y0037270D02*
X0139393Y0037270D01*
X0139393Y0038268D02*
X0133607Y0038268D01*
X0133607Y0039267D02*
X0139393Y0039267D01*
X0139393Y0040265D02*
X0133607Y0040265D01*
X0133607Y0041264D02*
X0139393Y0041264D01*
X0139393Y0042262D02*
X0133607Y0042262D01*
X0134502Y0043261D02*
X0138498Y0043261D01*
X0137704Y0044259D02*
X0135296Y0044259D01*
X0135710Y0045258D02*
X0137290Y0045258D01*
X0137193Y0046257D02*
X0135807Y0046257D01*
X0136004Y0047255D02*
X0137213Y0047255D01*
X0137383Y0048254D02*
X0137627Y0048254D01*
X0127627Y0048254D02*
X0127383Y0048254D01*
X0127213Y0047255D02*
X0126004Y0047255D01*
X0125807Y0046257D02*
X0127193Y0046257D01*
X0127290Y0045258D02*
X0125710Y0045258D01*
X0125296Y0044259D02*
X0127704Y0044259D01*
X0128498Y0043261D02*
X0124502Y0043261D01*
X0123607Y0042262D02*
X0129393Y0042262D01*
X0129393Y0041264D02*
X0123607Y0041264D01*
X0123607Y0040265D02*
X0129393Y0040265D01*
X0129393Y0039267D02*
X0123607Y0039267D01*
X0123607Y0038268D02*
X0129393Y0038268D01*
X0129393Y0037270D02*
X0123607Y0037270D01*
X0123607Y0036271D02*
X0129393Y0036271D01*
X0129393Y0035273D02*
X0123607Y0035273D01*
X0123607Y0034274D02*
X0129393Y0034274D01*
X0129393Y0033276D02*
X0123607Y0033276D01*
X0123607Y0032277D02*
X0129393Y0032277D01*
X0129393Y0031279D02*
X0123607Y0031279D01*
X0123607Y0030280D02*
X0129393Y0030280D01*
X0129393Y0029282D02*
X0123607Y0029282D01*
X0123607Y0028283D02*
X0129393Y0028283D01*
X0129393Y0027285D02*
X0123607Y0027285D01*
X0123607Y0026286D02*
X0129393Y0026286D01*
X0129393Y0025288D02*
X0123607Y0025288D01*
X0123607Y0024289D02*
X0129393Y0024289D01*
X0129393Y0023291D02*
X0123607Y0023291D01*
X0123607Y0022292D02*
X0129393Y0022292D01*
X0129393Y0021294D02*
X0123607Y0021294D01*
X0123607Y0020295D02*
X0129393Y0020295D01*
X0129393Y0019297D02*
X0123607Y0019297D01*
X0123607Y0018298D02*
X0129393Y0018298D01*
X0129393Y0017300D02*
X0123607Y0017300D01*
X0123607Y0016301D02*
X0129393Y0016301D01*
X0129393Y0015303D02*
X0123607Y0015303D01*
X0123607Y0014304D02*
X0129393Y0014304D01*
X0129393Y0013306D02*
X0123607Y0013306D01*
X0123607Y0012307D02*
X0129393Y0012307D01*
X0129393Y0011309D02*
X0123607Y0011309D01*
X0123607Y0010310D02*
X0129393Y0010310D01*
X0128790Y0009312D02*
X0124210Y0009312D01*
X0125159Y0008313D02*
X0127841Y0008313D01*
X0127427Y0007315D02*
X0125573Y0007315D01*
X0125776Y0006316D02*
X0127224Y0006316D01*
X0127224Y0005318D02*
X0125776Y0005318D01*
X0125442Y0004319D02*
X0127558Y0004319D01*
X0128108Y0003321D02*
X0124892Y0003321D01*
X0123854Y0002322D02*
X0129146Y0002322D01*
X0119146Y0002322D02*
X0113854Y0002322D01*
X0114892Y0003321D02*
X0118108Y0003321D01*
X0117558Y0004319D02*
X0115442Y0004319D01*
X0115776Y0005318D02*
X0117224Y0005318D01*
X0117224Y0006316D02*
X0115776Y0006316D01*
X0115573Y0007315D02*
X0117427Y0007315D01*
X0117841Y0008313D02*
X0115159Y0008313D01*
X0114210Y0009312D02*
X0118790Y0009312D01*
X0119393Y0010310D02*
X0113607Y0010310D01*
X0113607Y0011309D02*
X0119393Y0011309D01*
X0119393Y0012307D02*
X0113607Y0012307D01*
X0113607Y0013306D02*
X0119393Y0013306D01*
X0119393Y0014304D02*
X0113607Y0014304D01*
X0113607Y0015303D02*
X0119393Y0015303D01*
X0119393Y0016301D02*
X0113607Y0016301D01*
X0113607Y0017300D02*
X0119393Y0017300D01*
X0119393Y0018298D02*
X0113607Y0018298D01*
X0113607Y0019297D02*
X0119393Y0019297D01*
X0119393Y0020295D02*
X0113607Y0020295D01*
X0113607Y0021294D02*
X0119393Y0021294D01*
X0119393Y0022292D02*
X0113607Y0022292D01*
X0113607Y0023291D02*
X0119393Y0023291D01*
X0119393Y0024289D02*
X0113607Y0024289D01*
X0113607Y0025288D02*
X0119393Y0025288D01*
X0119393Y0026286D02*
X0113607Y0026286D01*
X0113607Y0027285D02*
X0119393Y0027285D01*
X0119393Y0028283D02*
X0113607Y0028283D01*
X0113607Y0029282D02*
X0119393Y0029282D01*
X0119393Y0030280D02*
X0113607Y0030280D01*
X0113607Y0031279D02*
X0119393Y0031279D01*
X0119393Y0032277D02*
X0113607Y0032277D01*
X0113607Y0033276D02*
X0119393Y0033276D01*
X0119393Y0034274D02*
X0113607Y0034274D01*
X0113607Y0035273D02*
X0119393Y0035273D01*
X0119393Y0036271D02*
X0113607Y0036271D01*
X0113607Y0037270D02*
X0119393Y0037270D01*
X0119393Y0038268D02*
X0113607Y0038268D01*
X0113607Y0039267D02*
X0119393Y0039267D01*
X0119393Y0040265D02*
X0113607Y0040265D01*
X0113607Y0041264D02*
X0119393Y0041264D01*
X0119393Y0042262D02*
X0113607Y0042262D01*
X0114502Y0043261D02*
X0118498Y0043261D01*
X0117704Y0044259D02*
X0115296Y0044259D01*
X0115710Y0045258D02*
X0117290Y0045258D01*
X0117193Y0046257D02*
X0115807Y0046257D01*
X0116004Y0047255D02*
X0117213Y0047255D01*
X0117383Y0048254D02*
X0117627Y0048254D01*
X0107627Y0048254D02*
X0107383Y0048254D01*
X0107213Y0047255D02*
X0106004Y0047255D01*
X0105807Y0046257D02*
X0107193Y0046257D01*
X0107290Y0045258D02*
X0105710Y0045258D01*
X0105296Y0044259D02*
X0107704Y0044259D01*
X0108498Y0043261D02*
X0104502Y0043261D01*
X0103607Y0042262D02*
X0109393Y0042262D01*
X0109393Y0041264D02*
X0103607Y0041264D01*
X0103607Y0040265D02*
X0109393Y0040265D01*
X0109393Y0039267D02*
X0103607Y0039267D01*
X0103607Y0038268D02*
X0109393Y0038268D01*
X0109393Y0037270D02*
X0103607Y0037270D01*
X0103607Y0036271D02*
X0109393Y0036271D01*
X0109393Y0035273D02*
X0103607Y0035273D01*
X0103607Y0034274D02*
X0109393Y0034274D01*
X0109393Y0033276D02*
X0103607Y0033276D01*
X0103607Y0032277D02*
X0109393Y0032277D01*
X0109393Y0031279D02*
X0103607Y0031279D01*
X0103607Y0030280D02*
X0109393Y0030280D01*
X0109393Y0029282D02*
X0103607Y0029282D01*
X0103607Y0028283D02*
X0109393Y0028283D01*
X0109393Y0027285D02*
X0103607Y0027285D01*
X0103607Y0026286D02*
X0109393Y0026286D01*
X0109393Y0025288D02*
X0103607Y0025288D01*
X0103607Y0024289D02*
X0109393Y0024289D01*
X0109393Y0023291D02*
X0103607Y0023291D01*
X0103607Y0022292D02*
X0109393Y0022292D01*
X0109393Y0021294D02*
X0103607Y0021294D01*
X0103607Y0020295D02*
X0109393Y0020295D01*
X0109393Y0019297D02*
X0103607Y0019297D01*
X0103607Y0018298D02*
X0109393Y0018298D01*
X0109393Y0017300D02*
X0103607Y0017300D01*
X0103607Y0016301D02*
X0109393Y0016301D01*
X0109393Y0015303D02*
X0103607Y0015303D01*
X0103607Y0014304D02*
X0109393Y0014304D01*
X0109393Y0013306D02*
X0103607Y0013306D01*
X0103607Y0012307D02*
X0109393Y0012307D01*
X0109393Y0011309D02*
X0103607Y0011309D01*
X0103607Y0010310D02*
X0109393Y0010310D01*
X0108790Y0009312D02*
X0104210Y0009312D01*
X0105159Y0008313D02*
X0107841Y0008313D01*
X0107427Y0007315D02*
X0105573Y0007315D01*
X0105776Y0006316D02*
X0107224Y0006316D01*
X0107224Y0005318D02*
X0105776Y0005318D01*
X0105442Y0004319D02*
X0107558Y0004319D01*
X0108108Y0003321D02*
X0104892Y0003321D01*
X0103854Y0002322D02*
X0109146Y0002322D01*
X0099146Y0002322D02*
X0093854Y0002322D01*
X0094892Y0003321D02*
X0098108Y0003321D01*
X0097558Y0004319D02*
X0095442Y0004319D01*
X0095776Y0005318D02*
X0097224Y0005318D01*
X0097224Y0006316D02*
X0095776Y0006316D01*
X0095573Y0007315D02*
X0097427Y0007315D01*
X0097841Y0008313D02*
X0095159Y0008313D01*
X0094210Y0009312D02*
X0098790Y0009312D01*
X0099393Y0010310D02*
X0093607Y0010310D01*
X0093607Y0011309D02*
X0099393Y0011309D01*
X0099393Y0012307D02*
X0093607Y0012307D01*
X0093607Y0013306D02*
X0099393Y0013306D01*
X0099393Y0014304D02*
X0093607Y0014304D01*
X0093607Y0015303D02*
X0099393Y0015303D01*
X0099393Y0016301D02*
X0093607Y0016301D01*
X0093607Y0017300D02*
X0099393Y0017300D01*
X0099393Y0018298D02*
X0093607Y0018298D01*
X0093607Y0019297D02*
X0099393Y0019297D01*
X0099393Y0020295D02*
X0093607Y0020295D01*
X0093607Y0021294D02*
X0099393Y0021294D01*
X0099393Y0022292D02*
X0093607Y0022292D01*
X0093607Y0023291D02*
X0099393Y0023291D01*
X0099393Y0024289D02*
X0093607Y0024289D01*
X0093607Y0025288D02*
X0099393Y0025288D01*
X0099393Y0026286D02*
X0093607Y0026286D01*
X0093607Y0027285D02*
X0099393Y0027285D01*
X0099393Y0028283D02*
X0093607Y0028283D01*
X0093607Y0029282D02*
X0099393Y0029282D01*
X0099393Y0030280D02*
X0093607Y0030280D01*
X0093607Y0031279D02*
X0099393Y0031279D01*
X0099393Y0032277D02*
X0093607Y0032277D01*
X0093607Y0033276D02*
X0099393Y0033276D01*
X0099393Y0034274D02*
X0093607Y0034274D01*
X0093607Y0035273D02*
X0099393Y0035273D01*
X0099393Y0036271D02*
X0093607Y0036271D01*
X0093607Y0037270D02*
X0099393Y0037270D01*
X0099393Y0038268D02*
X0093607Y0038268D01*
X0093607Y0039267D02*
X0099393Y0039267D01*
X0099393Y0040265D02*
X0093607Y0040265D01*
X0093607Y0041264D02*
X0099393Y0041264D01*
X0099393Y0042262D02*
X0093607Y0042262D01*
X0094502Y0043261D02*
X0098498Y0043261D01*
X0097704Y0044259D02*
X0095296Y0044259D01*
X0095710Y0045258D02*
X0097290Y0045258D01*
X0097193Y0046257D02*
X0095807Y0046257D01*
X0096004Y0047255D02*
X0097213Y0047255D01*
X0097383Y0048254D02*
X0097627Y0048254D01*
X0087627Y0048254D02*
X0087383Y0048254D01*
X0087213Y0047255D02*
X0086004Y0047255D01*
X0085807Y0046257D02*
X0087193Y0046257D01*
X0087290Y0045258D02*
X0085710Y0045258D01*
X0085296Y0044259D02*
X0087704Y0044259D01*
X0088498Y0043261D02*
X0084502Y0043261D01*
X0083607Y0042262D02*
X0089393Y0042262D01*
X0089393Y0041264D02*
X0083607Y0041264D01*
X0083607Y0040265D02*
X0089393Y0040265D01*
X0089393Y0039267D02*
X0083607Y0039267D01*
X0083607Y0038268D02*
X0089393Y0038268D01*
X0089393Y0037270D02*
X0083607Y0037270D01*
X0083607Y0036271D02*
X0089393Y0036271D01*
X0089393Y0035273D02*
X0083607Y0035273D01*
X0083607Y0034274D02*
X0089393Y0034274D01*
X0089393Y0033276D02*
X0083607Y0033276D01*
X0083607Y0032277D02*
X0089393Y0032277D01*
X0089393Y0031279D02*
X0083607Y0031279D01*
X0083607Y0030280D02*
X0089393Y0030280D01*
X0089393Y0029282D02*
X0083607Y0029282D01*
X0083607Y0028283D02*
X0089393Y0028283D01*
X0089393Y0027285D02*
X0083607Y0027285D01*
X0083607Y0026286D02*
X0089393Y0026286D01*
X0089393Y0025288D02*
X0083607Y0025288D01*
X0083607Y0024289D02*
X0089393Y0024289D01*
X0089393Y0023291D02*
X0083607Y0023291D01*
X0083607Y0022292D02*
X0089393Y0022292D01*
X0089393Y0021294D02*
X0083607Y0021294D01*
X0083607Y0020295D02*
X0089393Y0020295D01*
X0089393Y0019297D02*
X0083607Y0019297D01*
X0083607Y0018298D02*
X0089393Y0018298D01*
X0089393Y0017300D02*
X0083607Y0017300D01*
X0083607Y0016301D02*
X0089393Y0016301D01*
X0089393Y0015303D02*
X0083607Y0015303D01*
X0083607Y0014304D02*
X0089393Y0014304D01*
X0089393Y0013306D02*
X0083607Y0013306D01*
X0083607Y0012307D02*
X0089393Y0012307D01*
X0089393Y0011309D02*
X0083607Y0011309D01*
X0083607Y0010310D02*
X0089393Y0010310D01*
X0088790Y0009312D02*
X0084210Y0009312D01*
X0085159Y0008313D02*
X0087841Y0008313D01*
X0087427Y0007315D02*
X0085573Y0007315D01*
X0085776Y0006316D02*
X0087224Y0006316D01*
X0087224Y0005318D02*
X0085776Y0005318D01*
X0085442Y0004319D02*
X0087558Y0004319D01*
X0088108Y0003321D02*
X0084892Y0003321D01*
X0083854Y0002322D02*
X0089146Y0002322D01*
X0079146Y0002322D02*
X0073854Y0002322D01*
X0074892Y0003321D02*
X0078108Y0003321D01*
X0077558Y0004319D02*
X0075442Y0004319D01*
X0075776Y0005318D02*
X0077224Y0005318D01*
X0077224Y0006316D02*
X0075776Y0006316D01*
X0075573Y0007315D02*
X0077427Y0007315D01*
X0077841Y0008313D02*
X0075159Y0008313D01*
X0074210Y0009312D02*
X0078790Y0009312D01*
X0079393Y0010310D02*
X0073607Y0010310D01*
X0073607Y0011309D02*
X0079393Y0011309D01*
X0079393Y0012307D02*
X0073607Y0012307D01*
X0073607Y0013306D02*
X0079393Y0013306D01*
X0079393Y0014304D02*
X0073607Y0014304D01*
X0073607Y0015303D02*
X0079393Y0015303D01*
X0079393Y0016301D02*
X0073607Y0016301D01*
X0073607Y0017300D02*
X0079393Y0017300D01*
X0079393Y0018298D02*
X0073607Y0018298D01*
X0073607Y0019297D02*
X0079393Y0019297D01*
X0079393Y0020295D02*
X0073607Y0020295D01*
X0073607Y0021294D02*
X0079393Y0021294D01*
X0079393Y0022292D02*
X0073607Y0022292D01*
X0073607Y0023291D02*
X0079393Y0023291D01*
X0079393Y0024289D02*
X0073607Y0024289D01*
X0073607Y0025288D02*
X0079393Y0025288D01*
X0079393Y0026286D02*
X0073607Y0026286D01*
X0073607Y0027285D02*
X0079393Y0027285D01*
X0079393Y0028283D02*
X0073607Y0028283D01*
X0073607Y0029282D02*
X0079393Y0029282D01*
X0079393Y0030280D02*
X0073607Y0030280D01*
X0073607Y0031279D02*
X0079393Y0031279D01*
X0079393Y0032277D02*
X0073607Y0032277D01*
X0073607Y0033276D02*
X0079393Y0033276D01*
X0079393Y0034274D02*
X0073607Y0034274D01*
X0073607Y0035273D02*
X0079393Y0035273D01*
X0079393Y0036271D02*
X0073607Y0036271D01*
X0073607Y0037270D02*
X0079393Y0037270D01*
X0079393Y0038268D02*
X0073607Y0038268D01*
X0073607Y0039267D02*
X0079393Y0039267D01*
X0079393Y0040265D02*
X0073607Y0040265D01*
X0073607Y0041264D02*
X0079393Y0041264D01*
X0079393Y0042262D02*
X0073607Y0042262D01*
X0074502Y0043261D02*
X0078498Y0043261D01*
X0077704Y0044259D02*
X0075296Y0044259D01*
X0075710Y0045258D02*
X0077290Y0045258D01*
X0077193Y0046257D02*
X0075807Y0046257D01*
X0076004Y0047255D02*
X0077213Y0047255D01*
X0077383Y0048254D02*
X0077627Y0048254D01*
X0067627Y0048254D02*
X0067383Y0048254D01*
X0067213Y0047255D02*
X0066004Y0047255D01*
X0065807Y0046257D02*
X0067193Y0046257D01*
X0067290Y0045258D02*
X0065710Y0045258D01*
X0065296Y0044259D02*
X0067704Y0044259D01*
X0068498Y0043261D02*
X0064502Y0043261D01*
X0063607Y0042262D02*
X0069393Y0042262D01*
X0069393Y0041264D02*
X0063607Y0041264D01*
X0063607Y0040265D02*
X0069393Y0040265D01*
X0069393Y0039267D02*
X0063607Y0039267D01*
X0063607Y0038268D02*
X0069393Y0038268D01*
X0069393Y0037270D02*
X0063607Y0037270D01*
X0063607Y0036271D02*
X0069393Y0036271D01*
X0069393Y0035273D02*
X0063607Y0035273D01*
X0063607Y0034274D02*
X0069393Y0034274D01*
X0069393Y0033276D02*
X0063607Y0033276D01*
X0063607Y0032277D02*
X0069393Y0032277D01*
X0069393Y0031279D02*
X0063607Y0031279D01*
X0063607Y0030280D02*
X0069393Y0030280D01*
X0069393Y0029282D02*
X0063607Y0029282D01*
X0063607Y0028283D02*
X0069393Y0028283D01*
X0069393Y0027285D02*
X0063607Y0027285D01*
X0063607Y0026286D02*
X0069393Y0026286D01*
X0069393Y0025288D02*
X0063607Y0025288D01*
X0063607Y0024289D02*
X0069393Y0024289D01*
X0069393Y0023291D02*
X0063607Y0023291D01*
X0063607Y0022292D02*
X0069393Y0022292D01*
X0069393Y0021294D02*
X0063607Y0021294D01*
X0063607Y0020295D02*
X0069393Y0020295D01*
X0069393Y0019297D02*
X0063607Y0019297D01*
X0063607Y0018298D02*
X0069393Y0018298D01*
X0069393Y0017300D02*
X0063607Y0017300D01*
X0063607Y0016301D02*
X0069393Y0016301D01*
X0069393Y0015303D02*
X0063607Y0015303D01*
X0063607Y0014304D02*
X0069393Y0014304D01*
X0069393Y0013306D02*
X0063607Y0013306D01*
X0063607Y0012307D02*
X0069393Y0012307D01*
X0069393Y0011309D02*
X0063607Y0011309D01*
X0063607Y0010310D02*
X0069393Y0010310D01*
X0068790Y0009312D02*
X0064210Y0009312D01*
X0065159Y0008313D02*
X0067841Y0008313D01*
X0067427Y0007315D02*
X0065573Y0007315D01*
X0065776Y0006316D02*
X0067224Y0006316D01*
X0067224Y0005318D02*
X0065776Y0005318D01*
X0065442Y0004319D02*
X0067558Y0004319D01*
X0068108Y0003321D02*
X0064892Y0003321D01*
X0063854Y0002322D02*
X0069146Y0002322D01*
X0059146Y0002322D02*
X0053854Y0002322D01*
X0054892Y0003321D02*
X0058108Y0003321D01*
X0057558Y0004319D02*
X0055442Y0004319D01*
X0055776Y0005318D02*
X0057224Y0005318D01*
X0057224Y0006316D02*
X0055776Y0006316D01*
X0055573Y0007315D02*
X0057427Y0007315D01*
X0057841Y0008313D02*
X0055159Y0008313D01*
X0054210Y0009312D02*
X0058790Y0009312D01*
X0059393Y0010310D02*
X0053607Y0010310D01*
X0053607Y0011309D02*
X0059393Y0011309D01*
X0059393Y0012307D02*
X0053607Y0012307D01*
X0053607Y0013306D02*
X0059393Y0013306D01*
X0059393Y0014304D02*
X0053607Y0014304D01*
X0053607Y0015303D02*
X0059393Y0015303D01*
X0059393Y0016301D02*
X0053607Y0016301D01*
X0053607Y0017300D02*
X0059393Y0017300D01*
X0059393Y0018298D02*
X0053607Y0018298D01*
X0053607Y0019297D02*
X0059393Y0019297D01*
X0059393Y0020295D02*
X0053607Y0020295D01*
X0053607Y0021294D02*
X0059393Y0021294D01*
X0059393Y0022292D02*
X0053607Y0022292D01*
X0053607Y0023291D02*
X0059393Y0023291D01*
X0059393Y0024289D02*
X0053607Y0024289D01*
X0053607Y0025288D02*
X0059393Y0025288D01*
X0059393Y0026286D02*
X0053607Y0026286D01*
X0053607Y0027285D02*
X0059393Y0027285D01*
X0059393Y0028283D02*
X0053607Y0028283D01*
X0053607Y0029282D02*
X0059393Y0029282D01*
X0059393Y0030280D02*
X0053607Y0030280D01*
X0053607Y0031279D02*
X0059393Y0031279D01*
X0059393Y0032277D02*
X0053607Y0032277D01*
X0053607Y0033276D02*
X0059393Y0033276D01*
X0059393Y0034274D02*
X0053607Y0034274D01*
X0053607Y0035273D02*
X0059393Y0035273D01*
X0059393Y0036271D02*
X0053607Y0036271D01*
X0053607Y0037270D02*
X0059393Y0037270D01*
X0059393Y0038268D02*
X0053607Y0038268D01*
X0053607Y0039267D02*
X0059393Y0039267D01*
X0059393Y0040265D02*
X0053607Y0040265D01*
X0053607Y0041264D02*
X0059393Y0041264D01*
X0059393Y0042262D02*
X0053607Y0042262D01*
X0054502Y0043261D02*
X0058498Y0043261D01*
X0057704Y0044259D02*
X0055296Y0044259D01*
X0055710Y0045258D02*
X0057290Y0045258D01*
X0057193Y0046257D02*
X0055807Y0046257D01*
X0056004Y0047255D02*
X0057213Y0047255D01*
X0057383Y0048254D02*
X0057627Y0048254D01*
X0047627Y0048254D02*
X0047383Y0048254D01*
X0047213Y0047255D02*
X0046004Y0047255D01*
X0045807Y0046257D02*
X0047193Y0046257D01*
X0047290Y0045258D02*
X0045710Y0045258D01*
X0045296Y0044259D02*
X0047704Y0044259D01*
X0048498Y0043261D02*
X0044502Y0043261D01*
X0043607Y0042262D02*
X0049393Y0042262D01*
X0049393Y0041264D02*
X0043607Y0041264D01*
X0043607Y0040265D02*
X0049393Y0040265D01*
X0049393Y0039267D02*
X0043607Y0039267D01*
X0043607Y0038268D02*
X0049393Y0038268D01*
X0049393Y0037270D02*
X0043607Y0037270D01*
X0043607Y0036271D02*
X0049393Y0036271D01*
X0049393Y0035273D02*
X0043607Y0035273D01*
X0043607Y0034274D02*
X0049393Y0034274D01*
X0049393Y0033276D02*
X0043607Y0033276D01*
X0043607Y0032277D02*
X0049393Y0032277D01*
X0049393Y0031279D02*
X0043607Y0031279D01*
X0043607Y0030280D02*
X0049393Y0030280D01*
X0049393Y0029282D02*
X0043607Y0029282D01*
X0043607Y0028283D02*
X0049393Y0028283D01*
X0049393Y0027285D02*
X0043607Y0027285D01*
X0043607Y0026286D02*
X0049393Y0026286D01*
X0049393Y0025288D02*
X0043607Y0025288D01*
X0043607Y0024289D02*
X0049393Y0024289D01*
X0049393Y0023291D02*
X0043607Y0023291D01*
X0043607Y0022292D02*
X0049393Y0022292D01*
X0049393Y0021294D02*
X0043607Y0021294D01*
X0043607Y0020295D02*
X0049393Y0020295D01*
X0049393Y0019297D02*
X0043607Y0019297D01*
X0043607Y0018298D02*
X0049393Y0018298D01*
X0049393Y0017300D02*
X0043607Y0017300D01*
X0043607Y0016301D02*
X0049393Y0016301D01*
X0049393Y0015303D02*
X0043607Y0015303D01*
X0043607Y0014304D02*
X0049393Y0014304D01*
X0049393Y0013306D02*
X0043607Y0013306D01*
X0043607Y0012307D02*
X0049393Y0012307D01*
X0049393Y0011309D02*
X0043607Y0011309D01*
X0043607Y0010310D02*
X0049393Y0010310D01*
X0048790Y0009312D02*
X0044210Y0009312D01*
X0045159Y0008313D02*
X0047841Y0008313D01*
X0047427Y0007315D02*
X0045573Y0007315D01*
X0045776Y0006316D02*
X0047224Y0006316D01*
X0047224Y0005318D02*
X0045776Y0005318D01*
X0045442Y0004319D02*
X0047558Y0004319D01*
X0048108Y0003321D02*
X0044892Y0003321D01*
X0043854Y0002322D02*
X0049146Y0002322D01*
X0039146Y0002322D02*
X0033854Y0002322D01*
X0034892Y0003321D02*
X0038108Y0003321D01*
X0037558Y0004319D02*
X0035442Y0004319D01*
X0035776Y0005318D02*
X0037224Y0005318D01*
X0037224Y0006316D02*
X0035776Y0006316D01*
X0035573Y0007315D02*
X0037427Y0007315D01*
X0037841Y0008313D02*
X0035159Y0008313D01*
X0034210Y0009312D02*
X0038790Y0009312D01*
X0039393Y0010310D02*
X0033607Y0010310D01*
X0033607Y0011309D02*
X0039393Y0011309D01*
X0039393Y0012307D02*
X0033607Y0012307D01*
X0033607Y0013306D02*
X0039393Y0013306D01*
X0039393Y0014304D02*
X0033607Y0014304D01*
X0033607Y0015303D02*
X0039393Y0015303D01*
X0039393Y0016301D02*
X0033607Y0016301D01*
X0033607Y0017300D02*
X0039393Y0017300D01*
X0039393Y0018298D02*
X0033607Y0018298D01*
X0033607Y0019297D02*
X0039393Y0019297D01*
X0039393Y0020295D02*
X0033607Y0020295D01*
X0033607Y0021294D02*
X0039393Y0021294D01*
X0039393Y0022292D02*
X0033607Y0022292D01*
X0033607Y0023291D02*
X0039393Y0023291D01*
X0039393Y0024289D02*
X0033607Y0024289D01*
X0033607Y0025288D02*
X0039393Y0025288D01*
X0039393Y0026286D02*
X0033607Y0026286D01*
X0033607Y0027285D02*
X0039393Y0027285D01*
X0039393Y0028283D02*
X0033607Y0028283D01*
X0033607Y0029282D02*
X0039393Y0029282D01*
X0039393Y0030280D02*
X0033607Y0030280D01*
X0033607Y0031279D02*
X0039393Y0031279D01*
X0039393Y0032277D02*
X0033607Y0032277D01*
X0033607Y0033276D02*
X0039393Y0033276D01*
X0039393Y0034274D02*
X0033607Y0034274D01*
X0033607Y0035273D02*
X0039393Y0035273D01*
X0039393Y0036271D02*
X0033607Y0036271D01*
X0033607Y0037270D02*
X0039393Y0037270D01*
X0039393Y0038268D02*
X0033607Y0038268D01*
X0033607Y0039267D02*
X0039393Y0039267D01*
X0039393Y0040265D02*
X0033607Y0040265D01*
X0033607Y0041264D02*
X0039393Y0041264D01*
X0039393Y0042262D02*
X0033607Y0042262D01*
X0034502Y0043261D02*
X0038498Y0043261D01*
X0037704Y0044259D02*
X0035296Y0044259D01*
X0035710Y0045258D02*
X0037290Y0045258D01*
X0037193Y0046257D02*
X0035807Y0046257D01*
X0036004Y0047255D02*
X0037213Y0047255D01*
X0037383Y0048254D02*
X0037627Y0048254D01*
X0027627Y0048254D02*
X0027383Y0048254D01*
X0027213Y0047255D02*
X0026004Y0047255D01*
X0025807Y0046257D02*
X0027193Y0046257D01*
X0027290Y0045258D02*
X0025710Y0045258D01*
X0025296Y0044259D02*
X0027704Y0044259D01*
X0028498Y0043261D02*
X0024502Y0043261D01*
X0023607Y0042262D02*
X0029393Y0042262D01*
X0029393Y0041264D02*
X0023607Y0041264D01*
X0023607Y0040265D02*
X0029393Y0040265D01*
X0029393Y0039267D02*
X0023607Y0039267D01*
X0023607Y0038268D02*
X0029393Y0038268D01*
X0029393Y0037270D02*
X0023607Y0037270D01*
X0023607Y0036271D02*
X0029393Y0036271D01*
X0029393Y0035273D02*
X0023607Y0035273D01*
X0023607Y0034274D02*
X0029393Y0034274D01*
X0029393Y0033276D02*
X0023607Y0033276D01*
X0023607Y0032277D02*
X0029393Y0032277D01*
X0029393Y0031279D02*
X0023607Y0031279D01*
X0023607Y0030280D02*
X0029393Y0030280D01*
X0029393Y0029282D02*
X0023607Y0029282D01*
X0023607Y0028283D02*
X0029393Y0028283D01*
X0029393Y0027285D02*
X0023607Y0027285D01*
X0023607Y0026286D02*
X0029393Y0026286D01*
X0029393Y0025288D02*
X0023607Y0025288D01*
X0023607Y0024289D02*
X0029393Y0024289D01*
X0029393Y0023291D02*
X0023607Y0023291D01*
X0023607Y0022292D02*
X0029393Y0022292D01*
X0029393Y0021294D02*
X0023607Y0021294D01*
X0023607Y0020295D02*
X0029393Y0020295D01*
X0029393Y0019297D02*
X0023607Y0019297D01*
X0023607Y0018298D02*
X0029393Y0018298D01*
X0029393Y0017300D02*
X0023607Y0017300D01*
X0023607Y0016301D02*
X0029393Y0016301D01*
X0029393Y0015303D02*
X0023607Y0015303D01*
X0023607Y0014304D02*
X0029393Y0014304D01*
X0029393Y0013306D02*
X0023607Y0013306D01*
X0023607Y0012307D02*
X0029393Y0012307D01*
X0029393Y0011309D02*
X0023607Y0011309D01*
X0023607Y0010310D02*
X0029393Y0010310D01*
X0028790Y0009312D02*
X0024210Y0009312D01*
X0025159Y0008313D02*
X0027841Y0008313D01*
X0027427Y0007315D02*
X0025573Y0007315D01*
X0025776Y0006316D02*
X0027224Y0006316D01*
X0027224Y0005318D02*
X0025776Y0005318D01*
X0025442Y0004319D02*
X0027558Y0004319D01*
X0028108Y0003321D02*
X0024892Y0003321D01*
X0023854Y0002322D02*
X0029146Y0002322D01*
X0014368Y0060657D02*
X0013607Y0060657D01*
X0013607Y0062220D01*
X0013922Y0062350D01*
X0014368Y0062796D01*
X0014368Y0060657D01*
X0014368Y0061234D02*
X0013607Y0061234D01*
X0013638Y0062233D02*
X0014368Y0062233D01*
M02*
