%
M48
M72
T01C0.03937
T02C0.04000
%
T01
X11500Y5975
X21500Y5975
X31500Y5975
X41500Y5975
X51500Y5975
X61500Y5975
X71500Y5975
X81500Y5975
X91500Y5975
X101500Y5975
X111500Y5975
X121500Y5975
X131500Y5975
X141500Y5975
X151500Y5975
X161500Y5975
X171500Y5975
X181500Y5975
X191500Y5975
X201500Y5975
X201500Y65975
X191500Y65975
X181500Y65975
X171500Y65975
X161500Y65975
X151500Y65975
X141500Y65975
X131500Y65975
X121500Y65975
X111500Y65975
X101500Y65975
X91500Y65975
X81500Y65975
X71500Y65975
X61500Y65975
X51500Y65975
X41500Y65975
X31500Y65975
X21500Y65975
X11500Y65975
T02
X11500Y75525
X21500Y75525
X31500Y75525
X41500Y75525
X51500Y75525
X61500Y75525
X71500Y75525
X81500Y75525
X91500Y75525
X101500Y75525
X111500Y75525
X121500Y75525
X131500Y75525
X141500Y75525
X151500Y75525
X161500Y75525
X171500Y75525
X181500Y75525
X191500Y75525
X201500Y75525
X201500Y85525
X191500Y85525
X181500Y85525
X171500Y85525
X161500Y85525
X151500Y85525
X141500Y85525
X131500Y85525
X121500Y85525
X111500Y85525
X101500Y85525
X91500Y85525
X81500Y85525
X71500Y85525
X61500Y85525
X51500Y85525
X41500Y85525
X31500Y85525
X21500Y85525
X11500Y85525
X11500Y56350
X21500Y56350
X31500Y56350
X41500Y56350
X51500Y56350
X61500Y56350
X71500Y56350
X81500Y56350
X91500Y56350
X101500Y56350
X111500Y56350
X121500Y56350
X131500Y56350
X141500Y56350
X151500Y56350
X161500Y56350
X171500Y56350
X181500Y56350
X191500Y56350
X201500Y56350
X201500Y46350
X191500Y46350
X181500Y46350
X171500Y46350
X161500Y46350
X151500Y46350
X141500Y46350
X131500Y46350
X121500Y46350
X111500Y46350
X101500Y46350
X91500Y46350
X81500Y46350
X71500Y46350
X61500Y46350
X51500Y46350
X41500Y46350
X31500Y46350
X21500Y46350
X11500Y46350
M30
