G75*
%MOIN*%
%OFA0B0*%
%FSLAX25Y25*%
%IPPOS*%
%LPD*%
%AMOC8*
5,1,8,0,0,1.08239X$1,22.5*
%
%ADD10C,0.06737*%
%ADD11R,0.06800X0.06800*%
%ADD12C,0.06800*%
D10*
X0011500Y0005975D03*
X0021500Y0005975D03*
X0031500Y0005975D03*
X0041500Y0005975D03*
X0051500Y0005975D03*
X0061500Y0005975D03*
X0071500Y0005975D03*
X0081500Y0005975D03*
X0091500Y0005975D03*
X0101500Y0005975D03*
X0111500Y0005975D03*
X0121500Y0005975D03*
X0131500Y0005975D03*
X0141500Y0005975D03*
X0151500Y0005975D03*
X0161500Y0005975D03*
X0171500Y0005975D03*
X0181500Y0005975D03*
X0191500Y0005975D03*
X0201500Y0005975D03*
X0201500Y0065975D03*
X0191500Y0065975D03*
X0181500Y0065975D03*
X0171500Y0065975D03*
X0161500Y0065975D03*
X0151500Y0065975D03*
X0141500Y0065975D03*
X0131500Y0065975D03*
X0121500Y0065975D03*
X0111500Y0065975D03*
X0101500Y0065975D03*
X0091500Y0065975D03*
X0081500Y0065975D03*
X0071500Y0065975D03*
X0061500Y0065975D03*
X0051500Y0065975D03*
X0041500Y0065975D03*
X0031500Y0065975D03*
X0021500Y0065975D03*
X0011500Y0065975D03*
D11*
X0011500Y0075525D03*
X0011500Y0056350D03*
D12*
X0021500Y0056350D03*
X0031500Y0056350D03*
X0041500Y0056350D03*
X0051500Y0056350D03*
X0061500Y0056350D03*
X0071500Y0056350D03*
X0081500Y0056350D03*
X0091500Y0056350D03*
X0101500Y0056350D03*
X0111500Y0056350D03*
X0121500Y0056350D03*
X0131500Y0056350D03*
X0141500Y0056350D03*
X0151500Y0056350D03*
X0161500Y0056350D03*
X0171500Y0056350D03*
X0181500Y0056350D03*
X0191500Y0056350D03*
X0201500Y0056350D03*
X0201500Y0046350D03*
X0191500Y0046350D03*
X0181500Y0046350D03*
X0171500Y0046350D03*
X0161500Y0046350D03*
X0151500Y0046350D03*
X0141500Y0046350D03*
X0131500Y0046350D03*
X0121500Y0046350D03*
X0111500Y0046350D03*
X0101500Y0046350D03*
X0091500Y0046350D03*
X0081500Y0046350D03*
X0071500Y0046350D03*
X0061500Y0046350D03*
X0051500Y0046350D03*
X0041500Y0046350D03*
X0031500Y0046350D03*
X0021500Y0046350D03*
X0011500Y0046350D03*
X0021500Y0075525D03*
X0031500Y0075525D03*
X0041500Y0075525D03*
X0051500Y0075525D03*
X0061500Y0075525D03*
X0071500Y0075525D03*
X0081500Y0075525D03*
X0091500Y0075525D03*
X0101500Y0075525D03*
X0111500Y0075525D03*
X0121500Y0075525D03*
X0131500Y0075525D03*
X0141500Y0075525D03*
X0151500Y0075525D03*
X0161500Y0075525D03*
X0171500Y0075525D03*
X0181500Y0075525D03*
X0191500Y0075525D03*
X0201500Y0075525D03*
X0201500Y0085525D03*
X0191500Y0085525D03*
X0181500Y0085525D03*
X0171500Y0085525D03*
X0161500Y0085525D03*
X0151500Y0085525D03*
X0141500Y0085525D03*
X0131500Y0085525D03*
X0121500Y0085525D03*
X0111500Y0085525D03*
X0101500Y0085525D03*
X0091500Y0085525D03*
X0081500Y0085525D03*
X0071500Y0085525D03*
X0061500Y0085525D03*
X0051500Y0085525D03*
X0041500Y0085525D03*
X0031500Y0085525D03*
X0021500Y0085525D03*
X0011500Y0085525D03*
M02*
