G75*
%MOIN*%
%OFA0B0*%
%FSLAX25Y25*%
%IPPOS*%
%LPD*%
%AMOC8*
5,1,8,0,0,1.08239X$1,22.5*
%
%ADD10C,0.00500*%
%ADD11C,0.00400*%
%ADD12C,0.00300*%
%ADD13C,0.00600*%
%ADD14C,0.02400*%
%ADD15C,0.01000*%
%ADD16R,0.02000X0.07000*%
%ADD17C,0.00200*%
D10*
X0017940Y0053083D02*
X0018691Y0053083D01*
X0019441Y0053834D01*
X0019441Y0057587D01*
X0018691Y0057587D02*
X0020192Y0057587D01*
X0021793Y0057587D02*
X0024045Y0057587D01*
X0024796Y0056837D01*
X0024796Y0055335D01*
X0024045Y0054585D01*
X0021793Y0054585D01*
X0021793Y0053083D02*
X0021793Y0057587D01*
X0026397Y0057587D02*
X0026397Y0055335D01*
X0027898Y0056086D01*
X0028649Y0056086D01*
X0029400Y0055335D01*
X0029400Y0053834D01*
X0028649Y0053083D01*
X0027148Y0053083D01*
X0026397Y0053834D01*
X0026397Y0057587D02*
X0029400Y0057587D01*
X0017940Y0053083D02*
X0017189Y0053834D01*
X0059207Y0081833D02*
X0060708Y0081833D01*
X0059957Y0081833D02*
X0059957Y0086337D01*
X0059207Y0086337D02*
X0060708Y0086337D01*
X0062276Y0085587D02*
X0062276Y0082584D01*
X0063026Y0081833D01*
X0064528Y0081833D01*
X0065278Y0082584D01*
X0066880Y0082584D02*
X0066880Y0081833D01*
X0066880Y0082584D02*
X0069882Y0085587D01*
X0069882Y0086337D01*
X0066880Y0086337D01*
X0065278Y0085587D02*
X0064528Y0086337D01*
X0063026Y0086337D01*
X0062276Y0085587D01*
X0047382Y0097584D02*
X0046632Y0096833D01*
X0045130Y0096833D01*
X0044380Y0097584D01*
X0044380Y0098335D01*
X0045130Y0099085D01*
X0046632Y0099085D01*
X0047382Y0098335D01*
X0047382Y0097584D01*
X0046632Y0099085D02*
X0047382Y0099836D01*
X0047382Y0100587D01*
X0046632Y0101337D01*
X0045130Y0101337D01*
X0044380Y0100587D01*
X0044380Y0099836D01*
X0045130Y0099085D01*
X0042778Y0097584D02*
X0042028Y0096833D01*
X0040526Y0096833D01*
X0039776Y0097584D01*
X0039776Y0100587D01*
X0040526Y0101337D01*
X0042028Y0101337D01*
X0042778Y0100587D01*
X0038208Y0101337D02*
X0036707Y0101337D01*
X0037457Y0101337D02*
X0037457Y0096833D01*
X0036707Y0096833D02*
X0038208Y0096833D01*
X0025848Y0088087D02*
X0025848Y0087336D01*
X0025097Y0086585D01*
X0023596Y0086585D01*
X0022845Y0087336D01*
X0022845Y0088087D01*
X0023596Y0088837D01*
X0025097Y0088837D01*
X0025848Y0088087D01*
X0025097Y0086585D02*
X0025848Y0085835D01*
X0025848Y0085084D01*
X0025097Y0084333D01*
X0023596Y0084333D01*
X0022845Y0085084D01*
X0022845Y0085835D01*
X0023596Y0086585D01*
X0021244Y0085084D02*
X0020493Y0084333D01*
X0018992Y0084333D01*
X0018241Y0085084D01*
X0018241Y0088087D01*
X0018992Y0088837D01*
X0020493Y0088837D01*
X0021244Y0088087D01*
X0057189Y0119333D02*
X0057189Y0123837D01*
X0059441Y0123837D01*
X0060192Y0123087D01*
X0060192Y0121585D01*
X0059441Y0120835D01*
X0057189Y0120835D01*
X0061793Y0120835D02*
X0063295Y0122336D01*
X0064045Y0122336D01*
X0065630Y0121585D02*
X0065630Y0120084D01*
X0066381Y0119333D01*
X0067882Y0119333D01*
X0068633Y0120084D01*
X0068633Y0121585D01*
X0067882Y0122336D01*
X0066381Y0122336D01*
X0065630Y0121585D01*
X0061793Y0122336D02*
X0061793Y0119333D01*
X0070234Y0121585D02*
X0071735Y0121585D01*
X0073303Y0121585D02*
X0073303Y0120084D01*
X0074054Y0119333D01*
X0075555Y0119333D01*
X0076306Y0120835D02*
X0073303Y0120835D01*
X0073303Y0121585D02*
X0074054Y0122336D01*
X0075555Y0122336D01*
X0076306Y0121585D01*
X0076306Y0120835D01*
X0077907Y0121585D02*
X0078658Y0122336D01*
X0080910Y0122336D01*
X0080159Y0120835D02*
X0078658Y0120835D01*
X0077907Y0121585D01*
X0077907Y0119333D02*
X0080159Y0119333D01*
X0080910Y0120084D01*
X0080159Y0120835D01*
X0082511Y0121585D02*
X0083262Y0122336D01*
X0085514Y0122336D01*
X0087115Y0122336D02*
X0087866Y0122336D01*
X0087866Y0119333D01*
X0088616Y0119333D02*
X0087115Y0119333D01*
X0085514Y0120084D02*
X0084763Y0120835D01*
X0083262Y0120835D01*
X0082511Y0121585D01*
X0082511Y0119333D02*
X0084763Y0119333D01*
X0085514Y0120084D01*
X0090184Y0120084D02*
X0090184Y0121585D01*
X0090935Y0122336D01*
X0092436Y0122336D01*
X0093187Y0121585D01*
X0093187Y0120084D01*
X0092436Y0119333D01*
X0090935Y0119333D01*
X0090184Y0120084D01*
X0094788Y0119333D02*
X0094788Y0122336D01*
X0097040Y0122336D01*
X0097791Y0121585D01*
X0097791Y0119333D01*
X0099392Y0120084D02*
X0100143Y0120835D01*
X0102395Y0120835D01*
X0102395Y0121585D02*
X0102395Y0119333D01*
X0100143Y0119333D01*
X0099392Y0120084D01*
X0100143Y0122336D02*
X0101644Y0122336D01*
X0102395Y0121585D01*
X0103996Y0119333D02*
X0105497Y0119333D01*
X0104747Y0119333D02*
X0104747Y0123837D01*
X0103996Y0123837D01*
X0111669Y0123837D02*
X0111669Y0119333D01*
X0113921Y0119333D01*
X0114672Y0120084D01*
X0114672Y0123087D01*
X0113921Y0123837D01*
X0111669Y0123837D01*
X0116273Y0123087D02*
X0116273Y0120084D01*
X0117024Y0119333D01*
X0118525Y0119333D01*
X0119276Y0120084D01*
X0119276Y0123087D01*
X0118525Y0123837D01*
X0117024Y0123837D01*
X0116273Y0123087D01*
X0120877Y0123087D02*
X0120877Y0122336D01*
X0121628Y0121585D01*
X0123129Y0121585D01*
X0123880Y0120835D01*
X0123880Y0120084D01*
X0123129Y0119333D01*
X0121628Y0119333D01*
X0120877Y0120084D01*
X0120877Y0123087D02*
X0121628Y0123837D01*
X0123129Y0123837D01*
X0123880Y0123087D01*
X0130085Y0123087D02*
X0130836Y0123837D01*
X0132337Y0123837D01*
X0133087Y0123087D01*
X0133087Y0122336D01*
X0130085Y0119333D01*
X0133087Y0119333D01*
X0134689Y0120084D02*
X0137691Y0123087D01*
X0137691Y0120084D01*
X0136941Y0119333D01*
X0135439Y0119333D01*
X0134689Y0120084D01*
X0134689Y0123087D01*
X0135439Y0123837D01*
X0136941Y0123837D01*
X0137691Y0123087D01*
X0139293Y0122336D02*
X0140794Y0123837D01*
X0140794Y0119333D01*
X0139293Y0119333D02*
X0142295Y0119333D01*
X0143897Y0120084D02*
X0143897Y0121585D01*
X0146149Y0121585D01*
X0146899Y0120835D01*
X0146899Y0120084D01*
X0146149Y0119333D01*
X0144647Y0119333D01*
X0143897Y0120084D01*
X0143897Y0121585D02*
X0145398Y0123087D01*
X0146899Y0123837D01*
X0152742Y0133083D02*
X0154243Y0133083D01*
X0154994Y0133834D01*
X0156595Y0135335D02*
X0159598Y0135335D01*
X0158847Y0133083D02*
X0158847Y0137587D01*
X0156595Y0135335D01*
X0154994Y0136837D02*
X0154243Y0137587D01*
X0152742Y0137587D01*
X0151991Y0136837D01*
X0151991Y0133834D01*
X0152742Y0133083D01*
X0145382Y0145583D02*
X0145382Y0150087D01*
X0143130Y0147835D01*
X0146132Y0147835D01*
X0141528Y0146334D02*
X0140778Y0145583D01*
X0139276Y0145583D01*
X0138526Y0146334D01*
X0138526Y0149337D01*
X0139276Y0150087D01*
X0140778Y0150087D01*
X0141528Y0149337D01*
X0136958Y0150087D02*
X0135457Y0150087D01*
X0136207Y0150087D02*
X0136207Y0145583D01*
X0135457Y0145583D02*
X0136958Y0145583D01*
X0119598Y0137587D02*
X0116595Y0137587D01*
X0116595Y0135335D01*
X0118096Y0136086D01*
X0118847Y0136086D01*
X0119598Y0135335D01*
X0119598Y0133834D01*
X0118847Y0133083D01*
X0117346Y0133083D01*
X0116595Y0133834D01*
X0114994Y0133834D02*
X0114243Y0133083D01*
X0112742Y0133083D01*
X0111991Y0133834D01*
X0111991Y0136837D01*
X0112742Y0137587D01*
X0114243Y0137587D01*
X0114994Y0136837D01*
X0106132Y0146334D02*
X0105382Y0145583D01*
X0103880Y0145583D01*
X0103130Y0146334D01*
X0103130Y0147835D02*
X0104631Y0148586D01*
X0105382Y0148586D01*
X0106132Y0147835D01*
X0106132Y0146334D01*
X0103130Y0147835D02*
X0103130Y0150087D01*
X0106132Y0150087D01*
X0101528Y0149337D02*
X0100778Y0150087D01*
X0099276Y0150087D01*
X0098526Y0149337D01*
X0098526Y0146334D01*
X0099276Y0145583D01*
X0100778Y0145583D01*
X0101528Y0146334D01*
X0096958Y0145583D02*
X0095457Y0145583D01*
X0096207Y0145583D02*
X0096207Y0150087D01*
X0095457Y0150087D02*
X0096958Y0150087D01*
X0079598Y0136337D02*
X0078096Y0135587D01*
X0076595Y0134085D01*
X0078847Y0134085D01*
X0079598Y0133335D01*
X0079598Y0132584D01*
X0078847Y0131833D01*
X0077346Y0131833D01*
X0076595Y0132584D01*
X0076595Y0134085D01*
X0074994Y0132584D02*
X0074243Y0131833D01*
X0072742Y0131833D01*
X0071991Y0132584D01*
X0071991Y0135587D01*
X0072742Y0136337D01*
X0074243Y0136337D01*
X0074994Y0135587D01*
X0071735Y0123837D02*
X0070985Y0123087D01*
X0070985Y0119333D01*
X0087866Y0123837D02*
X0087866Y0124588D01*
X0029598Y0146334D02*
X0029598Y0149337D01*
X0028847Y0150087D01*
X0027346Y0150087D01*
X0026595Y0149337D01*
X0026595Y0148586D01*
X0027346Y0147835D01*
X0029598Y0147835D01*
X0029598Y0146334D02*
X0028847Y0145583D01*
X0027346Y0145583D01*
X0026595Y0146334D01*
X0024994Y0145583D02*
X0023492Y0147085D01*
X0024243Y0147085D02*
X0021991Y0147085D01*
X0021991Y0145583D02*
X0021991Y0150087D01*
X0024243Y0150087D01*
X0024994Y0149337D01*
X0024994Y0147835D01*
X0024243Y0147085D01*
X0026343Y0134638D02*
X0026343Y0131635D01*
X0024091Y0133887D01*
X0028595Y0133887D01*
X0026343Y0130034D02*
X0027094Y0129283D01*
X0027094Y0127031D01*
X0028595Y0127031D02*
X0024091Y0127031D01*
X0024091Y0129283D01*
X0024842Y0130034D01*
X0026343Y0130034D01*
X0024091Y0125430D02*
X0024091Y0123929D01*
X0024091Y0124679D02*
X0027845Y0124679D01*
X0028595Y0123929D01*
X0028595Y0123178D01*
X0027845Y0122427D01*
X0030741Y0168083D02*
X0030741Y0172587D01*
X0032993Y0172587D01*
X0033744Y0171837D01*
X0033744Y0170335D01*
X0032993Y0169585D01*
X0030741Y0169585D01*
X0032242Y0169585D02*
X0033744Y0168083D01*
X0035345Y0168834D02*
X0035345Y0169585D01*
X0036096Y0170335D01*
X0037597Y0170335D01*
X0038348Y0169585D01*
X0038348Y0168834D01*
X0037597Y0168083D01*
X0036096Y0168083D01*
X0035345Y0168834D01*
X0036096Y0170335D02*
X0035345Y0171086D01*
X0035345Y0171837D01*
X0036096Y0172587D01*
X0037597Y0172587D01*
X0038348Y0171837D01*
X0038348Y0171086D01*
X0037597Y0170335D01*
X0042242Y0173083D02*
X0042242Y0177587D01*
X0040741Y0177587D02*
X0043744Y0177587D01*
X0045345Y0176837D02*
X0046096Y0177587D01*
X0047597Y0177587D01*
X0048348Y0176837D01*
X0048348Y0176086D01*
X0045345Y0173083D01*
X0048348Y0173083D01*
X0041798Y0185083D02*
X0040218Y0185083D01*
X0039591Y0190583D02*
X0023099Y0190583D01*
X0022472Y0185083D02*
X0020893Y0185083D01*
X0030218Y0185083D02*
X0032472Y0185083D01*
X0039591Y0190584D02*
X0039744Y0190385D01*
X0039892Y0190183D01*
X0040035Y0189978D01*
X0040173Y0189769D01*
X0040306Y0189557D01*
X0040434Y0189342D01*
X0040556Y0189124D01*
X0040674Y0188903D01*
X0040786Y0188679D01*
X0040893Y0188453D01*
X0040994Y0188224D01*
X0041090Y0187993D01*
X0041181Y0187759D01*
X0041266Y0187524D01*
X0041345Y0187286D01*
X0041418Y0187047D01*
X0041486Y0186806D01*
X0041548Y0186564D01*
X0041604Y0186320D01*
X0041655Y0186074D01*
X0041699Y0185828D01*
X0041738Y0185581D01*
X0041770Y0185333D01*
X0041797Y0185084D01*
X0041797Y0185083D02*
X0041819Y0184828D01*
X0041834Y0184572D01*
X0041842Y0184316D01*
X0041845Y0184059D01*
X0041841Y0183803D01*
X0041831Y0183547D01*
X0041815Y0183291D01*
X0041793Y0183036D01*
X0041764Y0182781D01*
X0041729Y0182527D01*
X0041688Y0182274D01*
X0041641Y0182022D01*
X0041587Y0181772D01*
X0041528Y0181523D01*
X0041462Y0181275D01*
X0041391Y0181029D01*
X0041313Y0180784D01*
X0041230Y0180542D01*
X0041141Y0180302D01*
X0041045Y0180064D01*
X0040944Y0179828D01*
X0040838Y0179595D01*
X0040725Y0179365D01*
X0040607Y0179137D01*
X0040484Y0178913D01*
X0040355Y0178691D01*
X0040221Y0178473D01*
X0040081Y0178258D01*
X0039936Y0178047D01*
X0039786Y0177839D01*
X0039632Y0177635D01*
X0039472Y0177434D01*
X0039307Y0177238D01*
X0039138Y0177046D01*
X0038963Y0176857D01*
X0038785Y0176674D01*
X0038602Y0176494D01*
X0038414Y0176319D01*
X0038223Y0176149D01*
X0038027Y0175984D01*
X0037827Y0175823D01*
X0037624Y0175667D01*
X0037417Y0175517D01*
X0037206Y0175371D01*
X0036991Y0175230D01*
X0036774Y0175095D01*
X0036553Y0174965D01*
X0036329Y0174841D01*
X0036102Y0174722D01*
X0035872Y0174609D01*
X0035639Y0174501D01*
X0035404Y0174399D01*
X0035166Y0174303D01*
X0034927Y0174213D01*
X0034685Y0174128D01*
X0034441Y0174050D01*
X0028249Y0174050D02*
X0028007Y0174128D01*
X0027767Y0174212D01*
X0027529Y0174301D01*
X0027293Y0174396D01*
X0027059Y0174498D01*
X0026828Y0174604D01*
X0026600Y0174717D01*
X0026374Y0174834D01*
X0026151Y0174957D01*
X0025932Y0175086D01*
X0025715Y0175220D01*
X0025502Y0175359D01*
X0025292Y0175503D01*
X0025086Y0175652D01*
X0024884Y0175806D01*
X0024685Y0175965D01*
X0024490Y0176129D01*
X0024299Y0176298D01*
X0024113Y0176471D01*
X0023930Y0176648D01*
X0023752Y0176830D01*
X0023579Y0177016D01*
X0023410Y0177207D01*
X0023246Y0177401D01*
X0023086Y0177599D01*
X0022931Y0177801D01*
X0022782Y0178007D01*
X0022637Y0178216D01*
X0022497Y0178429D01*
X0022363Y0178645D01*
X0022234Y0178865D01*
X0022110Y0179087D01*
X0021991Y0179312D01*
X0021879Y0179540D01*
X0021771Y0179771D01*
X0021670Y0180004D01*
X0021574Y0180240D01*
X0021483Y0180478D01*
X0021399Y0180718D01*
X0021320Y0180960D01*
X0021247Y0181204D01*
X0021181Y0181450D01*
X0021120Y0181697D01*
X0021065Y0181945D01*
X0021016Y0182195D01*
X0020973Y0182446D01*
X0020937Y0182698D01*
X0020906Y0182950D01*
X0020882Y0183204D01*
X0020864Y0183457D01*
X0020852Y0183712D01*
X0020846Y0183966D01*
X0020846Y0184221D01*
X0020852Y0184475D01*
X0020865Y0184729D01*
X0020884Y0184983D01*
X0020909Y0185236D01*
X0020940Y0185489D01*
X0020977Y0185741D01*
X0021020Y0185991D01*
X0021069Y0186241D01*
X0021125Y0186490D01*
X0021186Y0186737D01*
X0021253Y0186982D01*
X0021326Y0187226D01*
X0021405Y0187468D01*
X0021490Y0187707D01*
X0021581Y0187945D01*
X0021678Y0188181D01*
X0021780Y0188414D01*
X0021888Y0188644D01*
X0022001Y0188872D01*
X0022120Y0189097D01*
X0022244Y0189319D01*
X0022374Y0189538D01*
X0022508Y0189754D01*
X0022648Y0189967D01*
X0022794Y0190176D01*
X0022944Y0190381D01*
X0023099Y0190583D01*
X0023099Y0197583D02*
X0039591Y0197583D01*
X0041991Y0200087D02*
X0044994Y0200087D01*
X0043492Y0200087D02*
X0043492Y0195583D01*
X0046595Y0195583D02*
X0049598Y0195583D01*
X0048096Y0195583D02*
X0048096Y0200087D01*
X0046595Y0198586D01*
X0041798Y0203083D02*
X0040218Y0203083D01*
X0032472Y0203083D02*
X0030218Y0203083D01*
X0023099Y0197583D02*
X0022946Y0197782D01*
X0022798Y0197984D01*
X0022655Y0198189D01*
X0022517Y0198398D01*
X0022384Y0198610D01*
X0022256Y0198825D01*
X0022134Y0199043D01*
X0022016Y0199264D01*
X0021904Y0199488D01*
X0021797Y0199714D01*
X0021696Y0199943D01*
X0021600Y0200174D01*
X0021509Y0200408D01*
X0021424Y0200643D01*
X0021345Y0200881D01*
X0021272Y0201120D01*
X0021204Y0201361D01*
X0021142Y0201603D01*
X0021086Y0201847D01*
X0021035Y0202093D01*
X0020991Y0202339D01*
X0020952Y0202586D01*
X0020920Y0202834D01*
X0020893Y0203083D01*
X0022472Y0203083D01*
X0020893Y0203083D02*
X0020871Y0203338D01*
X0020856Y0203594D01*
X0020848Y0203850D01*
X0020845Y0204107D01*
X0020849Y0204363D01*
X0020859Y0204619D01*
X0020875Y0204875D01*
X0020897Y0205130D01*
X0020926Y0205385D01*
X0020961Y0205639D01*
X0021002Y0205892D01*
X0021049Y0206144D01*
X0021103Y0206394D01*
X0021162Y0206643D01*
X0021228Y0206891D01*
X0021299Y0207137D01*
X0021377Y0207382D01*
X0021460Y0207624D01*
X0021549Y0207864D01*
X0021645Y0208102D01*
X0021746Y0208338D01*
X0021852Y0208571D01*
X0021965Y0208801D01*
X0022083Y0209029D01*
X0022206Y0209253D01*
X0022335Y0209475D01*
X0022469Y0209693D01*
X0022609Y0209908D01*
X0022754Y0210119D01*
X0022904Y0210327D01*
X0023058Y0210531D01*
X0023218Y0210732D01*
X0023383Y0210928D01*
X0023552Y0211120D01*
X0023727Y0211309D01*
X0023905Y0211492D01*
X0024088Y0211672D01*
X0024276Y0211847D01*
X0024467Y0212017D01*
X0024663Y0212182D01*
X0024863Y0212343D01*
X0025066Y0212499D01*
X0025273Y0212649D01*
X0025484Y0212795D01*
X0025699Y0212936D01*
X0025916Y0213071D01*
X0026137Y0213201D01*
X0026361Y0213325D01*
X0026588Y0213444D01*
X0026818Y0213557D01*
X0027051Y0213665D01*
X0027286Y0213767D01*
X0027524Y0213863D01*
X0027763Y0213953D01*
X0028005Y0214038D01*
X0028249Y0214116D01*
X0034441Y0214116D02*
X0034683Y0214038D01*
X0034923Y0213954D01*
X0035161Y0213865D01*
X0035397Y0213770D01*
X0035631Y0213668D01*
X0035862Y0213562D01*
X0036090Y0213449D01*
X0036316Y0213332D01*
X0036539Y0213209D01*
X0036758Y0213080D01*
X0036975Y0212946D01*
X0037188Y0212807D01*
X0037398Y0212663D01*
X0037604Y0212514D01*
X0037806Y0212360D01*
X0038005Y0212201D01*
X0038200Y0212037D01*
X0038391Y0211868D01*
X0038577Y0211695D01*
X0038760Y0211518D01*
X0038938Y0211336D01*
X0039111Y0211150D01*
X0039280Y0210959D01*
X0039444Y0210765D01*
X0039604Y0210567D01*
X0039759Y0210365D01*
X0039908Y0210159D01*
X0040053Y0209950D01*
X0040193Y0209737D01*
X0040327Y0209521D01*
X0040456Y0209301D01*
X0040580Y0209079D01*
X0040699Y0208854D01*
X0040811Y0208626D01*
X0040919Y0208395D01*
X0041020Y0208162D01*
X0041116Y0207926D01*
X0041207Y0207688D01*
X0041291Y0207448D01*
X0041370Y0207206D01*
X0041443Y0206962D01*
X0041509Y0206716D01*
X0041570Y0206469D01*
X0041625Y0206221D01*
X0041674Y0205971D01*
X0041717Y0205720D01*
X0041753Y0205468D01*
X0041784Y0205216D01*
X0041808Y0204962D01*
X0041826Y0204709D01*
X0041838Y0204454D01*
X0041844Y0204200D01*
X0041844Y0203945D01*
X0041838Y0203691D01*
X0041825Y0203437D01*
X0041806Y0203183D01*
X0041781Y0202930D01*
X0041750Y0202677D01*
X0041713Y0202425D01*
X0041670Y0202175D01*
X0041621Y0201925D01*
X0041565Y0201676D01*
X0041504Y0201429D01*
X0041437Y0201184D01*
X0041364Y0200940D01*
X0041285Y0200698D01*
X0041200Y0200459D01*
X0041109Y0200221D01*
X0041012Y0199985D01*
X0040910Y0199752D01*
X0040802Y0199522D01*
X0040689Y0199294D01*
X0040570Y0199069D01*
X0040446Y0198847D01*
X0040316Y0198628D01*
X0040182Y0198412D01*
X0040042Y0198199D01*
X0039896Y0197990D01*
X0039746Y0197785D01*
X0039591Y0197583D01*
X0056707Y0206833D02*
X0058208Y0206833D01*
X0057457Y0206833D02*
X0057457Y0211337D01*
X0056707Y0211337D02*
X0058208Y0211337D01*
X0059776Y0210587D02*
X0059776Y0207584D01*
X0060526Y0206833D01*
X0062028Y0206833D01*
X0062778Y0207584D01*
X0064380Y0207584D02*
X0065130Y0206833D01*
X0066632Y0206833D01*
X0067382Y0207584D01*
X0067382Y0208335D01*
X0066632Y0209085D01*
X0064380Y0209085D01*
X0064380Y0207584D01*
X0064380Y0209085D02*
X0065881Y0210587D01*
X0067382Y0211337D01*
X0062778Y0210587D02*
X0062028Y0211337D01*
X0060526Y0211337D01*
X0059776Y0210587D01*
X0070341Y0221730D02*
X0071092Y0220979D01*
X0074095Y0220979D01*
X0074845Y0221730D01*
X0074845Y0223231D01*
X0074095Y0223982D01*
X0074095Y0225583D02*
X0074845Y0226334D01*
X0074845Y0227835D01*
X0074095Y0228586D01*
X0073344Y0228586D01*
X0072593Y0227835D01*
X0072593Y0227085D01*
X0072593Y0227835D02*
X0071843Y0228586D01*
X0071092Y0228586D01*
X0070341Y0227835D01*
X0070341Y0226334D01*
X0071092Y0225583D01*
X0071092Y0223982D02*
X0070341Y0223231D01*
X0070341Y0221730D01*
X0085741Y0230583D02*
X0085741Y0235087D01*
X0087993Y0235087D01*
X0088744Y0234337D01*
X0088744Y0232835D01*
X0087993Y0232085D01*
X0085741Y0232085D01*
X0087242Y0232085D02*
X0088744Y0230583D01*
X0090345Y0231334D02*
X0091096Y0230583D01*
X0092597Y0230583D01*
X0093348Y0231334D01*
X0093348Y0232835D01*
X0092597Y0233586D01*
X0091846Y0233586D01*
X0090345Y0232835D01*
X0090345Y0235087D01*
X0093348Y0235087D01*
X0054856Y0237834D02*
X0054105Y0237083D01*
X0052604Y0237083D01*
X0051853Y0237834D01*
X0054856Y0240837D01*
X0054856Y0237834D01*
X0054856Y0240837D02*
X0054105Y0241587D01*
X0052604Y0241587D01*
X0051853Y0240837D01*
X0051853Y0237834D01*
X0050252Y0237083D02*
X0047249Y0237083D01*
X0048750Y0237083D02*
X0048750Y0241587D01*
X0047249Y0240086D01*
X0045648Y0240837D02*
X0045648Y0239335D01*
X0044897Y0238585D01*
X0042645Y0238585D01*
X0044146Y0238585D02*
X0045648Y0237083D01*
X0042645Y0237083D02*
X0042645Y0241587D01*
X0044897Y0241587D01*
X0045648Y0240837D01*
X0039598Y0238837D02*
X0038096Y0238087D01*
X0036595Y0236585D01*
X0038847Y0236585D01*
X0039598Y0235835D01*
X0039598Y0235084D01*
X0038847Y0234333D01*
X0037346Y0234333D01*
X0036595Y0235084D01*
X0036595Y0236585D01*
X0034994Y0236585D02*
X0034243Y0235835D01*
X0031991Y0235835D01*
X0033492Y0235835D02*
X0034994Y0234333D01*
X0034994Y0236585D02*
X0034994Y0238087D01*
X0034243Y0238837D01*
X0031991Y0238837D01*
X0031991Y0234333D01*
X0029598Y0238087D02*
X0026595Y0235084D01*
X0026595Y0234333D01*
X0024994Y0234333D02*
X0023492Y0235835D01*
X0024243Y0235835D02*
X0021991Y0235835D01*
X0021991Y0234333D02*
X0021991Y0238837D01*
X0024243Y0238837D01*
X0024994Y0238087D01*
X0024994Y0236585D01*
X0024243Y0235835D01*
X0026595Y0238837D02*
X0029598Y0238837D01*
X0029598Y0238087D01*
X0164091Y0183137D02*
X0165593Y0181635D01*
X0164091Y0183137D02*
X0168595Y0183137D01*
X0168595Y0184638D02*
X0168595Y0181635D01*
X0168595Y0180034D02*
X0168595Y0177031D01*
X0168595Y0178533D02*
X0164091Y0178533D01*
X0165593Y0177031D01*
X0166343Y0175430D02*
X0167094Y0174679D01*
X0167094Y0172427D01*
X0168595Y0172427D02*
X0164091Y0172427D01*
X0164091Y0174679D01*
X0164842Y0175430D01*
X0166343Y0175430D01*
X0167094Y0173929D02*
X0168595Y0175430D01*
X0189689Y0191334D02*
X0190440Y0190583D01*
X0191191Y0190583D01*
X0191941Y0191334D01*
X0191941Y0195087D01*
X0191191Y0195087D02*
X0192692Y0195087D01*
X0194293Y0195087D02*
X0196545Y0195087D01*
X0197296Y0194337D01*
X0197296Y0192835D01*
X0196545Y0192085D01*
X0194293Y0192085D01*
X0194293Y0190583D02*
X0194293Y0195087D01*
X0198897Y0194337D02*
X0199648Y0195087D01*
X0201149Y0195087D01*
X0201900Y0194337D01*
X0201900Y0193586D01*
X0198897Y0190583D01*
X0201900Y0190583D01*
X0211991Y0184337D02*
X0211991Y0181334D01*
X0212742Y0180583D01*
X0214243Y0180583D01*
X0214994Y0181334D01*
X0216595Y0181334D02*
X0219598Y0184337D01*
X0219598Y0185087D01*
X0216595Y0185087D01*
X0214994Y0184337D02*
X0214243Y0185087D01*
X0212742Y0185087D01*
X0211991Y0184337D01*
X0216595Y0181334D02*
X0216595Y0180583D01*
X0247957Y0196833D02*
X0249458Y0196833D01*
X0248707Y0196833D02*
X0248707Y0201337D01*
X0247957Y0201337D02*
X0249458Y0201337D01*
X0251026Y0200587D02*
X0251026Y0197584D01*
X0251776Y0196833D01*
X0253278Y0196833D01*
X0254028Y0197584D01*
X0255630Y0197584D02*
X0256380Y0196833D01*
X0257882Y0196833D01*
X0258632Y0197584D01*
X0258632Y0198335D01*
X0257882Y0199085D01*
X0257131Y0199085D01*
X0257882Y0199085D02*
X0258632Y0199836D01*
X0258632Y0200587D01*
X0257882Y0201337D01*
X0256380Y0201337D01*
X0255630Y0200587D01*
X0254028Y0200587D02*
X0253278Y0201337D01*
X0251776Y0201337D01*
X0251026Y0200587D01*
X0221900Y0230084D02*
X0221149Y0229333D01*
X0219648Y0229333D01*
X0218897Y0230084D01*
X0221900Y0233087D01*
X0221900Y0230084D01*
X0221900Y0233087D02*
X0221149Y0233837D01*
X0219648Y0233837D01*
X0218897Y0233087D01*
X0218897Y0230084D01*
X0217296Y0229333D02*
X0214293Y0229333D01*
X0215794Y0229333D02*
X0215794Y0233837D01*
X0214293Y0232336D01*
X0212692Y0233087D02*
X0211941Y0233837D01*
X0210440Y0233837D01*
X0209689Y0233087D01*
X0209689Y0230084D01*
X0210440Y0229333D01*
X0211941Y0229333D01*
X0212692Y0230084D01*
X0305741Y0249333D02*
X0305741Y0253837D01*
X0307993Y0253837D01*
X0308744Y0253087D01*
X0308744Y0251585D01*
X0307993Y0250835D01*
X0305741Y0250835D01*
X0307242Y0250835D02*
X0308744Y0249333D01*
X0310345Y0249333D02*
X0313348Y0249333D01*
X0311846Y0249333D02*
X0311846Y0253837D01*
X0310345Y0252336D01*
X0325741Y0253837D02*
X0325741Y0249333D01*
X0325741Y0250835D02*
X0327993Y0250835D01*
X0328744Y0251585D01*
X0328744Y0253087D01*
X0327993Y0253837D01*
X0325741Y0253837D01*
X0330345Y0253087D02*
X0331096Y0253837D01*
X0332597Y0253837D01*
X0333348Y0253087D01*
X0333348Y0252336D01*
X0330345Y0249333D01*
X0333348Y0249333D01*
X0328744Y0249333D02*
X0327242Y0250835D01*
X0346991Y0250084D02*
X0347742Y0249333D01*
X0349243Y0249333D01*
X0349994Y0250084D01*
X0351595Y0249333D02*
X0354598Y0249333D01*
X0353096Y0249333D02*
X0353096Y0253837D01*
X0351595Y0252336D01*
X0349994Y0253087D02*
X0349243Y0253837D01*
X0347742Y0253837D01*
X0346991Y0253087D01*
X0346991Y0250084D01*
X0366991Y0250084D02*
X0367742Y0249333D01*
X0369243Y0249333D01*
X0369994Y0250084D01*
X0371595Y0249333D02*
X0374598Y0252336D01*
X0374598Y0253087D01*
X0373847Y0253837D01*
X0372346Y0253837D01*
X0371595Y0253087D01*
X0369994Y0253087D02*
X0369243Y0253837D01*
X0367742Y0253837D01*
X0366991Y0253087D01*
X0366991Y0250084D01*
X0371595Y0249333D02*
X0374598Y0249333D01*
X0391541Y0242137D02*
X0393793Y0242137D01*
X0394544Y0241387D01*
X0394544Y0239885D01*
X0393793Y0239135D01*
X0391541Y0239135D01*
X0393042Y0239135D02*
X0394544Y0237633D01*
X0396145Y0239885D02*
X0399148Y0239885D01*
X0398397Y0237633D02*
X0398397Y0242137D01*
X0396145Y0239885D01*
X0391541Y0237633D02*
X0391541Y0242137D01*
X0411641Y0241987D02*
X0411641Y0237483D01*
X0411641Y0238985D02*
X0413893Y0238985D01*
X0414644Y0239735D01*
X0414644Y0241237D01*
X0413893Y0241987D01*
X0411641Y0241987D01*
X0413142Y0238985D02*
X0414644Y0237483D01*
X0416245Y0238234D02*
X0416996Y0237483D01*
X0418497Y0237483D01*
X0419248Y0238234D01*
X0419248Y0238985D01*
X0418497Y0239735D01*
X0417746Y0239735D01*
X0418497Y0239735D02*
X0419248Y0240486D01*
X0419248Y0241237D01*
X0418497Y0241987D01*
X0416996Y0241987D01*
X0416245Y0241237D01*
X0416595Y0201172D02*
X0417345Y0200422D01*
X0417345Y0198921D01*
X0416595Y0198170D01*
X0413592Y0201172D01*
X0416595Y0201172D01*
X0416595Y0198170D02*
X0413592Y0198170D01*
X0412841Y0198921D01*
X0412841Y0200422D01*
X0413592Y0201172D01*
X0417345Y0196569D02*
X0417345Y0193566D01*
X0417345Y0195067D02*
X0412841Y0195067D01*
X0414343Y0193566D01*
X0413592Y0191965D02*
X0412841Y0191214D01*
X0412841Y0189713D01*
X0413592Y0188962D01*
X0416595Y0188962D01*
X0417345Y0189713D01*
X0417345Y0191214D01*
X0416595Y0191965D01*
X0417345Y0187394D02*
X0417345Y0185893D01*
X0417345Y0186643D02*
X0412841Y0186643D01*
X0412841Y0185893D02*
X0412841Y0187394D01*
X0394882Y0196833D02*
X0391880Y0196833D01*
X0394882Y0199836D01*
X0394882Y0200587D01*
X0394132Y0201337D01*
X0392630Y0201337D01*
X0391880Y0200587D01*
X0390278Y0200587D02*
X0389528Y0201337D01*
X0388026Y0201337D01*
X0387276Y0200587D01*
X0387276Y0197584D01*
X0388026Y0196833D01*
X0389528Y0196833D01*
X0390278Y0197584D01*
X0385708Y0196833D02*
X0384207Y0196833D01*
X0384957Y0196833D02*
X0384957Y0201337D01*
X0384207Y0201337D02*
X0385708Y0201337D01*
X0277242Y0116337D02*
X0277242Y0111833D01*
X0275741Y0111833D02*
X0278744Y0111833D01*
X0274140Y0111833D02*
X0274140Y0116337D01*
X0275741Y0114836D02*
X0277242Y0116337D01*
X0274140Y0111833D02*
X0271137Y0116337D01*
X0271137Y0111833D01*
X0269536Y0111833D02*
X0268035Y0113335D01*
X0268785Y0113335D02*
X0266533Y0113335D01*
X0266533Y0111833D02*
X0266533Y0116337D01*
X0268785Y0116337D01*
X0269536Y0115587D01*
X0269536Y0114085D01*
X0268785Y0113335D01*
X0249598Y0114085D02*
X0247346Y0114085D01*
X0246595Y0114836D01*
X0246595Y0115587D01*
X0247346Y0116337D01*
X0248847Y0116337D01*
X0249598Y0115587D01*
X0249598Y0112584D01*
X0248847Y0111833D01*
X0247346Y0111833D01*
X0246595Y0112584D01*
X0244994Y0112584D02*
X0244243Y0111833D01*
X0242742Y0111833D01*
X0241991Y0112584D01*
X0241991Y0115587D01*
X0242742Y0116337D01*
X0244243Y0116337D01*
X0244994Y0115587D01*
X0234132Y0096337D02*
X0232630Y0096337D01*
X0231880Y0095587D01*
X0231880Y0094836D01*
X0232630Y0094085D01*
X0234882Y0094085D01*
X0234882Y0092584D02*
X0234132Y0091833D01*
X0232630Y0091833D01*
X0231880Y0092584D01*
X0230278Y0092584D02*
X0229528Y0091833D01*
X0228026Y0091833D01*
X0227276Y0092584D01*
X0227276Y0095587D01*
X0228026Y0096337D01*
X0229528Y0096337D01*
X0230278Y0095587D01*
X0234132Y0096337D02*
X0234882Y0095587D01*
X0234882Y0092584D01*
X0225708Y0091833D02*
X0224207Y0091833D01*
X0224957Y0091833D02*
X0224957Y0096337D01*
X0224207Y0096337D02*
X0225708Y0096337D01*
X0210095Y0097833D02*
X0210095Y0100333D01*
X0207595Y0097833D01*
X0210095Y0097833D01*
X0207595Y0097833D02*
X0205095Y0097833D01*
X0210095Y0102833D01*
X0207595Y0102833D01*
X0202595Y0097833D01*
X0205095Y0097833D01*
X0202595Y0097833D02*
X0200095Y0097833D01*
X0205095Y0102833D01*
X0202595Y0102833D01*
X0200095Y0102833D01*
X0198845Y0101583D01*
X0198845Y0099083D01*
X0202595Y0102833D01*
X0201345Y0104083D02*
X0198845Y0104083D01*
X0203845Y0109083D01*
X0201345Y0109083D01*
X0198845Y0106583D01*
X0198845Y0104083D01*
X0198845Y0102833D02*
X0198845Y0101583D01*
X0198845Y0102833D02*
X0200095Y0102833D01*
X0201345Y0104083D02*
X0206345Y0109083D01*
X0203845Y0109083D01*
X0201345Y0109083D02*
X0198845Y0109083D01*
X0198845Y0106583D01*
X0201345Y0104083D02*
X0203845Y0104083D01*
X0208845Y0109083D01*
X0206345Y0109083D01*
X0208845Y0109083D02*
X0210095Y0109083D01*
X0210095Y0107833D01*
X0206345Y0104083D01*
X0208845Y0104083D01*
X0210095Y0105333D01*
X0210095Y0107833D01*
X0210095Y0105333D02*
X0210095Y0104083D01*
X0208845Y0104083D01*
X0207595Y0102833D02*
X0205095Y0102833D01*
X0203845Y0104083D02*
X0206345Y0104083D01*
X0210095Y0102833D02*
X0210095Y0100333D01*
X0200095Y0097833D02*
X0198845Y0097833D01*
X0198845Y0099083D01*
X0193845Y0099083D02*
X0193845Y0097833D01*
X0192595Y0097833D01*
X0188845Y0101583D01*
X0188845Y0099083D01*
X0190095Y0097833D01*
X0192595Y0097833D01*
X0193845Y0096583D02*
X0191345Y0096583D01*
X0193845Y0094083D01*
X0193845Y0096583D01*
X0193845Y0094083D02*
X0193845Y0091583D01*
X0188845Y0096583D01*
X0188845Y0094083D01*
X0193845Y0089083D01*
X0193845Y0091583D01*
X0193845Y0089083D02*
X0193845Y0086583D01*
X0188845Y0091583D01*
X0188845Y0089083D01*
X0188845Y0086583D01*
X0190095Y0085333D01*
X0192595Y0085333D01*
X0188845Y0089083D01*
X0187595Y0089083D02*
X0186345Y0090333D01*
X0183845Y0090333D01*
X0187595Y0086583D01*
X0187595Y0089083D01*
X0187595Y0090333D01*
X0186345Y0090333D01*
X0185095Y0091583D02*
X0182595Y0094083D01*
X0182595Y0091583D01*
X0185095Y0091583D01*
X0187595Y0091583D01*
X0182595Y0096583D01*
X0182595Y0094083D01*
X0182595Y0096583D02*
X0182595Y0099083D01*
X0187595Y0094083D01*
X0187595Y0096583D01*
X0182595Y0101583D01*
X0182595Y0099083D01*
X0182595Y0101583D02*
X0182595Y0102833D01*
X0183845Y0102833D01*
X0187595Y0099083D01*
X0187595Y0101583D01*
X0186345Y0102833D01*
X0183845Y0102833D01*
X0186345Y0102833D02*
X0187595Y0102833D01*
X0187595Y0101583D01*
X0188845Y0101583D02*
X0188845Y0104083D01*
X0193845Y0099083D01*
X0193845Y0101583D01*
X0188845Y0106583D01*
X0188845Y0104083D01*
X0188845Y0106583D02*
X0188845Y0109083D01*
X0193845Y0104083D01*
X0193845Y0106583D01*
X0191345Y0109083D01*
X0188845Y0109083D01*
X0191345Y0109083D02*
X0193845Y0109083D01*
X0193845Y0106583D01*
X0193845Y0104083D02*
X0193845Y0101583D01*
X0188845Y0099083D02*
X0188845Y0097833D01*
X0190095Y0097833D01*
X0191345Y0096583D02*
X0188845Y0096583D01*
X0187595Y0096583D02*
X0187595Y0099083D01*
X0187595Y0094083D02*
X0187595Y0091583D01*
X0188845Y0091583D02*
X0188845Y0094083D01*
X0183845Y0090333D02*
X0182595Y0090333D01*
X0182595Y0089083D01*
X0187595Y0084083D01*
X0187595Y0086583D01*
X0188845Y0086583D02*
X0188845Y0085333D01*
X0190095Y0085333D01*
X0192595Y0085333D02*
X0193845Y0085333D01*
X0193845Y0086583D01*
X0198845Y0086583D02*
X0198845Y0089083D01*
X0200095Y0090333D01*
X0202595Y0090333D01*
X0198845Y0086583D01*
X0198845Y0085333D01*
X0200095Y0085333D01*
X0205095Y0090333D01*
X0202595Y0090333D01*
X0200095Y0090333D02*
X0198845Y0090333D01*
X0198845Y0089083D01*
X0200095Y0085333D02*
X0202595Y0085333D01*
X0207595Y0090333D01*
X0205095Y0090333D01*
X0207595Y0090333D02*
X0210095Y0090333D01*
X0205095Y0085333D01*
X0207595Y0085333D01*
X0210095Y0087833D01*
X0210095Y0090333D01*
X0210095Y0087833D02*
X0210095Y0085333D01*
X0207595Y0085333D01*
X0205095Y0085333D02*
X0202595Y0085333D01*
X0202595Y0084083D02*
X0200095Y0084083D01*
X0203845Y0080333D01*
X0203845Y0082833D01*
X0202595Y0084083D01*
X0203845Y0084083D01*
X0203845Y0082833D01*
X0203845Y0080333D02*
X0203845Y0077833D01*
X0198845Y0082833D01*
X0198845Y0080333D01*
X0203845Y0075333D01*
X0203845Y0077833D01*
X0203845Y0075333D02*
X0203845Y0072833D01*
X0198845Y0077833D01*
X0198845Y0075333D01*
X0201345Y0072833D01*
X0203845Y0072833D01*
X0202595Y0071583D02*
X0200095Y0071583D01*
X0198845Y0070333D01*
X0198845Y0067833D01*
X0202595Y0071583D01*
X0205095Y0071583D01*
X0200095Y0066583D01*
X0202595Y0066583D01*
X0207595Y0071583D01*
X0205095Y0071583D01*
X0207595Y0071583D02*
X0210095Y0071583D01*
X0205095Y0066583D01*
X0207595Y0066583D01*
X0210095Y0069083D01*
X0210095Y0071583D01*
X0210095Y0069083D02*
X0210095Y0066583D01*
X0207595Y0066583D01*
X0205095Y0066583D02*
X0202595Y0066583D01*
X0200095Y0066583D02*
X0198845Y0066583D01*
X0198845Y0067833D01*
X0198845Y0070333D02*
X0198845Y0071583D01*
X0200095Y0071583D01*
X0198845Y0072833D02*
X0201345Y0072833D01*
X0198845Y0072833D02*
X0198845Y0075333D01*
X0198845Y0077833D02*
X0198845Y0080333D01*
X0198845Y0082833D02*
X0198845Y0084083D01*
X0200095Y0084083D01*
X0193845Y0077833D02*
X0192595Y0077833D01*
X0193845Y0076583D01*
X0193845Y0074083D01*
X0190095Y0077833D01*
X0188845Y0077833D01*
X0188845Y0076583D01*
X0193845Y0071583D01*
X0193845Y0074083D01*
X0193845Y0071583D02*
X0193845Y0069083D01*
X0188845Y0074083D01*
X0188845Y0071583D01*
X0193845Y0066583D01*
X0193845Y0069083D01*
X0193845Y0066583D02*
X0191345Y0066583D01*
X0188845Y0069083D01*
X0188845Y0066583D01*
X0191345Y0066583D01*
X0188845Y0069083D02*
X0188845Y0071583D01*
X0188845Y0074083D02*
X0188845Y0076583D01*
X0190095Y0077833D02*
X0192595Y0077833D01*
X0193845Y0077833D02*
X0193845Y0076583D01*
X0187595Y0079083D02*
X0187595Y0081583D01*
X0182595Y0086583D01*
X0182595Y0084083D01*
X0187595Y0079083D01*
X0185095Y0079083D01*
X0182595Y0081583D01*
X0182595Y0079083D01*
X0185095Y0079083D01*
X0182595Y0081583D02*
X0182595Y0084083D01*
X0182595Y0086583D02*
X0182595Y0089083D01*
X0187595Y0084083D02*
X0187595Y0081583D01*
X0181345Y0065333D02*
X0181345Y0110333D01*
X0195095Y0110333D01*
X0195095Y0065333D01*
X0181345Y0065333D01*
X0181345Y0062833D02*
X0181345Y0049083D01*
X0195095Y0049083D01*
X0195095Y0062833D01*
X0181345Y0062833D01*
X0182595Y0061583D02*
X0182595Y0059083D01*
X0185095Y0061583D01*
X0182595Y0061583D01*
X0182595Y0059083D02*
X0182595Y0056583D01*
X0187595Y0061583D01*
X0185095Y0061583D01*
X0187595Y0061583D02*
X0190095Y0061583D01*
X0185095Y0056583D01*
X0187595Y0056583D01*
X0192595Y0061583D01*
X0190095Y0061583D01*
X0192595Y0061583D02*
X0193845Y0061583D01*
X0193845Y0060333D01*
X0190095Y0056583D01*
X0192595Y0056583D01*
X0193845Y0057833D01*
X0193845Y0060333D01*
X0193845Y0057833D02*
X0193845Y0056583D01*
X0192595Y0056583D01*
X0193845Y0055333D02*
X0191345Y0055333D01*
X0186345Y0050333D01*
X0188845Y0050333D01*
X0193845Y0055333D01*
X0193845Y0052833D01*
X0191345Y0050333D01*
X0193845Y0050333D01*
X0193845Y0052833D01*
X0191345Y0050333D02*
X0188845Y0050333D01*
X0186345Y0050333D02*
X0183845Y0050333D01*
X0188845Y0055333D01*
X0186345Y0055333D01*
X0183845Y0055333D01*
X0182595Y0054083D01*
X0182595Y0051583D01*
X0186345Y0055333D01*
X0185095Y0056583D02*
X0182595Y0056583D01*
X0182595Y0055333D02*
X0182595Y0054083D01*
X0182595Y0055333D02*
X0183845Y0055333D01*
X0187595Y0056583D02*
X0190095Y0056583D01*
X0191345Y0055333D02*
X0188845Y0055333D01*
X0183845Y0050333D02*
X0182595Y0050333D01*
X0182595Y0051583D01*
X0197595Y0049083D02*
X0197595Y0062833D01*
X0211345Y0062833D01*
X0211345Y0049083D01*
X0197595Y0049083D01*
X0198845Y0050333D02*
X0200095Y0050333D01*
X0198845Y0051583D01*
X0198845Y0054083D01*
X0202595Y0050333D01*
X0203845Y0050333D01*
X0203845Y0051583D01*
X0198845Y0056583D01*
X0198845Y0054083D01*
X0198845Y0051583D02*
X0198845Y0050333D01*
X0200095Y0050333D02*
X0202595Y0050333D01*
X0203845Y0051583D02*
X0203845Y0054083D01*
X0198845Y0059083D01*
X0198845Y0056583D01*
X0198845Y0059083D02*
X0198845Y0061583D01*
X0203845Y0056583D01*
X0203845Y0059083D01*
X0201345Y0061583D01*
X0198845Y0061583D01*
X0201345Y0061583D02*
X0203845Y0061583D01*
X0203845Y0059083D01*
X0203845Y0056583D02*
X0203845Y0054083D01*
X0197595Y0065333D02*
X0197595Y0110333D01*
X0211345Y0110333D01*
X0211345Y0065333D01*
X0197595Y0065333D01*
X0227957Y0136833D02*
X0229458Y0136833D01*
X0228707Y0136833D02*
X0228707Y0141337D01*
X0227957Y0141337D02*
X0229458Y0141337D01*
X0231026Y0140587D02*
X0231026Y0137584D01*
X0231776Y0136833D01*
X0233278Y0136833D01*
X0234028Y0137584D01*
X0235630Y0136833D02*
X0238632Y0136833D01*
X0237131Y0136833D02*
X0237131Y0141337D01*
X0235630Y0139836D01*
X0234028Y0140587D02*
X0233278Y0141337D01*
X0231776Y0141337D01*
X0231026Y0140587D01*
X0183595Y0142427D02*
X0179091Y0142427D01*
X0179091Y0144679D01*
X0179842Y0145430D01*
X0181343Y0145430D01*
X0182094Y0144679D01*
X0182094Y0142427D01*
X0182094Y0143929D02*
X0183595Y0145430D01*
X0183595Y0147031D02*
X0183595Y0150034D01*
X0183595Y0148533D02*
X0179091Y0148533D01*
X0180593Y0147031D01*
X0179842Y0151635D02*
X0179091Y0152386D01*
X0179091Y0153887D01*
X0179842Y0154638D01*
X0180593Y0154638D01*
X0183595Y0151635D01*
X0183595Y0154638D01*
X0362841Y0106887D02*
X0367345Y0106887D01*
X0367345Y0108388D02*
X0367345Y0105385D01*
X0365093Y0103784D02*
X0365844Y0103033D01*
X0365844Y0100781D01*
X0367345Y0100781D02*
X0362841Y0100781D01*
X0362841Y0103033D01*
X0363592Y0103784D01*
X0365093Y0103784D01*
X0364343Y0105385D02*
X0362841Y0106887D01*
X0362841Y0099180D02*
X0362841Y0097679D01*
X0362841Y0098429D02*
X0366595Y0098429D01*
X0367345Y0097679D01*
X0367345Y0096928D01*
X0366595Y0096177D01*
D11*
X0358105Y0080935D02*
X0358705Y0080335D01*
X0358705Y0079734D01*
X0356303Y0079734D01*
X0356303Y0079134D02*
X0356303Y0080335D01*
X0356904Y0080935D01*
X0358105Y0080935D01*
X0358105Y0078533D02*
X0356904Y0078533D01*
X0356303Y0079134D01*
X0355022Y0078533D02*
X0355022Y0080335D01*
X0354422Y0080935D01*
X0353821Y0080335D01*
X0353821Y0078533D01*
X0352620Y0078533D02*
X0352620Y0080935D01*
X0353221Y0080935D01*
X0353821Y0080335D01*
X0351339Y0080335D02*
X0351339Y0078533D01*
X0349538Y0078533D01*
X0348937Y0079134D01*
X0349538Y0079734D01*
X0351339Y0079734D01*
X0351339Y0080335D02*
X0350739Y0080935D01*
X0349538Y0080935D01*
X0347656Y0080335D02*
X0347656Y0078533D01*
X0347656Y0080335D02*
X0347055Y0080935D01*
X0345254Y0080935D01*
X0345254Y0078533D01*
X0343986Y0080935D02*
X0343386Y0080935D01*
X0342185Y0079734D01*
X0342185Y0078533D02*
X0342185Y0080935D01*
X0340903Y0080335D02*
X0340903Y0079734D01*
X0338501Y0079734D01*
X0338501Y0079134D02*
X0338501Y0080335D01*
X0339102Y0080935D01*
X0340303Y0080935D01*
X0340903Y0080335D01*
X0340303Y0078533D02*
X0339102Y0078533D01*
X0338501Y0079134D01*
X0337220Y0078533D02*
X0334818Y0078533D01*
X0337220Y0080935D01*
X0334818Y0080935D01*
X0333564Y0080935D02*
X0332363Y0080935D01*
X0332963Y0081536D02*
X0332963Y0079134D01*
X0333564Y0078533D01*
X0331082Y0078533D02*
X0331082Y0080935D01*
X0331082Y0078533D02*
X0329280Y0078533D01*
X0328680Y0079134D01*
X0328680Y0080935D01*
X0327399Y0080335D02*
X0327399Y0078533D01*
X0327399Y0080335D02*
X0326798Y0080935D01*
X0324997Y0080935D01*
X0324997Y0078533D01*
X0323715Y0079734D02*
X0321313Y0079734D01*
X0321313Y0079134D02*
X0321313Y0080335D01*
X0321914Y0080935D01*
X0323115Y0080935D01*
X0323715Y0080335D01*
X0323715Y0079734D01*
X0323115Y0078533D02*
X0321914Y0078533D01*
X0321313Y0079134D01*
X0320032Y0079134D02*
X0320032Y0079734D01*
X0319432Y0080335D01*
X0317630Y0080335D01*
X0317630Y0082136D02*
X0317630Y0078533D01*
X0319432Y0078533D01*
X0320032Y0079134D01*
X0319432Y0080335D02*
X0320032Y0080935D01*
X0320032Y0081536D01*
X0319432Y0082136D01*
X0317630Y0082136D01*
X0312666Y0080935D02*
X0312666Y0077933D01*
X0312066Y0077332D01*
X0311465Y0077332D01*
X0310865Y0078533D02*
X0312666Y0078533D01*
X0310865Y0078533D02*
X0310264Y0079134D01*
X0310264Y0080935D01*
X0308983Y0080335D02*
X0308382Y0080935D01*
X0306581Y0080935D01*
X0306581Y0082136D02*
X0306581Y0078533D01*
X0308382Y0078533D01*
X0308983Y0079134D01*
X0308983Y0080335D01*
X0308996Y0074935D02*
X0309597Y0074335D01*
X0309597Y0073734D01*
X0307195Y0073734D01*
X0307195Y0073134D02*
X0307195Y0074335D01*
X0307795Y0074935D01*
X0308996Y0074935D01*
X0310878Y0074335D02*
X0311478Y0074935D01*
X0312679Y0074935D01*
X0313280Y0074335D01*
X0313280Y0073734D01*
X0310878Y0073734D01*
X0310878Y0073134D02*
X0310878Y0074335D01*
X0310878Y0073134D02*
X0311478Y0072533D01*
X0312679Y0072533D01*
X0314561Y0072533D02*
X0314561Y0074935D01*
X0316363Y0074935D01*
X0316963Y0074335D01*
X0316963Y0072533D01*
X0318244Y0070136D02*
X0318244Y0066533D01*
X0318244Y0067734D02*
X0320046Y0068935D01*
X0321313Y0068335D02*
X0321313Y0067134D01*
X0321914Y0066533D01*
X0323115Y0066533D01*
X0323715Y0067734D02*
X0321313Y0067734D01*
X0321313Y0068335D02*
X0321914Y0068935D01*
X0323115Y0068935D01*
X0323715Y0068335D01*
X0323715Y0067734D01*
X0324997Y0066533D02*
X0324997Y0068935D01*
X0326798Y0068935D01*
X0327399Y0068335D01*
X0327399Y0066533D01*
X0320046Y0066533D02*
X0318244Y0067734D01*
X0316963Y0066533D02*
X0315162Y0066533D01*
X0314561Y0067134D01*
X0314561Y0068935D01*
X0313280Y0069536D02*
X0312679Y0070136D01*
X0311478Y0070136D01*
X0310878Y0069536D01*
X0310878Y0068935D01*
X0311478Y0068335D01*
X0312679Y0068335D01*
X0313280Y0067734D01*
X0313280Y0067134D01*
X0312679Y0066533D01*
X0311478Y0066533D01*
X0310878Y0067134D01*
X0305940Y0067134D02*
X0305340Y0067134D01*
X0305340Y0066533D01*
X0305940Y0066533D01*
X0305940Y0067134D01*
X0305940Y0066533D02*
X0304739Y0065332D01*
X0303458Y0065933D02*
X0302858Y0065332D01*
X0302257Y0065332D01*
X0301657Y0066533D02*
X0303458Y0066533D01*
X0303458Y0065933D02*
X0303458Y0068935D01*
X0301056Y0068935D02*
X0301056Y0067134D01*
X0301657Y0066533D01*
X0299802Y0066533D02*
X0299201Y0067134D01*
X0299201Y0069536D01*
X0298601Y0068935D02*
X0299802Y0068935D01*
X0297333Y0068935D02*
X0296732Y0068935D01*
X0295531Y0067734D01*
X0295531Y0066533D02*
X0295531Y0068935D01*
X0294250Y0068335D02*
X0294250Y0066533D01*
X0292449Y0066533D01*
X0291848Y0067134D01*
X0292449Y0067734D01*
X0294250Y0067734D01*
X0294250Y0068335D02*
X0293650Y0068935D01*
X0292449Y0068935D01*
X0290567Y0068335D02*
X0290567Y0066533D01*
X0289366Y0066533D02*
X0289366Y0068335D01*
X0289967Y0068935D01*
X0290567Y0068335D01*
X0289366Y0068335D02*
X0288766Y0068935D01*
X0288165Y0068935D01*
X0288165Y0066533D01*
X0283228Y0066533D02*
X0282627Y0066533D01*
X0282627Y0067134D01*
X0283228Y0067134D01*
X0283228Y0066533D01*
X0282027Y0065332D01*
X0280772Y0066533D02*
X0279571Y0066533D01*
X0280172Y0066533D02*
X0280172Y0068935D01*
X0279571Y0068935D01*
X0280172Y0070136D02*
X0280172Y0070737D01*
X0280759Y0072533D02*
X0281359Y0073134D01*
X0280759Y0073734D01*
X0279558Y0073734D01*
X0278957Y0074335D01*
X0279558Y0074935D01*
X0281359Y0074935D01*
X0280759Y0072533D02*
X0278957Y0072533D01*
X0277690Y0072533D02*
X0275888Y0073734D01*
X0277690Y0074935D01*
X0275888Y0076136D02*
X0275888Y0072533D01*
X0274607Y0072533D02*
X0274607Y0074335D01*
X0274006Y0074935D01*
X0272205Y0074935D01*
X0272205Y0072533D01*
X0270924Y0072533D02*
X0269122Y0072533D01*
X0268522Y0073134D01*
X0269122Y0073734D01*
X0270924Y0073734D01*
X0270924Y0074335D02*
X0270924Y0072533D01*
X0270924Y0074335D02*
X0270323Y0074935D01*
X0269122Y0074935D01*
X0267241Y0074335D02*
X0267241Y0072533D01*
X0267241Y0074335D02*
X0266640Y0074935D01*
X0265439Y0074935D01*
X0264839Y0074335D01*
X0263584Y0074935D02*
X0262383Y0074935D01*
X0262984Y0075536D02*
X0262984Y0073134D01*
X0263584Y0072533D01*
X0264839Y0072533D02*
X0264839Y0076136D01*
X0264825Y0078533D02*
X0266026Y0078533D01*
X0266627Y0079134D01*
X0266627Y0080335D01*
X0265426Y0080335D01*
X0266627Y0081536D02*
X0266026Y0082136D01*
X0264825Y0082136D01*
X0264225Y0081536D01*
X0264225Y0079134D01*
X0264825Y0078533D01*
X0267908Y0078533D02*
X0267908Y0080935D01*
X0269109Y0082136D01*
X0270310Y0080935D01*
X0270310Y0078533D01*
X0271591Y0078533D02*
X0273993Y0078533D01*
X0275274Y0080335D02*
X0277676Y0080335D01*
X0278957Y0079734D02*
X0280158Y0078533D01*
X0281359Y0079734D01*
X0281359Y0082136D01*
X0282640Y0080335D02*
X0283241Y0080935D01*
X0284442Y0080935D01*
X0285042Y0080335D01*
X0285042Y0079734D01*
X0282640Y0079734D01*
X0282640Y0079134D02*
X0282640Y0080335D01*
X0282640Y0079134D02*
X0283241Y0078533D01*
X0284442Y0078533D01*
X0286324Y0078533D02*
X0286324Y0080935D01*
X0286324Y0079734D02*
X0287525Y0080935D01*
X0288125Y0080935D01*
X0289393Y0080335D02*
X0289993Y0080935D01*
X0291795Y0080935D01*
X0293076Y0080935D02*
X0293677Y0080935D01*
X0293677Y0078533D01*
X0294277Y0078533D02*
X0293076Y0078533D01*
X0291795Y0079134D02*
X0291194Y0079734D01*
X0289993Y0079734D01*
X0289393Y0080335D01*
X0289393Y0078533D02*
X0291194Y0078533D01*
X0291795Y0079134D01*
X0295531Y0079134D02*
X0295531Y0080335D01*
X0296132Y0080935D01*
X0297333Y0080935D01*
X0297933Y0080335D01*
X0297933Y0079134D01*
X0297333Y0078533D01*
X0296132Y0078533D01*
X0295531Y0079134D01*
X0296145Y0076136D02*
X0296145Y0073134D01*
X0296746Y0072533D01*
X0297947Y0072533D01*
X0298547Y0073134D01*
X0298547Y0076136D01*
X0299828Y0074935D02*
X0301630Y0074935D01*
X0302230Y0074335D01*
X0302230Y0072533D01*
X0303512Y0072533D02*
X0305313Y0072533D01*
X0305914Y0073134D01*
X0305313Y0073734D01*
X0304112Y0073734D01*
X0303512Y0074335D01*
X0304112Y0074935D01*
X0305914Y0074935D01*
X0307195Y0073134D02*
X0307795Y0072533D01*
X0308996Y0072533D01*
X0316963Y0068935D02*
X0316963Y0065933D01*
X0316363Y0065332D01*
X0315762Y0065332D01*
X0299828Y0072533D02*
X0299828Y0074935D01*
X0299215Y0078533D02*
X0299215Y0080935D01*
X0301016Y0080935D01*
X0301617Y0080335D01*
X0301617Y0078533D01*
X0293677Y0082136D02*
X0293677Y0082737D01*
X0290581Y0074935D02*
X0289380Y0074935D01*
X0288779Y0074335D01*
X0288779Y0073134D01*
X0289380Y0072533D01*
X0290581Y0072533D01*
X0291181Y0073134D01*
X0291181Y0074335D01*
X0290581Y0074935D01*
X0287525Y0074935D02*
X0286324Y0074935D01*
X0286924Y0075536D02*
X0286924Y0073134D01*
X0287525Y0072533D01*
X0278290Y0070136D02*
X0278290Y0066533D01*
X0277089Y0067734D01*
X0275888Y0066533D01*
X0275888Y0070136D01*
X0274033Y0070136D02*
X0274033Y0070737D01*
X0274033Y0068935D02*
X0274033Y0066533D01*
X0273433Y0066533D02*
X0274634Y0066533D01*
X0274033Y0068935D02*
X0273433Y0068935D01*
X0272151Y0070136D02*
X0269749Y0067734D01*
X0270350Y0068335D02*
X0272151Y0066533D01*
X0269749Y0066533D02*
X0269749Y0070136D01*
X0264812Y0067134D02*
X0264211Y0067134D01*
X0264211Y0066533D01*
X0264812Y0066533D01*
X0264812Y0067134D01*
X0264812Y0066533D02*
X0263611Y0065332D01*
X0261729Y0067734D02*
X0259928Y0067734D01*
X0259928Y0066533D02*
X0259928Y0070136D01*
X0261729Y0070136D01*
X0262330Y0069536D01*
X0262330Y0068335D01*
X0261729Y0067734D01*
X0258647Y0066533D02*
X0258647Y0070136D01*
X0257446Y0068935D01*
X0256245Y0070136D01*
X0256245Y0066533D01*
X0254963Y0067134D02*
X0254963Y0068335D01*
X0253762Y0068335D01*
X0252561Y0069536D02*
X0252561Y0067134D01*
X0253162Y0066533D01*
X0254363Y0066533D01*
X0254963Y0067134D01*
X0254963Y0069536D02*
X0254363Y0070136D01*
X0253162Y0070136D01*
X0252561Y0069536D01*
X0253135Y0072533D02*
X0253736Y0073134D01*
X0253135Y0073734D01*
X0251934Y0073734D01*
X0251334Y0074335D01*
X0251934Y0074935D01*
X0253736Y0074935D01*
X0255017Y0074335D02*
X0255017Y0073134D01*
X0255617Y0072533D01*
X0256818Y0072533D01*
X0257419Y0073134D01*
X0257419Y0074335D01*
X0256818Y0074935D01*
X0255617Y0074935D01*
X0255017Y0074335D01*
X0253135Y0072533D02*
X0251334Y0072533D01*
X0250079Y0072533D02*
X0248878Y0072533D01*
X0249479Y0072533D02*
X0249479Y0076136D01*
X0248878Y0076136D01*
X0247597Y0074935D02*
X0247597Y0072533D01*
X0247597Y0074335D02*
X0245195Y0074335D01*
X0245195Y0074935D02*
X0246396Y0076136D01*
X0247597Y0074935D01*
X0245195Y0074935D02*
X0245195Y0072533D01*
X0245796Y0070136D02*
X0245195Y0069536D01*
X0245195Y0068935D01*
X0247597Y0066533D01*
X0246396Y0066533D02*
X0245796Y0066533D01*
X0245195Y0067134D01*
X0245195Y0067734D01*
X0246396Y0068935D01*
X0246396Y0069536D01*
X0245796Y0070136D01*
X0247597Y0067734D02*
X0246396Y0066533D01*
X0245195Y0078533D02*
X0245195Y0082136D01*
X0247597Y0082136D01*
X0248878Y0080935D02*
X0249479Y0080935D01*
X0249479Y0078533D01*
X0250079Y0078533D02*
X0248878Y0078533D01*
X0251334Y0078533D02*
X0251334Y0080935D01*
X0251334Y0079734D02*
X0252535Y0080935D01*
X0253135Y0080935D01*
X0254403Y0080335D02*
X0255003Y0080935D01*
X0256805Y0080935D01*
X0258086Y0080935D02*
X0259287Y0080935D01*
X0258687Y0081536D02*
X0258687Y0079134D01*
X0259287Y0078533D01*
X0256805Y0079134D02*
X0256205Y0079734D01*
X0255003Y0079734D01*
X0254403Y0080335D01*
X0254403Y0078533D02*
X0256205Y0078533D01*
X0256805Y0079134D01*
X0249479Y0082136D02*
X0249479Y0082737D01*
X0246396Y0080335D02*
X0245195Y0080335D01*
X0267908Y0080335D02*
X0270310Y0080335D01*
X0271591Y0082136D02*
X0271591Y0078533D01*
X0278957Y0079734D02*
X0278957Y0082136D01*
X0216145Y0083109D02*
X0216145Y0083710D01*
X0215545Y0084310D01*
X0212542Y0084310D01*
X0212542Y0083710D02*
X0212542Y0084911D01*
X0212542Y0086192D02*
X0212542Y0087993D01*
X0213143Y0088594D01*
X0214344Y0088594D01*
X0214944Y0087993D01*
X0214944Y0086192D01*
X0216145Y0086192D02*
X0212542Y0086192D01*
X0213143Y0089875D02*
X0212542Y0090475D01*
X0212542Y0091676D01*
X0213143Y0092277D01*
X0213743Y0092277D01*
X0216145Y0089875D01*
X0216145Y0092277D01*
X0216145Y0083109D02*
X0215545Y0082509D01*
X0215545Y0061027D02*
X0216145Y0060426D01*
X0216145Y0059225D01*
X0215545Y0058625D01*
X0214344Y0059826D02*
X0214344Y0060426D01*
X0214944Y0061027D01*
X0215545Y0061027D01*
X0214344Y0060426D02*
X0213743Y0061027D01*
X0213143Y0061027D01*
X0212542Y0060426D01*
X0212542Y0059225D01*
X0213143Y0058625D01*
X0213143Y0057344D02*
X0214344Y0057344D01*
X0214944Y0056743D01*
X0214944Y0054942D01*
X0216145Y0054942D02*
X0212542Y0054942D01*
X0212542Y0056743D01*
X0213143Y0057344D01*
X0212542Y0053661D02*
X0212542Y0052460D01*
X0212542Y0053060D02*
X0215545Y0053060D01*
X0216145Y0052460D01*
X0216145Y0051859D01*
X0215545Y0051259D01*
X0211380Y0113033D02*
X0208978Y0113033D01*
X0210179Y0113033D02*
X0210179Y0116636D01*
X0208978Y0115435D01*
X0207697Y0116036D02*
X0205295Y0113634D01*
X0205295Y0113033D01*
X0204014Y0113634D02*
X0203414Y0113033D01*
X0202212Y0113033D01*
X0201612Y0113634D01*
X0201612Y0114835D02*
X0202813Y0115435D01*
X0203414Y0115435D01*
X0204014Y0114835D01*
X0204014Y0113634D01*
X0201612Y0114835D02*
X0201612Y0116636D01*
X0204014Y0116636D01*
X0205295Y0116636D02*
X0207697Y0116636D01*
X0207697Y0116036D01*
X0200331Y0113033D02*
X0197929Y0113033D01*
X0199130Y0113033D02*
X0199130Y0116636D01*
X0197929Y0115435D01*
X0195130Y0113033D02*
X0192728Y0113033D01*
X0193929Y0113033D02*
X0193929Y0116636D01*
X0192728Y0115435D01*
X0191447Y0114835D02*
X0189045Y0114835D01*
X0190847Y0116636D01*
X0190847Y0113033D01*
X0187764Y0113634D02*
X0187164Y0113033D01*
X0185962Y0113033D01*
X0185362Y0113634D01*
X0185362Y0114835D02*
X0186563Y0115435D01*
X0187164Y0115435D01*
X0187764Y0114835D01*
X0187764Y0113634D01*
X0185362Y0114835D02*
X0185362Y0116636D01*
X0187764Y0116636D01*
X0182880Y0116636D02*
X0182880Y0113033D01*
X0181679Y0113033D02*
X0184081Y0113033D01*
X0181679Y0115435D02*
X0182880Y0116636D01*
X0342862Y0115886D02*
X0342862Y0114085D01*
X0344063Y0114685D01*
X0344664Y0114685D01*
X0345264Y0114085D01*
X0345264Y0112884D01*
X0344664Y0112283D01*
X0343463Y0112283D01*
X0342862Y0112884D01*
X0342862Y0115886D02*
X0345264Y0115886D01*
X0344664Y0122283D02*
X0344664Y0125886D01*
X0342862Y0124085D01*
X0345264Y0124085D01*
X0344664Y0132283D02*
X0343463Y0132283D01*
X0342862Y0132884D01*
X0344063Y0134085D02*
X0344664Y0134085D01*
X0345264Y0133484D01*
X0345264Y0132884D01*
X0344664Y0132283D01*
X0344664Y0134085D02*
X0345264Y0134685D01*
X0345264Y0135286D01*
X0344664Y0135886D01*
X0343463Y0135886D01*
X0342862Y0135286D01*
X0342862Y0142283D02*
X0345264Y0144685D01*
X0345264Y0145286D01*
X0344664Y0145886D01*
X0343463Y0145886D01*
X0342862Y0145286D01*
X0342862Y0142283D02*
X0345264Y0142283D01*
X0345264Y0152283D02*
X0342862Y0152283D01*
X0344063Y0152283D02*
X0344063Y0155886D01*
X0342862Y0154685D01*
X0262534Y0237432D02*
X0261934Y0237432D01*
X0262534Y0237432D02*
X0263135Y0238033D01*
X0263135Y0241035D01*
X0263135Y0238633D02*
X0261333Y0238633D01*
X0260733Y0239234D01*
X0260733Y0241035D01*
X0259451Y0240435D02*
X0258851Y0241035D01*
X0257049Y0241035D01*
X0257049Y0242236D02*
X0257049Y0238633D01*
X0258851Y0238633D01*
X0259451Y0239234D01*
X0259451Y0240435D01*
X0258838Y0244633D02*
X0257036Y0244633D01*
X0256436Y0245234D01*
X0256436Y0246435D01*
X0257036Y0247035D01*
X0258838Y0247035D01*
X0258838Y0248236D02*
X0258838Y0244633D01*
X0255154Y0245834D02*
X0252752Y0245834D01*
X0252752Y0245234D02*
X0252752Y0246435D01*
X0253353Y0247035D01*
X0254554Y0247035D01*
X0255154Y0246435D01*
X0255154Y0245834D01*
X0254554Y0244633D02*
X0253353Y0244633D01*
X0252752Y0245234D01*
X0251471Y0247035D02*
X0250270Y0244633D01*
X0249069Y0247035D01*
X0247788Y0246435D02*
X0247188Y0247035D01*
X0245987Y0247035D01*
X0245386Y0246435D01*
X0245386Y0245234D01*
X0245987Y0244633D01*
X0247188Y0244633D01*
X0247788Y0245234D01*
X0247788Y0246435D01*
X0244118Y0247035D02*
X0243518Y0247035D01*
X0242317Y0245834D01*
X0242317Y0244633D02*
X0242317Y0247035D01*
X0241036Y0246435D02*
X0241036Y0245234D01*
X0240435Y0244633D01*
X0238634Y0244633D01*
X0238634Y0243432D02*
X0238634Y0247035D01*
X0240435Y0247035D01*
X0241036Y0246435D01*
X0237353Y0246435D02*
X0237353Y0244633D01*
X0236152Y0244633D02*
X0236152Y0246435D01*
X0236752Y0247035D01*
X0237353Y0246435D01*
X0236152Y0246435D02*
X0235551Y0247035D01*
X0234951Y0247035D01*
X0234951Y0244633D01*
X0233696Y0244633D02*
X0232495Y0244633D01*
X0233096Y0244633D02*
X0233096Y0248236D01*
X0233696Y0248236D02*
X0232495Y0248236D01*
X0232495Y0250633D02*
X0232495Y0254236D01*
X0234297Y0254236D01*
X0234897Y0253636D01*
X0234897Y0252435D01*
X0234297Y0251834D01*
X0232495Y0251834D01*
X0233696Y0251834D02*
X0234897Y0250633D01*
X0236178Y0251234D02*
X0236779Y0250633D01*
X0237980Y0250633D01*
X0238580Y0251834D02*
X0236178Y0251834D01*
X0236178Y0251234D02*
X0236178Y0252435D01*
X0236779Y0253035D01*
X0237980Y0253035D01*
X0238580Y0252435D01*
X0238580Y0251834D01*
X0239861Y0253035D02*
X0241062Y0250633D01*
X0242263Y0253035D01*
X0243545Y0252435D02*
X0244145Y0253035D01*
X0245346Y0253035D01*
X0245947Y0252435D01*
X0245947Y0251834D01*
X0243545Y0251834D01*
X0243545Y0251234D02*
X0243545Y0252435D01*
X0243545Y0251234D02*
X0244145Y0250633D01*
X0245346Y0250633D01*
X0247228Y0250633D02*
X0247228Y0253035D01*
X0247228Y0251834D02*
X0248429Y0253035D01*
X0249029Y0253035D01*
X0250297Y0252435D02*
X0250898Y0253035D01*
X0252699Y0253035D01*
X0252099Y0251834D02*
X0250898Y0251834D01*
X0250297Y0252435D01*
X0250297Y0250633D02*
X0252099Y0250633D01*
X0252699Y0251234D01*
X0252099Y0251834D01*
X0253980Y0251834D02*
X0256382Y0251834D01*
X0256382Y0252435D01*
X0255782Y0253035D01*
X0254581Y0253035D01*
X0253980Y0252435D01*
X0253980Y0251234D01*
X0254581Y0250633D01*
X0255782Y0250633D01*
X0257663Y0251234D02*
X0258264Y0250633D01*
X0260065Y0250633D01*
X0260065Y0254236D01*
X0260065Y0253035D02*
X0258264Y0253035D01*
X0257663Y0252435D01*
X0257663Y0251234D01*
X0263802Y0248236D02*
X0263802Y0244633D01*
X0265603Y0244633D01*
X0266204Y0245234D01*
X0266204Y0246435D01*
X0265603Y0247035D01*
X0263802Y0247035D01*
X0267485Y0247035D02*
X0267485Y0245234D01*
X0268086Y0244633D01*
X0269887Y0244633D01*
X0269887Y0244033D02*
X0269287Y0243432D01*
X0268686Y0243432D01*
X0269887Y0244033D02*
X0269887Y0247035D01*
X0269914Y0249432D02*
X0270514Y0249432D01*
X0271115Y0250033D01*
X0271115Y0253035D01*
X0271115Y0250633D02*
X0269313Y0250633D01*
X0268713Y0251234D01*
X0268713Y0253035D01*
X0267432Y0252435D02*
X0266831Y0253035D01*
X0265030Y0253035D01*
X0265030Y0254236D02*
X0265030Y0250633D01*
X0266831Y0250633D01*
X0267432Y0251234D01*
X0267432Y0252435D01*
X0274851Y0248236D02*
X0277253Y0248236D01*
X0276052Y0248236D02*
X0276052Y0244633D01*
X0278534Y0245234D02*
X0278534Y0246435D01*
X0279135Y0247035D01*
X0280336Y0247035D01*
X0280936Y0246435D01*
X0280936Y0245234D01*
X0280336Y0244633D01*
X0279135Y0244633D01*
X0278534Y0245234D01*
X0282218Y0244633D02*
X0282218Y0247035D01*
X0282818Y0247035D01*
X0283419Y0246435D01*
X0284019Y0247035D01*
X0284620Y0246435D01*
X0284620Y0244633D01*
X0283419Y0244633D02*
X0283419Y0246435D01*
X0285901Y0247035D02*
X0286501Y0247035D01*
X0287102Y0246435D01*
X0287702Y0247035D01*
X0288303Y0246435D01*
X0288303Y0244633D01*
X0287102Y0244633D02*
X0287102Y0246435D01*
X0285901Y0247035D02*
X0285901Y0244633D01*
X0289584Y0244633D02*
X0290785Y0244633D01*
X0290184Y0244633D02*
X0290184Y0247035D01*
X0289584Y0247035D01*
X0290184Y0248236D02*
X0290184Y0248837D01*
X0288930Y0250633D02*
X0289530Y0251234D01*
X0289530Y0252435D01*
X0288930Y0253035D01*
X0287729Y0253035D01*
X0287128Y0252435D01*
X0287128Y0251234D01*
X0287729Y0250633D01*
X0288930Y0250633D01*
X0285847Y0250633D02*
X0285847Y0254236D01*
X0284646Y0253035D01*
X0283445Y0254236D01*
X0283445Y0250633D01*
X0282164Y0251234D02*
X0282164Y0252435D01*
X0281564Y0253035D01*
X0280363Y0253035D01*
X0279762Y0252435D01*
X0279762Y0251234D01*
X0280363Y0250633D01*
X0281564Y0250633D01*
X0282164Y0251234D01*
X0278481Y0250633D02*
X0278481Y0254236D01*
X0276079Y0254236D02*
X0276079Y0250633D01*
X0277280Y0251834D01*
X0278481Y0250633D01*
X0292039Y0244033D02*
X0294441Y0244033D01*
X0295722Y0244633D02*
X0295722Y0247035D01*
X0297524Y0247035D01*
X0298124Y0246435D01*
X0298124Y0244633D01*
X0299406Y0244633D02*
X0299406Y0247035D01*
X0300607Y0247035D02*
X0301207Y0247035D01*
X0300607Y0247035D02*
X0299406Y0245834D01*
X0302475Y0245234D02*
X0303075Y0244633D01*
X0303676Y0245234D01*
X0304276Y0244633D01*
X0304877Y0245234D01*
X0304877Y0247035D01*
X0302475Y0247035D02*
X0302475Y0245234D01*
X0291986Y0238033D02*
X0289584Y0238033D01*
X0288303Y0238033D02*
X0285901Y0238033D01*
X0284633Y0238633D02*
X0282831Y0239834D01*
X0284633Y0241035D01*
X0282831Y0242236D02*
X0282831Y0238633D01*
X0281550Y0238633D02*
X0279749Y0238633D01*
X0279148Y0239234D01*
X0279148Y0240435D01*
X0279749Y0241035D01*
X0281550Y0241035D01*
X0277867Y0240435D02*
X0277867Y0239234D01*
X0277267Y0238633D01*
X0276066Y0238633D01*
X0275465Y0239234D01*
X0275465Y0240435D01*
X0276066Y0241035D01*
X0277267Y0241035D01*
X0277867Y0240435D01*
X0274184Y0240435D02*
X0274184Y0238633D01*
X0274184Y0240435D02*
X0273584Y0241035D01*
X0272383Y0241035D01*
X0271782Y0240435D01*
X0270501Y0241035D02*
X0268699Y0241035D01*
X0268099Y0240435D01*
X0268699Y0239834D01*
X0269900Y0239834D01*
X0270501Y0239234D01*
X0269900Y0238633D01*
X0268099Y0238633D01*
X0271782Y0238633D02*
X0271782Y0242236D01*
X0252112Y0241035D02*
X0250911Y0241035D01*
X0251511Y0241636D02*
X0251511Y0239234D01*
X0252112Y0238633D01*
X0249630Y0238633D02*
X0249630Y0241035D01*
X0249630Y0238633D02*
X0247828Y0238633D01*
X0247228Y0239234D01*
X0247228Y0241035D01*
X0245947Y0240435D02*
X0245346Y0241035D01*
X0244145Y0241035D01*
X0243545Y0240435D01*
X0243545Y0239234D01*
X0244145Y0238633D01*
X0245346Y0238633D01*
X0245947Y0239234D01*
X0245947Y0240435D01*
X0242263Y0241035D02*
X0242263Y0238033D01*
X0241663Y0237432D01*
X0241062Y0237432D01*
X0240462Y0238633D02*
X0242263Y0238633D01*
X0240462Y0238633D02*
X0239861Y0239234D01*
X0239861Y0241035D01*
X0238580Y0240435D02*
X0238580Y0238633D01*
X0236779Y0238633D01*
X0236178Y0239234D01*
X0236779Y0239834D01*
X0238580Y0239834D01*
X0238580Y0240435D02*
X0237980Y0241035D01*
X0236779Y0241035D01*
X0234897Y0238633D02*
X0232495Y0238633D01*
X0232495Y0242236D01*
D12*
X0194258Y0237668D02*
X0194258Y0237185D01*
X0193774Y0237185D01*
X0193774Y0237668D01*
X0194258Y0237668D01*
X0194258Y0236217D02*
X0194258Y0235733D01*
X0193774Y0235733D01*
X0193774Y0236217D01*
X0194258Y0236217D01*
X0192777Y0236701D02*
X0192777Y0237668D01*
X0191810Y0238636D01*
X0190813Y0237668D02*
X0189845Y0237668D01*
X0190329Y0238152D02*
X0190329Y0236217D01*
X0190813Y0235733D01*
X0191810Y0235733D02*
X0192777Y0236701D01*
X0188834Y0236701D02*
X0186899Y0236701D01*
X0186899Y0237185D02*
X0187382Y0237668D01*
X0188350Y0237668D01*
X0188834Y0237185D01*
X0188834Y0236701D01*
X0188350Y0235733D02*
X0187382Y0235733D01*
X0186899Y0236217D01*
X0186899Y0237185D01*
X0185887Y0237668D02*
X0184436Y0237668D01*
X0183952Y0237185D01*
X0184436Y0236701D01*
X0185403Y0236701D01*
X0185887Y0236217D01*
X0185403Y0235733D01*
X0183952Y0235733D01*
X0179994Y0236217D02*
X0179510Y0236701D01*
X0178543Y0236701D01*
X0178059Y0237185D01*
X0178543Y0237668D01*
X0179994Y0237668D01*
X0179994Y0236217D02*
X0179510Y0235733D01*
X0178059Y0235733D01*
X0177055Y0237668D02*
X0176571Y0237668D01*
X0175604Y0236701D01*
X0175604Y0237668D02*
X0175604Y0235733D01*
X0174592Y0236701D02*
X0172657Y0236701D01*
X0172657Y0237185D02*
X0173141Y0237668D01*
X0174108Y0237668D01*
X0174592Y0237185D01*
X0174592Y0236701D01*
X0174108Y0235733D02*
X0173141Y0235733D01*
X0172657Y0236217D01*
X0172657Y0237185D01*
X0171646Y0237185D02*
X0171162Y0237668D01*
X0169711Y0237668D01*
X0169711Y0234766D01*
X0169711Y0235733D02*
X0171162Y0235733D01*
X0171646Y0236217D01*
X0171646Y0237185D01*
X0168699Y0237185D02*
X0168699Y0235733D01*
X0167732Y0235733D02*
X0167732Y0237185D01*
X0168215Y0237668D01*
X0168699Y0237185D01*
X0167732Y0237185D02*
X0167248Y0237668D01*
X0166764Y0237668D01*
X0166764Y0235733D01*
X0165753Y0235733D02*
X0165753Y0237668D01*
X0165753Y0235733D02*
X0164301Y0235733D01*
X0163818Y0236217D01*
X0163818Y0237668D01*
X0162821Y0237668D02*
X0162821Y0235250D01*
X0162337Y0234766D01*
X0161853Y0234766D01*
X0160856Y0235733D02*
X0159889Y0236701D01*
X0159889Y0237668D01*
X0160856Y0238636D01*
X0162821Y0238636D02*
X0162821Y0239120D01*
X0155931Y0237668D02*
X0154480Y0237668D01*
X0153996Y0237185D01*
X0154480Y0236701D01*
X0155447Y0236701D01*
X0155931Y0236217D01*
X0155447Y0235733D01*
X0153996Y0235733D01*
X0152984Y0235733D02*
X0152984Y0237185D01*
X0152501Y0237668D01*
X0151049Y0237668D01*
X0151049Y0235733D01*
X0150038Y0236217D02*
X0150038Y0237185D01*
X0149554Y0237668D01*
X0148587Y0237668D01*
X0148103Y0237185D01*
X0148103Y0236217D01*
X0148587Y0235733D01*
X0149554Y0235733D01*
X0150038Y0236217D01*
X0150045Y0233836D02*
X0149078Y0233836D01*
X0148594Y0233352D01*
X0148594Y0232868D01*
X0149078Y0232385D01*
X0150045Y0232385D01*
X0150529Y0231901D01*
X0150529Y0231417D01*
X0150045Y0230933D01*
X0149078Y0230933D01*
X0148594Y0231417D01*
X0147582Y0231417D02*
X0147582Y0233352D01*
X0147099Y0233836D01*
X0146131Y0233836D01*
X0145648Y0233352D01*
X0145648Y0231417D01*
X0146131Y0230933D01*
X0147099Y0230933D01*
X0147582Y0231417D01*
X0144636Y0231417D02*
X0144636Y0233352D01*
X0144152Y0233836D01*
X0142701Y0233836D01*
X0142701Y0230933D01*
X0144152Y0230933D01*
X0144636Y0231417D01*
X0141704Y0232385D02*
X0140737Y0232385D01*
X0139725Y0232385D02*
X0139241Y0232868D01*
X0138274Y0232868D01*
X0137790Y0232385D01*
X0137790Y0231417D01*
X0138274Y0230933D01*
X0139241Y0230933D01*
X0139725Y0231417D01*
X0139725Y0232385D01*
X0141220Y0233352D02*
X0141704Y0233836D01*
X0141220Y0233352D02*
X0141220Y0230933D01*
X0141711Y0229520D02*
X0141711Y0228552D01*
X0141228Y0228068D01*
X0140216Y0227585D02*
X0140216Y0226133D01*
X0140216Y0227585D02*
X0139732Y0228068D01*
X0138281Y0228068D01*
X0138281Y0226133D01*
X0137270Y0226617D02*
X0136786Y0226133D01*
X0135818Y0226133D01*
X0135335Y0226617D01*
X0135335Y0227585D01*
X0135818Y0228068D01*
X0136786Y0228068D01*
X0137270Y0227585D01*
X0137270Y0226617D01*
X0134323Y0226133D02*
X0134323Y0229036D01*
X0134323Y0228068D02*
X0132872Y0228068D01*
X0132388Y0227585D01*
X0132388Y0226617D01*
X0132872Y0226133D01*
X0134323Y0226133D01*
X0134323Y0224236D02*
X0134323Y0221333D01*
X0132872Y0221333D01*
X0132388Y0221817D01*
X0132388Y0222785D01*
X0132872Y0223268D01*
X0134323Y0223268D01*
X0135335Y0222785D02*
X0135335Y0221817D01*
X0135818Y0221333D01*
X0136786Y0221333D01*
X0137270Y0221817D01*
X0137270Y0222785D01*
X0136786Y0223268D01*
X0135818Y0223268D01*
X0135335Y0222785D01*
X0138281Y0223268D02*
X0139732Y0223268D01*
X0140216Y0222785D01*
X0140216Y0221333D01*
X0138281Y0221333D02*
X0138281Y0223268D01*
X0141228Y0223268D02*
X0141711Y0223752D01*
X0141711Y0224720D01*
X0142701Y0223268D02*
X0143668Y0223268D01*
X0143185Y0223752D02*
X0143185Y0221817D01*
X0143668Y0221333D01*
X0147612Y0221333D02*
X0147612Y0223268D01*
X0147612Y0222301D02*
X0148579Y0223268D01*
X0149063Y0223268D01*
X0150067Y0222785D02*
X0150551Y0223268D01*
X0151519Y0223268D01*
X0152002Y0222785D01*
X0152002Y0222301D01*
X0150067Y0222301D01*
X0150067Y0221817D02*
X0150067Y0222785D01*
X0150067Y0221817D02*
X0150551Y0221333D01*
X0151519Y0221333D01*
X0153014Y0221333D02*
X0154465Y0221333D01*
X0154949Y0221817D01*
X0154949Y0222785D01*
X0154465Y0223268D01*
X0153014Y0223268D01*
X0153014Y0220366D01*
X0152523Y0218468D02*
X0153974Y0218468D01*
X0154458Y0217985D01*
X0154458Y0217017D01*
X0153974Y0216533D01*
X0152523Y0216533D01*
X0152523Y0215566D02*
X0152523Y0218468D01*
X0151511Y0217985D02*
X0151027Y0218468D01*
X0150060Y0218468D01*
X0149576Y0217985D01*
X0149576Y0217017D01*
X0150060Y0216533D01*
X0151027Y0216533D01*
X0151511Y0217501D02*
X0149576Y0217501D01*
X0148572Y0218468D02*
X0148088Y0218468D01*
X0147121Y0217501D01*
X0147121Y0218468D02*
X0147121Y0216533D01*
X0147121Y0213668D02*
X0147605Y0213668D01*
X0148088Y0213185D01*
X0148572Y0213668D01*
X0149056Y0213185D01*
X0149056Y0211733D01*
X0148088Y0211733D02*
X0148088Y0213185D01*
X0147121Y0213668D02*
X0147121Y0211733D01*
X0150067Y0212217D02*
X0150067Y0213185D01*
X0150551Y0213668D01*
X0151519Y0213668D01*
X0152002Y0213185D01*
X0152002Y0212217D01*
X0151519Y0211733D01*
X0150551Y0211733D01*
X0150067Y0212217D01*
X0153014Y0212217D02*
X0153014Y0213185D01*
X0153498Y0213668D01*
X0154949Y0213668D01*
X0154949Y0214636D02*
X0154949Y0211733D01*
X0153498Y0211733D01*
X0153014Y0212217D01*
X0155960Y0212217D02*
X0155960Y0213185D01*
X0156444Y0213668D01*
X0157412Y0213668D01*
X0157895Y0213185D01*
X0157895Y0212701D01*
X0155960Y0212701D01*
X0155960Y0212217D02*
X0156444Y0211733D01*
X0157412Y0211733D01*
X0161853Y0212701D02*
X0161853Y0213668D01*
X0162821Y0214636D01*
X0163818Y0213185D02*
X0164301Y0212701D01*
X0165269Y0212701D01*
X0165753Y0212217D01*
X0165269Y0211733D01*
X0163818Y0211733D01*
X0162821Y0211733D02*
X0161853Y0212701D01*
X0163818Y0213185D02*
X0164301Y0213668D01*
X0165753Y0213668D01*
X0166764Y0213185D02*
X0167248Y0213668D01*
X0168215Y0213668D01*
X0168699Y0213185D01*
X0168699Y0212701D01*
X0166764Y0212701D01*
X0166764Y0212217D02*
X0166764Y0213185D01*
X0166764Y0212217D02*
X0167248Y0211733D01*
X0168215Y0211733D01*
X0170194Y0212217D02*
X0170678Y0211733D01*
X0170194Y0212217D02*
X0170194Y0214152D01*
X0169711Y0213668D02*
X0170678Y0213668D01*
X0170187Y0216050D02*
X0170187Y0219920D01*
X0169703Y0219436D02*
X0170671Y0219436D01*
X0171155Y0218952D01*
X0170671Y0217985D02*
X0169703Y0217985D01*
X0169220Y0218468D01*
X0169220Y0218952D01*
X0169703Y0219436D01*
X0170678Y0220850D02*
X0170678Y0224720D01*
X0170194Y0224236D02*
X0171162Y0224236D01*
X0171646Y0223752D01*
X0172657Y0223752D02*
X0173141Y0224236D01*
X0174108Y0224236D01*
X0174592Y0223752D01*
X0175604Y0223752D02*
X0176087Y0224236D01*
X0177055Y0224236D01*
X0177539Y0223752D01*
X0175604Y0221817D01*
X0176087Y0221333D01*
X0177055Y0221333D01*
X0177539Y0221817D01*
X0177539Y0223752D01*
X0178550Y0223752D02*
X0179034Y0224236D01*
X0180002Y0224236D01*
X0180485Y0223752D01*
X0178550Y0221817D01*
X0179034Y0221333D01*
X0180002Y0221333D01*
X0180485Y0221817D01*
X0180485Y0223752D01*
X0181497Y0223752D02*
X0181981Y0224236D01*
X0182948Y0224236D01*
X0183432Y0223752D01*
X0181497Y0221817D01*
X0181981Y0221333D01*
X0182948Y0221333D01*
X0183432Y0221817D01*
X0183432Y0223752D01*
X0181497Y0223752D02*
X0181497Y0221817D01*
X0181489Y0219436D02*
X0182457Y0219436D01*
X0182941Y0218952D01*
X0181006Y0217017D01*
X0181489Y0216533D01*
X0182457Y0216533D01*
X0182941Y0217017D01*
X0182941Y0218952D01*
X0181489Y0219436D02*
X0181006Y0218952D01*
X0181006Y0217017D01*
X0179994Y0217017D02*
X0179510Y0216533D01*
X0178543Y0216533D01*
X0178059Y0217017D01*
X0179994Y0218952D01*
X0179994Y0217017D01*
X0178059Y0217017D02*
X0178059Y0218952D01*
X0178543Y0219436D01*
X0179510Y0219436D01*
X0179994Y0218952D01*
X0177048Y0218952D02*
X0175113Y0217017D01*
X0175596Y0216533D01*
X0176564Y0216533D01*
X0177048Y0217017D01*
X0177048Y0218952D01*
X0176564Y0219436D01*
X0175596Y0219436D01*
X0175113Y0218952D01*
X0175113Y0217017D01*
X0174101Y0216533D02*
X0172166Y0216533D01*
X0172166Y0219436D01*
X0174101Y0219436D01*
X0173134Y0217985D02*
X0172166Y0217985D01*
X0171155Y0217501D02*
X0170671Y0217985D01*
X0171155Y0217501D02*
X0171155Y0217017D01*
X0170671Y0216533D01*
X0169703Y0216533D01*
X0169220Y0217017D01*
X0165262Y0217501D02*
X0163327Y0217501D01*
X0163327Y0217985D02*
X0163810Y0218468D01*
X0164778Y0218468D01*
X0165262Y0217985D01*
X0165262Y0217501D01*
X0164778Y0216533D02*
X0163810Y0216533D01*
X0163327Y0217017D01*
X0163327Y0217985D01*
X0162315Y0218468D02*
X0160864Y0218468D01*
X0160380Y0217985D01*
X0160380Y0217017D01*
X0160864Y0216533D01*
X0162315Y0216533D01*
X0159369Y0216533D02*
X0157917Y0216533D01*
X0157434Y0217017D01*
X0157917Y0217501D01*
X0159369Y0217501D01*
X0159369Y0217985D02*
X0159369Y0216533D01*
X0159369Y0217985D02*
X0158885Y0218468D01*
X0157917Y0218468D01*
X0155953Y0219436D02*
X0155953Y0216533D01*
X0155469Y0216533D02*
X0156437Y0216533D01*
X0155953Y0219436D02*
X0155469Y0219436D01*
X0155960Y0221333D02*
X0156928Y0221333D01*
X0156444Y0221333D02*
X0156444Y0224236D01*
X0155960Y0224236D01*
X0155960Y0226133D02*
X0156928Y0226133D01*
X0156444Y0226133D02*
X0156444Y0229036D01*
X0155960Y0229036D01*
X0154949Y0227585D02*
X0154949Y0226617D01*
X0154465Y0226133D01*
X0153014Y0226133D01*
X0153014Y0225166D02*
X0153014Y0228068D01*
X0154465Y0228068D01*
X0154949Y0227585D01*
X0152002Y0227585D02*
X0152002Y0227101D01*
X0150067Y0227101D01*
X0150067Y0227585D02*
X0150551Y0228068D01*
X0151519Y0228068D01*
X0152002Y0227585D01*
X0151519Y0226133D02*
X0150551Y0226133D01*
X0150067Y0226617D01*
X0150067Y0227585D01*
X0149063Y0228068D02*
X0148579Y0228068D01*
X0147612Y0227101D01*
X0147612Y0228068D02*
X0147612Y0226133D01*
X0143668Y0226133D02*
X0143185Y0226617D01*
X0143185Y0228552D01*
X0143668Y0228068D02*
X0142701Y0228068D01*
X0135335Y0230933D02*
X0135335Y0232868D01*
X0136302Y0232868D02*
X0136786Y0232868D01*
X0136302Y0232868D02*
X0135335Y0231901D01*
X0134323Y0232385D02*
X0133839Y0231901D01*
X0132388Y0231901D01*
X0132388Y0230933D02*
X0132388Y0233836D01*
X0133839Y0233836D01*
X0134323Y0233352D01*
X0134323Y0232385D01*
X0134323Y0235733D02*
X0132388Y0235733D01*
X0133356Y0235733D02*
X0133356Y0238636D01*
X0132388Y0237668D01*
X0131377Y0238152D02*
X0131377Y0237185D01*
X0130893Y0236701D01*
X0129442Y0236701D01*
X0129442Y0235733D02*
X0129442Y0238636D01*
X0130893Y0238636D01*
X0131377Y0238152D01*
X0128430Y0238636D02*
X0127463Y0238636D01*
X0127946Y0238636D02*
X0127946Y0236217D01*
X0127463Y0235733D01*
X0126979Y0235733D01*
X0126495Y0236217D01*
X0127463Y0233836D02*
X0127463Y0230933D01*
X0128430Y0230933D02*
X0126495Y0230933D01*
X0126495Y0232868D02*
X0127463Y0233836D01*
X0127946Y0229036D02*
X0126979Y0229036D01*
X0126495Y0228552D01*
X0127946Y0229036D02*
X0128430Y0228552D01*
X0128430Y0228068D01*
X0126495Y0226133D01*
X0128430Y0226133D01*
X0127946Y0224236D02*
X0128430Y0223752D01*
X0128430Y0223268D01*
X0127946Y0222785D01*
X0128430Y0222301D01*
X0128430Y0221817D01*
X0127946Y0221333D01*
X0126979Y0221333D01*
X0126495Y0221817D01*
X0127463Y0222785D02*
X0127946Y0222785D01*
X0127946Y0224236D02*
X0126979Y0224236D01*
X0126495Y0223752D01*
X0127946Y0219436D02*
X0126495Y0217985D01*
X0128430Y0217985D01*
X0127946Y0219436D02*
X0127946Y0216533D01*
X0128430Y0214636D02*
X0126495Y0214636D01*
X0126495Y0213185D01*
X0127463Y0213668D01*
X0127946Y0213668D01*
X0128430Y0213185D01*
X0128430Y0212217D01*
X0127946Y0211733D01*
X0126979Y0211733D01*
X0126495Y0212217D01*
X0132388Y0211733D02*
X0134323Y0211733D01*
X0133356Y0211733D02*
X0133356Y0214636D01*
X0132388Y0213668D01*
X0135335Y0213185D02*
X0136302Y0213668D01*
X0136786Y0213668D01*
X0137270Y0213185D01*
X0137270Y0212217D01*
X0136786Y0211733D01*
X0135818Y0211733D01*
X0135335Y0212217D01*
X0135335Y0213185D02*
X0135335Y0214636D01*
X0137270Y0214636D01*
X0138281Y0214636D02*
X0140216Y0214636D01*
X0140216Y0214152D01*
X0138281Y0212217D01*
X0138281Y0211733D01*
X0141228Y0211733D02*
X0143163Y0211733D01*
X0142195Y0211733D02*
X0142195Y0214636D01*
X0141228Y0213668D01*
X0151511Y0217501D02*
X0151511Y0217985D01*
X0157925Y0221817D02*
X0158408Y0222301D01*
X0159860Y0222301D01*
X0159860Y0222785D02*
X0159860Y0221333D01*
X0158408Y0221333D01*
X0157925Y0221817D01*
X0158408Y0223268D02*
X0159376Y0223268D01*
X0159860Y0222785D01*
X0160871Y0222785D02*
X0160871Y0221817D01*
X0161355Y0221333D01*
X0162806Y0221333D01*
X0163818Y0221817D02*
X0163818Y0222785D01*
X0164301Y0223268D01*
X0165269Y0223268D01*
X0165753Y0222785D01*
X0165753Y0222301D01*
X0163818Y0222301D01*
X0163818Y0221817D02*
X0164301Y0221333D01*
X0165269Y0221333D01*
X0162806Y0223268D02*
X0161355Y0223268D01*
X0160871Y0222785D01*
X0161355Y0226133D02*
X0162806Y0226133D01*
X0163818Y0226617D02*
X0163818Y0227585D01*
X0164301Y0228068D01*
X0165269Y0228068D01*
X0165753Y0227585D01*
X0165753Y0227101D01*
X0163818Y0227101D01*
X0163818Y0226617D02*
X0164301Y0226133D01*
X0165269Y0226133D01*
X0162806Y0228068D02*
X0161355Y0228068D01*
X0160871Y0227585D01*
X0160871Y0226617D01*
X0161355Y0226133D01*
X0159860Y0226133D02*
X0158408Y0226133D01*
X0157925Y0226617D01*
X0158408Y0227101D01*
X0159860Y0227101D01*
X0159860Y0227585D02*
X0159860Y0226133D01*
X0159860Y0227585D02*
X0159376Y0228068D01*
X0158408Y0228068D01*
X0159369Y0230933D02*
X0159369Y0232385D01*
X0158885Y0232868D01*
X0157434Y0232868D01*
X0157434Y0230933D01*
X0156422Y0231901D02*
X0154487Y0231901D01*
X0154487Y0231417D02*
X0154487Y0232385D01*
X0154971Y0232868D01*
X0155938Y0232868D01*
X0156422Y0232385D01*
X0156422Y0231901D01*
X0155938Y0230933D02*
X0154971Y0230933D01*
X0154487Y0231417D01*
X0150529Y0233352D02*
X0150045Y0233836D01*
X0147106Y0235733D02*
X0146139Y0235733D01*
X0146622Y0235733D02*
X0146622Y0237668D01*
X0146139Y0237668D01*
X0145142Y0237668D02*
X0144174Y0237668D01*
X0144658Y0238152D02*
X0144658Y0236217D01*
X0145142Y0235733D01*
X0143163Y0236217D02*
X0142679Y0235733D01*
X0141228Y0235733D01*
X0141228Y0234766D02*
X0141228Y0237668D01*
X0142679Y0237668D01*
X0143163Y0237185D01*
X0143163Y0236217D01*
X0140216Y0236217D02*
X0140216Y0237185D01*
X0139732Y0237668D01*
X0138765Y0237668D01*
X0138281Y0237185D01*
X0138281Y0236217D01*
X0138765Y0235733D01*
X0139732Y0235733D01*
X0140216Y0236217D01*
X0146622Y0238636D02*
X0146622Y0239120D01*
X0160864Y0232868D02*
X0161831Y0232868D01*
X0162315Y0232385D01*
X0162315Y0230933D01*
X0160864Y0230933D01*
X0160380Y0231417D01*
X0160864Y0231901D01*
X0162315Y0231901D01*
X0163327Y0232868D02*
X0164778Y0232868D01*
X0165262Y0232385D01*
X0165262Y0231417D01*
X0164778Y0230933D01*
X0163327Y0230933D01*
X0163327Y0233836D01*
X0166273Y0233836D02*
X0166757Y0233836D01*
X0166757Y0230933D01*
X0166273Y0230933D02*
X0167241Y0230933D01*
X0168237Y0231417D02*
X0168237Y0232385D01*
X0168721Y0232868D01*
X0169689Y0232868D01*
X0170172Y0232385D01*
X0170172Y0231901D01*
X0168237Y0231901D01*
X0168237Y0231417D02*
X0168721Y0230933D01*
X0169689Y0230933D01*
X0171184Y0231417D02*
X0171184Y0232385D01*
X0171668Y0232868D01*
X0173119Y0232868D01*
X0173119Y0233836D02*
X0173119Y0230933D01*
X0171668Y0230933D01*
X0171184Y0231417D01*
X0170678Y0229520D02*
X0170678Y0225650D01*
X0170194Y0226133D02*
X0171162Y0226133D01*
X0171646Y0226617D01*
X0171646Y0227101D01*
X0171162Y0227585D01*
X0170194Y0227585D01*
X0169711Y0228068D01*
X0169711Y0228552D01*
X0170194Y0229036D01*
X0171162Y0229036D01*
X0171646Y0228552D01*
X0172657Y0228552D02*
X0173141Y0229036D01*
X0174108Y0229036D01*
X0174592Y0228552D01*
X0172657Y0226617D01*
X0173141Y0226133D01*
X0174108Y0226133D01*
X0174592Y0226617D01*
X0174592Y0228552D01*
X0175604Y0228552D02*
X0176087Y0229036D01*
X0177055Y0229036D01*
X0177539Y0228552D01*
X0175604Y0226617D01*
X0176087Y0226133D01*
X0177055Y0226133D01*
X0177539Y0226617D01*
X0177539Y0228552D01*
X0178550Y0228552D02*
X0179034Y0229036D01*
X0180002Y0229036D01*
X0180485Y0228552D01*
X0178550Y0226617D01*
X0179034Y0226133D01*
X0180002Y0226133D01*
X0180485Y0226617D01*
X0180485Y0228552D01*
X0181497Y0228552D02*
X0181981Y0229036D01*
X0182948Y0229036D01*
X0183432Y0228552D01*
X0181497Y0226617D01*
X0181981Y0226133D01*
X0182948Y0226133D01*
X0183432Y0226617D01*
X0183432Y0228552D01*
X0181497Y0228552D02*
X0181497Y0226617D01*
X0178550Y0226617D02*
X0178550Y0228552D01*
X0175604Y0228552D02*
X0175604Y0226617D01*
X0172657Y0226617D02*
X0172657Y0228552D01*
X0170194Y0226133D02*
X0169711Y0226617D01*
X0170194Y0224236D02*
X0169711Y0223752D01*
X0169711Y0223268D01*
X0170194Y0222785D01*
X0171162Y0222785D01*
X0171646Y0222301D01*
X0171646Y0221817D01*
X0171162Y0221333D01*
X0170194Y0221333D01*
X0169711Y0221817D01*
X0172657Y0221817D02*
X0173141Y0221333D01*
X0174108Y0221333D01*
X0174592Y0221817D01*
X0175604Y0221817D02*
X0175604Y0223752D01*
X0178550Y0223752D02*
X0178550Y0221817D01*
X0172657Y0221817D02*
X0172657Y0223752D01*
X0175589Y0214636D02*
X0176557Y0214636D01*
X0176073Y0214636D02*
X0176073Y0212217D01*
X0175589Y0211733D01*
X0175105Y0211733D01*
X0174622Y0212217D01*
X0177568Y0211733D02*
X0177568Y0214636D01*
X0179019Y0214636D01*
X0179503Y0214152D01*
X0179503Y0213185D01*
X0179019Y0212701D01*
X0177568Y0212701D01*
X0180515Y0211733D02*
X0182450Y0213668D01*
X0182450Y0214152D01*
X0181966Y0214636D01*
X0180998Y0214636D01*
X0180515Y0214152D01*
X0180515Y0211733D02*
X0182450Y0211733D01*
X0183461Y0211733D02*
X0185396Y0214636D01*
X0187375Y0214636D02*
X0188343Y0214636D01*
X0187859Y0214636D02*
X0187859Y0212217D01*
X0187375Y0211733D01*
X0186891Y0211733D01*
X0186408Y0212217D01*
X0189354Y0211733D02*
X0189354Y0214636D01*
X0190805Y0214636D01*
X0191289Y0214152D01*
X0191289Y0213185D01*
X0190805Y0212701D01*
X0189354Y0212701D01*
X0192301Y0212217D02*
X0192784Y0211733D01*
X0193752Y0211733D01*
X0194236Y0212217D01*
X0194236Y0212701D01*
X0193752Y0213185D01*
X0193268Y0213185D01*
X0193752Y0213185D02*
X0194236Y0213668D01*
X0194236Y0214152D01*
X0193752Y0214636D01*
X0192784Y0214636D01*
X0192301Y0214152D01*
X0192792Y0216533D02*
X0192792Y0219436D01*
X0193759Y0218468D01*
X0194727Y0219436D01*
X0194727Y0216533D01*
X0195247Y0214636D02*
X0196215Y0213668D01*
X0196215Y0212701D01*
X0195247Y0211733D01*
X0191297Y0216533D02*
X0191780Y0217017D01*
X0191780Y0218952D01*
X0191297Y0219436D01*
X0190329Y0219436D01*
X0189845Y0218952D01*
X0189845Y0217017D01*
X0190329Y0216533D01*
X0191297Y0216533D01*
X0188834Y0216533D02*
X0187866Y0217501D01*
X0188350Y0217501D02*
X0186899Y0217501D01*
X0186899Y0216533D02*
X0186899Y0219436D01*
X0188350Y0219436D01*
X0188834Y0218952D01*
X0188834Y0217985D01*
X0188350Y0217501D01*
X0187390Y0221333D02*
X0187390Y0224236D01*
X0188841Y0224236D01*
X0189325Y0223752D01*
X0189325Y0222785D01*
X0188841Y0222301D01*
X0187390Y0222301D01*
X0188357Y0222301D02*
X0189325Y0221333D01*
X0190336Y0221817D02*
X0190820Y0221333D01*
X0191788Y0221333D01*
X0192271Y0221817D01*
X0192271Y0223752D01*
X0191788Y0224236D01*
X0190820Y0224236D01*
X0190336Y0223752D01*
X0190336Y0221817D01*
X0193283Y0221333D02*
X0193283Y0224236D01*
X0194250Y0223268D01*
X0195218Y0224236D01*
X0195218Y0221333D01*
X0195218Y0226133D02*
X0195218Y0229036D01*
X0194250Y0228068D01*
X0193283Y0229036D01*
X0193283Y0226133D01*
X0192271Y0226133D02*
X0192271Y0228068D01*
X0191304Y0229036D01*
X0190336Y0228068D01*
X0190336Y0226133D01*
X0189325Y0226133D02*
X0188357Y0227101D01*
X0188841Y0227101D02*
X0187390Y0227101D01*
X0187390Y0226133D02*
X0187390Y0229036D01*
X0188841Y0229036D01*
X0189325Y0228552D01*
X0189325Y0227585D01*
X0188841Y0227101D01*
X0190336Y0227585D02*
X0192271Y0227585D01*
X0388549Y0159011D02*
X0388549Y0156108D01*
X0390000Y0156108D01*
X0390484Y0156592D01*
X0390484Y0158527D01*
X0390000Y0159011D01*
X0388549Y0159011D01*
X0391495Y0158043D02*
X0392463Y0159011D01*
X0392463Y0156108D01*
X0393430Y0156108D02*
X0391495Y0156108D01*
X0391979Y0149011D02*
X0391495Y0148527D01*
X0391979Y0149011D02*
X0392946Y0149011D01*
X0393430Y0148527D01*
X0393430Y0148043D01*
X0391495Y0146108D01*
X0393430Y0146108D01*
X0390484Y0146592D02*
X0390484Y0148527D01*
X0390000Y0149011D01*
X0388549Y0149011D01*
X0388549Y0146108D01*
X0390000Y0146108D01*
X0390484Y0146592D01*
X0418325Y0160267D02*
X0418325Y0162202D01*
X0418809Y0162686D01*
X0419777Y0162686D01*
X0420260Y0162202D01*
X0421272Y0161718D02*
X0422239Y0162686D01*
X0422239Y0159783D01*
X0421272Y0159783D02*
X0423207Y0159783D01*
X0424218Y0159783D02*
X0426153Y0159783D01*
X0425186Y0159783D02*
X0425186Y0162686D01*
X0424218Y0161718D01*
X0420260Y0160267D02*
X0419777Y0159783D01*
X0418809Y0159783D01*
X0418325Y0160267D01*
X0169189Y0099886D02*
X0167254Y0099886D01*
X0167254Y0096983D01*
X0167254Y0098435D02*
X0168222Y0098435D01*
X0166243Y0099886D02*
X0164308Y0099886D01*
X0164308Y0096983D01*
X0164308Y0098435D02*
X0165275Y0098435D01*
X0163296Y0099886D02*
X0161361Y0099886D01*
X0161361Y0096983D01*
X0160350Y0096983D02*
X0158415Y0096983D01*
X0159382Y0096983D02*
X0159382Y0099886D01*
X0158415Y0098918D01*
X0157403Y0099402D02*
X0156920Y0099886D01*
X0155952Y0099886D01*
X0155468Y0099402D01*
X0155468Y0098918D01*
X0155952Y0098435D01*
X0156920Y0098435D01*
X0157403Y0097951D01*
X0157403Y0097467D01*
X0156920Y0096983D01*
X0155952Y0096983D01*
X0155468Y0097467D01*
X0156436Y0096500D02*
X0156436Y0100370D01*
X0154457Y0098435D02*
X0152522Y0098435D01*
X0151510Y0099402D02*
X0149575Y0097467D01*
X0150059Y0096983D01*
X0151027Y0096983D01*
X0151510Y0097467D01*
X0151510Y0099402D01*
X0151027Y0099886D01*
X0150059Y0099886D01*
X0149575Y0099402D01*
X0149575Y0097467D01*
X0148564Y0097467D02*
X0148080Y0096983D01*
X0147113Y0096983D01*
X0146629Y0097467D01*
X0148564Y0099402D01*
X0148564Y0097467D01*
X0148564Y0099402D02*
X0148080Y0099886D01*
X0147113Y0099886D01*
X0146629Y0099402D01*
X0146629Y0097467D01*
X0145617Y0097467D02*
X0145134Y0096983D01*
X0144166Y0096983D01*
X0143682Y0097467D01*
X0145617Y0099402D01*
X0145617Y0097467D01*
X0143682Y0097467D02*
X0143682Y0099402D01*
X0144166Y0099886D01*
X0145134Y0099886D01*
X0145617Y0099402D01*
X0142671Y0099402D02*
X0140736Y0097467D01*
X0141220Y0096983D01*
X0142187Y0096983D01*
X0142671Y0097467D01*
X0142671Y0099402D01*
X0142187Y0099886D01*
X0141220Y0099886D01*
X0140736Y0099402D01*
X0140736Y0097467D01*
X0139724Y0097467D02*
X0139724Y0097951D01*
X0139241Y0098435D01*
X0138273Y0098435D01*
X0137789Y0098918D01*
X0137789Y0099402D01*
X0138273Y0099886D01*
X0139241Y0099886D01*
X0139724Y0099402D01*
X0138757Y0100370D02*
X0138757Y0096500D01*
X0138273Y0096983D02*
X0139241Y0096983D01*
X0139724Y0097467D01*
X0138273Y0096983D02*
X0137789Y0097467D01*
X0143682Y0095086D02*
X0143682Y0092183D01*
X0145617Y0092183D01*
X0146629Y0092667D02*
X0147113Y0092183D01*
X0148080Y0092183D01*
X0148564Y0092667D01*
X0148564Y0093635D01*
X0148080Y0094118D01*
X0147113Y0094118D01*
X0146629Y0093635D01*
X0146629Y0092667D01*
X0147113Y0090286D02*
X0148080Y0090286D01*
X0148564Y0089802D01*
X0146629Y0087867D01*
X0147113Y0087383D01*
X0148080Y0087383D01*
X0148564Y0087867D01*
X0148564Y0089802D01*
X0149575Y0089802D02*
X0150059Y0090286D01*
X0151027Y0090286D01*
X0151510Y0089802D01*
X0149575Y0087867D01*
X0150059Y0087383D01*
X0151027Y0087383D01*
X0151510Y0087867D01*
X0151510Y0089802D01*
X0152522Y0088835D02*
X0154457Y0088835D01*
X0155468Y0089318D02*
X0155468Y0089802D01*
X0155952Y0090286D01*
X0156920Y0090286D01*
X0157403Y0089802D01*
X0158415Y0089802D02*
X0158899Y0090286D01*
X0159866Y0090286D01*
X0160350Y0089802D01*
X0160350Y0089318D01*
X0159866Y0088835D01*
X0160350Y0088351D01*
X0160350Y0087867D01*
X0159866Y0087383D01*
X0158899Y0087383D01*
X0158415Y0087867D01*
X0157403Y0087867D02*
X0157403Y0088351D01*
X0156920Y0088835D01*
X0155952Y0088835D01*
X0155468Y0089318D01*
X0155468Y0087867D02*
X0155952Y0087383D01*
X0156920Y0087383D01*
X0157403Y0087867D01*
X0156436Y0086900D02*
X0156436Y0090770D01*
X0157403Y0092183D02*
X0156436Y0093151D01*
X0156920Y0093151D02*
X0155468Y0093151D01*
X0155468Y0092183D02*
X0155468Y0095086D01*
X0156920Y0095086D01*
X0157403Y0094602D01*
X0157403Y0093635D01*
X0156920Y0093151D01*
X0158415Y0092667D02*
X0158899Y0092183D01*
X0159866Y0092183D01*
X0160350Y0092667D01*
X0160350Y0094602D01*
X0159866Y0095086D01*
X0158899Y0095086D01*
X0158415Y0094602D01*
X0158415Y0092667D01*
X0161361Y0092183D02*
X0161361Y0095086D01*
X0162329Y0094118D01*
X0163296Y0095086D01*
X0163296Y0092183D01*
X0163296Y0090286D02*
X0161361Y0090286D01*
X0161361Y0087383D01*
X0161361Y0088835D02*
X0162329Y0088835D01*
X0164308Y0088835D02*
X0165275Y0088835D01*
X0164308Y0090286D02*
X0164308Y0087383D01*
X0164279Y0085486D02*
X0164279Y0082583D01*
X0164308Y0080686D02*
X0166243Y0080686D01*
X0167254Y0080686D02*
X0169189Y0080686D01*
X0168222Y0079235D02*
X0167254Y0079235D01*
X0167254Y0080686D02*
X0167254Y0077783D01*
X0165275Y0079235D02*
X0164308Y0079235D01*
X0164308Y0080686D02*
X0164308Y0077783D01*
X0162329Y0079235D02*
X0161361Y0079235D01*
X0160350Y0080202D02*
X0158415Y0078267D01*
X0158415Y0077783D01*
X0157403Y0078267D02*
X0157403Y0078751D01*
X0156920Y0079235D01*
X0155952Y0079235D01*
X0155468Y0079718D01*
X0155468Y0080202D01*
X0155952Y0080686D01*
X0156920Y0080686D01*
X0157403Y0080202D01*
X0158415Y0080686D02*
X0160350Y0080686D01*
X0160350Y0080202D01*
X0161361Y0080686D02*
X0163296Y0080686D01*
X0161361Y0080686D02*
X0161361Y0077783D01*
X0161109Y0075886D02*
X0160625Y0075402D01*
X0160625Y0074918D01*
X0161109Y0074435D01*
X0162076Y0074435D01*
X0162560Y0073951D01*
X0162560Y0073467D01*
X0162076Y0072983D01*
X0161109Y0072983D01*
X0160625Y0073467D01*
X0159613Y0073467D02*
X0159613Y0075402D01*
X0159130Y0075886D01*
X0158162Y0075886D01*
X0157678Y0075402D01*
X0157678Y0073467D01*
X0158162Y0072983D01*
X0159130Y0072983D01*
X0159613Y0073467D01*
X0161109Y0075886D02*
X0162076Y0075886D01*
X0162560Y0075402D01*
X0156667Y0075402D02*
X0156667Y0073467D01*
X0156183Y0072983D01*
X0154732Y0072983D01*
X0154732Y0075886D01*
X0156183Y0075886D01*
X0156667Y0075402D01*
X0156436Y0077300D02*
X0156436Y0081170D01*
X0156451Y0082583D02*
X0156451Y0085486D01*
X0157902Y0085486D01*
X0158386Y0085002D01*
X0158386Y0084035D01*
X0157902Y0083551D01*
X0156451Y0083551D01*
X0157418Y0083551D02*
X0158386Y0082583D01*
X0159397Y0083067D02*
X0159881Y0082583D01*
X0160848Y0082583D01*
X0161332Y0083067D01*
X0161332Y0085002D01*
X0160848Y0085486D01*
X0159881Y0085486D01*
X0159397Y0085002D01*
X0159397Y0083067D01*
X0162344Y0082583D02*
X0162344Y0085486D01*
X0163311Y0084518D01*
X0164279Y0085486D01*
X0167254Y0087383D02*
X0167254Y0090286D01*
X0169189Y0090286D01*
X0168222Y0088835D02*
X0167254Y0088835D01*
X0166243Y0090286D02*
X0164308Y0090286D01*
X0159866Y0088835D02*
X0159382Y0088835D01*
X0152493Y0084035D02*
X0152493Y0082583D01*
X0152493Y0084035D02*
X0152009Y0084518D01*
X0151041Y0084518D01*
X0150558Y0084035D01*
X0149546Y0084518D02*
X0148095Y0084518D01*
X0147611Y0084035D01*
X0147611Y0083067D01*
X0148095Y0082583D01*
X0149546Y0082583D01*
X0149546Y0082100D02*
X0149546Y0084518D01*
X0150558Y0085486D02*
X0150558Y0082583D01*
X0149546Y0082100D02*
X0149062Y0081616D01*
X0148578Y0081616D01*
X0148080Y0080686D02*
X0148564Y0080202D01*
X0146629Y0078267D01*
X0147113Y0077783D01*
X0148080Y0077783D01*
X0148564Y0078267D01*
X0148564Y0080202D01*
X0148080Y0080686D02*
X0147113Y0080686D01*
X0146629Y0080202D01*
X0146629Y0078267D01*
X0145617Y0078267D02*
X0145134Y0077783D01*
X0144166Y0077783D01*
X0143682Y0078267D01*
X0145617Y0080202D01*
X0145617Y0078267D01*
X0143682Y0078267D02*
X0143682Y0080202D01*
X0144166Y0080686D01*
X0145134Y0080686D01*
X0145617Y0080202D01*
X0145647Y0082583D02*
X0146614Y0082583D01*
X0146130Y0082583D02*
X0146130Y0084518D01*
X0145647Y0084518D01*
X0146130Y0085486D02*
X0146130Y0085970D01*
X0144635Y0085486D02*
X0144635Y0082583D01*
X0144635Y0084035D02*
X0142700Y0084035D01*
X0142700Y0085486D02*
X0142700Y0082583D01*
X0142187Y0080686D02*
X0140736Y0079235D01*
X0142671Y0079235D01*
X0142187Y0080686D02*
X0142187Y0077783D01*
X0139724Y0078267D02*
X0139724Y0078751D01*
X0139241Y0079235D01*
X0138273Y0079235D01*
X0137789Y0079718D01*
X0137789Y0080202D01*
X0138273Y0080686D01*
X0139241Y0080686D01*
X0139724Y0080202D01*
X0138757Y0081170D02*
X0138757Y0077300D01*
X0138273Y0077783D02*
X0139241Y0077783D01*
X0139724Y0078267D01*
X0138273Y0077783D02*
X0137789Y0078267D01*
X0144419Y0075886D02*
X0144419Y0072983D01*
X0144419Y0073951D02*
X0145870Y0073951D01*
X0146354Y0074435D01*
X0146354Y0075402D01*
X0145870Y0075886D01*
X0144419Y0075886D01*
X0147365Y0074918D02*
X0147365Y0072983D01*
X0147365Y0073951D02*
X0148333Y0074918D01*
X0148817Y0074918D01*
X0149821Y0074435D02*
X0149821Y0073467D01*
X0150305Y0072983D01*
X0151272Y0072983D01*
X0151756Y0073467D01*
X0151756Y0074435D01*
X0151272Y0074918D01*
X0150305Y0074918D01*
X0149821Y0074435D01*
X0152767Y0074435D02*
X0153735Y0074435D01*
X0153251Y0075402D02*
X0153735Y0075886D01*
X0153251Y0075402D02*
X0153251Y0072983D01*
X0151027Y0077783D02*
X0150059Y0077783D01*
X0149575Y0078267D01*
X0151510Y0080202D01*
X0151510Y0078267D01*
X0151027Y0077783D01*
X0149575Y0078267D02*
X0149575Y0080202D01*
X0150059Y0080686D01*
X0151027Y0080686D01*
X0151510Y0080202D01*
X0152522Y0079235D02*
X0154457Y0079235D01*
X0155468Y0078267D02*
X0155952Y0077783D01*
X0156920Y0077783D01*
X0157403Y0078267D01*
X0149575Y0087867D02*
X0149575Y0089802D01*
X0150059Y0092183D02*
X0150543Y0092667D01*
X0151027Y0092183D01*
X0151510Y0092667D01*
X0151510Y0094118D01*
X0149575Y0094118D02*
X0149575Y0092667D01*
X0150059Y0092183D01*
X0147113Y0090286D02*
X0146629Y0089802D01*
X0146629Y0087867D01*
X0145617Y0087867D02*
X0145134Y0087383D01*
X0144166Y0087383D01*
X0143682Y0087867D01*
X0145617Y0089802D01*
X0145617Y0087867D01*
X0143682Y0087867D02*
X0143682Y0089802D01*
X0144166Y0090286D01*
X0145134Y0090286D01*
X0145617Y0089802D01*
X0142671Y0089802D02*
X0142187Y0090286D01*
X0141220Y0090286D01*
X0140736Y0089802D01*
X0139724Y0089802D02*
X0139241Y0090286D01*
X0138273Y0090286D01*
X0137789Y0089802D01*
X0137789Y0089318D01*
X0138273Y0088835D01*
X0139241Y0088835D01*
X0139724Y0088351D01*
X0139724Y0087867D01*
X0139241Y0087383D01*
X0138273Y0087383D01*
X0137789Y0087867D01*
X0138757Y0086900D02*
X0138757Y0090770D01*
X0140736Y0087383D02*
X0142671Y0089318D01*
X0142671Y0089802D01*
X0142671Y0087383D02*
X0140736Y0087383D01*
X0161361Y0098435D02*
X0162329Y0098435D01*
D13*
X0174845Y0108583D02*
X0028345Y0108583D01*
X0028345Y0089083D01*
X0026970Y0091208D02*
X0026970Y0106958D01*
X0026968Y0107018D01*
X0026963Y0107079D01*
X0026954Y0107138D01*
X0026941Y0107197D01*
X0026925Y0107256D01*
X0026905Y0107313D01*
X0026882Y0107368D01*
X0026855Y0107423D01*
X0026826Y0107475D01*
X0026793Y0107526D01*
X0026757Y0107575D01*
X0026719Y0107621D01*
X0026677Y0107665D01*
X0026633Y0107707D01*
X0026587Y0107745D01*
X0026538Y0107781D01*
X0026487Y0107814D01*
X0026435Y0107843D01*
X0026380Y0107870D01*
X0026325Y0107893D01*
X0026268Y0107913D01*
X0026209Y0107929D01*
X0026150Y0107942D01*
X0026091Y0107951D01*
X0026030Y0107956D01*
X0025970Y0107958D01*
X0019220Y0107958D01*
X0019160Y0107956D01*
X0019099Y0107951D01*
X0019040Y0107942D01*
X0018981Y0107929D01*
X0018922Y0107913D01*
X0018865Y0107893D01*
X0018810Y0107870D01*
X0018755Y0107843D01*
X0018703Y0107814D01*
X0018652Y0107781D01*
X0018603Y0107745D01*
X0018557Y0107707D01*
X0018513Y0107665D01*
X0018471Y0107621D01*
X0018433Y0107575D01*
X0018397Y0107526D01*
X0018364Y0107475D01*
X0018335Y0107423D01*
X0018308Y0107368D01*
X0018285Y0107313D01*
X0018265Y0107256D01*
X0018249Y0107197D01*
X0018236Y0107138D01*
X0018227Y0107079D01*
X0018222Y0107018D01*
X0018220Y0106958D01*
X0018220Y0091208D01*
X0018222Y0091148D01*
X0018227Y0091087D01*
X0018236Y0091028D01*
X0018249Y0090969D01*
X0018265Y0090910D01*
X0018285Y0090853D01*
X0018308Y0090798D01*
X0018335Y0090743D01*
X0018364Y0090691D01*
X0018397Y0090640D01*
X0018433Y0090591D01*
X0018471Y0090545D01*
X0018513Y0090501D01*
X0018557Y0090459D01*
X0018603Y0090421D01*
X0018652Y0090385D01*
X0018703Y0090352D01*
X0018755Y0090323D01*
X0018810Y0090296D01*
X0018865Y0090273D01*
X0018922Y0090253D01*
X0018981Y0090237D01*
X0019040Y0090224D01*
X0019099Y0090215D01*
X0019160Y0090210D01*
X0019220Y0090208D01*
X0025970Y0090208D01*
X0026030Y0090210D01*
X0026091Y0090215D01*
X0026150Y0090224D01*
X0026209Y0090237D01*
X0026268Y0090253D01*
X0026325Y0090273D01*
X0026380Y0090296D01*
X0026435Y0090323D01*
X0026487Y0090352D01*
X0026538Y0090385D01*
X0026587Y0090421D01*
X0026633Y0090459D01*
X0026677Y0090501D01*
X0026719Y0090545D01*
X0026757Y0090591D01*
X0026793Y0090640D01*
X0026826Y0090691D01*
X0026855Y0090743D01*
X0026882Y0090798D01*
X0026905Y0090853D01*
X0026925Y0090910D01*
X0026941Y0090969D01*
X0026954Y0091028D01*
X0026963Y0091087D01*
X0026968Y0091148D01*
X0026970Y0091208D01*
X0022595Y0097583D02*
X0022595Y0098083D01*
X0022595Y0100083D02*
X0022595Y0100583D01*
X0028345Y0089083D02*
X0028485Y0089081D01*
X0028625Y0089075D01*
X0028765Y0089065D01*
X0028905Y0089052D01*
X0029044Y0089034D01*
X0029183Y0089012D01*
X0029320Y0088987D01*
X0029458Y0088958D01*
X0029594Y0088925D01*
X0029729Y0088888D01*
X0029863Y0088847D01*
X0029996Y0088802D01*
X0030128Y0088754D01*
X0030258Y0088702D01*
X0030387Y0088647D01*
X0030514Y0088588D01*
X0030640Y0088525D01*
X0030764Y0088459D01*
X0030885Y0088390D01*
X0031005Y0088317D01*
X0031123Y0088240D01*
X0031238Y0088161D01*
X0031352Y0088078D01*
X0031462Y0087992D01*
X0031571Y0087903D01*
X0031677Y0087811D01*
X0031780Y0087716D01*
X0031881Y0087619D01*
X0031978Y0087518D01*
X0032073Y0087415D01*
X0032165Y0087309D01*
X0032254Y0087200D01*
X0032340Y0087090D01*
X0032423Y0086976D01*
X0032502Y0086861D01*
X0032579Y0086743D01*
X0032652Y0086623D01*
X0032721Y0086502D01*
X0032787Y0086378D01*
X0032850Y0086252D01*
X0032909Y0086125D01*
X0032964Y0085996D01*
X0033016Y0085866D01*
X0033064Y0085734D01*
X0033109Y0085601D01*
X0033150Y0085467D01*
X0033187Y0085332D01*
X0033220Y0085196D01*
X0033249Y0085058D01*
X0033274Y0084921D01*
X0033296Y0084782D01*
X0033314Y0084643D01*
X0033327Y0084503D01*
X0033337Y0084363D01*
X0033343Y0084223D01*
X0033345Y0084083D01*
X0033343Y0083943D01*
X0033337Y0083803D01*
X0033327Y0083663D01*
X0033314Y0083523D01*
X0033296Y0083384D01*
X0033274Y0083245D01*
X0033249Y0083108D01*
X0033220Y0082970D01*
X0033187Y0082834D01*
X0033150Y0082699D01*
X0033109Y0082565D01*
X0033064Y0082432D01*
X0033016Y0082300D01*
X0032964Y0082170D01*
X0032909Y0082041D01*
X0032850Y0081914D01*
X0032787Y0081788D01*
X0032721Y0081664D01*
X0032652Y0081543D01*
X0032579Y0081423D01*
X0032502Y0081305D01*
X0032423Y0081190D01*
X0032340Y0081076D01*
X0032254Y0080966D01*
X0032165Y0080857D01*
X0032073Y0080751D01*
X0031978Y0080648D01*
X0031881Y0080547D01*
X0031780Y0080450D01*
X0031677Y0080355D01*
X0031571Y0080263D01*
X0031462Y0080174D01*
X0031352Y0080088D01*
X0031238Y0080005D01*
X0031123Y0079926D01*
X0031005Y0079849D01*
X0030885Y0079776D01*
X0030764Y0079707D01*
X0030640Y0079641D01*
X0030514Y0079578D01*
X0030387Y0079519D01*
X0030258Y0079464D01*
X0030128Y0079412D01*
X0029996Y0079364D01*
X0029863Y0079319D01*
X0029729Y0079278D01*
X0029594Y0079241D01*
X0029458Y0079208D01*
X0029320Y0079179D01*
X0029183Y0079154D01*
X0029044Y0079132D01*
X0028905Y0079114D01*
X0028765Y0079101D01*
X0028625Y0079091D01*
X0028485Y0079085D01*
X0028345Y0079083D01*
X0028345Y0059583D01*
X0174845Y0059583D01*
X0174845Y0108583D01*
X0186345Y0121583D02*
X0188845Y0119083D01*
X0203845Y0119083D01*
X0206345Y0121583D01*
X0206345Y0126583D01*
X0203845Y0129083D01*
X0188845Y0129083D01*
X0186345Y0126583D01*
X0186345Y0121583D01*
X0188845Y0129083D02*
X0186345Y0131583D01*
X0186345Y0136583D01*
X0188845Y0139083D01*
X0203845Y0139083D01*
X0206345Y0136583D01*
X0206345Y0131583D01*
X0203845Y0129083D01*
X0203845Y0139083D02*
X0206345Y0141583D01*
X0206345Y0146583D01*
X0203845Y0149083D01*
X0188845Y0149083D01*
X0186345Y0146583D01*
X0186345Y0141583D01*
X0188845Y0139083D01*
X0185845Y0139083D02*
X0185345Y0139583D01*
X0185345Y0158583D01*
X0185845Y0159083D01*
X0185845Y0160583D01*
X0185843Y0160643D01*
X0185838Y0160704D01*
X0185829Y0160763D01*
X0185816Y0160822D01*
X0185800Y0160881D01*
X0185780Y0160938D01*
X0185757Y0160993D01*
X0185730Y0161048D01*
X0185701Y0161100D01*
X0185668Y0161151D01*
X0185632Y0161200D01*
X0185594Y0161246D01*
X0185552Y0161290D01*
X0185508Y0161332D01*
X0185462Y0161370D01*
X0185413Y0161406D01*
X0185362Y0161439D01*
X0185310Y0161468D01*
X0185255Y0161495D01*
X0185200Y0161518D01*
X0185143Y0161538D01*
X0185084Y0161554D01*
X0185025Y0161567D01*
X0184966Y0161576D01*
X0184905Y0161581D01*
X0184845Y0161583D01*
X0186345Y0161583D02*
X0186345Y0166583D01*
X0188845Y0169083D01*
X0203845Y0169083D01*
X0206345Y0166583D01*
X0206345Y0161583D01*
X0203845Y0159083D01*
X0188845Y0159083D01*
X0186345Y0156583D01*
X0186345Y0151583D01*
X0188845Y0149083D01*
X0177345Y0158583D02*
X0177345Y0139583D01*
X0176845Y0139083D01*
X0176845Y0137583D01*
X0176847Y0137523D01*
X0176852Y0137462D01*
X0176861Y0137403D01*
X0176874Y0137344D01*
X0176890Y0137285D01*
X0176910Y0137228D01*
X0176933Y0137173D01*
X0176960Y0137118D01*
X0176989Y0137066D01*
X0177022Y0137015D01*
X0177058Y0136966D01*
X0177096Y0136920D01*
X0177138Y0136876D01*
X0177182Y0136834D01*
X0177228Y0136796D01*
X0177277Y0136760D01*
X0177328Y0136727D01*
X0177380Y0136698D01*
X0177435Y0136671D01*
X0177490Y0136648D01*
X0177547Y0136628D01*
X0177606Y0136612D01*
X0177665Y0136599D01*
X0177724Y0136590D01*
X0177785Y0136585D01*
X0177845Y0136583D01*
X0184845Y0136583D02*
X0184905Y0136585D01*
X0184966Y0136590D01*
X0185025Y0136599D01*
X0185084Y0136612D01*
X0185143Y0136628D01*
X0185200Y0136648D01*
X0185255Y0136671D01*
X0185310Y0136698D01*
X0185362Y0136727D01*
X0185413Y0136760D01*
X0185462Y0136796D01*
X0185508Y0136834D01*
X0185552Y0136876D01*
X0185594Y0136920D01*
X0185632Y0136966D01*
X0185668Y0137015D01*
X0185701Y0137066D01*
X0185730Y0137118D01*
X0185757Y0137173D01*
X0185780Y0137228D01*
X0185800Y0137285D01*
X0185816Y0137344D01*
X0185829Y0137403D01*
X0185838Y0137462D01*
X0185843Y0137523D01*
X0185845Y0137583D01*
X0185845Y0139083D01*
X0203845Y0149083D02*
X0206345Y0151583D01*
X0206345Y0156583D01*
X0203845Y0159083D01*
X0211970Y0161208D02*
X0211970Y0176958D01*
X0211972Y0177018D01*
X0211977Y0177079D01*
X0211986Y0177138D01*
X0211999Y0177197D01*
X0212015Y0177256D01*
X0212035Y0177313D01*
X0212058Y0177368D01*
X0212085Y0177423D01*
X0212114Y0177475D01*
X0212147Y0177526D01*
X0212183Y0177575D01*
X0212221Y0177621D01*
X0212263Y0177665D01*
X0212307Y0177707D01*
X0212353Y0177745D01*
X0212402Y0177781D01*
X0212453Y0177814D01*
X0212505Y0177843D01*
X0212560Y0177870D01*
X0212615Y0177893D01*
X0212672Y0177913D01*
X0212731Y0177929D01*
X0212790Y0177942D01*
X0212849Y0177951D01*
X0212910Y0177956D01*
X0212970Y0177958D01*
X0219720Y0177958D01*
X0219780Y0177956D01*
X0219841Y0177951D01*
X0219900Y0177942D01*
X0219959Y0177929D01*
X0220018Y0177913D01*
X0220075Y0177893D01*
X0220130Y0177870D01*
X0220185Y0177843D01*
X0220237Y0177814D01*
X0220288Y0177781D01*
X0220337Y0177745D01*
X0220383Y0177707D01*
X0220427Y0177665D01*
X0220469Y0177621D01*
X0220507Y0177575D01*
X0220543Y0177526D01*
X0220576Y0177475D01*
X0220605Y0177423D01*
X0220632Y0177368D01*
X0220655Y0177313D01*
X0220675Y0177256D01*
X0220691Y0177197D01*
X0220704Y0177138D01*
X0220713Y0177079D01*
X0220718Y0177018D01*
X0220720Y0176958D01*
X0220720Y0161208D01*
X0220718Y0161148D01*
X0220713Y0161087D01*
X0220704Y0161028D01*
X0220691Y0160969D01*
X0220675Y0160910D01*
X0220655Y0160853D01*
X0220632Y0160798D01*
X0220605Y0160743D01*
X0220576Y0160691D01*
X0220543Y0160640D01*
X0220507Y0160591D01*
X0220469Y0160545D01*
X0220427Y0160501D01*
X0220383Y0160459D01*
X0220337Y0160421D01*
X0220288Y0160385D01*
X0220237Y0160352D01*
X0220185Y0160323D01*
X0220130Y0160296D01*
X0220075Y0160273D01*
X0220018Y0160253D01*
X0219959Y0160237D01*
X0219900Y0160224D01*
X0219841Y0160215D01*
X0219780Y0160210D01*
X0219720Y0160208D01*
X0212970Y0160208D01*
X0212910Y0160210D01*
X0212849Y0160215D01*
X0212790Y0160224D01*
X0212731Y0160237D01*
X0212672Y0160253D01*
X0212615Y0160273D01*
X0212560Y0160296D01*
X0212505Y0160323D01*
X0212453Y0160352D01*
X0212402Y0160385D01*
X0212353Y0160421D01*
X0212307Y0160459D01*
X0212263Y0160501D01*
X0212221Y0160545D01*
X0212183Y0160591D01*
X0212147Y0160640D01*
X0212114Y0160691D01*
X0212085Y0160743D01*
X0212058Y0160798D01*
X0212035Y0160853D01*
X0212015Y0160910D01*
X0211999Y0160969D01*
X0211986Y0161028D01*
X0211977Y0161087D01*
X0211972Y0161148D01*
X0211970Y0161208D01*
X0216345Y0167583D02*
X0216345Y0168083D01*
X0216345Y0170083D02*
X0216345Y0170583D01*
X0221345Y0167583D02*
X0221345Y0220583D01*
X0421345Y0220583D01*
X0421345Y0198583D01*
X0421219Y0198581D01*
X0421094Y0198575D01*
X0420969Y0198565D01*
X0420844Y0198551D01*
X0420719Y0198534D01*
X0420595Y0198512D01*
X0420472Y0198487D01*
X0420350Y0198457D01*
X0420229Y0198424D01*
X0420109Y0198387D01*
X0419990Y0198347D01*
X0419873Y0198302D01*
X0419756Y0198254D01*
X0419642Y0198202D01*
X0419529Y0198147D01*
X0419418Y0198088D01*
X0419309Y0198026D01*
X0419202Y0197960D01*
X0419097Y0197891D01*
X0418994Y0197819D01*
X0418893Y0197744D01*
X0418795Y0197665D01*
X0418700Y0197583D01*
X0418607Y0197499D01*
X0418517Y0197411D01*
X0418429Y0197321D01*
X0418345Y0197228D01*
X0418263Y0197133D01*
X0418184Y0197035D01*
X0418109Y0196934D01*
X0418037Y0196831D01*
X0417968Y0196726D01*
X0417902Y0196619D01*
X0417840Y0196510D01*
X0417781Y0196399D01*
X0417726Y0196286D01*
X0417674Y0196172D01*
X0417626Y0196055D01*
X0417581Y0195938D01*
X0417541Y0195819D01*
X0417504Y0195699D01*
X0417471Y0195578D01*
X0417441Y0195456D01*
X0417416Y0195333D01*
X0417394Y0195209D01*
X0417377Y0195084D01*
X0417363Y0194959D01*
X0417353Y0194834D01*
X0417347Y0194709D01*
X0417345Y0194583D01*
X0417347Y0194457D01*
X0417353Y0194332D01*
X0417363Y0194207D01*
X0417377Y0194082D01*
X0417394Y0193957D01*
X0417416Y0193833D01*
X0417441Y0193710D01*
X0417471Y0193588D01*
X0417504Y0193467D01*
X0417541Y0193347D01*
X0417581Y0193228D01*
X0417626Y0193111D01*
X0417674Y0192994D01*
X0417726Y0192880D01*
X0417781Y0192767D01*
X0417840Y0192656D01*
X0417902Y0192547D01*
X0417968Y0192440D01*
X0418037Y0192335D01*
X0418109Y0192232D01*
X0418184Y0192131D01*
X0418263Y0192033D01*
X0418345Y0191938D01*
X0418429Y0191845D01*
X0418517Y0191755D01*
X0418607Y0191667D01*
X0418700Y0191583D01*
X0418795Y0191501D01*
X0418893Y0191422D01*
X0418994Y0191347D01*
X0419097Y0191275D01*
X0419202Y0191206D01*
X0419309Y0191140D01*
X0419418Y0191078D01*
X0419529Y0191019D01*
X0419642Y0190964D01*
X0419756Y0190912D01*
X0419873Y0190864D01*
X0419990Y0190819D01*
X0420109Y0190779D01*
X0420229Y0190742D01*
X0420350Y0190709D01*
X0420472Y0190679D01*
X0420595Y0190654D01*
X0420719Y0190632D01*
X0420844Y0190615D01*
X0420969Y0190601D01*
X0421094Y0190591D01*
X0421219Y0190585D01*
X0421345Y0190583D01*
X0421345Y0167583D01*
X0221345Y0167583D01*
X0206345Y0171583D02*
X0206345Y0176583D01*
X0203845Y0179083D01*
X0188845Y0179083D01*
X0186345Y0176583D01*
X0186345Y0171583D01*
X0188845Y0169083D01*
X0186345Y0161583D02*
X0188845Y0159083D01*
X0177845Y0161583D02*
X0177785Y0161581D01*
X0177724Y0161576D01*
X0177665Y0161567D01*
X0177606Y0161554D01*
X0177547Y0161538D01*
X0177490Y0161518D01*
X0177435Y0161495D01*
X0177380Y0161468D01*
X0177328Y0161439D01*
X0177277Y0161406D01*
X0177228Y0161370D01*
X0177182Y0161332D01*
X0177138Y0161290D01*
X0177096Y0161246D01*
X0177058Y0161200D01*
X0177022Y0161151D01*
X0176989Y0161100D01*
X0176960Y0161048D01*
X0176933Y0160993D01*
X0176910Y0160938D01*
X0176890Y0160881D01*
X0176874Y0160822D01*
X0176861Y0160763D01*
X0176852Y0160704D01*
X0176847Y0160643D01*
X0176845Y0160583D01*
X0176845Y0159083D01*
X0177345Y0158583D01*
X0170845Y0167583D02*
X0170845Y0169083D01*
X0170345Y0169583D01*
X0170345Y0188583D01*
X0170845Y0189083D01*
X0170845Y0190583D01*
X0170843Y0190643D01*
X0170838Y0190704D01*
X0170829Y0190763D01*
X0170816Y0190822D01*
X0170800Y0190881D01*
X0170780Y0190938D01*
X0170757Y0190993D01*
X0170730Y0191048D01*
X0170701Y0191100D01*
X0170668Y0191151D01*
X0170632Y0191200D01*
X0170594Y0191246D01*
X0170552Y0191290D01*
X0170508Y0191332D01*
X0170462Y0191370D01*
X0170413Y0191406D01*
X0170362Y0191439D01*
X0170310Y0191468D01*
X0170255Y0191495D01*
X0170200Y0191518D01*
X0170143Y0191538D01*
X0170084Y0191554D01*
X0170025Y0191567D01*
X0169966Y0191576D01*
X0169905Y0191581D01*
X0169845Y0191583D01*
X0162845Y0191583D02*
X0162785Y0191581D01*
X0162724Y0191576D01*
X0162665Y0191567D01*
X0162606Y0191554D01*
X0162547Y0191538D01*
X0162490Y0191518D01*
X0162435Y0191495D01*
X0162380Y0191468D01*
X0162328Y0191439D01*
X0162277Y0191406D01*
X0162228Y0191370D01*
X0162182Y0191332D01*
X0162138Y0191290D01*
X0162096Y0191246D01*
X0162058Y0191200D01*
X0162022Y0191151D01*
X0161989Y0191100D01*
X0161960Y0191048D01*
X0161933Y0190993D01*
X0161910Y0190938D01*
X0161890Y0190881D01*
X0161874Y0190822D01*
X0161861Y0190763D01*
X0161852Y0190704D01*
X0161847Y0190643D01*
X0161845Y0190583D01*
X0161845Y0189083D01*
X0162345Y0188583D01*
X0162345Y0169583D01*
X0161845Y0169083D01*
X0161845Y0167583D01*
X0161847Y0167523D01*
X0161852Y0167462D01*
X0161861Y0167403D01*
X0161874Y0167344D01*
X0161890Y0167285D01*
X0161910Y0167228D01*
X0161933Y0167173D01*
X0161960Y0167118D01*
X0161989Y0167066D01*
X0162022Y0167015D01*
X0162058Y0166966D01*
X0162096Y0166920D01*
X0162138Y0166876D01*
X0162182Y0166834D01*
X0162228Y0166796D01*
X0162277Y0166760D01*
X0162328Y0166727D01*
X0162380Y0166698D01*
X0162435Y0166671D01*
X0162490Y0166648D01*
X0162547Y0166628D01*
X0162606Y0166612D01*
X0162665Y0166599D01*
X0162724Y0166590D01*
X0162785Y0166585D01*
X0162845Y0166583D01*
X0169845Y0166583D02*
X0169905Y0166585D01*
X0169966Y0166590D01*
X0170025Y0166599D01*
X0170084Y0166612D01*
X0170143Y0166628D01*
X0170200Y0166648D01*
X0170255Y0166671D01*
X0170310Y0166698D01*
X0170362Y0166727D01*
X0170413Y0166760D01*
X0170462Y0166796D01*
X0170508Y0166834D01*
X0170552Y0166876D01*
X0170594Y0166920D01*
X0170632Y0166966D01*
X0170668Y0167015D01*
X0170701Y0167066D01*
X0170730Y0167118D01*
X0170757Y0167173D01*
X0170780Y0167228D01*
X0170800Y0167285D01*
X0170816Y0167344D01*
X0170829Y0167403D01*
X0170838Y0167462D01*
X0170843Y0167523D01*
X0170845Y0167583D01*
X0186345Y0181583D02*
X0188845Y0179083D01*
X0186345Y0181583D02*
X0186345Y0186583D01*
X0188845Y0189083D01*
X0203845Y0189083D01*
X0206345Y0186583D01*
X0206345Y0181583D01*
X0203845Y0179083D01*
X0206345Y0171583D02*
X0203845Y0169083D01*
X0222345Y0150083D02*
X0222345Y0141583D01*
X0222443Y0141581D01*
X0222541Y0141575D01*
X0222639Y0141566D01*
X0222736Y0141552D01*
X0222833Y0141535D01*
X0222929Y0141514D01*
X0223024Y0141489D01*
X0223118Y0141461D01*
X0223210Y0141428D01*
X0223302Y0141393D01*
X0223392Y0141353D01*
X0223480Y0141311D01*
X0223567Y0141264D01*
X0223651Y0141215D01*
X0223734Y0141162D01*
X0223814Y0141106D01*
X0223893Y0141046D01*
X0223969Y0140984D01*
X0224042Y0140919D01*
X0224113Y0140851D01*
X0224181Y0140780D01*
X0224246Y0140707D01*
X0224308Y0140631D01*
X0224368Y0140552D01*
X0224424Y0140472D01*
X0224477Y0140389D01*
X0224526Y0140305D01*
X0224573Y0140218D01*
X0224615Y0140130D01*
X0224655Y0140040D01*
X0224690Y0139948D01*
X0224723Y0139856D01*
X0224751Y0139762D01*
X0224776Y0139667D01*
X0224797Y0139571D01*
X0224814Y0139474D01*
X0224828Y0139377D01*
X0224837Y0139279D01*
X0224843Y0139181D01*
X0224845Y0139083D01*
X0224843Y0138985D01*
X0224837Y0138887D01*
X0224828Y0138789D01*
X0224814Y0138692D01*
X0224797Y0138595D01*
X0224776Y0138499D01*
X0224751Y0138404D01*
X0224723Y0138310D01*
X0224690Y0138218D01*
X0224655Y0138126D01*
X0224615Y0138036D01*
X0224573Y0137948D01*
X0224526Y0137861D01*
X0224477Y0137777D01*
X0224424Y0137694D01*
X0224368Y0137614D01*
X0224308Y0137535D01*
X0224246Y0137459D01*
X0224181Y0137386D01*
X0224113Y0137315D01*
X0224042Y0137247D01*
X0223969Y0137182D01*
X0223893Y0137120D01*
X0223814Y0137060D01*
X0223734Y0137004D01*
X0223651Y0136951D01*
X0223567Y0136902D01*
X0223480Y0136855D01*
X0223392Y0136813D01*
X0223302Y0136773D01*
X0223210Y0136738D01*
X0223118Y0136705D01*
X0223024Y0136677D01*
X0222929Y0136652D01*
X0222833Y0136631D01*
X0222736Y0136614D01*
X0222639Y0136600D01*
X0222541Y0136591D01*
X0222443Y0136585D01*
X0222345Y0136583D01*
X0222345Y0128083D01*
X0340345Y0128083D01*
X0340345Y0150083D01*
X0222345Y0150083D01*
X0223470Y0118458D02*
X0239220Y0118458D01*
X0239280Y0118456D01*
X0239341Y0118451D01*
X0239400Y0118442D01*
X0239459Y0118429D01*
X0239518Y0118413D01*
X0239575Y0118393D01*
X0239630Y0118370D01*
X0239685Y0118343D01*
X0239737Y0118314D01*
X0239788Y0118281D01*
X0239837Y0118245D01*
X0239883Y0118207D01*
X0239927Y0118165D01*
X0239969Y0118121D01*
X0240007Y0118075D01*
X0240043Y0118026D01*
X0240076Y0117975D01*
X0240105Y0117923D01*
X0240132Y0117868D01*
X0240155Y0117813D01*
X0240175Y0117756D01*
X0240191Y0117697D01*
X0240204Y0117638D01*
X0240213Y0117579D01*
X0240218Y0117518D01*
X0240220Y0117458D01*
X0240220Y0110708D01*
X0240218Y0110648D01*
X0240213Y0110587D01*
X0240204Y0110528D01*
X0240191Y0110469D01*
X0240175Y0110410D01*
X0240155Y0110353D01*
X0240132Y0110298D01*
X0240105Y0110243D01*
X0240076Y0110191D01*
X0240043Y0110140D01*
X0240007Y0110091D01*
X0239969Y0110045D01*
X0239927Y0110001D01*
X0239883Y0109959D01*
X0239837Y0109921D01*
X0239788Y0109885D01*
X0239737Y0109852D01*
X0239685Y0109823D01*
X0239630Y0109796D01*
X0239575Y0109773D01*
X0239518Y0109753D01*
X0239459Y0109737D01*
X0239400Y0109724D01*
X0239341Y0109715D01*
X0239280Y0109710D01*
X0239220Y0109708D01*
X0223470Y0109708D01*
X0223410Y0109710D01*
X0223349Y0109715D01*
X0223290Y0109724D01*
X0223231Y0109737D01*
X0223172Y0109753D01*
X0223115Y0109773D01*
X0223060Y0109796D01*
X0223005Y0109823D01*
X0222953Y0109852D01*
X0222902Y0109885D01*
X0222853Y0109921D01*
X0222807Y0109959D01*
X0222763Y0110001D01*
X0222721Y0110045D01*
X0222683Y0110091D01*
X0222647Y0110140D01*
X0222614Y0110191D01*
X0222585Y0110243D01*
X0222558Y0110298D01*
X0222535Y0110353D01*
X0222515Y0110410D01*
X0222499Y0110469D01*
X0222486Y0110528D01*
X0222477Y0110587D01*
X0222472Y0110648D01*
X0222470Y0110708D01*
X0222470Y0117458D01*
X0222472Y0117518D01*
X0222477Y0117579D01*
X0222486Y0117638D01*
X0222499Y0117697D01*
X0222515Y0117756D01*
X0222535Y0117813D01*
X0222558Y0117868D01*
X0222585Y0117923D01*
X0222614Y0117975D01*
X0222647Y0118026D01*
X0222683Y0118075D01*
X0222721Y0118121D01*
X0222763Y0118165D01*
X0222807Y0118207D01*
X0222853Y0118245D01*
X0222902Y0118281D01*
X0222953Y0118314D01*
X0223005Y0118343D01*
X0223060Y0118370D01*
X0223115Y0118393D01*
X0223172Y0118413D01*
X0223231Y0118429D01*
X0223290Y0118442D01*
X0223349Y0118451D01*
X0223410Y0118456D01*
X0223470Y0118458D01*
X0229845Y0114083D02*
X0230345Y0114083D01*
X0232345Y0114083D02*
X0232845Y0114083D01*
X0221845Y0100083D02*
X0360845Y0100083D01*
X0360845Y0048083D01*
X0221845Y0048083D01*
X0221845Y0069083D01*
X0221985Y0069085D01*
X0222125Y0069091D01*
X0222265Y0069101D01*
X0222405Y0069114D01*
X0222544Y0069132D01*
X0222683Y0069154D01*
X0222820Y0069179D01*
X0222958Y0069208D01*
X0223094Y0069241D01*
X0223229Y0069278D01*
X0223363Y0069319D01*
X0223496Y0069364D01*
X0223628Y0069412D01*
X0223758Y0069464D01*
X0223887Y0069519D01*
X0224014Y0069578D01*
X0224140Y0069641D01*
X0224264Y0069707D01*
X0224385Y0069776D01*
X0224505Y0069849D01*
X0224623Y0069926D01*
X0224738Y0070005D01*
X0224852Y0070088D01*
X0224962Y0070174D01*
X0225071Y0070263D01*
X0225177Y0070355D01*
X0225280Y0070450D01*
X0225381Y0070547D01*
X0225478Y0070648D01*
X0225573Y0070751D01*
X0225665Y0070857D01*
X0225754Y0070966D01*
X0225840Y0071076D01*
X0225923Y0071190D01*
X0226002Y0071305D01*
X0226079Y0071423D01*
X0226152Y0071543D01*
X0226221Y0071664D01*
X0226287Y0071788D01*
X0226350Y0071914D01*
X0226409Y0072041D01*
X0226464Y0072170D01*
X0226516Y0072300D01*
X0226564Y0072432D01*
X0226609Y0072565D01*
X0226650Y0072699D01*
X0226687Y0072834D01*
X0226720Y0072970D01*
X0226749Y0073108D01*
X0226774Y0073245D01*
X0226796Y0073384D01*
X0226814Y0073523D01*
X0226827Y0073663D01*
X0226837Y0073803D01*
X0226843Y0073943D01*
X0226845Y0074083D01*
X0226843Y0074223D01*
X0226837Y0074363D01*
X0226827Y0074503D01*
X0226814Y0074643D01*
X0226796Y0074782D01*
X0226774Y0074921D01*
X0226749Y0075058D01*
X0226720Y0075196D01*
X0226687Y0075332D01*
X0226650Y0075467D01*
X0226609Y0075601D01*
X0226564Y0075734D01*
X0226516Y0075866D01*
X0226464Y0075996D01*
X0226409Y0076125D01*
X0226350Y0076252D01*
X0226287Y0076378D01*
X0226221Y0076502D01*
X0226152Y0076623D01*
X0226079Y0076743D01*
X0226002Y0076861D01*
X0225923Y0076976D01*
X0225840Y0077090D01*
X0225754Y0077200D01*
X0225665Y0077309D01*
X0225573Y0077415D01*
X0225478Y0077518D01*
X0225381Y0077619D01*
X0225280Y0077716D01*
X0225177Y0077811D01*
X0225071Y0077903D01*
X0224962Y0077992D01*
X0224852Y0078078D01*
X0224738Y0078161D01*
X0224623Y0078240D01*
X0224505Y0078317D01*
X0224385Y0078390D01*
X0224264Y0078459D01*
X0224140Y0078525D01*
X0224014Y0078588D01*
X0223887Y0078647D01*
X0223758Y0078702D01*
X0223628Y0078754D01*
X0223496Y0078802D01*
X0223363Y0078847D01*
X0223229Y0078888D01*
X0223094Y0078925D01*
X0222958Y0078958D01*
X0222820Y0078987D01*
X0222683Y0079012D01*
X0222544Y0079034D01*
X0222405Y0079052D01*
X0222265Y0079065D01*
X0222125Y0079075D01*
X0221985Y0079081D01*
X0221845Y0079083D01*
X0221845Y0100083D01*
X0281345Y0109083D02*
X0291345Y0109083D01*
X0341345Y0109083D01*
X0341345Y0119083D01*
X0291345Y0119083D01*
X0281345Y0119083D01*
X0281345Y0109083D01*
X0291345Y0109083D02*
X0291345Y0119083D01*
X0346345Y0116583D02*
X0346345Y0111583D01*
X0348845Y0109083D01*
X0363845Y0109083D01*
X0366345Y0111583D01*
X0366345Y0116583D01*
X0363845Y0119083D01*
X0348845Y0119083D01*
X0346345Y0116583D01*
X0348845Y0119083D02*
X0346345Y0121583D01*
X0346345Y0126583D01*
X0348845Y0129083D01*
X0363845Y0129083D01*
X0366345Y0126583D01*
X0366345Y0121583D01*
X0363845Y0119083D01*
X0363845Y0129083D02*
X0366345Y0131583D01*
X0366345Y0136583D01*
X0363845Y0139083D01*
X0348845Y0139083D01*
X0346345Y0136583D01*
X0346345Y0131583D01*
X0348845Y0129083D01*
X0348845Y0139083D02*
X0346345Y0141583D01*
X0346345Y0146583D01*
X0348845Y0149083D01*
X0363845Y0149083D01*
X0366345Y0146583D01*
X0366345Y0141583D01*
X0363845Y0139083D01*
X0375845Y0139333D02*
X0375845Y0142833D01*
X0375845Y0146333D01*
X0386845Y0146333D01*
X0386845Y0142833D01*
X0386845Y0139333D01*
X0375845Y0139333D01*
X0375845Y0142833D02*
X0375345Y0142833D01*
X0375845Y0149333D02*
X0375845Y0152833D01*
X0375845Y0156333D01*
X0386845Y0156333D01*
X0386845Y0152833D01*
X0386845Y0149333D01*
X0375845Y0149333D01*
X0375845Y0152833D02*
X0375345Y0152833D01*
X0366345Y0151583D02*
X0366345Y0156583D01*
X0363845Y0159083D01*
X0348845Y0159083D01*
X0346345Y0156583D01*
X0346345Y0151583D01*
X0348845Y0149083D01*
X0363845Y0149083D02*
X0366345Y0151583D01*
X0386845Y0152833D02*
X0387345Y0152833D01*
X0397595Y0151583D02*
X0397595Y0156583D01*
X0400095Y0159083D01*
X0405095Y0159083D01*
X0407595Y0156583D01*
X0410095Y0159083D01*
X0415095Y0159083D01*
X0417595Y0156583D01*
X0417595Y0151583D01*
X0415095Y0149083D01*
X0417595Y0146583D01*
X0417595Y0141583D01*
X0415095Y0139083D01*
X0410095Y0139083D01*
X0407595Y0141583D01*
X0405095Y0139083D01*
X0400095Y0139083D01*
X0397595Y0141583D01*
X0397595Y0146583D01*
X0400095Y0149083D01*
X0397595Y0151583D01*
X0387345Y0142833D02*
X0386845Y0142833D01*
X0418220Y0141208D02*
X0418220Y0156958D01*
X0418222Y0157018D01*
X0418227Y0157079D01*
X0418236Y0157138D01*
X0418249Y0157197D01*
X0418265Y0157256D01*
X0418285Y0157313D01*
X0418308Y0157368D01*
X0418335Y0157423D01*
X0418364Y0157475D01*
X0418397Y0157526D01*
X0418433Y0157575D01*
X0418471Y0157621D01*
X0418513Y0157665D01*
X0418557Y0157707D01*
X0418603Y0157745D01*
X0418652Y0157781D01*
X0418703Y0157814D01*
X0418755Y0157843D01*
X0418810Y0157870D01*
X0418865Y0157893D01*
X0418922Y0157913D01*
X0418981Y0157929D01*
X0419040Y0157942D01*
X0419099Y0157951D01*
X0419160Y0157956D01*
X0419220Y0157958D01*
X0425970Y0157958D01*
X0426030Y0157956D01*
X0426091Y0157951D01*
X0426150Y0157942D01*
X0426209Y0157929D01*
X0426268Y0157913D01*
X0426325Y0157893D01*
X0426380Y0157870D01*
X0426435Y0157843D01*
X0426487Y0157814D01*
X0426538Y0157781D01*
X0426587Y0157745D01*
X0426633Y0157707D01*
X0426677Y0157665D01*
X0426719Y0157621D01*
X0426757Y0157575D01*
X0426793Y0157526D01*
X0426826Y0157475D01*
X0426855Y0157423D01*
X0426882Y0157368D01*
X0426905Y0157313D01*
X0426925Y0157256D01*
X0426941Y0157197D01*
X0426954Y0157138D01*
X0426963Y0157079D01*
X0426968Y0157018D01*
X0426970Y0156958D01*
X0426970Y0141208D01*
X0426968Y0141148D01*
X0426963Y0141087D01*
X0426954Y0141028D01*
X0426941Y0140969D01*
X0426925Y0140910D01*
X0426905Y0140853D01*
X0426882Y0140798D01*
X0426855Y0140743D01*
X0426826Y0140691D01*
X0426793Y0140640D01*
X0426757Y0140591D01*
X0426719Y0140545D01*
X0426677Y0140501D01*
X0426633Y0140459D01*
X0426587Y0140421D01*
X0426538Y0140385D01*
X0426487Y0140352D01*
X0426435Y0140323D01*
X0426380Y0140296D01*
X0426325Y0140273D01*
X0426268Y0140253D01*
X0426209Y0140237D01*
X0426150Y0140224D01*
X0426091Y0140215D01*
X0426030Y0140210D01*
X0425970Y0140208D01*
X0419220Y0140208D01*
X0419160Y0140210D01*
X0419099Y0140215D01*
X0419040Y0140224D01*
X0418981Y0140237D01*
X0418922Y0140253D01*
X0418865Y0140273D01*
X0418810Y0140296D01*
X0418755Y0140323D01*
X0418703Y0140352D01*
X0418652Y0140385D01*
X0418603Y0140421D01*
X0418557Y0140459D01*
X0418513Y0140501D01*
X0418471Y0140545D01*
X0418433Y0140591D01*
X0418397Y0140640D01*
X0418364Y0140691D01*
X0418335Y0140743D01*
X0418308Y0140798D01*
X0418285Y0140853D01*
X0418265Y0140910D01*
X0418249Y0140969D01*
X0418236Y0141028D01*
X0418227Y0141087D01*
X0418222Y0141148D01*
X0418220Y0141208D01*
X0422595Y0147583D02*
X0422595Y0148083D01*
X0422595Y0150083D02*
X0422595Y0150583D01*
X0401345Y0187583D02*
X0401345Y0195083D01*
X0401219Y0195085D01*
X0401094Y0195091D01*
X0400969Y0195101D01*
X0400844Y0195115D01*
X0400719Y0195132D01*
X0400595Y0195154D01*
X0400472Y0195179D01*
X0400350Y0195209D01*
X0400229Y0195242D01*
X0400109Y0195279D01*
X0399990Y0195319D01*
X0399873Y0195364D01*
X0399756Y0195412D01*
X0399642Y0195464D01*
X0399529Y0195519D01*
X0399418Y0195578D01*
X0399309Y0195640D01*
X0399202Y0195706D01*
X0399097Y0195775D01*
X0398994Y0195847D01*
X0398893Y0195922D01*
X0398795Y0196001D01*
X0398700Y0196083D01*
X0398607Y0196167D01*
X0398517Y0196255D01*
X0398429Y0196345D01*
X0398345Y0196438D01*
X0398263Y0196533D01*
X0398184Y0196631D01*
X0398109Y0196732D01*
X0398037Y0196835D01*
X0397968Y0196940D01*
X0397902Y0197047D01*
X0397840Y0197156D01*
X0397781Y0197267D01*
X0397726Y0197380D01*
X0397674Y0197494D01*
X0397626Y0197611D01*
X0397581Y0197728D01*
X0397541Y0197847D01*
X0397504Y0197967D01*
X0397471Y0198088D01*
X0397441Y0198210D01*
X0397416Y0198333D01*
X0397394Y0198457D01*
X0397377Y0198582D01*
X0397363Y0198707D01*
X0397353Y0198832D01*
X0397347Y0198957D01*
X0397345Y0199083D01*
X0397347Y0199209D01*
X0397353Y0199334D01*
X0397363Y0199459D01*
X0397377Y0199584D01*
X0397394Y0199709D01*
X0397416Y0199833D01*
X0397441Y0199956D01*
X0397471Y0200078D01*
X0397504Y0200199D01*
X0397541Y0200319D01*
X0397581Y0200438D01*
X0397626Y0200555D01*
X0397674Y0200672D01*
X0397726Y0200786D01*
X0397781Y0200899D01*
X0397840Y0201010D01*
X0397902Y0201119D01*
X0397968Y0201226D01*
X0398037Y0201331D01*
X0398109Y0201434D01*
X0398184Y0201535D01*
X0398263Y0201633D01*
X0398345Y0201728D01*
X0398429Y0201821D01*
X0398517Y0201911D01*
X0398607Y0201999D01*
X0398700Y0202083D01*
X0398795Y0202165D01*
X0398893Y0202244D01*
X0398994Y0202319D01*
X0399097Y0202391D01*
X0399202Y0202460D01*
X0399309Y0202526D01*
X0399418Y0202588D01*
X0399529Y0202647D01*
X0399642Y0202702D01*
X0399756Y0202754D01*
X0399873Y0202802D01*
X0399990Y0202847D01*
X0400109Y0202887D01*
X0400229Y0202924D01*
X0400350Y0202957D01*
X0400472Y0202987D01*
X0400595Y0203012D01*
X0400719Y0203034D01*
X0400844Y0203051D01*
X0400969Y0203065D01*
X0401094Y0203075D01*
X0401219Y0203081D01*
X0401345Y0203083D01*
X0401345Y0210583D01*
X0321345Y0210583D01*
X0321345Y0187583D01*
X0401345Y0187583D01*
X0379220Y0239708D02*
X0363470Y0239708D01*
X0363410Y0239710D01*
X0363349Y0239715D01*
X0363290Y0239724D01*
X0363231Y0239737D01*
X0363172Y0239753D01*
X0363115Y0239773D01*
X0363060Y0239796D01*
X0363005Y0239823D01*
X0362953Y0239852D01*
X0362902Y0239885D01*
X0362853Y0239921D01*
X0362807Y0239959D01*
X0362763Y0240001D01*
X0362721Y0240045D01*
X0362683Y0240091D01*
X0362647Y0240140D01*
X0362614Y0240191D01*
X0362585Y0240243D01*
X0362558Y0240298D01*
X0362535Y0240353D01*
X0362515Y0240410D01*
X0362499Y0240469D01*
X0362486Y0240528D01*
X0362477Y0240587D01*
X0362472Y0240648D01*
X0362470Y0240708D01*
X0362470Y0247458D01*
X0362472Y0247518D01*
X0362477Y0247579D01*
X0362486Y0247638D01*
X0362499Y0247697D01*
X0362515Y0247756D01*
X0362535Y0247813D01*
X0362558Y0247868D01*
X0362585Y0247923D01*
X0362614Y0247975D01*
X0362647Y0248026D01*
X0362683Y0248075D01*
X0362721Y0248121D01*
X0362763Y0248165D01*
X0362807Y0248207D01*
X0362853Y0248245D01*
X0362902Y0248281D01*
X0362953Y0248314D01*
X0363005Y0248343D01*
X0363060Y0248370D01*
X0363115Y0248393D01*
X0363172Y0248413D01*
X0363231Y0248429D01*
X0363290Y0248442D01*
X0363349Y0248451D01*
X0363410Y0248456D01*
X0363470Y0248458D01*
X0379220Y0248458D01*
X0379280Y0248456D01*
X0379341Y0248451D01*
X0379400Y0248442D01*
X0379459Y0248429D01*
X0379518Y0248413D01*
X0379575Y0248393D01*
X0379630Y0248370D01*
X0379685Y0248343D01*
X0379737Y0248314D01*
X0379788Y0248281D01*
X0379837Y0248245D01*
X0379883Y0248207D01*
X0379927Y0248165D01*
X0379969Y0248121D01*
X0380007Y0248075D01*
X0380043Y0248026D01*
X0380076Y0247975D01*
X0380105Y0247923D01*
X0380132Y0247868D01*
X0380155Y0247813D01*
X0380175Y0247756D01*
X0380191Y0247697D01*
X0380204Y0247638D01*
X0380213Y0247579D01*
X0380218Y0247518D01*
X0380220Y0247458D01*
X0380220Y0240708D01*
X0380218Y0240648D01*
X0380213Y0240587D01*
X0380204Y0240528D01*
X0380191Y0240469D01*
X0380175Y0240410D01*
X0380155Y0240353D01*
X0380132Y0240298D01*
X0380105Y0240243D01*
X0380076Y0240191D01*
X0380043Y0240140D01*
X0380007Y0240091D01*
X0379969Y0240045D01*
X0379927Y0240001D01*
X0379883Y0239959D01*
X0379837Y0239921D01*
X0379788Y0239885D01*
X0379737Y0239852D01*
X0379685Y0239823D01*
X0379630Y0239796D01*
X0379575Y0239773D01*
X0379518Y0239753D01*
X0379459Y0239737D01*
X0379400Y0239724D01*
X0379341Y0239715D01*
X0379280Y0239710D01*
X0379220Y0239708D01*
X0372845Y0244083D02*
X0372345Y0244083D01*
X0370345Y0244083D02*
X0369845Y0244083D01*
X0360220Y0247458D02*
X0360220Y0240708D01*
X0360218Y0240648D01*
X0360213Y0240587D01*
X0360204Y0240528D01*
X0360191Y0240469D01*
X0360175Y0240410D01*
X0360155Y0240353D01*
X0360132Y0240298D01*
X0360105Y0240243D01*
X0360076Y0240191D01*
X0360043Y0240140D01*
X0360007Y0240091D01*
X0359969Y0240045D01*
X0359927Y0240001D01*
X0359883Y0239959D01*
X0359837Y0239921D01*
X0359788Y0239885D01*
X0359737Y0239852D01*
X0359685Y0239823D01*
X0359630Y0239796D01*
X0359575Y0239773D01*
X0359518Y0239753D01*
X0359459Y0239737D01*
X0359400Y0239724D01*
X0359341Y0239715D01*
X0359280Y0239710D01*
X0359220Y0239708D01*
X0343470Y0239708D01*
X0343410Y0239710D01*
X0343349Y0239715D01*
X0343290Y0239724D01*
X0343231Y0239737D01*
X0343172Y0239753D01*
X0343115Y0239773D01*
X0343060Y0239796D01*
X0343005Y0239823D01*
X0342953Y0239852D01*
X0342902Y0239885D01*
X0342853Y0239921D01*
X0342807Y0239959D01*
X0342763Y0240001D01*
X0342721Y0240045D01*
X0342683Y0240091D01*
X0342647Y0240140D01*
X0342614Y0240191D01*
X0342585Y0240243D01*
X0342558Y0240298D01*
X0342535Y0240353D01*
X0342515Y0240410D01*
X0342499Y0240469D01*
X0342486Y0240528D01*
X0342477Y0240587D01*
X0342472Y0240648D01*
X0342470Y0240708D01*
X0342470Y0247458D01*
X0342472Y0247518D01*
X0342477Y0247579D01*
X0342486Y0247638D01*
X0342499Y0247697D01*
X0342515Y0247756D01*
X0342535Y0247813D01*
X0342558Y0247868D01*
X0342585Y0247923D01*
X0342614Y0247975D01*
X0342647Y0248026D01*
X0342683Y0248075D01*
X0342721Y0248121D01*
X0342763Y0248165D01*
X0342807Y0248207D01*
X0342853Y0248245D01*
X0342902Y0248281D01*
X0342953Y0248314D01*
X0343005Y0248343D01*
X0343060Y0248370D01*
X0343115Y0248393D01*
X0343172Y0248413D01*
X0343231Y0248429D01*
X0343290Y0248442D01*
X0343349Y0248451D01*
X0343410Y0248456D01*
X0343470Y0248458D01*
X0359220Y0248458D01*
X0359280Y0248456D01*
X0359341Y0248451D01*
X0359400Y0248442D01*
X0359459Y0248429D01*
X0359518Y0248413D01*
X0359575Y0248393D01*
X0359630Y0248370D01*
X0359685Y0248343D01*
X0359737Y0248314D01*
X0359788Y0248281D01*
X0359837Y0248245D01*
X0359883Y0248207D01*
X0359927Y0248165D01*
X0359969Y0248121D01*
X0360007Y0248075D01*
X0360043Y0248026D01*
X0360076Y0247975D01*
X0360105Y0247923D01*
X0360132Y0247868D01*
X0360155Y0247813D01*
X0360175Y0247756D01*
X0360191Y0247697D01*
X0360204Y0247638D01*
X0360213Y0247579D01*
X0360218Y0247518D01*
X0360220Y0247458D01*
X0352845Y0244083D02*
X0352345Y0244083D01*
X0350345Y0244083D02*
X0349845Y0244083D01*
X0331345Y0244083D02*
X0331347Y0244224D01*
X0331353Y0244365D01*
X0331363Y0244505D01*
X0331377Y0244645D01*
X0331395Y0244785D01*
X0331416Y0244924D01*
X0331442Y0245063D01*
X0331471Y0245201D01*
X0331505Y0245337D01*
X0331542Y0245473D01*
X0331583Y0245608D01*
X0331628Y0245742D01*
X0331677Y0245874D01*
X0331729Y0246005D01*
X0331785Y0246134D01*
X0331845Y0246261D01*
X0331908Y0246387D01*
X0331974Y0246511D01*
X0332045Y0246634D01*
X0332118Y0246754D01*
X0332195Y0246872D01*
X0332275Y0246988D01*
X0332359Y0247101D01*
X0332445Y0247212D01*
X0332535Y0247321D01*
X0332628Y0247427D01*
X0332723Y0247530D01*
X0332822Y0247631D01*
X0332923Y0247729D01*
X0333027Y0247824D01*
X0333134Y0247916D01*
X0333243Y0248005D01*
X0333355Y0248090D01*
X0333469Y0248173D01*
X0333585Y0248253D01*
X0333704Y0248329D01*
X0333825Y0248401D01*
X0333947Y0248471D01*
X0334072Y0248536D01*
X0334198Y0248599D01*
X0334326Y0248657D01*
X0334456Y0248712D01*
X0334587Y0248764D01*
X0334720Y0248811D01*
X0334854Y0248855D01*
X0334989Y0248896D01*
X0335125Y0248932D01*
X0335262Y0248964D01*
X0335400Y0248993D01*
X0335538Y0249018D01*
X0335678Y0249038D01*
X0335818Y0249055D01*
X0335958Y0249068D01*
X0336099Y0249077D01*
X0336239Y0249082D01*
X0336380Y0249083D01*
X0336521Y0249080D01*
X0336662Y0249073D01*
X0336802Y0249062D01*
X0336942Y0249047D01*
X0337082Y0249028D01*
X0337221Y0249006D01*
X0337359Y0248979D01*
X0337497Y0248949D01*
X0337633Y0248914D01*
X0337769Y0248876D01*
X0337903Y0248834D01*
X0338037Y0248788D01*
X0338169Y0248739D01*
X0338299Y0248685D01*
X0338428Y0248628D01*
X0338555Y0248568D01*
X0338681Y0248504D01*
X0338804Y0248436D01*
X0338926Y0248365D01*
X0339046Y0248291D01*
X0339163Y0248213D01*
X0339278Y0248132D01*
X0339391Y0248048D01*
X0339502Y0247961D01*
X0339610Y0247870D01*
X0339715Y0247777D01*
X0339818Y0247680D01*
X0339918Y0247581D01*
X0340015Y0247479D01*
X0340109Y0247374D01*
X0340200Y0247267D01*
X0340288Y0247157D01*
X0340373Y0247045D01*
X0340455Y0246930D01*
X0340534Y0246813D01*
X0340609Y0246694D01*
X0340681Y0246573D01*
X0340749Y0246450D01*
X0340814Y0246325D01*
X0340876Y0246198D01*
X0340933Y0246069D01*
X0340988Y0245939D01*
X0341038Y0245808D01*
X0341085Y0245675D01*
X0341128Y0245541D01*
X0341167Y0245405D01*
X0341202Y0245269D01*
X0341234Y0245132D01*
X0341261Y0244994D01*
X0341285Y0244855D01*
X0341305Y0244715D01*
X0341321Y0244575D01*
X0341333Y0244435D01*
X0341341Y0244294D01*
X0341345Y0244153D01*
X0341345Y0244013D01*
X0341341Y0243872D01*
X0341333Y0243731D01*
X0341321Y0243591D01*
X0341305Y0243451D01*
X0341285Y0243311D01*
X0341261Y0243172D01*
X0341234Y0243034D01*
X0341202Y0242897D01*
X0341167Y0242761D01*
X0341128Y0242625D01*
X0341085Y0242491D01*
X0341038Y0242358D01*
X0340988Y0242227D01*
X0340933Y0242097D01*
X0340876Y0241968D01*
X0340814Y0241841D01*
X0340749Y0241716D01*
X0340681Y0241593D01*
X0340609Y0241472D01*
X0340534Y0241353D01*
X0340455Y0241236D01*
X0340373Y0241121D01*
X0340288Y0241009D01*
X0340200Y0240899D01*
X0340109Y0240792D01*
X0340015Y0240687D01*
X0339918Y0240585D01*
X0339818Y0240486D01*
X0339715Y0240389D01*
X0339610Y0240296D01*
X0339502Y0240205D01*
X0339391Y0240118D01*
X0339278Y0240034D01*
X0339163Y0239953D01*
X0339046Y0239875D01*
X0338926Y0239801D01*
X0338804Y0239730D01*
X0338681Y0239662D01*
X0338555Y0239598D01*
X0338428Y0239538D01*
X0338299Y0239481D01*
X0338169Y0239427D01*
X0338037Y0239378D01*
X0337903Y0239332D01*
X0337769Y0239290D01*
X0337633Y0239252D01*
X0337497Y0239217D01*
X0337359Y0239187D01*
X0337221Y0239160D01*
X0337082Y0239138D01*
X0336942Y0239119D01*
X0336802Y0239104D01*
X0336662Y0239093D01*
X0336521Y0239086D01*
X0336380Y0239083D01*
X0336239Y0239084D01*
X0336099Y0239089D01*
X0335958Y0239098D01*
X0335818Y0239111D01*
X0335678Y0239128D01*
X0335538Y0239148D01*
X0335400Y0239173D01*
X0335262Y0239202D01*
X0335125Y0239234D01*
X0334989Y0239270D01*
X0334854Y0239311D01*
X0334720Y0239355D01*
X0334587Y0239402D01*
X0334456Y0239454D01*
X0334326Y0239509D01*
X0334198Y0239567D01*
X0334072Y0239630D01*
X0333947Y0239695D01*
X0333825Y0239765D01*
X0333704Y0239837D01*
X0333585Y0239913D01*
X0333469Y0239993D01*
X0333355Y0240076D01*
X0333243Y0240161D01*
X0333134Y0240250D01*
X0333027Y0240342D01*
X0332923Y0240437D01*
X0332822Y0240535D01*
X0332723Y0240636D01*
X0332628Y0240739D01*
X0332535Y0240845D01*
X0332445Y0240954D01*
X0332359Y0241065D01*
X0332275Y0241178D01*
X0332195Y0241294D01*
X0332118Y0241412D01*
X0332045Y0241532D01*
X0331974Y0241655D01*
X0331908Y0241779D01*
X0331845Y0241905D01*
X0331785Y0242032D01*
X0331729Y0242161D01*
X0331677Y0242292D01*
X0331628Y0242424D01*
X0331583Y0242558D01*
X0331542Y0242693D01*
X0331505Y0242829D01*
X0331471Y0242965D01*
X0331442Y0243103D01*
X0331416Y0243242D01*
X0331395Y0243381D01*
X0331377Y0243521D01*
X0331363Y0243661D01*
X0331353Y0243801D01*
X0331347Y0243942D01*
X0331345Y0244083D01*
X0311345Y0244083D02*
X0311347Y0244224D01*
X0311353Y0244365D01*
X0311363Y0244505D01*
X0311377Y0244645D01*
X0311395Y0244785D01*
X0311416Y0244924D01*
X0311442Y0245063D01*
X0311471Y0245201D01*
X0311505Y0245337D01*
X0311542Y0245473D01*
X0311583Y0245608D01*
X0311628Y0245742D01*
X0311677Y0245874D01*
X0311729Y0246005D01*
X0311785Y0246134D01*
X0311845Y0246261D01*
X0311908Y0246387D01*
X0311974Y0246511D01*
X0312045Y0246634D01*
X0312118Y0246754D01*
X0312195Y0246872D01*
X0312275Y0246988D01*
X0312359Y0247101D01*
X0312445Y0247212D01*
X0312535Y0247321D01*
X0312628Y0247427D01*
X0312723Y0247530D01*
X0312822Y0247631D01*
X0312923Y0247729D01*
X0313027Y0247824D01*
X0313134Y0247916D01*
X0313243Y0248005D01*
X0313355Y0248090D01*
X0313469Y0248173D01*
X0313585Y0248253D01*
X0313704Y0248329D01*
X0313825Y0248401D01*
X0313947Y0248471D01*
X0314072Y0248536D01*
X0314198Y0248599D01*
X0314326Y0248657D01*
X0314456Y0248712D01*
X0314587Y0248764D01*
X0314720Y0248811D01*
X0314854Y0248855D01*
X0314989Y0248896D01*
X0315125Y0248932D01*
X0315262Y0248964D01*
X0315400Y0248993D01*
X0315538Y0249018D01*
X0315678Y0249038D01*
X0315818Y0249055D01*
X0315958Y0249068D01*
X0316099Y0249077D01*
X0316239Y0249082D01*
X0316380Y0249083D01*
X0316521Y0249080D01*
X0316662Y0249073D01*
X0316802Y0249062D01*
X0316942Y0249047D01*
X0317082Y0249028D01*
X0317221Y0249006D01*
X0317359Y0248979D01*
X0317497Y0248949D01*
X0317633Y0248914D01*
X0317769Y0248876D01*
X0317903Y0248834D01*
X0318037Y0248788D01*
X0318169Y0248739D01*
X0318299Y0248685D01*
X0318428Y0248628D01*
X0318555Y0248568D01*
X0318681Y0248504D01*
X0318804Y0248436D01*
X0318926Y0248365D01*
X0319046Y0248291D01*
X0319163Y0248213D01*
X0319278Y0248132D01*
X0319391Y0248048D01*
X0319502Y0247961D01*
X0319610Y0247870D01*
X0319715Y0247777D01*
X0319818Y0247680D01*
X0319918Y0247581D01*
X0320015Y0247479D01*
X0320109Y0247374D01*
X0320200Y0247267D01*
X0320288Y0247157D01*
X0320373Y0247045D01*
X0320455Y0246930D01*
X0320534Y0246813D01*
X0320609Y0246694D01*
X0320681Y0246573D01*
X0320749Y0246450D01*
X0320814Y0246325D01*
X0320876Y0246198D01*
X0320933Y0246069D01*
X0320988Y0245939D01*
X0321038Y0245808D01*
X0321085Y0245675D01*
X0321128Y0245541D01*
X0321167Y0245405D01*
X0321202Y0245269D01*
X0321234Y0245132D01*
X0321261Y0244994D01*
X0321285Y0244855D01*
X0321305Y0244715D01*
X0321321Y0244575D01*
X0321333Y0244435D01*
X0321341Y0244294D01*
X0321345Y0244153D01*
X0321345Y0244013D01*
X0321341Y0243872D01*
X0321333Y0243731D01*
X0321321Y0243591D01*
X0321305Y0243451D01*
X0321285Y0243311D01*
X0321261Y0243172D01*
X0321234Y0243034D01*
X0321202Y0242897D01*
X0321167Y0242761D01*
X0321128Y0242625D01*
X0321085Y0242491D01*
X0321038Y0242358D01*
X0320988Y0242227D01*
X0320933Y0242097D01*
X0320876Y0241968D01*
X0320814Y0241841D01*
X0320749Y0241716D01*
X0320681Y0241593D01*
X0320609Y0241472D01*
X0320534Y0241353D01*
X0320455Y0241236D01*
X0320373Y0241121D01*
X0320288Y0241009D01*
X0320200Y0240899D01*
X0320109Y0240792D01*
X0320015Y0240687D01*
X0319918Y0240585D01*
X0319818Y0240486D01*
X0319715Y0240389D01*
X0319610Y0240296D01*
X0319502Y0240205D01*
X0319391Y0240118D01*
X0319278Y0240034D01*
X0319163Y0239953D01*
X0319046Y0239875D01*
X0318926Y0239801D01*
X0318804Y0239730D01*
X0318681Y0239662D01*
X0318555Y0239598D01*
X0318428Y0239538D01*
X0318299Y0239481D01*
X0318169Y0239427D01*
X0318037Y0239378D01*
X0317903Y0239332D01*
X0317769Y0239290D01*
X0317633Y0239252D01*
X0317497Y0239217D01*
X0317359Y0239187D01*
X0317221Y0239160D01*
X0317082Y0239138D01*
X0316942Y0239119D01*
X0316802Y0239104D01*
X0316662Y0239093D01*
X0316521Y0239086D01*
X0316380Y0239083D01*
X0316239Y0239084D01*
X0316099Y0239089D01*
X0315958Y0239098D01*
X0315818Y0239111D01*
X0315678Y0239128D01*
X0315538Y0239148D01*
X0315400Y0239173D01*
X0315262Y0239202D01*
X0315125Y0239234D01*
X0314989Y0239270D01*
X0314854Y0239311D01*
X0314720Y0239355D01*
X0314587Y0239402D01*
X0314456Y0239454D01*
X0314326Y0239509D01*
X0314198Y0239567D01*
X0314072Y0239630D01*
X0313947Y0239695D01*
X0313825Y0239765D01*
X0313704Y0239837D01*
X0313585Y0239913D01*
X0313469Y0239993D01*
X0313355Y0240076D01*
X0313243Y0240161D01*
X0313134Y0240250D01*
X0313027Y0240342D01*
X0312923Y0240437D01*
X0312822Y0240535D01*
X0312723Y0240636D01*
X0312628Y0240739D01*
X0312535Y0240845D01*
X0312445Y0240954D01*
X0312359Y0241065D01*
X0312275Y0241178D01*
X0312195Y0241294D01*
X0312118Y0241412D01*
X0312045Y0241532D01*
X0311974Y0241655D01*
X0311908Y0241779D01*
X0311845Y0241905D01*
X0311785Y0242032D01*
X0311729Y0242161D01*
X0311677Y0242292D01*
X0311628Y0242424D01*
X0311583Y0242558D01*
X0311542Y0242693D01*
X0311505Y0242829D01*
X0311471Y0242965D01*
X0311442Y0243103D01*
X0311416Y0243242D01*
X0311395Y0243381D01*
X0311377Y0243521D01*
X0311363Y0243661D01*
X0311353Y0243801D01*
X0311347Y0243942D01*
X0311345Y0244083D01*
X0311345Y0210583D02*
X0311345Y0187583D01*
X0241345Y0187583D01*
X0241345Y0195083D01*
X0241471Y0195085D01*
X0241596Y0195091D01*
X0241721Y0195101D01*
X0241846Y0195115D01*
X0241971Y0195132D01*
X0242095Y0195154D01*
X0242218Y0195179D01*
X0242340Y0195209D01*
X0242461Y0195242D01*
X0242581Y0195279D01*
X0242700Y0195319D01*
X0242817Y0195364D01*
X0242934Y0195412D01*
X0243048Y0195464D01*
X0243161Y0195519D01*
X0243272Y0195578D01*
X0243381Y0195640D01*
X0243488Y0195706D01*
X0243593Y0195775D01*
X0243696Y0195847D01*
X0243797Y0195922D01*
X0243895Y0196001D01*
X0243990Y0196083D01*
X0244083Y0196167D01*
X0244173Y0196255D01*
X0244261Y0196345D01*
X0244345Y0196438D01*
X0244427Y0196533D01*
X0244506Y0196631D01*
X0244581Y0196732D01*
X0244653Y0196835D01*
X0244722Y0196940D01*
X0244788Y0197047D01*
X0244850Y0197156D01*
X0244909Y0197267D01*
X0244964Y0197380D01*
X0245016Y0197494D01*
X0245064Y0197611D01*
X0245109Y0197728D01*
X0245149Y0197847D01*
X0245186Y0197967D01*
X0245219Y0198088D01*
X0245249Y0198210D01*
X0245274Y0198333D01*
X0245296Y0198457D01*
X0245313Y0198582D01*
X0245327Y0198707D01*
X0245337Y0198832D01*
X0245343Y0198957D01*
X0245345Y0199083D01*
X0245343Y0199209D01*
X0245337Y0199334D01*
X0245327Y0199459D01*
X0245313Y0199584D01*
X0245296Y0199709D01*
X0245274Y0199833D01*
X0245249Y0199956D01*
X0245219Y0200078D01*
X0245186Y0200199D01*
X0245149Y0200319D01*
X0245109Y0200438D01*
X0245064Y0200555D01*
X0245016Y0200672D01*
X0244964Y0200786D01*
X0244909Y0200899D01*
X0244850Y0201010D01*
X0244788Y0201119D01*
X0244722Y0201226D01*
X0244653Y0201331D01*
X0244581Y0201434D01*
X0244506Y0201535D01*
X0244427Y0201633D01*
X0244345Y0201728D01*
X0244261Y0201821D01*
X0244173Y0201911D01*
X0244083Y0201999D01*
X0243990Y0202083D01*
X0243895Y0202165D01*
X0243797Y0202244D01*
X0243696Y0202319D01*
X0243593Y0202391D01*
X0243488Y0202460D01*
X0243381Y0202526D01*
X0243272Y0202588D01*
X0243161Y0202647D01*
X0243048Y0202702D01*
X0242934Y0202754D01*
X0242817Y0202802D01*
X0242700Y0202847D01*
X0242581Y0202887D01*
X0242461Y0202924D01*
X0242340Y0202957D01*
X0242218Y0202987D01*
X0242095Y0203012D01*
X0241971Y0203034D01*
X0241846Y0203051D01*
X0241721Y0203065D01*
X0241596Y0203075D01*
X0241471Y0203081D01*
X0241345Y0203083D01*
X0241345Y0210583D01*
X0311345Y0210583D01*
X0381345Y0244083D02*
X0381347Y0244224D01*
X0381353Y0244365D01*
X0381363Y0244505D01*
X0381377Y0244645D01*
X0381395Y0244785D01*
X0381416Y0244924D01*
X0381442Y0245063D01*
X0381471Y0245201D01*
X0381505Y0245337D01*
X0381542Y0245473D01*
X0381583Y0245608D01*
X0381628Y0245742D01*
X0381677Y0245874D01*
X0381729Y0246005D01*
X0381785Y0246134D01*
X0381845Y0246261D01*
X0381908Y0246387D01*
X0381974Y0246511D01*
X0382045Y0246634D01*
X0382118Y0246754D01*
X0382195Y0246872D01*
X0382275Y0246988D01*
X0382359Y0247101D01*
X0382445Y0247212D01*
X0382535Y0247321D01*
X0382628Y0247427D01*
X0382723Y0247530D01*
X0382822Y0247631D01*
X0382923Y0247729D01*
X0383027Y0247824D01*
X0383134Y0247916D01*
X0383243Y0248005D01*
X0383355Y0248090D01*
X0383469Y0248173D01*
X0383585Y0248253D01*
X0383704Y0248329D01*
X0383825Y0248401D01*
X0383947Y0248471D01*
X0384072Y0248536D01*
X0384198Y0248599D01*
X0384326Y0248657D01*
X0384456Y0248712D01*
X0384587Y0248764D01*
X0384720Y0248811D01*
X0384854Y0248855D01*
X0384989Y0248896D01*
X0385125Y0248932D01*
X0385262Y0248964D01*
X0385400Y0248993D01*
X0385538Y0249018D01*
X0385678Y0249038D01*
X0385818Y0249055D01*
X0385958Y0249068D01*
X0386099Y0249077D01*
X0386239Y0249082D01*
X0386380Y0249083D01*
X0386521Y0249080D01*
X0386662Y0249073D01*
X0386802Y0249062D01*
X0386942Y0249047D01*
X0387082Y0249028D01*
X0387221Y0249006D01*
X0387359Y0248979D01*
X0387497Y0248949D01*
X0387633Y0248914D01*
X0387769Y0248876D01*
X0387903Y0248834D01*
X0388037Y0248788D01*
X0388169Y0248739D01*
X0388299Y0248685D01*
X0388428Y0248628D01*
X0388555Y0248568D01*
X0388681Y0248504D01*
X0388804Y0248436D01*
X0388926Y0248365D01*
X0389046Y0248291D01*
X0389163Y0248213D01*
X0389278Y0248132D01*
X0389391Y0248048D01*
X0389502Y0247961D01*
X0389610Y0247870D01*
X0389715Y0247777D01*
X0389818Y0247680D01*
X0389918Y0247581D01*
X0390015Y0247479D01*
X0390109Y0247374D01*
X0390200Y0247267D01*
X0390288Y0247157D01*
X0390373Y0247045D01*
X0390455Y0246930D01*
X0390534Y0246813D01*
X0390609Y0246694D01*
X0390681Y0246573D01*
X0390749Y0246450D01*
X0390814Y0246325D01*
X0390876Y0246198D01*
X0390933Y0246069D01*
X0390988Y0245939D01*
X0391038Y0245808D01*
X0391085Y0245675D01*
X0391128Y0245541D01*
X0391167Y0245405D01*
X0391202Y0245269D01*
X0391234Y0245132D01*
X0391261Y0244994D01*
X0391285Y0244855D01*
X0391305Y0244715D01*
X0391321Y0244575D01*
X0391333Y0244435D01*
X0391341Y0244294D01*
X0391345Y0244153D01*
X0391345Y0244013D01*
X0391341Y0243872D01*
X0391333Y0243731D01*
X0391321Y0243591D01*
X0391305Y0243451D01*
X0391285Y0243311D01*
X0391261Y0243172D01*
X0391234Y0243034D01*
X0391202Y0242897D01*
X0391167Y0242761D01*
X0391128Y0242625D01*
X0391085Y0242491D01*
X0391038Y0242358D01*
X0390988Y0242227D01*
X0390933Y0242097D01*
X0390876Y0241968D01*
X0390814Y0241841D01*
X0390749Y0241716D01*
X0390681Y0241593D01*
X0390609Y0241472D01*
X0390534Y0241353D01*
X0390455Y0241236D01*
X0390373Y0241121D01*
X0390288Y0241009D01*
X0390200Y0240899D01*
X0390109Y0240792D01*
X0390015Y0240687D01*
X0389918Y0240585D01*
X0389818Y0240486D01*
X0389715Y0240389D01*
X0389610Y0240296D01*
X0389502Y0240205D01*
X0389391Y0240118D01*
X0389278Y0240034D01*
X0389163Y0239953D01*
X0389046Y0239875D01*
X0388926Y0239801D01*
X0388804Y0239730D01*
X0388681Y0239662D01*
X0388555Y0239598D01*
X0388428Y0239538D01*
X0388299Y0239481D01*
X0388169Y0239427D01*
X0388037Y0239378D01*
X0387903Y0239332D01*
X0387769Y0239290D01*
X0387633Y0239252D01*
X0387497Y0239217D01*
X0387359Y0239187D01*
X0387221Y0239160D01*
X0387082Y0239138D01*
X0386942Y0239119D01*
X0386802Y0239104D01*
X0386662Y0239093D01*
X0386521Y0239086D01*
X0386380Y0239083D01*
X0386239Y0239084D01*
X0386099Y0239089D01*
X0385958Y0239098D01*
X0385818Y0239111D01*
X0385678Y0239128D01*
X0385538Y0239148D01*
X0385400Y0239173D01*
X0385262Y0239202D01*
X0385125Y0239234D01*
X0384989Y0239270D01*
X0384854Y0239311D01*
X0384720Y0239355D01*
X0384587Y0239402D01*
X0384456Y0239454D01*
X0384326Y0239509D01*
X0384198Y0239567D01*
X0384072Y0239630D01*
X0383947Y0239695D01*
X0383825Y0239765D01*
X0383704Y0239837D01*
X0383585Y0239913D01*
X0383469Y0239993D01*
X0383355Y0240076D01*
X0383243Y0240161D01*
X0383134Y0240250D01*
X0383027Y0240342D01*
X0382923Y0240437D01*
X0382822Y0240535D01*
X0382723Y0240636D01*
X0382628Y0240739D01*
X0382535Y0240845D01*
X0382445Y0240954D01*
X0382359Y0241065D01*
X0382275Y0241178D01*
X0382195Y0241294D01*
X0382118Y0241412D01*
X0382045Y0241532D01*
X0381974Y0241655D01*
X0381908Y0241779D01*
X0381845Y0241905D01*
X0381785Y0242032D01*
X0381729Y0242161D01*
X0381677Y0242292D01*
X0381628Y0242424D01*
X0381583Y0242558D01*
X0381542Y0242693D01*
X0381505Y0242829D01*
X0381471Y0242965D01*
X0381442Y0243103D01*
X0381416Y0243242D01*
X0381395Y0243381D01*
X0381377Y0243521D01*
X0381363Y0243661D01*
X0381353Y0243801D01*
X0381347Y0243942D01*
X0381345Y0244083D01*
X0401345Y0244083D02*
X0401347Y0244224D01*
X0401353Y0244365D01*
X0401363Y0244505D01*
X0401377Y0244645D01*
X0401395Y0244785D01*
X0401416Y0244924D01*
X0401442Y0245063D01*
X0401471Y0245201D01*
X0401505Y0245337D01*
X0401542Y0245473D01*
X0401583Y0245608D01*
X0401628Y0245742D01*
X0401677Y0245874D01*
X0401729Y0246005D01*
X0401785Y0246134D01*
X0401845Y0246261D01*
X0401908Y0246387D01*
X0401974Y0246511D01*
X0402045Y0246634D01*
X0402118Y0246754D01*
X0402195Y0246872D01*
X0402275Y0246988D01*
X0402359Y0247101D01*
X0402445Y0247212D01*
X0402535Y0247321D01*
X0402628Y0247427D01*
X0402723Y0247530D01*
X0402822Y0247631D01*
X0402923Y0247729D01*
X0403027Y0247824D01*
X0403134Y0247916D01*
X0403243Y0248005D01*
X0403355Y0248090D01*
X0403469Y0248173D01*
X0403585Y0248253D01*
X0403704Y0248329D01*
X0403825Y0248401D01*
X0403947Y0248471D01*
X0404072Y0248536D01*
X0404198Y0248599D01*
X0404326Y0248657D01*
X0404456Y0248712D01*
X0404587Y0248764D01*
X0404720Y0248811D01*
X0404854Y0248855D01*
X0404989Y0248896D01*
X0405125Y0248932D01*
X0405262Y0248964D01*
X0405400Y0248993D01*
X0405538Y0249018D01*
X0405678Y0249038D01*
X0405818Y0249055D01*
X0405958Y0249068D01*
X0406099Y0249077D01*
X0406239Y0249082D01*
X0406380Y0249083D01*
X0406521Y0249080D01*
X0406662Y0249073D01*
X0406802Y0249062D01*
X0406942Y0249047D01*
X0407082Y0249028D01*
X0407221Y0249006D01*
X0407359Y0248979D01*
X0407497Y0248949D01*
X0407633Y0248914D01*
X0407769Y0248876D01*
X0407903Y0248834D01*
X0408037Y0248788D01*
X0408169Y0248739D01*
X0408299Y0248685D01*
X0408428Y0248628D01*
X0408555Y0248568D01*
X0408681Y0248504D01*
X0408804Y0248436D01*
X0408926Y0248365D01*
X0409046Y0248291D01*
X0409163Y0248213D01*
X0409278Y0248132D01*
X0409391Y0248048D01*
X0409502Y0247961D01*
X0409610Y0247870D01*
X0409715Y0247777D01*
X0409818Y0247680D01*
X0409918Y0247581D01*
X0410015Y0247479D01*
X0410109Y0247374D01*
X0410200Y0247267D01*
X0410288Y0247157D01*
X0410373Y0247045D01*
X0410455Y0246930D01*
X0410534Y0246813D01*
X0410609Y0246694D01*
X0410681Y0246573D01*
X0410749Y0246450D01*
X0410814Y0246325D01*
X0410876Y0246198D01*
X0410933Y0246069D01*
X0410988Y0245939D01*
X0411038Y0245808D01*
X0411085Y0245675D01*
X0411128Y0245541D01*
X0411167Y0245405D01*
X0411202Y0245269D01*
X0411234Y0245132D01*
X0411261Y0244994D01*
X0411285Y0244855D01*
X0411305Y0244715D01*
X0411321Y0244575D01*
X0411333Y0244435D01*
X0411341Y0244294D01*
X0411345Y0244153D01*
X0411345Y0244013D01*
X0411341Y0243872D01*
X0411333Y0243731D01*
X0411321Y0243591D01*
X0411305Y0243451D01*
X0411285Y0243311D01*
X0411261Y0243172D01*
X0411234Y0243034D01*
X0411202Y0242897D01*
X0411167Y0242761D01*
X0411128Y0242625D01*
X0411085Y0242491D01*
X0411038Y0242358D01*
X0410988Y0242227D01*
X0410933Y0242097D01*
X0410876Y0241968D01*
X0410814Y0241841D01*
X0410749Y0241716D01*
X0410681Y0241593D01*
X0410609Y0241472D01*
X0410534Y0241353D01*
X0410455Y0241236D01*
X0410373Y0241121D01*
X0410288Y0241009D01*
X0410200Y0240899D01*
X0410109Y0240792D01*
X0410015Y0240687D01*
X0409918Y0240585D01*
X0409818Y0240486D01*
X0409715Y0240389D01*
X0409610Y0240296D01*
X0409502Y0240205D01*
X0409391Y0240118D01*
X0409278Y0240034D01*
X0409163Y0239953D01*
X0409046Y0239875D01*
X0408926Y0239801D01*
X0408804Y0239730D01*
X0408681Y0239662D01*
X0408555Y0239598D01*
X0408428Y0239538D01*
X0408299Y0239481D01*
X0408169Y0239427D01*
X0408037Y0239378D01*
X0407903Y0239332D01*
X0407769Y0239290D01*
X0407633Y0239252D01*
X0407497Y0239217D01*
X0407359Y0239187D01*
X0407221Y0239160D01*
X0407082Y0239138D01*
X0406942Y0239119D01*
X0406802Y0239104D01*
X0406662Y0239093D01*
X0406521Y0239086D01*
X0406380Y0239083D01*
X0406239Y0239084D01*
X0406099Y0239089D01*
X0405958Y0239098D01*
X0405818Y0239111D01*
X0405678Y0239128D01*
X0405538Y0239148D01*
X0405400Y0239173D01*
X0405262Y0239202D01*
X0405125Y0239234D01*
X0404989Y0239270D01*
X0404854Y0239311D01*
X0404720Y0239355D01*
X0404587Y0239402D01*
X0404456Y0239454D01*
X0404326Y0239509D01*
X0404198Y0239567D01*
X0404072Y0239630D01*
X0403947Y0239695D01*
X0403825Y0239765D01*
X0403704Y0239837D01*
X0403585Y0239913D01*
X0403469Y0239993D01*
X0403355Y0240076D01*
X0403243Y0240161D01*
X0403134Y0240250D01*
X0403027Y0240342D01*
X0402923Y0240437D01*
X0402822Y0240535D01*
X0402723Y0240636D01*
X0402628Y0240739D01*
X0402535Y0240845D01*
X0402445Y0240954D01*
X0402359Y0241065D01*
X0402275Y0241178D01*
X0402195Y0241294D01*
X0402118Y0241412D01*
X0402045Y0241532D01*
X0401974Y0241655D01*
X0401908Y0241779D01*
X0401845Y0241905D01*
X0401785Y0242032D01*
X0401729Y0242161D01*
X0401677Y0242292D01*
X0401628Y0242424D01*
X0401583Y0242558D01*
X0401542Y0242693D01*
X0401505Y0242829D01*
X0401471Y0242965D01*
X0401442Y0243103D01*
X0401416Y0243242D01*
X0401395Y0243381D01*
X0401377Y0243521D01*
X0401363Y0243661D01*
X0401353Y0243801D01*
X0401347Y0243942D01*
X0401345Y0244083D01*
X0220720Y0226958D02*
X0220720Y0211208D01*
X0220718Y0211148D01*
X0220713Y0211087D01*
X0220704Y0211028D01*
X0220691Y0210969D01*
X0220675Y0210910D01*
X0220655Y0210853D01*
X0220632Y0210798D01*
X0220605Y0210743D01*
X0220576Y0210691D01*
X0220543Y0210640D01*
X0220507Y0210591D01*
X0220469Y0210545D01*
X0220427Y0210501D01*
X0220383Y0210459D01*
X0220337Y0210421D01*
X0220288Y0210385D01*
X0220237Y0210352D01*
X0220185Y0210323D01*
X0220130Y0210296D01*
X0220075Y0210273D01*
X0220018Y0210253D01*
X0219959Y0210237D01*
X0219900Y0210224D01*
X0219841Y0210215D01*
X0219780Y0210210D01*
X0219720Y0210208D01*
X0212970Y0210208D01*
X0212910Y0210210D01*
X0212849Y0210215D01*
X0212790Y0210224D01*
X0212731Y0210237D01*
X0212672Y0210253D01*
X0212615Y0210273D01*
X0212560Y0210296D01*
X0212505Y0210323D01*
X0212453Y0210352D01*
X0212402Y0210385D01*
X0212353Y0210421D01*
X0212307Y0210459D01*
X0212263Y0210501D01*
X0212221Y0210545D01*
X0212183Y0210591D01*
X0212147Y0210640D01*
X0212114Y0210691D01*
X0212085Y0210743D01*
X0212058Y0210798D01*
X0212035Y0210853D01*
X0212015Y0210910D01*
X0211999Y0210969D01*
X0211986Y0211028D01*
X0211977Y0211087D01*
X0211972Y0211148D01*
X0211970Y0211208D01*
X0211970Y0226958D01*
X0211972Y0227018D01*
X0211977Y0227079D01*
X0211986Y0227138D01*
X0211999Y0227197D01*
X0212015Y0227256D01*
X0212035Y0227313D01*
X0212058Y0227368D01*
X0212085Y0227423D01*
X0212114Y0227475D01*
X0212147Y0227526D01*
X0212183Y0227575D01*
X0212221Y0227621D01*
X0212263Y0227665D01*
X0212307Y0227707D01*
X0212353Y0227745D01*
X0212402Y0227781D01*
X0212453Y0227814D01*
X0212505Y0227843D01*
X0212560Y0227870D01*
X0212615Y0227893D01*
X0212672Y0227913D01*
X0212731Y0227929D01*
X0212790Y0227942D01*
X0212849Y0227951D01*
X0212910Y0227956D01*
X0212970Y0227958D01*
X0219720Y0227958D01*
X0219780Y0227956D01*
X0219841Y0227951D01*
X0219900Y0227942D01*
X0219959Y0227929D01*
X0220018Y0227913D01*
X0220075Y0227893D01*
X0220130Y0227870D01*
X0220185Y0227843D01*
X0220237Y0227814D01*
X0220288Y0227781D01*
X0220337Y0227745D01*
X0220383Y0227707D01*
X0220427Y0227665D01*
X0220469Y0227621D01*
X0220507Y0227575D01*
X0220543Y0227526D01*
X0220576Y0227475D01*
X0220605Y0227423D01*
X0220632Y0227368D01*
X0220655Y0227313D01*
X0220675Y0227256D01*
X0220691Y0227197D01*
X0220704Y0227138D01*
X0220713Y0227079D01*
X0220718Y0227018D01*
X0220720Y0226958D01*
X0216345Y0220583D02*
X0216345Y0220083D01*
X0216345Y0218083D02*
X0216345Y0217583D01*
X0152845Y0209083D02*
X0129845Y0209083D01*
X0129845Y0139083D01*
X0137345Y0139083D01*
X0133470Y0138458D02*
X0149220Y0138458D01*
X0149280Y0138456D01*
X0149341Y0138451D01*
X0149400Y0138442D01*
X0149459Y0138429D01*
X0149518Y0138413D01*
X0149575Y0138393D01*
X0149630Y0138370D01*
X0149685Y0138343D01*
X0149737Y0138314D01*
X0149788Y0138281D01*
X0149837Y0138245D01*
X0149883Y0138207D01*
X0149927Y0138165D01*
X0149969Y0138121D01*
X0150007Y0138075D01*
X0150043Y0138026D01*
X0150076Y0137975D01*
X0150105Y0137923D01*
X0150132Y0137868D01*
X0150155Y0137813D01*
X0150175Y0137756D01*
X0150191Y0137697D01*
X0150204Y0137638D01*
X0150213Y0137579D01*
X0150218Y0137518D01*
X0150220Y0137458D01*
X0150220Y0130708D01*
X0150218Y0130648D01*
X0150213Y0130587D01*
X0150204Y0130528D01*
X0150191Y0130469D01*
X0150175Y0130410D01*
X0150155Y0130353D01*
X0150132Y0130298D01*
X0150105Y0130243D01*
X0150076Y0130191D01*
X0150043Y0130140D01*
X0150007Y0130091D01*
X0149969Y0130045D01*
X0149927Y0130001D01*
X0149883Y0129959D01*
X0149837Y0129921D01*
X0149788Y0129885D01*
X0149737Y0129852D01*
X0149685Y0129823D01*
X0149630Y0129796D01*
X0149575Y0129773D01*
X0149518Y0129753D01*
X0149459Y0129737D01*
X0149400Y0129724D01*
X0149341Y0129715D01*
X0149280Y0129710D01*
X0149220Y0129708D01*
X0133470Y0129708D01*
X0133410Y0129710D01*
X0133349Y0129715D01*
X0133290Y0129724D01*
X0133231Y0129737D01*
X0133172Y0129753D01*
X0133115Y0129773D01*
X0133060Y0129796D01*
X0133005Y0129823D01*
X0132953Y0129852D01*
X0132902Y0129885D01*
X0132853Y0129921D01*
X0132807Y0129959D01*
X0132763Y0130001D01*
X0132721Y0130045D01*
X0132683Y0130091D01*
X0132647Y0130140D01*
X0132614Y0130191D01*
X0132585Y0130243D01*
X0132558Y0130298D01*
X0132535Y0130353D01*
X0132515Y0130410D01*
X0132499Y0130469D01*
X0132486Y0130528D01*
X0132477Y0130587D01*
X0132472Y0130648D01*
X0132470Y0130708D01*
X0132470Y0137458D01*
X0132472Y0137518D01*
X0132477Y0137579D01*
X0132486Y0137638D01*
X0132499Y0137697D01*
X0132515Y0137756D01*
X0132535Y0137813D01*
X0132558Y0137868D01*
X0132585Y0137923D01*
X0132614Y0137975D01*
X0132647Y0138026D01*
X0132683Y0138075D01*
X0132721Y0138121D01*
X0132763Y0138165D01*
X0132807Y0138207D01*
X0132853Y0138245D01*
X0132902Y0138281D01*
X0132953Y0138314D01*
X0133005Y0138343D01*
X0133060Y0138370D01*
X0133115Y0138393D01*
X0133172Y0138413D01*
X0133231Y0138429D01*
X0133290Y0138442D01*
X0133349Y0138451D01*
X0133410Y0138456D01*
X0133470Y0138458D01*
X0139845Y0134083D02*
X0140345Y0134083D01*
X0142345Y0134083D02*
X0142845Y0134083D01*
X0145345Y0139083D02*
X0145343Y0139209D01*
X0145337Y0139334D01*
X0145327Y0139459D01*
X0145313Y0139584D01*
X0145296Y0139709D01*
X0145274Y0139833D01*
X0145249Y0139956D01*
X0145219Y0140078D01*
X0145186Y0140199D01*
X0145149Y0140319D01*
X0145109Y0140438D01*
X0145064Y0140555D01*
X0145016Y0140672D01*
X0144964Y0140786D01*
X0144909Y0140899D01*
X0144850Y0141010D01*
X0144788Y0141119D01*
X0144722Y0141226D01*
X0144653Y0141331D01*
X0144581Y0141434D01*
X0144506Y0141535D01*
X0144427Y0141633D01*
X0144345Y0141728D01*
X0144261Y0141821D01*
X0144173Y0141911D01*
X0144083Y0141999D01*
X0143990Y0142083D01*
X0143895Y0142165D01*
X0143797Y0142244D01*
X0143696Y0142319D01*
X0143593Y0142391D01*
X0143488Y0142460D01*
X0143381Y0142526D01*
X0143272Y0142588D01*
X0143161Y0142647D01*
X0143048Y0142702D01*
X0142934Y0142754D01*
X0142817Y0142802D01*
X0142700Y0142847D01*
X0142581Y0142887D01*
X0142461Y0142924D01*
X0142340Y0142957D01*
X0142218Y0142987D01*
X0142095Y0143012D01*
X0141971Y0143034D01*
X0141846Y0143051D01*
X0141721Y0143065D01*
X0141596Y0143075D01*
X0141471Y0143081D01*
X0141345Y0143083D01*
X0141219Y0143081D01*
X0141094Y0143075D01*
X0140969Y0143065D01*
X0140844Y0143051D01*
X0140719Y0143034D01*
X0140595Y0143012D01*
X0140472Y0142987D01*
X0140350Y0142957D01*
X0140229Y0142924D01*
X0140109Y0142887D01*
X0139990Y0142847D01*
X0139873Y0142802D01*
X0139756Y0142754D01*
X0139642Y0142702D01*
X0139529Y0142647D01*
X0139418Y0142588D01*
X0139309Y0142526D01*
X0139202Y0142460D01*
X0139097Y0142391D01*
X0138994Y0142319D01*
X0138893Y0142244D01*
X0138795Y0142165D01*
X0138700Y0142083D01*
X0138607Y0141999D01*
X0138517Y0141911D01*
X0138429Y0141821D01*
X0138345Y0141728D01*
X0138263Y0141633D01*
X0138184Y0141535D01*
X0138109Y0141434D01*
X0138037Y0141331D01*
X0137968Y0141226D01*
X0137902Y0141119D01*
X0137840Y0141010D01*
X0137781Y0140899D01*
X0137726Y0140786D01*
X0137674Y0140672D01*
X0137626Y0140555D01*
X0137581Y0140438D01*
X0137541Y0140319D01*
X0137504Y0140199D01*
X0137471Y0140078D01*
X0137441Y0139956D01*
X0137416Y0139833D01*
X0137394Y0139709D01*
X0137377Y0139584D01*
X0137363Y0139459D01*
X0137353Y0139334D01*
X0137347Y0139209D01*
X0137345Y0139083D01*
X0145345Y0139083D02*
X0152845Y0139083D01*
X0152845Y0209083D01*
X0112845Y0219083D02*
X0089845Y0219083D01*
X0089845Y0139083D01*
X0097345Y0139083D01*
X0093470Y0138458D02*
X0109220Y0138458D01*
X0109280Y0138456D01*
X0109341Y0138451D01*
X0109400Y0138442D01*
X0109459Y0138429D01*
X0109518Y0138413D01*
X0109575Y0138393D01*
X0109630Y0138370D01*
X0109685Y0138343D01*
X0109737Y0138314D01*
X0109788Y0138281D01*
X0109837Y0138245D01*
X0109883Y0138207D01*
X0109927Y0138165D01*
X0109969Y0138121D01*
X0110007Y0138075D01*
X0110043Y0138026D01*
X0110076Y0137975D01*
X0110105Y0137923D01*
X0110132Y0137868D01*
X0110155Y0137813D01*
X0110175Y0137756D01*
X0110191Y0137697D01*
X0110204Y0137638D01*
X0110213Y0137579D01*
X0110218Y0137518D01*
X0110220Y0137458D01*
X0110220Y0130708D01*
X0110218Y0130648D01*
X0110213Y0130587D01*
X0110204Y0130528D01*
X0110191Y0130469D01*
X0110175Y0130410D01*
X0110155Y0130353D01*
X0110132Y0130298D01*
X0110105Y0130243D01*
X0110076Y0130191D01*
X0110043Y0130140D01*
X0110007Y0130091D01*
X0109969Y0130045D01*
X0109927Y0130001D01*
X0109883Y0129959D01*
X0109837Y0129921D01*
X0109788Y0129885D01*
X0109737Y0129852D01*
X0109685Y0129823D01*
X0109630Y0129796D01*
X0109575Y0129773D01*
X0109518Y0129753D01*
X0109459Y0129737D01*
X0109400Y0129724D01*
X0109341Y0129715D01*
X0109280Y0129710D01*
X0109220Y0129708D01*
X0093470Y0129708D01*
X0093410Y0129710D01*
X0093349Y0129715D01*
X0093290Y0129724D01*
X0093231Y0129737D01*
X0093172Y0129753D01*
X0093115Y0129773D01*
X0093060Y0129796D01*
X0093005Y0129823D01*
X0092953Y0129852D01*
X0092902Y0129885D01*
X0092853Y0129921D01*
X0092807Y0129959D01*
X0092763Y0130001D01*
X0092721Y0130045D01*
X0092683Y0130091D01*
X0092647Y0130140D01*
X0092614Y0130191D01*
X0092585Y0130243D01*
X0092558Y0130298D01*
X0092535Y0130353D01*
X0092515Y0130410D01*
X0092499Y0130469D01*
X0092486Y0130528D01*
X0092477Y0130587D01*
X0092472Y0130648D01*
X0092470Y0130708D01*
X0092470Y0137458D01*
X0092472Y0137518D01*
X0092477Y0137579D01*
X0092486Y0137638D01*
X0092499Y0137697D01*
X0092515Y0137756D01*
X0092535Y0137813D01*
X0092558Y0137868D01*
X0092585Y0137923D01*
X0092614Y0137975D01*
X0092647Y0138026D01*
X0092683Y0138075D01*
X0092721Y0138121D01*
X0092763Y0138165D01*
X0092807Y0138207D01*
X0092853Y0138245D01*
X0092902Y0138281D01*
X0092953Y0138314D01*
X0093005Y0138343D01*
X0093060Y0138370D01*
X0093115Y0138393D01*
X0093172Y0138413D01*
X0093231Y0138429D01*
X0093290Y0138442D01*
X0093349Y0138451D01*
X0093410Y0138456D01*
X0093470Y0138458D01*
X0099845Y0134083D02*
X0100345Y0134083D01*
X0102345Y0134083D02*
X0102845Y0134083D01*
X0105345Y0139083D02*
X0105343Y0139209D01*
X0105337Y0139334D01*
X0105327Y0139459D01*
X0105313Y0139584D01*
X0105296Y0139709D01*
X0105274Y0139833D01*
X0105249Y0139956D01*
X0105219Y0140078D01*
X0105186Y0140199D01*
X0105149Y0140319D01*
X0105109Y0140438D01*
X0105064Y0140555D01*
X0105016Y0140672D01*
X0104964Y0140786D01*
X0104909Y0140899D01*
X0104850Y0141010D01*
X0104788Y0141119D01*
X0104722Y0141226D01*
X0104653Y0141331D01*
X0104581Y0141434D01*
X0104506Y0141535D01*
X0104427Y0141633D01*
X0104345Y0141728D01*
X0104261Y0141821D01*
X0104173Y0141911D01*
X0104083Y0141999D01*
X0103990Y0142083D01*
X0103895Y0142165D01*
X0103797Y0142244D01*
X0103696Y0142319D01*
X0103593Y0142391D01*
X0103488Y0142460D01*
X0103381Y0142526D01*
X0103272Y0142588D01*
X0103161Y0142647D01*
X0103048Y0142702D01*
X0102934Y0142754D01*
X0102817Y0142802D01*
X0102700Y0142847D01*
X0102581Y0142887D01*
X0102461Y0142924D01*
X0102340Y0142957D01*
X0102218Y0142987D01*
X0102095Y0143012D01*
X0101971Y0143034D01*
X0101846Y0143051D01*
X0101721Y0143065D01*
X0101596Y0143075D01*
X0101471Y0143081D01*
X0101345Y0143083D01*
X0101219Y0143081D01*
X0101094Y0143075D01*
X0100969Y0143065D01*
X0100844Y0143051D01*
X0100719Y0143034D01*
X0100595Y0143012D01*
X0100472Y0142987D01*
X0100350Y0142957D01*
X0100229Y0142924D01*
X0100109Y0142887D01*
X0099990Y0142847D01*
X0099873Y0142802D01*
X0099756Y0142754D01*
X0099642Y0142702D01*
X0099529Y0142647D01*
X0099418Y0142588D01*
X0099309Y0142526D01*
X0099202Y0142460D01*
X0099097Y0142391D01*
X0098994Y0142319D01*
X0098893Y0142244D01*
X0098795Y0142165D01*
X0098700Y0142083D01*
X0098607Y0141999D01*
X0098517Y0141911D01*
X0098429Y0141821D01*
X0098345Y0141728D01*
X0098263Y0141633D01*
X0098184Y0141535D01*
X0098109Y0141434D01*
X0098037Y0141331D01*
X0097968Y0141226D01*
X0097902Y0141119D01*
X0097840Y0141010D01*
X0097781Y0140899D01*
X0097726Y0140786D01*
X0097674Y0140672D01*
X0097626Y0140555D01*
X0097581Y0140438D01*
X0097541Y0140319D01*
X0097504Y0140199D01*
X0097471Y0140078D01*
X0097441Y0139956D01*
X0097416Y0139833D01*
X0097394Y0139709D01*
X0097377Y0139584D01*
X0097363Y0139459D01*
X0097353Y0139334D01*
X0097347Y0139209D01*
X0097345Y0139083D01*
X0105345Y0139083D02*
X0112845Y0139083D01*
X0112845Y0219083D01*
X0101595Y0228333D02*
X0100095Y0228333D01*
X0099595Y0228833D01*
X0080595Y0228833D01*
X0080095Y0228333D01*
X0078595Y0228333D01*
X0078535Y0228335D01*
X0078474Y0228340D01*
X0078415Y0228349D01*
X0078356Y0228362D01*
X0078297Y0228378D01*
X0078240Y0228398D01*
X0078185Y0228421D01*
X0078130Y0228448D01*
X0078078Y0228477D01*
X0078027Y0228510D01*
X0077978Y0228546D01*
X0077932Y0228584D01*
X0077888Y0228626D01*
X0077846Y0228670D01*
X0077808Y0228716D01*
X0077772Y0228765D01*
X0077739Y0228816D01*
X0077710Y0228868D01*
X0077683Y0228923D01*
X0077660Y0228978D01*
X0077640Y0229035D01*
X0077624Y0229094D01*
X0077611Y0229153D01*
X0077602Y0229212D01*
X0077597Y0229273D01*
X0077595Y0229333D01*
X0077595Y0236333D02*
X0077597Y0236393D01*
X0077602Y0236454D01*
X0077611Y0236513D01*
X0077624Y0236572D01*
X0077640Y0236631D01*
X0077660Y0236688D01*
X0077683Y0236743D01*
X0077710Y0236798D01*
X0077739Y0236850D01*
X0077772Y0236901D01*
X0077808Y0236950D01*
X0077846Y0236996D01*
X0077888Y0237040D01*
X0077932Y0237082D01*
X0077978Y0237120D01*
X0078027Y0237156D01*
X0078078Y0237189D01*
X0078130Y0237218D01*
X0078185Y0237245D01*
X0078240Y0237268D01*
X0078297Y0237288D01*
X0078356Y0237304D01*
X0078415Y0237317D01*
X0078474Y0237326D01*
X0078535Y0237331D01*
X0078595Y0237333D01*
X0080095Y0237333D01*
X0080595Y0236833D01*
X0099595Y0236833D01*
X0100095Y0237333D01*
X0101595Y0237333D01*
X0101655Y0237331D01*
X0101716Y0237326D01*
X0101775Y0237317D01*
X0101834Y0237304D01*
X0101893Y0237288D01*
X0101950Y0237268D01*
X0102005Y0237245D01*
X0102060Y0237218D01*
X0102112Y0237189D01*
X0102163Y0237156D01*
X0102212Y0237120D01*
X0102258Y0237082D01*
X0102302Y0237040D01*
X0102344Y0236996D01*
X0102382Y0236950D01*
X0102418Y0236901D01*
X0102451Y0236850D01*
X0102480Y0236798D01*
X0102507Y0236743D01*
X0102530Y0236688D01*
X0102550Y0236631D01*
X0102566Y0236572D01*
X0102579Y0236513D01*
X0102588Y0236454D01*
X0102593Y0236393D01*
X0102595Y0236333D01*
X0102595Y0229333D02*
X0102593Y0229273D01*
X0102588Y0229212D01*
X0102579Y0229153D01*
X0102566Y0229094D01*
X0102550Y0229035D01*
X0102530Y0228978D01*
X0102507Y0228923D01*
X0102480Y0228868D01*
X0102451Y0228816D01*
X0102418Y0228765D01*
X0102382Y0228716D01*
X0102344Y0228670D01*
X0102302Y0228626D01*
X0102258Y0228584D01*
X0102212Y0228546D01*
X0102163Y0228510D01*
X0102112Y0228477D01*
X0102060Y0228448D01*
X0102005Y0228421D01*
X0101950Y0228398D01*
X0101893Y0228378D01*
X0101834Y0228362D01*
X0101775Y0228349D01*
X0101716Y0228340D01*
X0101655Y0228335D01*
X0101595Y0228333D01*
X0072845Y0219083D02*
X0065345Y0219083D01*
X0065343Y0218957D01*
X0065337Y0218832D01*
X0065327Y0218707D01*
X0065313Y0218582D01*
X0065296Y0218457D01*
X0065274Y0218333D01*
X0065249Y0218210D01*
X0065219Y0218088D01*
X0065186Y0217967D01*
X0065149Y0217847D01*
X0065109Y0217728D01*
X0065064Y0217611D01*
X0065016Y0217494D01*
X0064964Y0217380D01*
X0064909Y0217267D01*
X0064850Y0217156D01*
X0064788Y0217047D01*
X0064722Y0216940D01*
X0064653Y0216835D01*
X0064581Y0216732D01*
X0064506Y0216631D01*
X0064427Y0216533D01*
X0064345Y0216438D01*
X0064261Y0216345D01*
X0064173Y0216255D01*
X0064083Y0216167D01*
X0063990Y0216083D01*
X0063895Y0216001D01*
X0063797Y0215922D01*
X0063696Y0215847D01*
X0063593Y0215775D01*
X0063488Y0215706D01*
X0063381Y0215640D01*
X0063272Y0215578D01*
X0063161Y0215519D01*
X0063048Y0215464D01*
X0062934Y0215412D01*
X0062817Y0215364D01*
X0062700Y0215319D01*
X0062581Y0215279D01*
X0062461Y0215242D01*
X0062340Y0215209D01*
X0062218Y0215179D01*
X0062095Y0215154D01*
X0061971Y0215132D01*
X0061846Y0215115D01*
X0061721Y0215101D01*
X0061596Y0215091D01*
X0061471Y0215085D01*
X0061345Y0215083D01*
X0061219Y0215085D01*
X0061094Y0215091D01*
X0060969Y0215101D01*
X0060844Y0215115D01*
X0060719Y0215132D01*
X0060595Y0215154D01*
X0060472Y0215179D01*
X0060350Y0215209D01*
X0060229Y0215242D01*
X0060109Y0215279D01*
X0059990Y0215319D01*
X0059873Y0215364D01*
X0059756Y0215412D01*
X0059642Y0215464D01*
X0059529Y0215519D01*
X0059418Y0215578D01*
X0059309Y0215640D01*
X0059202Y0215706D01*
X0059097Y0215775D01*
X0058994Y0215847D01*
X0058893Y0215922D01*
X0058795Y0216001D01*
X0058700Y0216083D01*
X0058607Y0216167D01*
X0058517Y0216255D01*
X0058429Y0216345D01*
X0058345Y0216438D01*
X0058263Y0216533D01*
X0058184Y0216631D01*
X0058109Y0216732D01*
X0058037Y0216835D01*
X0057968Y0216940D01*
X0057902Y0217047D01*
X0057840Y0217156D01*
X0057781Y0217267D01*
X0057726Y0217380D01*
X0057674Y0217494D01*
X0057626Y0217611D01*
X0057581Y0217728D01*
X0057541Y0217847D01*
X0057504Y0217967D01*
X0057471Y0218088D01*
X0057441Y0218210D01*
X0057416Y0218333D01*
X0057394Y0218457D01*
X0057377Y0218582D01*
X0057363Y0218707D01*
X0057353Y0218832D01*
X0057347Y0218957D01*
X0057345Y0219083D01*
X0049845Y0219083D01*
X0049845Y0139083D01*
X0072845Y0139083D01*
X0072845Y0219083D01*
X0066845Y0225583D02*
X0064845Y0225583D01*
X0065845Y0226583D02*
X0065845Y0224583D01*
X0065736Y0222396D02*
X0065898Y0222505D01*
X0066058Y0222618D01*
X0066214Y0222735D01*
X0066368Y0222856D01*
X0066518Y0222981D01*
X0066666Y0223109D01*
X0066810Y0223241D01*
X0066952Y0223376D01*
X0067089Y0223515D01*
X0067224Y0223657D01*
X0067354Y0223802D01*
X0067482Y0223951D01*
X0067605Y0224102D01*
X0067725Y0224257D01*
X0067841Y0224414D01*
X0067953Y0224574D01*
X0068062Y0224737D01*
X0068166Y0224902D01*
X0068266Y0225070D01*
X0068362Y0225241D01*
X0068454Y0225413D01*
X0068541Y0225588D01*
X0068624Y0225765D01*
X0068703Y0225944D01*
X0068778Y0226125D01*
X0068848Y0226307D01*
X0068914Y0226491D01*
X0068975Y0226677D01*
X0069031Y0226864D01*
X0069083Y0227053D01*
X0069130Y0227242D01*
X0069173Y0227433D01*
X0069211Y0227625D01*
X0069244Y0227818D01*
X0069273Y0228011D01*
X0069297Y0228205D01*
X0069316Y0228400D01*
X0069330Y0228595D01*
X0069340Y0228790D01*
X0069344Y0228985D01*
X0069344Y0229181D01*
X0069340Y0229376D01*
X0069330Y0229571D01*
X0069316Y0229766D01*
X0069297Y0229961D01*
X0069273Y0230155D01*
X0069244Y0230348D01*
X0069211Y0230541D01*
X0069173Y0230733D01*
X0069130Y0230924D01*
X0069083Y0231113D01*
X0069031Y0231302D01*
X0068975Y0231489D01*
X0068914Y0231675D01*
X0068848Y0231859D01*
X0068778Y0232041D01*
X0068703Y0232222D01*
X0068624Y0232401D01*
X0068541Y0232578D01*
X0068454Y0232753D01*
X0068362Y0232925D01*
X0068266Y0233096D01*
X0068166Y0233264D01*
X0068062Y0233429D01*
X0067953Y0233592D01*
X0067841Y0233752D01*
X0067725Y0233909D01*
X0067605Y0234064D01*
X0067482Y0234215D01*
X0067354Y0234364D01*
X0067224Y0234509D01*
X0067089Y0234651D01*
X0066952Y0234790D01*
X0066810Y0234925D01*
X0066666Y0235057D01*
X0066518Y0235185D01*
X0066368Y0235310D01*
X0066214Y0235431D01*
X0066058Y0235548D01*
X0065898Y0235661D01*
X0065736Y0235770D01*
X0056954Y0235770D02*
X0056792Y0235661D01*
X0056632Y0235548D01*
X0056476Y0235431D01*
X0056322Y0235310D01*
X0056172Y0235185D01*
X0056024Y0235057D01*
X0055880Y0234925D01*
X0055738Y0234790D01*
X0055601Y0234651D01*
X0055466Y0234509D01*
X0055336Y0234364D01*
X0055208Y0234215D01*
X0055085Y0234064D01*
X0054965Y0233909D01*
X0054849Y0233752D01*
X0054737Y0233592D01*
X0054628Y0233429D01*
X0054524Y0233264D01*
X0054424Y0233096D01*
X0054328Y0232925D01*
X0054236Y0232753D01*
X0054149Y0232578D01*
X0054066Y0232401D01*
X0053987Y0232222D01*
X0053912Y0232041D01*
X0053842Y0231859D01*
X0053776Y0231675D01*
X0053715Y0231489D01*
X0053659Y0231302D01*
X0053607Y0231113D01*
X0053560Y0230924D01*
X0053517Y0230733D01*
X0053479Y0230541D01*
X0053446Y0230348D01*
X0053417Y0230155D01*
X0053393Y0229961D01*
X0053374Y0229766D01*
X0053360Y0229571D01*
X0053350Y0229376D01*
X0053346Y0229181D01*
X0053346Y0228985D01*
X0053350Y0228790D01*
X0053360Y0228595D01*
X0053374Y0228400D01*
X0053393Y0228205D01*
X0053417Y0228011D01*
X0053446Y0227818D01*
X0053479Y0227625D01*
X0053517Y0227433D01*
X0053560Y0227242D01*
X0053607Y0227053D01*
X0053659Y0226864D01*
X0053715Y0226677D01*
X0053776Y0226491D01*
X0053842Y0226307D01*
X0053912Y0226125D01*
X0053987Y0225944D01*
X0054066Y0225765D01*
X0054149Y0225588D01*
X0054236Y0225413D01*
X0054328Y0225241D01*
X0054424Y0225070D01*
X0054524Y0224902D01*
X0054628Y0224737D01*
X0054737Y0224574D01*
X0054849Y0224414D01*
X0054965Y0224257D01*
X0055085Y0224102D01*
X0055208Y0223951D01*
X0055336Y0223802D01*
X0055466Y0223657D01*
X0055601Y0223515D01*
X0055738Y0223376D01*
X0055880Y0223241D01*
X0056024Y0223109D01*
X0056172Y0222981D01*
X0056322Y0222856D01*
X0056476Y0222735D01*
X0056632Y0222618D01*
X0056792Y0222505D01*
X0056954Y0222396D01*
X0041345Y0231583D02*
X0041347Y0231724D01*
X0041353Y0231865D01*
X0041363Y0232005D01*
X0041377Y0232145D01*
X0041395Y0232285D01*
X0041416Y0232424D01*
X0041442Y0232563D01*
X0041471Y0232701D01*
X0041505Y0232837D01*
X0041542Y0232973D01*
X0041583Y0233108D01*
X0041628Y0233242D01*
X0041677Y0233374D01*
X0041729Y0233505D01*
X0041785Y0233634D01*
X0041845Y0233761D01*
X0041908Y0233887D01*
X0041974Y0234011D01*
X0042045Y0234134D01*
X0042118Y0234254D01*
X0042195Y0234372D01*
X0042275Y0234488D01*
X0042359Y0234601D01*
X0042445Y0234712D01*
X0042535Y0234821D01*
X0042628Y0234927D01*
X0042723Y0235030D01*
X0042822Y0235131D01*
X0042923Y0235229D01*
X0043027Y0235324D01*
X0043134Y0235416D01*
X0043243Y0235505D01*
X0043355Y0235590D01*
X0043469Y0235673D01*
X0043585Y0235753D01*
X0043704Y0235829D01*
X0043825Y0235901D01*
X0043947Y0235971D01*
X0044072Y0236036D01*
X0044198Y0236099D01*
X0044326Y0236157D01*
X0044456Y0236212D01*
X0044587Y0236264D01*
X0044720Y0236311D01*
X0044854Y0236355D01*
X0044989Y0236396D01*
X0045125Y0236432D01*
X0045262Y0236464D01*
X0045400Y0236493D01*
X0045538Y0236518D01*
X0045678Y0236538D01*
X0045818Y0236555D01*
X0045958Y0236568D01*
X0046099Y0236577D01*
X0046239Y0236582D01*
X0046380Y0236583D01*
X0046521Y0236580D01*
X0046662Y0236573D01*
X0046802Y0236562D01*
X0046942Y0236547D01*
X0047082Y0236528D01*
X0047221Y0236506D01*
X0047359Y0236479D01*
X0047497Y0236449D01*
X0047633Y0236414D01*
X0047769Y0236376D01*
X0047903Y0236334D01*
X0048037Y0236288D01*
X0048169Y0236239D01*
X0048299Y0236185D01*
X0048428Y0236128D01*
X0048555Y0236068D01*
X0048681Y0236004D01*
X0048804Y0235936D01*
X0048926Y0235865D01*
X0049046Y0235791D01*
X0049163Y0235713D01*
X0049278Y0235632D01*
X0049391Y0235548D01*
X0049502Y0235461D01*
X0049610Y0235370D01*
X0049715Y0235277D01*
X0049818Y0235180D01*
X0049918Y0235081D01*
X0050015Y0234979D01*
X0050109Y0234874D01*
X0050200Y0234767D01*
X0050288Y0234657D01*
X0050373Y0234545D01*
X0050455Y0234430D01*
X0050534Y0234313D01*
X0050609Y0234194D01*
X0050681Y0234073D01*
X0050749Y0233950D01*
X0050814Y0233825D01*
X0050876Y0233698D01*
X0050933Y0233569D01*
X0050988Y0233439D01*
X0051038Y0233308D01*
X0051085Y0233175D01*
X0051128Y0233041D01*
X0051167Y0232905D01*
X0051202Y0232769D01*
X0051234Y0232632D01*
X0051261Y0232494D01*
X0051285Y0232355D01*
X0051305Y0232215D01*
X0051321Y0232075D01*
X0051333Y0231935D01*
X0051341Y0231794D01*
X0051345Y0231653D01*
X0051345Y0231513D01*
X0051341Y0231372D01*
X0051333Y0231231D01*
X0051321Y0231091D01*
X0051305Y0230951D01*
X0051285Y0230811D01*
X0051261Y0230672D01*
X0051234Y0230534D01*
X0051202Y0230397D01*
X0051167Y0230261D01*
X0051128Y0230125D01*
X0051085Y0229991D01*
X0051038Y0229858D01*
X0050988Y0229727D01*
X0050933Y0229597D01*
X0050876Y0229468D01*
X0050814Y0229341D01*
X0050749Y0229216D01*
X0050681Y0229093D01*
X0050609Y0228972D01*
X0050534Y0228853D01*
X0050455Y0228736D01*
X0050373Y0228621D01*
X0050288Y0228509D01*
X0050200Y0228399D01*
X0050109Y0228292D01*
X0050015Y0228187D01*
X0049918Y0228085D01*
X0049818Y0227986D01*
X0049715Y0227889D01*
X0049610Y0227796D01*
X0049502Y0227705D01*
X0049391Y0227618D01*
X0049278Y0227534D01*
X0049163Y0227453D01*
X0049046Y0227375D01*
X0048926Y0227301D01*
X0048804Y0227230D01*
X0048681Y0227162D01*
X0048555Y0227098D01*
X0048428Y0227038D01*
X0048299Y0226981D01*
X0048169Y0226927D01*
X0048037Y0226878D01*
X0047903Y0226832D01*
X0047769Y0226790D01*
X0047633Y0226752D01*
X0047497Y0226717D01*
X0047359Y0226687D01*
X0047221Y0226660D01*
X0047082Y0226638D01*
X0046942Y0226619D01*
X0046802Y0226604D01*
X0046662Y0226593D01*
X0046521Y0226586D01*
X0046380Y0226583D01*
X0046239Y0226584D01*
X0046099Y0226589D01*
X0045958Y0226598D01*
X0045818Y0226611D01*
X0045678Y0226628D01*
X0045538Y0226648D01*
X0045400Y0226673D01*
X0045262Y0226702D01*
X0045125Y0226734D01*
X0044989Y0226770D01*
X0044854Y0226811D01*
X0044720Y0226855D01*
X0044587Y0226902D01*
X0044456Y0226954D01*
X0044326Y0227009D01*
X0044198Y0227067D01*
X0044072Y0227130D01*
X0043947Y0227195D01*
X0043825Y0227265D01*
X0043704Y0227337D01*
X0043585Y0227413D01*
X0043469Y0227493D01*
X0043355Y0227576D01*
X0043243Y0227661D01*
X0043134Y0227750D01*
X0043027Y0227842D01*
X0042923Y0227937D01*
X0042822Y0228035D01*
X0042723Y0228136D01*
X0042628Y0228239D01*
X0042535Y0228345D01*
X0042445Y0228454D01*
X0042359Y0228565D01*
X0042275Y0228678D01*
X0042195Y0228794D01*
X0042118Y0228912D01*
X0042045Y0229032D01*
X0041974Y0229155D01*
X0041908Y0229279D01*
X0041845Y0229405D01*
X0041785Y0229532D01*
X0041729Y0229661D01*
X0041677Y0229792D01*
X0041628Y0229924D01*
X0041583Y0230058D01*
X0041542Y0230193D01*
X0041505Y0230329D01*
X0041471Y0230465D01*
X0041442Y0230603D01*
X0041416Y0230742D01*
X0041395Y0230881D01*
X0041377Y0231021D01*
X0041363Y0231161D01*
X0041353Y0231301D01*
X0041347Y0231442D01*
X0041345Y0231583D01*
X0021345Y0229083D02*
X0021347Y0229224D01*
X0021353Y0229365D01*
X0021363Y0229505D01*
X0021377Y0229645D01*
X0021395Y0229785D01*
X0021416Y0229924D01*
X0021442Y0230063D01*
X0021471Y0230201D01*
X0021505Y0230337D01*
X0021542Y0230473D01*
X0021583Y0230608D01*
X0021628Y0230742D01*
X0021677Y0230874D01*
X0021729Y0231005D01*
X0021785Y0231134D01*
X0021845Y0231261D01*
X0021908Y0231387D01*
X0021974Y0231511D01*
X0022045Y0231634D01*
X0022118Y0231754D01*
X0022195Y0231872D01*
X0022275Y0231988D01*
X0022359Y0232101D01*
X0022445Y0232212D01*
X0022535Y0232321D01*
X0022628Y0232427D01*
X0022723Y0232530D01*
X0022822Y0232631D01*
X0022923Y0232729D01*
X0023027Y0232824D01*
X0023134Y0232916D01*
X0023243Y0233005D01*
X0023355Y0233090D01*
X0023469Y0233173D01*
X0023585Y0233253D01*
X0023704Y0233329D01*
X0023825Y0233401D01*
X0023947Y0233471D01*
X0024072Y0233536D01*
X0024198Y0233599D01*
X0024326Y0233657D01*
X0024456Y0233712D01*
X0024587Y0233764D01*
X0024720Y0233811D01*
X0024854Y0233855D01*
X0024989Y0233896D01*
X0025125Y0233932D01*
X0025262Y0233964D01*
X0025400Y0233993D01*
X0025538Y0234018D01*
X0025678Y0234038D01*
X0025818Y0234055D01*
X0025958Y0234068D01*
X0026099Y0234077D01*
X0026239Y0234082D01*
X0026380Y0234083D01*
X0026521Y0234080D01*
X0026662Y0234073D01*
X0026802Y0234062D01*
X0026942Y0234047D01*
X0027082Y0234028D01*
X0027221Y0234006D01*
X0027359Y0233979D01*
X0027497Y0233949D01*
X0027633Y0233914D01*
X0027769Y0233876D01*
X0027903Y0233834D01*
X0028037Y0233788D01*
X0028169Y0233739D01*
X0028299Y0233685D01*
X0028428Y0233628D01*
X0028555Y0233568D01*
X0028681Y0233504D01*
X0028804Y0233436D01*
X0028926Y0233365D01*
X0029046Y0233291D01*
X0029163Y0233213D01*
X0029278Y0233132D01*
X0029391Y0233048D01*
X0029502Y0232961D01*
X0029610Y0232870D01*
X0029715Y0232777D01*
X0029818Y0232680D01*
X0029918Y0232581D01*
X0030015Y0232479D01*
X0030109Y0232374D01*
X0030200Y0232267D01*
X0030288Y0232157D01*
X0030373Y0232045D01*
X0030455Y0231930D01*
X0030534Y0231813D01*
X0030609Y0231694D01*
X0030681Y0231573D01*
X0030749Y0231450D01*
X0030814Y0231325D01*
X0030876Y0231198D01*
X0030933Y0231069D01*
X0030988Y0230939D01*
X0031038Y0230808D01*
X0031085Y0230675D01*
X0031128Y0230541D01*
X0031167Y0230405D01*
X0031202Y0230269D01*
X0031234Y0230132D01*
X0031261Y0229994D01*
X0031285Y0229855D01*
X0031305Y0229715D01*
X0031321Y0229575D01*
X0031333Y0229435D01*
X0031341Y0229294D01*
X0031345Y0229153D01*
X0031345Y0229013D01*
X0031341Y0228872D01*
X0031333Y0228731D01*
X0031321Y0228591D01*
X0031305Y0228451D01*
X0031285Y0228311D01*
X0031261Y0228172D01*
X0031234Y0228034D01*
X0031202Y0227897D01*
X0031167Y0227761D01*
X0031128Y0227625D01*
X0031085Y0227491D01*
X0031038Y0227358D01*
X0030988Y0227227D01*
X0030933Y0227097D01*
X0030876Y0226968D01*
X0030814Y0226841D01*
X0030749Y0226716D01*
X0030681Y0226593D01*
X0030609Y0226472D01*
X0030534Y0226353D01*
X0030455Y0226236D01*
X0030373Y0226121D01*
X0030288Y0226009D01*
X0030200Y0225899D01*
X0030109Y0225792D01*
X0030015Y0225687D01*
X0029918Y0225585D01*
X0029818Y0225486D01*
X0029715Y0225389D01*
X0029610Y0225296D01*
X0029502Y0225205D01*
X0029391Y0225118D01*
X0029278Y0225034D01*
X0029163Y0224953D01*
X0029046Y0224875D01*
X0028926Y0224801D01*
X0028804Y0224730D01*
X0028681Y0224662D01*
X0028555Y0224598D01*
X0028428Y0224538D01*
X0028299Y0224481D01*
X0028169Y0224427D01*
X0028037Y0224378D01*
X0027903Y0224332D01*
X0027769Y0224290D01*
X0027633Y0224252D01*
X0027497Y0224217D01*
X0027359Y0224187D01*
X0027221Y0224160D01*
X0027082Y0224138D01*
X0026942Y0224119D01*
X0026802Y0224104D01*
X0026662Y0224093D01*
X0026521Y0224086D01*
X0026380Y0224083D01*
X0026239Y0224084D01*
X0026099Y0224089D01*
X0025958Y0224098D01*
X0025818Y0224111D01*
X0025678Y0224128D01*
X0025538Y0224148D01*
X0025400Y0224173D01*
X0025262Y0224202D01*
X0025125Y0224234D01*
X0024989Y0224270D01*
X0024854Y0224311D01*
X0024720Y0224355D01*
X0024587Y0224402D01*
X0024456Y0224454D01*
X0024326Y0224509D01*
X0024198Y0224567D01*
X0024072Y0224630D01*
X0023947Y0224695D01*
X0023825Y0224765D01*
X0023704Y0224837D01*
X0023585Y0224913D01*
X0023469Y0224993D01*
X0023355Y0225076D01*
X0023243Y0225161D01*
X0023134Y0225250D01*
X0023027Y0225342D01*
X0022923Y0225437D01*
X0022822Y0225535D01*
X0022723Y0225636D01*
X0022628Y0225739D01*
X0022535Y0225845D01*
X0022445Y0225954D01*
X0022359Y0226065D01*
X0022275Y0226178D01*
X0022195Y0226294D01*
X0022118Y0226412D01*
X0022045Y0226532D01*
X0021974Y0226655D01*
X0021908Y0226779D01*
X0021845Y0226905D01*
X0021785Y0227032D01*
X0021729Y0227161D01*
X0021677Y0227292D01*
X0021628Y0227424D01*
X0021583Y0227558D01*
X0021542Y0227693D01*
X0021505Y0227829D01*
X0021471Y0227965D01*
X0021442Y0228103D01*
X0021416Y0228242D01*
X0021395Y0228381D01*
X0021377Y0228521D01*
X0021363Y0228661D01*
X0021353Y0228801D01*
X0021347Y0228942D01*
X0021345Y0229083D01*
X0031345Y0219083D02*
X0031347Y0219224D01*
X0031353Y0219365D01*
X0031363Y0219505D01*
X0031377Y0219645D01*
X0031395Y0219785D01*
X0031416Y0219924D01*
X0031442Y0220063D01*
X0031471Y0220201D01*
X0031505Y0220337D01*
X0031542Y0220473D01*
X0031583Y0220608D01*
X0031628Y0220742D01*
X0031677Y0220874D01*
X0031729Y0221005D01*
X0031785Y0221134D01*
X0031845Y0221261D01*
X0031908Y0221387D01*
X0031974Y0221511D01*
X0032045Y0221634D01*
X0032118Y0221754D01*
X0032195Y0221872D01*
X0032275Y0221988D01*
X0032359Y0222101D01*
X0032445Y0222212D01*
X0032535Y0222321D01*
X0032628Y0222427D01*
X0032723Y0222530D01*
X0032822Y0222631D01*
X0032923Y0222729D01*
X0033027Y0222824D01*
X0033134Y0222916D01*
X0033243Y0223005D01*
X0033355Y0223090D01*
X0033469Y0223173D01*
X0033585Y0223253D01*
X0033704Y0223329D01*
X0033825Y0223401D01*
X0033947Y0223471D01*
X0034072Y0223536D01*
X0034198Y0223599D01*
X0034326Y0223657D01*
X0034456Y0223712D01*
X0034587Y0223764D01*
X0034720Y0223811D01*
X0034854Y0223855D01*
X0034989Y0223896D01*
X0035125Y0223932D01*
X0035262Y0223964D01*
X0035400Y0223993D01*
X0035538Y0224018D01*
X0035678Y0224038D01*
X0035818Y0224055D01*
X0035958Y0224068D01*
X0036099Y0224077D01*
X0036239Y0224082D01*
X0036380Y0224083D01*
X0036521Y0224080D01*
X0036662Y0224073D01*
X0036802Y0224062D01*
X0036942Y0224047D01*
X0037082Y0224028D01*
X0037221Y0224006D01*
X0037359Y0223979D01*
X0037497Y0223949D01*
X0037633Y0223914D01*
X0037769Y0223876D01*
X0037903Y0223834D01*
X0038037Y0223788D01*
X0038169Y0223739D01*
X0038299Y0223685D01*
X0038428Y0223628D01*
X0038555Y0223568D01*
X0038681Y0223504D01*
X0038804Y0223436D01*
X0038926Y0223365D01*
X0039046Y0223291D01*
X0039163Y0223213D01*
X0039278Y0223132D01*
X0039391Y0223048D01*
X0039502Y0222961D01*
X0039610Y0222870D01*
X0039715Y0222777D01*
X0039818Y0222680D01*
X0039918Y0222581D01*
X0040015Y0222479D01*
X0040109Y0222374D01*
X0040200Y0222267D01*
X0040288Y0222157D01*
X0040373Y0222045D01*
X0040455Y0221930D01*
X0040534Y0221813D01*
X0040609Y0221694D01*
X0040681Y0221573D01*
X0040749Y0221450D01*
X0040814Y0221325D01*
X0040876Y0221198D01*
X0040933Y0221069D01*
X0040988Y0220939D01*
X0041038Y0220808D01*
X0041085Y0220675D01*
X0041128Y0220541D01*
X0041167Y0220405D01*
X0041202Y0220269D01*
X0041234Y0220132D01*
X0041261Y0219994D01*
X0041285Y0219855D01*
X0041305Y0219715D01*
X0041321Y0219575D01*
X0041333Y0219435D01*
X0041341Y0219294D01*
X0041345Y0219153D01*
X0041345Y0219013D01*
X0041341Y0218872D01*
X0041333Y0218731D01*
X0041321Y0218591D01*
X0041305Y0218451D01*
X0041285Y0218311D01*
X0041261Y0218172D01*
X0041234Y0218034D01*
X0041202Y0217897D01*
X0041167Y0217761D01*
X0041128Y0217625D01*
X0041085Y0217491D01*
X0041038Y0217358D01*
X0040988Y0217227D01*
X0040933Y0217097D01*
X0040876Y0216968D01*
X0040814Y0216841D01*
X0040749Y0216716D01*
X0040681Y0216593D01*
X0040609Y0216472D01*
X0040534Y0216353D01*
X0040455Y0216236D01*
X0040373Y0216121D01*
X0040288Y0216009D01*
X0040200Y0215899D01*
X0040109Y0215792D01*
X0040015Y0215687D01*
X0039918Y0215585D01*
X0039818Y0215486D01*
X0039715Y0215389D01*
X0039610Y0215296D01*
X0039502Y0215205D01*
X0039391Y0215118D01*
X0039278Y0215034D01*
X0039163Y0214953D01*
X0039046Y0214875D01*
X0038926Y0214801D01*
X0038804Y0214730D01*
X0038681Y0214662D01*
X0038555Y0214598D01*
X0038428Y0214538D01*
X0038299Y0214481D01*
X0038169Y0214427D01*
X0038037Y0214378D01*
X0037903Y0214332D01*
X0037769Y0214290D01*
X0037633Y0214252D01*
X0037497Y0214217D01*
X0037359Y0214187D01*
X0037221Y0214160D01*
X0037082Y0214138D01*
X0036942Y0214119D01*
X0036802Y0214104D01*
X0036662Y0214093D01*
X0036521Y0214086D01*
X0036380Y0214083D01*
X0036239Y0214084D01*
X0036099Y0214089D01*
X0035958Y0214098D01*
X0035818Y0214111D01*
X0035678Y0214128D01*
X0035538Y0214148D01*
X0035400Y0214173D01*
X0035262Y0214202D01*
X0035125Y0214234D01*
X0034989Y0214270D01*
X0034854Y0214311D01*
X0034720Y0214355D01*
X0034587Y0214402D01*
X0034456Y0214454D01*
X0034326Y0214509D01*
X0034198Y0214567D01*
X0034072Y0214630D01*
X0033947Y0214695D01*
X0033825Y0214765D01*
X0033704Y0214837D01*
X0033585Y0214913D01*
X0033469Y0214993D01*
X0033355Y0215076D01*
X0033243Y0215161D01*
X0033134Y0215250D01*
X0033027Y0215342D01*
X0032923Y0215437D01*
X0032822Y0215535D01*
X0032723Y0215636D01*
X0032628Y0215739D01*
X0032535Y0215845D01*
X0032445Y0215954D01*
X0032359Y0216065D01*
X0032275Y0216178D01*
X0032195Y0216294D01*
X0032118Y0216412D01*
X0032045Y0216532D01*
X0031974Y0216655D01*
X0031908Y0216779D01*
X0031845Y0216905D01*
X0031785Y0217032D01*
X0031729Y0217161D01*
X0031677Y0217292D01*
X0031628Y0217424D01*
X0031583Y0217558D01*
X0031542Y0217693D01*
X0031505Y0217829D01*
X0031471Y0217965D01*
X0031442Y0218103D01*
X0031416Y0218242D01*
X0031395Y0218381D01*
X0031377Y0218521D01*
X0031363Y0218661D01*
X0031353Y0218801D01*
X0031347Y0218942D01*
X0031345Y0219083D01*
X0021345Y0164083D02*
X0021347Y0164224D01*
X0021353Y0164365D01*
X0021363Y0164505D01*
X0021377Y0164645D01*
X0021395Y0164785D01*
X0021416Y0164924D01*
X0021442Y0165063D01*
X0021471Y0165201D01*
X0021505Y0165337D01*
X0021542Y0165473D01*
X0021583Y0165608D01*
X0021628Y0165742D01*
X0021677Y0165874D01*
X0021729Y0166005D01*
X0021785Y0166134D01*
X0021845Y0166261D01*
X0021908Y0166387D01*
X0021974Y0166511D01*
X0022045Y0166634D01*
X0022118Y0166754D01*
X0022195Y0166872D01*
X0022275Y0166988D01*
X0022359Y0167101D01*
X0022445Y0167212D01*
X0022535Y0167321D01*
X0022628Y0167427D01*
X0022723Y0167530D01*
X0022822Y0167631D01*
X0022923Y0167729D01*
X0023027Y0167824D01*
X0023134Y0167916D01*
X0023243Y0168005D01*
X0023355Y0168090D01*
X0023469Y0168173D01*
X0023585Y0168253D01*
X0023704Y0168329D01*
X0023825Y0168401D01*
X0023947Y0168471D01*
X0024072Y0168536D01*
X0024198Y0168599D01*
X0024326Y0168657D01*
X0024456Y0168712D01*
X0024587Y0168764D01*
X0024720Y0168811D01*
X0024854Y0168855D01*
X0024989Y0168896D01*
X0025125Y0168932D01*
X0025262Y0168964D01*
X0025400Y0168993D01*
X0025538Y0169018D01*
X0025678Y0169038D01*
X0025818Y0169055D01*
X0025958Y0169068D01*
X0026099Y0169077D01*
X0026239Y0169082D01*
X0026380Y0169083D01*
X0026521Y0169080D01*
X0026662Y0169073D01*
X0026802Y0169062D01*
X0026942Y0169047D01*
X0027082Y0169028D01*
X0027221Y0169006D01*
X0027359Y0168979D01*
X0027497Y0168949D01*
X0027633Y0168914D01*
X0027769Y0168876D01*
X0027903Y0168834D01*
X0028037Y0168788D01*
X0028169Y0168739D01*
X0028299Y0168685D01*
X0028428Y0168628D01*
X0028555Y0168568D01*
X0028681Y0168504D01*
X0028804Y0168436D01*
X0028926Y0168365D01*
X0029046Y0168291D01*
X0029163Y0168213D01*
X0029278Y0168132D01*
X0029391Y0168048D01*
X0029502Y0167961D01*
X0029610Y0167870D01*
X0029715Y0167777D01*
X0029818Y0167680D01*
X0029918Y0167581D01*
X0030015Y0167479D01*
X0030109Y0167374D01*
X0030200Y0167267D01*
X0030288Y0167157D01*
X0030373Y0167045D01*
X0030455Y0166930D01*
X0030534Y0166813D01*
X0030609Y0166694D01*
X0030681Y0166573D01*
X0030749Y0166450D01*
X0030814Y0166325D01*
X0030876Y0166198D01*
X0030933Y0166069D01*
X0030988Y0165939D01*
X0031038Y0165808D01*
X0031085Y0165675D01*
X0031128Y0165541D01*
X0031167Y0165405D01*
X0031202Y0165269D01*
X0031234Y0165132D01*
X0031261Y0164994D01*
X0031285Y0164855D01*
X0031305Y0164715D01*
X0031321Y0164575D01*
X0031333Y0164435D01*
X0031341Y0164294D01*
X0031345Y0164153D01*
X0031345Y0164013D01*
X0031341Y0163872D01*
X0031333Y0163731D01*
X0031321Y0163591D01*
X0031305Y0163451D01*
X0031285Y0163311D01*
X0031261Y0163172D01*
X0031234Y0163034D01*
X0031202Y0162897D01*
X0031167Y0162761D01*
X0031128Y0162625D01*
X0031085Y0162491D01*
X0031038Y0162358D01*
X0030988Y0162227D01*
X0030933Y0162097D01*
X0030876Y0161968D01*
X0030814Y0161841D01*
X0030749Y0161716D01*
X0030681Y0161593D01*
X0030609Y0161472D01*
X0030534Y0161353D01*
X0030455Y0161236D01*
X0030373Y0161121D01*
X0030288Y0161009D01*
X0030200Y0160899D01*
X0030109Y0160792D01*
X0030015Y0160687D01*
X0029918Y0160585D01*
X0029818Y0160486D01*
X0029715Y0160389D01*
X0029610Y0160296D01*
X0029502Y0160205D01*
X0029391Y0160118D01*
X0029278Y0160034D01*
X0029163Y0159953D01*
X0029046Y0159875D01*
X0028926Y0159801D01*
X0028804Y0159730D01*
X0028681Y0159662D01*
X0028555Y0159598D01*
X0028428Y0159538D01*
X0028299Y0159481D01*
X0028169Y0159427D01*
X0028037Y0159378D01*
X0027903Y0159332D01*
X0027769Y0159290D01*
X0027633Y0159252D01*
X0027497Y0159217D01*
X0027359Y0159187D01*
X0027221Y0159160D01*
X0027082Y0159138D01*
X0026942Y0159119D01*
X0026802Y0159104D01*
X0026662Y0159093D01*
X0026521Y0159086D01*
X0026380Y0159083D01*
X0026239Y0159084D01*
X0026099Y0159089D01*
X0025958Y0159098D01*
X0025818Y0159111D01*
X0025678Y0159128D01*
X0025538Y0159148D01*
X0025400Y0159173D01*
X0025262Y0159202D01*
X0025125Y0159234D01*
X0024989Y0159270D01*
X0024854Y0159311D01*
X0024720Y0159355D01*
X0024587Y0159402D01*
X0024456Y0159454D01*
X0024326Y0159509D01*
X0024198Y0159567D01*
X0024072Y0159630D01*
X0023947Y0159695D01*
X0023825Y0159765D01*
X0023704Y0159837D01*
X0023585Y0159913D01*
X0023469Y0159993D01*
X0023355Y0160076D01*
X0023243Y0160161D01*
X0023134Y0160250D01*
X0023027Y0160342D01*
X0022923Y0160437D01*
X0022822Y0160535D01*
X0022723Y0160636D01*
X0022628Y0160739D01*
X0022535Y0160845D01*
X0022445Y0160954D01*
X0022359Y0161065D01*
X0022275Y0161178D01*
X0022195Y0161294D01*
X0022118Y0161412D01*
X0022045Y0161532D01*
X0021974Y0161655D01*
X0021908Y0161779D01*
X0021845Y0161905D01*
X0021785Y0162032D01*
X0021729Y0162161D01*
X0021677Y0162292D01*
X0021628Y0162424D01*
X0021583Y0162558D01*
X0021542Y0162693D01*
X0021505Y0162829D01*
X0021471Y0162965D01*
X0021442Y0163103D01*
X0021416Y0163242D01*
X0021395Y0163381D01*
X0021377Y0163521D01*
X0021363Y0163661D01*
X0021353Y0163801D01*
X0021347Y0163942D01*
X0021345Y0164083D01*
X0031345Y0154083D02*
X0031347Y0154224D01*
X0031353Y0154365D01*
X0031363Y0154505D01*
X0031377Y0154645D01*
X0031395Y0154785D01*
X0031416Y0154924D01*
X0031442Y0155063D01*
X0031471Y0155201D01*
X0031505Y0155337D01*
X0031542Y0155473D01*
X0031583Y0155608D01*
X0031628Y0155742D01*
X0031677Y0155874D01*
X0031729Y0156005D01*
X0031785Y0156134D01*
X0031845Y0156261D01*
X0031908Y0156387D01*
X0031974Y0156511D01*
X0032045Y0156634D01*
X0032118Y0156754D01*
X0032195Y0156872D01*
X0032275Y0156988D01*
X0032359Y0157101D01*
X0032445Y0157212D01*
X0032535Y0157321D01*
X0032628Y0157427D01*
X0032723Y0157530D01*
X0032822Y0157631D01*
X0032923Y0157729D01*
X0033027Y0157824D01*
X0033134Y0157916D01*
X0033243Y0158005D01*
X0033355Y0158090D01*
X0033469Y0158173D01*
X0033585Y0158253D01*
X0033704Y0158329D01*
X0033825Y0158401D01*
X0033947Y0158471D01*
X0034072Y0158536D01*
X0034198Y0158599D01*
X0034326Y0158657D01*
X0034456Y0158712D01*
X0034587Y0158764D01*
X0034720Y0158811D01*
X0034854Y0158855D01*
X0034989Y0158896D01*
X0035125Y0158932D01*
X0035262Y0158964D01*
X0035400Y0158993D01*
X0035538Y0159018D01*
X0035678Y0159038D01*
X0035818Y0159055D01*
X0035958Y0159068D01*
X0036099Y0159077D01*
X0036239Y0159082D01*
X0036380Y0159083D01*
X0036521Y0159080D01*
X0036662Y0159073D01*
X0036802Y0159062D01*
X0036942Y0159047D01*
X0037082Y0159028D01*
X0037221Y0159006D01*
X0037359Y0158979D01*
X0037497Y0158949D01*
X0037633Y0158914D01*
X0037769Y0158876D01*
X0037903Y0158834D01*
X0038037Y0158788D01*
X0038169Y0158739D01*
X0038299Y0158685D01*
X0038428Y0158628D01*
X0038555Y0158568D01*
X0038681Y0158504D01*
X0038804Y0158436D01*
X0038926Y0158365D01*
X0039046Y0158291D01*
X0039163Y0158213D01*
X0039278Y0158132D01*
X0039391Y0158048D01*
X0039502Y0157961D01*
X0039610Y0157870D01*
X0039715Y0157777D01*
X0039818Y0157680D01*
X0039918Y0157581D01*
X0040015Y0157479D01*
X0040109Y0157374D01*
X0040200Y0157267D01*
X0040288Y0157157D01*
X0040373Y0157045D01*
X0040455Y0156930D01*
X0040534Y0156813D01*
X0040609Y0156694D01*
X0040681Y0156573D01*
X0040749Y0156450D01*
X0040814Y0156325D01*
X0040876Y0156198D01*
X0040933Y0156069D01*
X0040988Y0155939D01*
X0041038Y0155808D01*
X0041085Y0155675D01*
X0041128Y0155541D01*
X0041167Y0155405D01*
X0041202Y0155269D01*
X0041234Y0155132D01*
X0041261Y0154994D01*
X0041285Y0154855D01*
X0041305Y0154715D01*
X0041321Y0154575D01*
X0041333Y0154435D01*
X0041341Y0154294D01*
X0041345Y0154153D01*
X0041345Y0154013D01*
X0041341Y0153872D01*
X0041333Y0153731D01*
X0041321Y0153591D01*
X0041305Y0153451D01*
X0041285Y0153311D01*
X0041261Y0153172D01*
X0041234Y0153034D01*
X0041202Y0152897D01*
X0041167Y0152761D01*
X0041128Y0152625D01*
X0041085Y0152491D01*
X0041038Y0152358D01*
X0040988Y0152227D01*
X0040933Y0152097D01*
X0040876Y0151968D01*
X0040814Y0151841D01*
X0040749Y0151716D01*
X0040681Y0151593D01*
X0040609Y0151472D01*
X0040534Y0151353D01*
X0040455Y0151236D01*
X0040373Y0151121D01*
X0040288Y0151009D01*
X0040200Y0150899D01*
X0040109Y0150792D01*
X0040015Y0150687D01*
X0039918Y0150585D01*
X0039818Y0150486D01*
X0039715Y0150389D01*
X0039610Y0150296D01*
X0039502Y0150205D01*
X0039391Y0150118D01*
X0039278Y0150034D01*
X0039163Y0149953D01*
X0039046Y0149875D01*
X0038926Y0149801D01*
X0038804Y0149730D01*
X0038681Y0149662D01*
X0038555Y0149598D01*
X0038428Y0149538D01*
X0038299Y0149481D01*
X0038169Y0149427D01*
X0038037Y0149378D01*
X0037903Y0149332D01*
X0037769Y0149290D01*
X0037633Y0149252D01*
X0037497Y0149217D01*
X0037359Y0149187D01*
X0037221Y0149160D01*
X0037082Y0149138D01*
X0036942Y0149119D01*
X0036802Y0149104D01*
X0036662Y0149093D01*
X0036521Y0149086D01*
X0036380Y0149083D01*
X0036239Y0149084D01*
X0036099Y0149089D01*
X0035958Y0149098D01*
X0035818Y0149111D01*
X0035678Y0149128D01*
X0035538Y0149148D01*
X0035400Y0149173D01*
X0035262Y0149202D01*
X0035125Y0149234D01*
X0034989Y0149270D01*
X0034854Y0149311D01*
X0034720Y0149355D01*
X0034587Y0149402D01*
X0034456Y0149454D01*
X0034326Y0149509D01*
X0034198Y0149567D01*
X0034072Y0149630D01*
X0033947Y0149695D01*
X0033825Y0149765D01*
X0033704Y0149837D01*
X0033585Y0149913D01*
X0033469Y0149993D01*
X0033355Y0150076D01*
X0033243Y0150161D01*
X0033134Y0150250D01*
X0033027Y0150342D01*
X0032923Y0150437D01*
X0032822Y0150535D01*
X0032723Y0150636D01*
X0032628Y0150739D01*
X0032535Y0150845D01*
X0032445Y0150954D01*
X0032359Y0151065D01*
X0032275Y0151178D01*
X0032195Y0151294D01*
X0032118Y0151412D01*
X0032045Y0151532D01*
X0031974Y0151655D01*
X0031908Y0151779D01*
X0031845Y0151905D01*
X0031785Y0152032D01*
X0031729Y0152161D01*
X0031677Y0152292D01*
X0031628Y0152424D01*
X0031583Y0152558D01*
X0031542Y0152693D01*
X0031505Y0152829D01*
X0031471Y0152965D01*
X0031442Y0153103D01*
X0031416Y0153242D01*
X0031395Y0153381D01*
X0031377Y0153521D01*
X0031363Y0153661D01*
X0031353Y0153801D01*
X0031347Y0153942D01*
X0031345Y0154083D01*
X0032595Y0149083D02*
X0031345Y0147833D01*
X0031345Y0140333D01*
X0032595Y0139083D01*
X0031345Y0137833D01*
X0031345Y0130333D01*
X0032595Y0129083D01*
X0031345Y0127833D01*
X0031345Y0120333D01*
X0032595Y0119083D01*
X0040095Y0119083D01*
X0041345Y0120333D01*
X0041345Y0127833D01*
X0040095Y0129083D01*
X0041345Y0130333D01*
X0041345Y0137833D01*
X0040095Y0139083D01*
X0041345Y0140333D01*
X0041345Y0147833D01*
X0040095Y0149083D01*
X0032595Y0149083D01*
X0052470Y0137458D02*
X0052470Y0130708D01*
X0052472Y0130648D01*
X0052477Y0130587D01*
X0052486Y0130528D01*
X0052499Y0130469D01*
X0052515Y0130410D01*
X0052535Y0130353D01*
X0052558Y0130298D01*
X0052585Y0130243D01*
X0052614Y0130191D01*
X0052647Y0130140D01*
X0052683Y0130091D01*
X0052721Y0130045D01*
X0052763Y0130001D01*
X0052807Y0129959D01*
X0052853Y0129921D01*
X0052902Y0129885D01*
X0052953Y0129852D01*
X0053005Y0129823D01*
X0053060Y0129796D01*
X0053115Y0129773D01*
X0053172Y0129753D01*
X0053231Y0129737D01*
X0053290Y0129724D01*
X0053349Y0129715D01*
X0053410Y0129710D01*
X0053470Y0129708D01*
X0069220Y0129708D01*
X0069280Y0129710D01*
X0069341Y0129715D01*
X0069400Y0129724D01*
X0069459Y0129737D01*
X0069518Y0129753D01*
X0069575Y0129773D01*
X0069630Y0129796D01*
X0069685Y0129823D01*
X0069737Y0129852D01*
X0069788Y0129885D01*
X0069837Y0129921D01*
X0069883Y0129959D01*
X0069927Y0130001D01*
X0069969Y0130045D01*
X0070007Y0130091D01*
X0070043Y0130140D01*
X0070076Y0130191D01*
X0070105Y0130243D01*
X0070132Y0130298D01*
X0070155Y0130353D01*
X0070175Y0130410D01*
X0070191Y0130469D01*
X0070204Y0130528D01*
X0070213Y0130587D01*
X0070218Y0130648D01*
X0070220Y0130708D01*
X0070220Y0137458D01*
X0070218Y0137518D01*
X0070213Y0137579D01*
X0070204Y0137638D01*
X0070191Y0137697D01*
X0070175Y0137756D01*
X0070155Y0137813D01*
X0070132Y0137868D01*
X0070105Y0137923D01*
X0070076Y0137975D01*
X0070043Y0138026D01*
X0070007Y0138075D01*
X0069969Y0138121D01*
X0069927Y0138165D01*
X0069883Y0138207D01*
X0069837Y0138245D01*
X0069788Y0138281D01*
X0069737Y0138314D01*
X0069685Y0138343D01*
X0069630Y0138370D01*
X0069575Y0138393D01*
X0069518Y0138413D01*
X0069459Y0138429D01*
X0069400Y0138442D01*
X0069341Y0138451D01*
X0069280Y0138456D01*
X0069220Y0138458D01*
X0053470Y0138458D01*
X0053410Y0138456D01*
X0053349Y0138451D01*
X0053290Y0138442D01*
X0053231Y0138429D01*
X0053172Y0138413D01*
X0053115Y0138393D01*
X0053060Y0138370D01*
X0053005Y0138343D01*
X0052953Y0138314D01*
X0052902Y0138281D01*
X0052853Y0138245D01*
X0052807Y0138207D01*
X0052763Y0138165D01*
X0052721Y0138121D01*
X0052683Y0138075D01*
X0052647Y0138026D01*
X0052614Y0137975D01*
X0052585Y0137923D01*
X0052558Y0137868D01*
X0052535Y0137813D01*
X0052515Y0137756D01*
X0052499Y0137697D01*
X0052486Y0137638D01*
X0052477Y0137579D01*
X0052472Y0137518D01*
X0052470Y0137458D01*
X0059845Y0134083D02*
X0060345Y0134083D01*
X0062345Y0134083D02*
X0062845Y0134083D01*
X0051345Y0095583D02*
X0051345Y0088083D01*
X0051471Y0088081D01*
X0051596Y0088075D01*
X0051721Y0088065D01*
X0051846Y0088051D01*
X0051971Y0088034D01*
X0052095Y0088012D01*
X0052218Y0087987D01*
X0052340Y0087957D01*
X0052461Y0087924D01*
X0052581Y0087887D01*
X0052700Y0087847D01*
X0052817Y0087802D01*
X0052934Y0087754D01*
X0053048Y0087702D01*
X0053161Y0087647D01*
X0053272Y0087588D01*
X0053381Y0087526D01*
X0053488Y0087460D01*
X0053593Y0087391D01*
X0053696Y0087319D01*
X0053797Y0087244D01*
X0053895Y0087165D01*
X0053990Y0087083D01*
X0054083Y0086999D01*
X0054173Y0086911D01*
X0054261Y0086821D01*
X0054345Y0086728D01*
X0054427Y0086633D01*
X0054506Y0086535D01*
X0054581Y0086434D01*
X0054653Y0086331D01*
X0054722Y0086226D01*
X0054788Y0086119D01*
X0054850Y0086010D01*
X0054909Y0085899D01*
X0054964Y0085786D01*
X0055016Y0085672D01*
X0055064Y0085555D01*
X0055109Y0085438D01*
X0055149Y0085319D01*
X0055186Y0085199D01*
X0055219Y0085078D01*
X0055249Y0084956D01*
X0055274Y0084833D01*
X0055296Y0084709D01*
X0055313Y0084584D01*
X0055327Y0084459D01*
X0055337Y0084334D01*
X0055343Y0084209D01*
X0055345Y0084083D01*
X0055343Y0083957D01*
X0055337Y0083832D01*
X0055327Y0083707D01*
X0055313Y0083582D01*
X0055296Y0083457D01*
X0055274Y0083333D01*
X0055249Y0083210D01*
X0055219Y0083088D01*
X0055186Y0082967D01*
X0055149Y0082847D01*
X0055109Y0082728D01*
X0055064Y0082611D01*
X0055016Y0082494D01*
X0054964Y0082380D01*
X0054909Y0082267D01*
X0054850Y0082156D01*
X0054788Y0082047D01*
X0054722Y0081940D01*
X0054653Y0081835D01*
X0054581Y0081732D01*
X0054506Y0081631D01*
X0054427Y0081533D01*
X0054345Y0081438D01*
X0054261Y0081345D01*
X0054173Y0081255D01*
X0054083Y0081167D01*
X0053990Y0081083D01*
X0053895Y0081001D01*
X0053797Y0080922D01*
X0053696Y0080847D01*
X0053593Y0080775D01*
X0053488Y0080706D01*
X0053381Y0080640D01*
X0053272Y0080578D01*
X0053161Y0080519D01*
X0053048Y0080464D01*
X0052934Y0080412D01*
X0052817Y0080364D01*
X0052700Y0080319D01*
X0052581Y0080279D01*
X0052461Y0080242D01*
X0052340Y0080209D01*
X0052218Y0080179D01*
X0052095Y0080154D01*
X0051971Y0080132D01*
X0051846Y0080115D01*
X0051721Y0080101D01*
X0051596Y0080091D01*
X0051471Y0080085D01*
X0051345Y0080083D01*
X0051345Y0072583D01*
X0131345Y0072583D01*
X0131345Y0095583D01*
X0051345Y0095583D01*
X0027595Y0078083D02*
X0026595Y0079083D01*
X0018595Y0079083D01*
X0017595Y0078083D01*
X0017595Y0070083D01*
X0018595Y0069083D01*
X0017595Y0068083D01*
X0017595Y0060083D01*
X0018595Y0059083D01*
X0026595Y0059083D01*
X0027595Y0060083D01*
X0027595Y0068083D01*
X0026595Y0069083D01*
X0027595Y0070083D01*
X0027595Y0078083D01*
D14*
X0030345Y0154083D02*
X0032345Y0154083D01*
X0032345Y0164083D02*
X0030345Y0164083D01*
X0026345Y0223083D02*
X0026345Y0225083D01*
X0036345Y0225083D02*
X0036345Y0223083D01*
X0046345Y0225583D02*
X0046345Y0227583D01*
X0310345Y0244083D02*
X0312345Y0244083D01*
X0330345Y0244083D02*
X0332345Y0244083D01*
X0390345Y0244083D02*
X0392345Y0244083D01*
X0410345Y0244083D02*
X0412345Y0244083D01*
D15*
X0372345Y0244083D02*
X0372345Y0241083D01*
X0370345Y0241083D02*
X0370345Y0244083D01*
X0370345Y0247083D01*
X0372345Y0247083D02*
X0372345Y0244083D01*
X0352345Y0244083D02*
X0352345Y0241083D01*
X0350345Y0241083D02*
X0350345Y0244083D01*
X0350345Y0247083D01*
X0352345Y0247083D02*
X0352345Y0244083D01*
X0219345Y0220083D02*
X0216345Y0220083D01*
X0213345Y0220083D01*
X0213345Y0218083D02*
X0216345Y0218083D01*
X0219345Y0218083D01*
X0219345Y0170083D02*
X0216345Y0170083D01*
X0213345Y0170083D01*
X0213345Y0168083D02*
X0216345Y0168083D01*
X0219345Y0168083D01*
X0142345Y0137083D02*
X0142345Y0134083D01*
X0142345Y0131083D01*
X0140345Y0131083D02*
X0140345Y0134083D01*
X0140345Y0137083D01*
X0102345Y0137083D02*
X0102345Y0134083D01*
X0102345Y0131083D01*
X0100345Y0131083D02*
X0100345Y0134083D01*
X0100345Y0137083D01*
X0062345Y0137083D02*
X0062345Y0134083D01*
X0062345Y0131083D01*
X0060345Y0131083D02*
X0060345Y0134083D01*
X0060345Y0137083D01*
X0025595Y0100083D02*
X0022595Y0100083D01*
X0019595Y0100083D01*
X0019595Y0098083D02*
X0022595Y0098083D01*
X0025595Y0098083D01*
X0230345Y0111083D02*
X0230345Y0114083D01*
X0230345Y0117083D01*
X0232345Y0117083D02*
X0232345Y0114083D01*
X0232345Y0111083D01*
X0419595Y0148083D02*
X0422595Y0148083D01*
X0425595Y0148083D01*
X0425595Y0150083D02*
X0422595Y0150083D01*
X0419595Y0150083D01*
D16*
X0384345Y0152833D03*
X0384345Y0142833D03*
D17*
X0405195Y0148300D02*
X0405562Y0147933D01*
X0405929Y0147933D01*
X0406296Y0148300D01*
X0406296Y0150135D01*
X0405929Y0150135D02*
X0406663Y0150135D01*
X0407405Y0150135D02*
X0407405Y0147933D01*
X0407405Y0148667D02*
X0408506Y0148667D01*
X0408873Y0149034D01*
X0408873Y0149768D01*
X0408506Y0150135D01*
X0407405Y0150135D01*
X0409615Y0149768D02*
X0409982Y0150135D01*
X0410716Y0150135D01*
X0411083Y0149768D01*
X0411083Y0149401D01*
X0410716Y0149034D01*
X0411083Y0148667D01*
X0411083Y0148300D01*
X0410716Y0147933D01*
X0409982Y0147933D01*
X0409615Y0148300D01*
X0410349Y0149034D02*
X0410716Y0149034D01*
M02*
